G04 #@! TF.GenerationSoftware,KiCad,Pcbnew,5.1.4-e60b266~84~ubuntu18.04.1*
G04 #@! TF.CreationDate,2019-09-26T20:27:51+08:00*
G04 #@! TF.ProjectId,head,68656164-2e6b-4696-9361-645f70636258,rev?*
G04 #@! TF.SameCoordinates,Original*
G04 #@! TF.FileFunction,Profile,NP*
%FSLAX46Y46*%
G04 Gerber Fmt 4.6, Leading zero omitted, Abs format (unit mm)*
G04 Created by KiCad (PCBNEW 5.1.4-e60b266~84~ubuntu18.04.1) date 2019-09-26 20:27:51*
%MOMM*%
%LPD*%
G04 APERTURE LIST*
%ADD10C,0.050000*%
G04 APERTURE END LIST*
D10*
X85090000Y-26670000D02*
X39370000Y-26670000D01*
X85090000Y-52070000D02*
X85090000Y-26670000D01*
X39370000Y-52070000D02*
X85090000Y-52070000D01*
X39370000Y-26670000D02*
X39370000Y-52070000D01*
X47817380Y-30334285D02*
X47817380Y-30905714D01*
X47817380Y-30620000D02*
X46817380Y-30620000D01*
X46960238Y-30715238D01*
X47055476Y-30810476D01*
X47103095Y-30905714D01*
X47817380Y-39859285D02*
X47817380Y-40430714D01*
X47817380Y-40145000D02*
X46817380Y-40145000D01*
X46960238Y-40240238D01*
X47055476Y-40335476D01*
X47103095Y-40430714D01*
X61105714Y-33847380D02*
X60534285Y-33847380D01*
X60820000Y-33847380D02*
X60820000Y-32847380D01*
X60724761Y-32990238D01*
X60629523Y-33085476D01*
X60534285Y-33133095D01*
X71265714Y-33847380D02*
X70694285Y-33847380D01*
X70980000Y-33847380D02*
X70980000Y-32847380D01*
X70884761Y-32990238D01*
X70789523Y-33085476D01*
X70694285Y-33133095D01*
X79402380Y-43084285D02*
X79402380Y-43655714D01*
X79402380Y-43370000D02*
X78402380Y-43370000D01*
X78545238Y-43465238D01*
X78640476Y-43560476D01*
X78688095Y-43655714D01*
M02*
