G04 #@! TF.GenerationSoftware,KiCad,Pcbnew,5.1.4-e60b266~84~ubuntu18.04.1*
G04 #@! TF.CreationDate,2019-09-26T20:27:51+08:00*
G04 #@! TF.ProjectId,head,68656164-2e6b-4696-9361-645f70636258,rev?*
G04 #@! TF.SameCoordinates,Original*
G04 #@! TF.FileFunction,Soldermask,Top*
G04 #@! TF.FilePolarity,Negative*
%FSLAX46Y46*%
G04 Gerber Fmt 4.6, Leading zero omitted, Abs format (unit mm)*
G04 Created by KiCad (PCBNEW 5.1.4-e60b266~84~ubuntu18.04.1) date 2019-09-26 20:27:51*
%MOMM*%
%LPD*%
G04 APERTURE LIST*
%ADD10C,1.200000*%
%ADD11C,0.100000*%
G04 APERTURE END LIST*
D10*
X84201000Y-49276000D02*
G75*
G03X84201000Y-49276000I-1905000J0D01*
G01*
X44069000Y-49276000D02*
G75*
G03X44069000Y-49276000I-1905000J0D01*
G01*
X44069000Y-29464000D02*
G75*
G03X44069000Y-29464000I-1905000J0D01*
G01*
X84201000Y-29464000D02*
G75*
G03X84201000Y-29464000I-1905000J0D01*
G01*
D11*
G36*
X83127313Y-46535523D02*
G01*
X83645980Y-46750362D01*
X83645981Y-46750363D01*
X84112769Y-47062260D01*
X84509740Y-47459231D01*
X84581411Y-47566495D01*
X84821638Y-47926020D01*
X85036477Y-48444687D01*
X85146000Y-48995298D01*
X85146000Y-49556702D01*
X85036477Y-50107313D01*
X84821638Y-50625980D01*
X84821637Y-50625981D01*
X84509740Y-51092769D01*
X84112769Y-51489740D01*
X83800871Y-51698143D01*
X83645980Y-51801638D01*
X83127313Y-52016477D01*
X82576702Y-52126000D01*
X82015298Y-52126000D01*
X81464687Y-52016477D01*
X80946020Y-51801638D01*
X80791129Y-51698143D01*
X80479231Y-51489740D01*
X80082260Y-51092769D01*
X79770363Y-50625981D01*
X79770362Y-50625980D01*
X79555523Y-50107313D01*
X79446000Y-49556702D01*
X79446000Y-48995298D01*
X79555523Y-48444687D01*
X79770362Y-47926020D01*
X80010589Y-47566495D01*
X80082260Y-47459231D01*
X80479231Y-47062260D01*
X80946019Y-46750363D01*
X80946020Y-46750362D01*
X81464687Y-46535523D01*
X82015298Y-46426000D01*
X82576702Y-46426000D01*
X83127313Y-46535523D01*
X83127313Y-46535523D01*
G37*
G36*
X42995313Y-46535523D02*
G01*
X43513980Y-46750362D01*
X43513981Y-46750363D01*
X43980769Y-47062260D01*
X44377740Y-47459231D01*
X44449411Y-47566495D01*
X44689638Y-47926020D01*
X44904477Y-48444687D01*
X45014000Y-48995298D01*
X45014000Y-49556702D01*
X44904477Y-50107313D01*
X44689638Y-50625980D01*
X44689637Y-50625981D01*
X44377740Y-51092769D01*
X43980769Y-51489740D01*
X43668871Y-51698143D01*
X43513980Y-51801638D01*
X42995313Y-52016477D01*
X42444702Y-52126000D01*
X41883298Y-52126000D01*
X41332687Y-52016477D01*
X40814020Y-51801638D01*
X40659129Y-51698143D01*
X40347231Y-51489740D01*
X39950260Y-51092769D01*
X39638363Y-50625981D01*
X39638362Y-50625980D01*
X39423523Y-50107313D01*
X39314000Y-49556702D01*
X39314000Y-48995298D01*
X39423523Y-48444687D01*
X39638362Y-47926020D01*
X39878589Y-47566495D01*
X39950260Y-47459231D01*
X40347231Y-47062260D01*
X40814019Y-46750363D01*
X40814020Y-46750362D01*
X41332687Y-46535523D01*
X41883298Y-46426000D01*
X42444702Y-46426000D01*
X42995313Y-46535523D01*
X42995313Y-46535523D01*
G37*
G36*
X72656000Y-50685000D02*
G01*
X70854000Y-50685000D01*
X70854000Y-48883000D01*
X72656000Y-48883000D01*
X72656000Y-50685000D01*
X72656000Y-50685000D01*
G37*
G36*
X49005443Y-48889519D02*
G01*
X49071627Y-48896037D01*
X49241466Y-48947557D01*
X49397991Y-49031222D01*
X49433729Y-49060552D01*
X49535186Y-49143814D01*
X49618448Y-49245271D01*
X49647778Y-49281009D01*
X49731443Y-49437534D01*
X49782963Y-49607373D01*
X49800359Y-49784000D01*
X49782963Y-49960627D01*
X49731443Y-50130466D01*
X49647778Y-50286991D01*
X49618448Y-50322729D01*
X49535186Y-50424186D01*
X49445242Y-50498000D01*
X49397991Y-50536778D01*
X49241466Y-50620443D01*
X49071627Y-50671963D01*
X49005443Y-50678481D01*
X48939260Y-50685000D01*
X48850740Y-50685000D01*
X48784557Y-50678481D01*
X48718373Y-50671963D01*
X48548534Y-50620443D01*
X48392009Y-50536778D01*
X48344758Y-50498000D01*
X48254814Y-50424186D01*
X48171552Y-50322729D01*
X48142222Y-50286991D01*
X48058557Y-50130466D01*
X48007037Y-49960627D01*
X47989641Y-49784000D01*
X48007037Y-49607373D01*
X48058557Y-49437534D01*
X48142222Y-49281009D01*
X48171552Y-49245271D01*
X48254814Y-49143814D01*
X48356271Y-49060552D01*
X48392009Y-49031222D01*
X48548534Y-48947557D01*
X48718373Y-48896037D01*
X48784557Y-48889519D01*
X48850740Y-48883000D01*
X48939260Y-48883000D01*
X49005443Y-48889519D01*
X49005443Y-48889519D01*
G37*
G36*
X51545443Y-48889519D02*
G01*
X51611627Y-48896037D01*
X51781466Y-48947557D01*
X51937991Y-49031222D01*
X51973729Y-49060552D01*
X52075186Y-49143814D01*
X52158448Y-49245271D01*
X52187778Y-49281009D01*
X52271443Y-49437534D01*
X52322963Y-49607373D01*
X52340359Y-49784000D01*
X52322963Y-49960627D01*
X52271443Y-50130466D01*
X52187778Y-50286991D01*
X52158448Y-50322729D01*
X52075186Y-50424186D01*
X51985242Y-50498000D01*
X51937991Y-50536778D01*
X51781466Y-50620443D01*
X51611627Y-50671963D01*
X51545443Y-50678481D01*
X51479260Y-50685000D01*
X51390740Y-50685000D01*
X51324557Y-50678481D01*
X51258373Y-50671963D01*
X51088534Y-50620443D01*
X50932009Y-50536778D01*
X50884758Y-50498000D01*
X50794814Y-50424186D01*
X50711552Y-50322729D01*
X50682222Y-50286991D01*
X50598557Y-50130466D01*
X50547037Y-49960627D01*
X50529641Y-49784000D01*
X50547037Y-49607373D01*
X50598557Y-49437534D01*
X50682222Y-49281009D01*
X50711552Y-49245271D01*
X50794814Y-49143814D01*
X50896271Y-49060552D01*
X50932009Y-49031222D01*
X51088534Y-48947557D01*
X51258373Y-48896037D01*
X51324557Y-48889519D01*
X51390740Y-48883000D01*
X51479260Y-48883000D01*
X51545443Y-48889519D01*
X51545443Y-48889519D01*
G37*
G36*
X54085443Y-48889519D02*
G01*
X54151627Y-48896037D01*
X54321466Y-48947557D01*
X54477991Y-49031222D01*
X54513729Y-49060552D01*
X54615186Y-49143814D01*
X54698448Y-49245271D01*
X54727778Y-49281009D01*
X54811443Y-49437534D01*
X54862963Y-49607373D01*
X54880359Y-49784000D01*
X54862963Y-49960627D01*
X54811443Y-50130466D01*
X54727778Y-50286991D01*
X54698448Y-50322729D01*
X54615186Y-50424186D01*
X54525242Y-50498000D01*
X54477991Y-50536778D01*
X54321466Y-50620443D01*
X54151627Y-50671963D01*
X54085443Y-50678481D01*
X54019260Y-50685000D01*
X53930740Y-50685000D01*
X53864557Y-50678481D01*
X53798373Y-50671963D01*
X53628534Y-50620443D01*
X53472009Y-50536778D01*
X53424758Y-50498000D01*
X53334814Y-50424186D01*
X53251552Y-50322729D01*
X53222222Y-50286991D01*
X53138557Y-50130466D01*
X53087037Y-49960627D01*
X53069641Y-49784000D01*
X53087037Y-49607373D01*
X53138557Y-49437534D01*
X53222222Y-49281009D01*
X53251552Y-49245271D01*
X53334814Y-49143814D01*
X53436271Y-49060552D01*
X53472009Y-49031222D01*
X53628534Y-48947557D01*
X53798373Y-48896037D01*
X53864557Y-48889519D01*
X53930740Y-48883000D01*
X54019260Y-48883000D01*
X54085443Y-48889519D01*
X54085443Y-48889519D01*
G37*
G36*
X56625443Y-48889519D02*
G01*
X56691627Y-48896037D01*
X56861466Y-48947557D01*
X57017991Y-49031222D01*
X57053729Y-49060552D01*
X57155186Y-49143814D01*
X57238448Y-49245271D01*
X57267778Y-49281009D01*
X57351443Y-49437534D01*
X57402963Y-49607373D01*
X57420359Y-49784000D01*
X57402963Y-49960627D01*
X57351443Y-50130466D01*
X57267778Y-50286991D01*
X57238448Y-50322729D01*
X57155186Y-50424186D01*
X57065242Y-50498000D01*
X57017991Y-50536778D01*
X56861466Y-50620443D01*
X56691627Y-50671963D01*
X56625443Y-50678481D01*
X56559260Y-50685000D01*
X56470740Y-50685000D01*
X56404557Y-50678481D01*
X56338373Y-50671963D01*
X56168534Y-50620443D01*
X56012009Y-50536778D01*
X55964758Y-50498000D01*
X55874814Y-50424186D01*
X55791552Y-50322729D01*
X55762222Y-50286991D01*
X55678557Y-50130466D01*
X55627037Y-49960627D01*
X55609641Y-49784000D01*
X55627037Y-49607373D01*
X55678557Y-49437534D01*
X55762222Y-49281009D01*
X55791552Y-49245271D01*
X55874814Y-49143814D01*
X55976271Y-49060552D01*
X56012009Y-49031222D01*
X56168534Y-48947557D01*
X56338373Y-48896037D01*
X56404557Y-48889519D01*
X56470740Y-48883000D01*
X56559260Y-48883000D01*
X56625443Y-48889519D01*
X56625443Y-48889519D01*
G37*
G36*
X59165443Y-48889519D02*
G01*
X59231627Y-48896037D01*
X59401466Y-48947557D01*
X59557991Y-49031222D01*
X59593729Y-49060552D01*
X59695186Y-49143814D01*
X59778448Y-49245271D01*
X59807778Y-49281009D01*
X59891443Y-49437534D01*
X59942963Y-49607373D01*
X59960359Y-49784000D01*
X59942963Y-49960627D01*
X59891443Y-50130466D01*
X59807778Y-50286991D01*
X59778448Y-50322729D01*
X59695186Y-50424186D01*
X59605242Y-50498000D01*
X59557991Y-50536778D01*
X59401466Y-50620443D01*
X59231627Y-50671963D01*
X59165443Y-50678481D01*
X59099260Y-50685000D01*
X59010740Y-50685000D01*
X58944557Y-50678481D01*
X58878373Y-50671963D01*
X58708534Y-50620443D01*
X58552009Y-50536778D01*
X58504758Y-50498000D01*
X58414814Y-50424186D01*
X58331552Y-50322729D01*
X58302222Y-50286991D01*
X58218557Y-50130466D01*
X58167037Y-49960627D01*
X58149641Y-49784000D01*
X58167037Y-49607373D01*
X58218557Y-49437534D01*
X58302222Y-49281009D01*
X58331552Y-49245271D01*
X58414814Y-49143814D01*
X58516271Y-49060552D01*
X58552009Y-49031222D01*
X58708534Y-48947557D01*
X58878373Y-48896037D01*
X58944557Y-48889519D01*
X59010740Y-48883000D01*
X59099260Y-48883000D01*
X59165443Y-48889519D01*
X59165443Y-48889519D01*
G37*
G36*
X61705443Y-48889519D02*
G01*
X61771627Y-48896037D01*
X61941466Y-48947557D01*
X62097991Y-49031222D01*
X62133729Y-49060552D01*
X62235186Y-49143814D01*
X62318448Y-49245271D01*
X62347778Y-49281009D01*
X62431443Y-49437534D01*
X62482963Y-49607373D01*
X62500359Y-49784000D01*
X62482963Y-49960627D01*
X62431443Y-50130466D01*
X62347778Y-50286991D01*
X62318448Y-50322729D01*
X62235186Y-50424186D01*
X62145242Y-50498000D01*
X62097991Y-50536778D01*
X61941466Y-50620443D01*
X61771627Y-50671963D01*
X61705443Y-50678481D01*
X61639260Y-50685000D01*
X61550740Y-50685000D01*
X61484557Y-50678481D01*
X61418373Y-50671963D01*
X61248534Y-50620443D01*
X61092009Y-50536778D01*
X61044758Y-50498000D01*
X60954814Y-50424186D01*
X60871552Y-50322729D01*
X60842222Y-50286991D01*
X60758557Y-50130466D01*
X60707037Y-49960627D01*
X60689641Y-49784000D01*
X60707037Y-49607373D01*
X60758557Y-49437534D01*
X60842222Y-49281009D01*
X60871552Y-49245271D01*
X60954814Y-49143814D01*
X61056271Y-49060552D01*
X61092009Y-49031222D01*
X61248534Y-48947557D01*
X61418373Y-48896037D01*
X61484557Y-48889519D01*
X61550740Y-48883000D01*
X61639260Y-48883000D01*
X61705443Y-48889519D01*
X61705443Y-48889519D01*
G37*
G36*
X64245443Y-48889519D02*
G01*
X64311627Y-48896037D01*
X64481466Y-48947557D01*
X64637991Y-49031222D01*
X64673729Y-49060552D01*
X64775186Y-49143814D01*
X64858448Y-49245271D01*
X64887778Y-49281009D01*
X64971443Y-49437534D01*
X65022963Y-49607373D01*
X65040359Y-49784000D01*
X65022963Y-49960627D01*
X64971443Y-50130466D01*
X64887778Y-50286991D01*
X64858448Y-50322729D01*
X64775186Y-50424186D01*
X64685242Y-50498000D01*
X64637991Y-50536778D01*
X64481466Y-50620443D01*
X64311627Y-50671963D01*
X64245443Y-50678481D01*
X64179260Y-50685000D01*
X64090740Y-50685000D01*
X64024557Y-50678481D01*
X63958373Y-50671963D01*
X63788534Y-50620443D01*
X63632009Y-50536778D01*
X63584758Y-50498000D01*
X63494814Y-50424186D01*
X63411552Y-50322729D01*
X63382222Y-50286991D01*
X63298557Y-50130466D01*
X63247037Y-49960627D01*
X63229641Y-49784000D01*
X63247037Y-49607373D01*
X63298557Y-49437534D01*
X63382222Y-49281009D01*
X63411552Y-49245271D01*
X63494814Y-49143814D01*
X63596271Y-49060552D01*
X63632009Y-49031222D01*
X63788534Y-48947557D01*
X63958373Y-48896037D01*
X64024557Y-48889519D01*
X64090740Y-48883000D01*
X64179260Y-48883000D01*
X64245443Y-48889519D01*
X64245443Y-48889519D01*
G37*
G36*
X69325443Y-48889519D02*
G01*
X69391627Y-48896037D01*
X69561466Y-48947557D01*
X69717991Y-49031222D01*
X69753729Y-49060552D01*
X69855186Y-49143814D01*
X69938448Y-49245271D01*
X69967778Y-49281009D01*
X70051443Y-49437534D01*
X70102963Y-49607373D01*
X70120359Y-49784000D01*
X70102963Y-49960627D01*
X70051443Y-50130466D01*
X69967778Y-50286991D01*
X69938448Y-50322729D01*
X69855186Y-50424186D01*
X69765242Y-50498000D01*
X69717991Y-50536778D01*
X69561466Y-50620443D01*
X69391627Y-50671963D01*
X69325443Y-50678481D01*
X69259260Y-50685000D01*
X69170740Y-50685000D01*
X69104557Y-50678481D01*
X69038373Y-50671963D01*
X68868534Y-50620443D01*
X68712009Y-50536778D01*
X68664758Y-50498000D01*
X68574814Y-50424186D01*
X68491552Y-50322729D01*
X68462222Y-50286991D01*
X68378557Y-50130466D01*
X68327037Y-49960627D01*
X68309641Y-49784000D01*
X68327037Y-49607373D01*
X68378557Y-49437534D01*
X68462222Y-49281009D01*
X68491552Y-49245271D01*
X68574814Y-49143814D01*
X68676271Y-49060552D01*
X68712009Y-49031222D01*
X68868534Y-48947557D01*
X69038373Y-48896037D01*
X69104557Y-48889519D01*
X69170740Y-48883000D01*
X69259260Y-48883000D01*
X69325443Y-48889519D01*
X69325443Y-48889519D01*
G37*
G36*
X66785443Y-48889519D02*
G01*
X66851627Y-48896037D01*
X67021466Y-48947557D01*
X67177991Y-49031222D01*
X67213729Y-49060552D01*
X67315186Y-49143814D01*
X67398448Y-49245271D01*
X67427778Y-49281009D01*
X67511443Y-49437534D01*
X67562963Y-49607373D01*
X67580359Y-49784000D01*
X67562963Y-49960627D01*
X67511443Y-50130466D01*
X67427778Y-50286991D01*
X67398448Y-50322729D01*
X67315186Y-50424186D01*
X67225242Y-50498000D01*
X67177991Y-50536778D01*
X67021466Y-50620443D01*
X66851627Y-50671963D01*
X66785443Y-50678481D01*
X66719260Y-50685000D01*
X66630740Y-50685000D01*
X66564557Y-50678481D01*
X66498373Y-50671963D01*
X66328534Y-50620443D01*
X66172009Y-50536778D01*
X66124758Y-50498000D01*
X66034814Y-50424186D01*
X65951552Y-50322729D01*
X65922222Y-50286991D01*
X65838557Y-50130466D01*
X65787037Y-49960627D01*
X65769641Y-49784000D01*
X65787037Y-49607373D01*
X65838557Y-49437534D01*
X65922222Y-49281009D01*
X65951552Y-49245271D01*
X66034814Y-49143814D01*
X66136271Y-49060552D01*
X66172009Y-49031222D01*
X66328534Y-48947557D01*
X66498373Y-48896037D01*
X66564557Y-48889519D01*
X66630740Y-48883000D01*
X66719260Y-48883000D01*
X66785443Y-48889519D01*
X66785443Y-48889519D01*
G37*
G36*
X75514468Y-49425565D02*
G01*
X75553138Y-49437296D01*
X75588777Y-49456346D01*
X75620017Y-49481983D01*
X75645654Y-49513223D01*
X75664704Y-49548862D01*
X75676435Y-49587532D01*
X75681000Y-49633888D01*
X75681000Y-50285112D01*
X75676435Y-50331468D01*
X75664704Y-50370138D01*
X75645654Y-50405777D01*
X75620017Y-50437017D01*
X75588777Y-50462654D01*
X75553138Y-50481704D01*
X75514468Y-50493435D01*
X75468112Y-50498000D01*
X74391888Y-50498000D01*
X74345532Y-50493435D01*
X74306862Y-50481704D01*
X74271223Y-50462654D01*
X74239983Y-50437017D01*
X74214346Y-50405777D01*
X74195296Y-50370138D01*
X74183565Y-50331468D01*
X74179000Y-50285112D01*
X74179000Y-49633888D01*
X74183565Y-49587532D01*
X74195296Y-49548862D01*
X74214346Y-49513223D01*
X74239983Y-49481983D01*
X74271223Y-49456346D01*
X74306862Y-49437296D01*
X74345532Y-49425565D01*
X74391888Y-49421000D01*
X75468112Y-49421000D01*
X75514468Y-49425565D01*
X75514468Y-49425565D01*
G37*
G36*
X78054468Y-49425565D02*
G01*
X78093138Y-49437296D01*
X78128777Y-49456346D01*
X78160017Y-49481983D01*
X78185654Y-49513223D01*
X78204704Y-49548862D01*
X78216435Y-49587532D01*
X78221000Y-49633888D01*
X78221000Y-50285112D01*
X78216435Y-50331468D01*
X78204704Y-50370138D01*
X78185654Y-50405777D01*
X78160017Y-50437017D01*
X78128777Y-50462654D01*
X78093138Y-50481704D01*
X78054468Y-50493435D01*
X78008112Y-50498000D01*
X76931888Y-50498000D01*
X76885532Y-50493435D01*
X76846862Y-50481704D01*
X76811223Y-50462654D01*
X76779983Y-50437017D01*
X76754346Y-50405777D01*
X76735296Y-50370138D01*
X76723565Y-50331468D01*
X76719000Y-50285112D01*
X76719000Y-49633888D01*
X76723565Y-49587532D01*
X76735296Y-49548862D01*
X76754346Y-49513223D01*
X76779983Y-49481983D01*
X76811223Y-49456346D01*
X76846862Y-49437296D01*
X76885532Y-49425565D01*
X76931888Y-49421000D01*
X78008112Y-49421000D01*
X78054468Y-49425565D01*
X78054468Y-49425565D01*
G37*
G36*
X75514468Y-47550565D02*
G01*
X75553138Y-47562296D01*
X75588777Y-47581346D01*
X75620017Y-47606983D01*
X75645654Y-47638223D01*
X75664704Y-47673862D01*
X75676435Y-47712532D01*
X75681000Y-47758888D01*
X75681000Y-48410112D01*
X75676435Y-48456468D01*
X75664704Y-48495138D01*
X75645654Y-48530777D01*
X75620017Y-48562017D01*
X75588777Y-48587654D01*
X75553138Y-48606704D01*
X75514468Y-48618435D01*
X75468112Y-48623000D01*
X74391888Y-48623000D01*
X74345532Y-48618435D01*
X74306862Y-48606704D01*
X74271223Y-48587654D01*
X74239983Y-48562017D01*
X74214346Y-48530777D01*
X74195296Y-48495138D01*
X74183565Y-48456468D01*
X74179000Y-48410112D01*
X74179000Y-47758888D01*
X74183565Y-47712532D01*
X74195296Y-47673862D01*
X74214346Y-47638223D01*
X74239983Y-47606983D01*
X74271223Y-47581346D01*
X74306862Y-47562296D01*
X74345532Y-47550565D01*
X74391888Y-47546000D01*
X75468112Y-47546000D01*
X75514468Y-47550565D01*
X75514468Y-47550565D01*
G37*
G36*
X78054468Y-47550565D02*
G01*
X78093138Y-47562296D01*
X78128777Y-47581346D01*
X78160017Y-47606983D01*
X78185654Y-47638223D01*
X78204704Y-47673862D01*
X78216435Y-47712532D01*
X78221000Y-47758888D01*
X78221000Y-48410112D01*
X78216435Y-48456468D01*
X78204704Y-48495138D01*
X78185654Y-48530777D01*
X78160017Y-48562017D01*
X78128777Y-48587654D01*
X78093138Y-48606704D01*
X78054468Y-48618435D01*
X78008112Y-48623000D01*
X76931888Y-48623000D01*
X76885532Y-48618435D01*
X76846862Y-48606704D01*
X76811223Y-48587654D01*
X76779983Y-48562017D01*
X76754346Y-48530777D01*
X76735296Y-48495138D01*
X76723565Y-48456468D01*
X76719000Y-48410112D01*
X76719000Y-47758888D01*
X76723565Y-47712532D01*
X76735296Y-47673862D01*
X76754346Y-47638223D01*
X76779983Y-47606983D01*
X76811223Y-47581346D01*
X76846862Y-47562296D01*
X76885532Y-47550565D01*
X76931888Y-47546000D01*
X78008112Y-47546000D01*
X78054468Y-47550565D01*
X78054468Y-47550565D01*
G37*
G36*
X61665997Y-42998051D02*
G01*
X61699652Y-43008261D01*
X61730665Y-43024838D01*
X61757851Y-43047149D01*
X61780162Y-43074335D01*
X61796739Y-43105348D01*
X61806949Y-43139003D01*
X61811000Y-43180138D01*
X61811000Y-45509862D01*
X61806949Y-45550997D01*
X61796739Y-45584652D01*
X61780162Y-45615665D01*
X61757851Y-45642851D01*
X61730665Y-45665162D01*
X61699652Y-45681739D01*
X61665997Y-45691949D01*
X61624862Y-45696000D01*
X60295138Y-45696000D01*
X60254003Y-45691949D01*
X60220348Y-45681739D01*
X60189335Y-45665162D01*
X60162149Y-45642851D01*
X60139838Y-45615665D01*
X60123261Y-45584652D01*
X60113051Y-45550997D01*
X60109000Y-45509862D01*
X60109000Y-43180138D01*
X60113051Y-43139003D01*
X60123261Y-43105348D01*
X60139838Y-43074335D01*
X60162149Y-43047149D01*
X60189335Y-43024838D01*
X60220348Y-43008261D01*
X60254003Y-42998051D01*
X60295138Y-42994000D01*
X61624862Y-42994000D01*
X61665997Y-42998051D01*
X61665997Y-42998051D01*
G37*
G36*
X56585997Y-42998051D02*
G01*
X56619652Y-43008261D01*
X56650665Y-43024838D01*
X56677851Y-43047149D01*
X56700162Y-43074335D01*
X56716739Y-43105348D01*
X56726949Y-43139003D01*
X56731000Y-43180138D01*
X56731000Y-45509862D01*
X56726949Y-45550997D01*
X56716739Y-45584652D01*
X56700162Y-45615665D01*
X56677851Y-45642851D01*
X56650665Y-45665162D01*
X56619652Y-45681739D01*
X56585997Y-45691949D01*
X56544862Y-45696000D01*
X55215138Y-45696000D01*
X55174003Y-45691949D01*
X55140348Y-45681739D01*
X55109335Y-45665162D01*
X55082149Y-45642851D01*
X55059838Y-45615665D01*
X55043261Y-45584652D01*
X55033051Y-45550997D01*
X55029000Y-45509862D01*
X55029000Y-43180138D01*
X55033051Y-43139003D01*
X55043261Y-43105348D01*
X55059838Y-43074335D01*
X55082149Y-43047149D01*
X55109335Y-43024838D01*
X55140348Y-43008261D01*
X55174003Y-42998051D01*
X55215138Y-42994000D01*
X56544862Y-42994000D01*
X56585997Y-42998051D01*
X56585997Y-42998051D01*
G37*
G36*
X66745997Y-42998051D02*
G01*
X66779652Y-43008261D01*
X66810665Y-43024838D01*
X66837851Y-43047149D01*
X66860162Y-43074335D01*
X66876739Y-43105348D01*
X66886949Y-43139003D01*
X66891000Y-43180138D01*
X66891000Y-45509862D01*
X66886949Y-45550997D01*
X66876739Y-45584652D01*
X66860162Y-45615665D01*
X66837851Y-45642851D01*
X66810665Y-45665162D01*
X66779652Y-45681739D01*
X66745997Y-45691949D01*
X66704862Y-45696000D01*
X65375138Y-45696000D01*
X65334003Y-45691949D01*
X65300348Y-45681739D01*
X65269335Y-45665162D01*
X65242149Y-45642851D01*
X65219838Y-45615665D01*
X65203261Y-45584652D01*
X65193051Y-45550997D01*
X65189000Y-45509862D01*
X65189000Y-43180138D01*
X65193051Y-43139003D01*
X65203261Y-43105348D01*
X65219838Y-43074335D01*
X65242149Y-43047149D01*
X65269335Y-43024838D01*
X65300348Y-43008261D01*
X65334003Y-42998051D01*
X65375138Y-42994000D01*
X66704862Y-42994000D01*
X66745997Y-42998051D01*
X66745997Y-42998051D01*
G37*
G36*
X50379795Y-43370156D02*
G01*
X50486150Y-43391311D01*
X50686520Y-43474307D01*
X50866844Y-43594795D01*
X51020205Y-43748156D01*
X51140693Y-43928480D01*
X51223689Y-44128851D01*
X51266000Y-44341560D01*
X51266000Y-44558440D01*
X51223689Y-44771149D01*
X51140693Y-44971520D01*
X51020205Y-45151844D01*
X50866844Y-45305205D01*
X50686520Y-45425693D01*
X50586334Y-45467191D01*
X50486150Y-45508689D01*
X50379794Y-45529845D01*
X50273440Y-45551000D01*
X50056560Y-45551000D01*
X49950206Y-45529845D01*
X49843850Y-45508689D01*
X49743666Y-45467191D01*
X49643480Y-45425693D01*
X49463156Y-45305205D01*
X49309795Y-45151844D01*
X49189307Y-44971520D01*
X49106311Y-44771149D01*
X49064000Y-44558440D01*
X49064000Y-44341560D01*
X49106311Y-44128851D01*
X49189307Y-43928480D01*
X49309795Y-43748156D01*
X49463156Y-43594795D01*
X49643480Y-43474307D01*
X49843850Y-43391311D01*
X49950205Y-43370156D01*
X50056560Y-43349000D01*
X50273440Y-43349000D01*
X50379795Y-43370156D01*
X50379795Y-43370156D01*
G37*
G36*
X76414794Y-41790155D02*
G01*
X76521150Y-41811311D01*
X76566421Y-41830063D01*
X76721520Y-41894307D01*
X76901844Y-42014795D01*
X77055205Y-42168156D01*
X77175693Y-42348480D01*
X77200583Y-42408571D01*
X77258689Y-42548850D01*
X77301000Y-42761561D01*
X77301000Y-42978439D01*
X77258689Y-43191150D01*
X77230196Y-43259937D01*
X77175693Y-43391520D01*
X77055205Y-43571844D01*
X76901844Y-43725205D01*
X76721520Y-43845693D01*
X76521150Y-43928689D01*
X76414795Y-43949844D01*
X76308440Y-43971000D01*
X76091560Y-43971000D01*
X75985205Y-43949844D01*
X75878850Y-43928689D01*
X75678480Y-43845693D01*
X75498156Y-43725205D01*
X75344795Y-43571844D01*
X75224307Y-43391520D01*
X75169804Y-43259937D01*
X75141311Y-43191150D01*
X75099000Y-42978439D01*
X75099000Y-42761561D01*
X75141311Y-42548850D01*
X75199417Y-42408571D01*
X75224307Y-42348480D01*
X75344795Y-42168156D01*
X75498156Y-42014795D01*
X75678480Y-41894307D01*
X75833579Y-41830063D01*
X75878850Y-41811311D01*
X75985206Y-41790155D01*
X76091560Y-41769000D01*
X76308440Y-41769000D01*
X76414794Y-41790155D01*
X76414794Y-41790155D01*
G37*
G36*
X70747199Y-40074954D02*
G01*
X70759450Y-40075556D01*
X70777869Y-40075556D01*
X70800149Y-40077750D01*
X70884233Y-40094476D01*
X70905660Y-40100976D01*
X70984858Y-40133780D01*
X70990303Y-40136691D01*
X70990309Y-40136693D01*
X70999169Y-40141429D01*
X70999173Y-40141432D01*
X71004614Y-40144340D01*
X71075899Y-40191971D01*
X71093204Y-40206172D01*
X71153828Y-40266796D01*
X71168029Y-40284101D01*
X71215660Y-40355386D01*
X71218568Y-40360827D01*
X71218571Y-40360831D01*
X71223307Y-40369691D01*
X71223309Y-40369697D01*
X71226220Y-40375142D01*
X71259024Y-40454340D01*
X71265524Y-40475767D01*
X71282250Y-40559851D01*
X71284444Y-40582131D01*
X71284444Y-40600550D01*
X71285046Y-40612801D01*
X71286852Y-40631139D01*
X71286852Y-41118860D01*
X71285263Y-41134999D01*
X71282348Y-41144608D01*
X71277610Y-41153472D01*
X71271237Y-41161237D01*
X71258794Y-41171448D01*
X71248425Y-41178378D01*
X71231098Y-41195705D01*
X71217485Y-41216080D01*
X71208109Y-41238720D01*
X71203329Y-41262753D01*
X71203330Y-41287257D01*
X71208112Y-41311290D01*
X71217490Y-41333929D01*
X71231105Y-41354302D01*
X71248432Y-41371629D01*
X71258802Y-41378558D01*
X71271237Y-41388763D01*
X71277610Y-41396528D01*
X71282348Y-41405392D01*
X71285263Y-41415001D01*
X71286852Y-41431140D01*
X71286852Y-41918862D01*
X71285046Y-41937199D01*
X71284444Y-41949450D01*
X71284444Y-41967869D01*
X71282250Y-41990149D01*
X71265524Y-42074233D01*
X71259024Y-42095660D01*
X71226220Y-42174858D01*
X71223309Y-42180303D01*
X71223307Y-42180309D01*
X71218571Y-42189169D01*
X71218568Y-42189173D01*
X71215660Y-42194614D01*
X71168029Y-42265899D01*
X71153828Y-42283204D01*
X71093204Y-42343828D01*
X71075899Y-42358029D01*
X71004614Y-42405660D01*
X70999173Y-42408568D01*
X70999169Y-42408571D01*
X70990309Y-42413307D01*
X70990303Y-42413309D01*
X70984858Y-42416220D01*
X70905660Y-42449024D01*
X70884233Y-42455524D01*
X70800149Y-42472250D01*
X70777869Y-42474444D01*
X70759450Y-42474444D01*
X70747199Y-42475046D01*
X70728862Y-42476852D01*
X70241138Y-42476852D01*
X70222801Y-42475046D01*
X70210550Y-42474444D01*
X70192131Y-42474444D01*
X70169851Y-42472250D01*
X70085767Y-42455524D01*
X70064340Y-42449024D01*
X69985142Y-42416220D01*
X69979697Y-42413309D01*
X69979691Y-42413307D01*
X69970831Y-42408571D01*
X69970827Y-42408568D01*
X69965386Y-42405660D01*
X69894101Y-42358029D01*
X69876796Y-42343828D01*
X69816172Y-42283204D01*
X69801971Y-42265899D01*
X69754340Y-42194614D01*
X69751432Y-42189173D01*
X69751429Y-42189169D01*
X69746693Y-42180309D01*
X69746691Y-42180303D01*
X69743780Y-42174858D01*
X69710976Y-42095660D01*
X69704476Y-42074233D01*
X69687750Y-41990149D01*
X69685556Y-41967869D01*
X69685556Y-41949450D01*
X69684954Y-41937199D01*
X69683148Y-41918862D01*
X69683148Y-41431140D01*
X69684737Y-41415001D01*
X69687652Y-41405392D01*
X69692390Y-41396528D01*
X69698763Y-41388763D01*
X69711206Y-41378552D01*
X69721575Y-41371622D01*
X69738902Y-41354295D01*
X69752515Y-41333920D01*
X69761891Y-41311280D01*
X69766671Y-41287247D01*
X69766670Y-41262743D01*
X69761888Y-41238710D01*
X69752510Y-41216071D01*
X69738895Y-41195698D01*
X69721568Y-41178371D01*
X69711198Y-41171442D01*
X69698763Y-41161237D01*
X69692390Y-41153472D01*
X69687652Y-41144608D01*
X69684737Y-41134999D01*
X69683148Y-41118860D01*
X69683148Y-40631139D01*
X69684954Y-40612801D01*
X69685556Y-40600550D01*
X69685556Y-40582131D01*
X69687750Y-40559851D01*
X69704476Y-40475767D01*
X69710976Y-40454340D01*
X69743780Y-40375142D01*
X69746691Y-40369697D01*
X69746693Y-40369691D01*
X69751429Y-40360831D01*
X69751432Y-40360827D01*
X69754340Y-40355386D01*
X69801971Y-40284101D01*
X69816172Y-40266796D01*
X69876796Y-40206172D01*
X69894101Y-40191971D01*
X69965386Y-40144340D01*
X69970827Y-40141432D01*
X69970831Y-40141429D01*
X69979691Y-40136693D01*
X69979697Y-40136691D01*
X69985142Y-40133780D01*
X70064340Y-40100976D01*
X70085767Y-40094476D01*
X70169851Y-40077750D01*
X70192131Y-40075556D01*
X70210550Y-40075556D01*
X70222801Y-40074954D01*
X70241139Y-40073148D01*
X70728861Y-40073148D01*
X70747199Y-40074954D01*
X70747199Y-40074954D01*
G37*
G36*
X66745997Y-39398051D02*
G01*
X66779652Y-39408261D01*
X66810665Y-39424838D01*
X66837851Y-39447149D01*
X66860162Y-39474335D01*
X66876739Y-39505348D01*
X66886949Y-39539003D01*
X66891000Y-39580138D01*
X66891000Y-41909862D01*
X66886949Y-41950997D01*
X66876739Y-41984652D01*
X66860162Y-42015665D01*
X66837851Y-42042851D01*
X66810665Y-42065162D01*
X66779652Y-42081739D01*
X66745997Y-42091949D01*
X66704862Y-42096000D01*
X65375138Y-42096000D01*
X65334003Y-42091949D01*
X65300348Y-42081739D01*
X65269335Y-42065162D01*
X65242149Y-42042851D01*
X65219838Y-42015665D01*
X65203261Y-41984652D01*
X65193051Y-41950997D01*
X65189000Y-41909862D01*
X65189000Y-39580138D01*
X65193051Y-39539003D01*
X65203261Y-39505348D01*
X65219838Y-39474335D01*
X65242149Y-39447149D01*
X65269335Y-39424838D01*
X65300348Y-39408261D01*
X65334003Y-39398051D01*
X65375138Y-39394000D01*
X66704862Y-39394000D01*
X66745997Y-39398051D01*
X66745997Y-39398051D01*
G37*
G36*
X61665997Y-39398051D02*
G01*
X61699652Y-39408261D01*
X61730665Y-39424838D01*
X61757851Y-39447149D01*
X61780162Y-39474335D01*
X61796739Y-39505348D01*
X61806949Y-39539003D01*
X61811000Y-39580138D01*
X61811000Y-41909862D01*
X61806949Y-41950997D01*
X61796739Y-41984652D01*
X61780162Y-42015665D01*
X61757851Y-42042851D01*
X61730665Y-42065162D01*
X61699652Y-42081739D01*
X61665997Y-42091949D01*
X61624862Y-42096000D01*
X60295138Y-42096000D01*
X60254003Y-42091949D01*
X60220348Y-42081739D01*
X60189335Y-42065162D01*
X60162149Y-42042851D01*
X60139838Y-42015665D01*
X60123261Y-41984652D01*
X60113051Y-41950997D01*
X60109000Y-41909862D01*
X60109000Y-39580138D01*
X60113051Y-39539003D01*
X60123261Y-39505348D01*
X60139838Y-39474335D01*
X60162149Y-39447149D01*
X60189335Y-39424838D01*
X60220348Y-39408261D01*
X60254003Y-39398051D01*
X60295138Y-39394000D01*
X61624862Y-39394000D01*
X61665997Y-39398051D01*
X61665997Y-39398051D01*
G37*
G36*
X56585997Y-39398051D02*
G01*
X56619652Y-39408261D01*
X56650665Y-39424838D01*
X56677851Y-39447149D01*
X56700162Y-39474335D01*
X56716739Y-39505348D01*
X56726949Y-39539003D01*
X56731000Y-39580138D01*
X56731000Y-41909862D01*
X56726949Y-41950997D01*
X56716739Y-41984652D01*
X56700162Y-42015665D01*
X56677851Y-42042851D01*
X56650665Y-42065162D01*
X56619652Y-42081739D01*
X56585997Y-42091949D01*
X56544862Y-42096000D01*
X55215138Y-42096000D01*
X55174003Y-42091949D01*
X55140348Y-42081739D01*
X55109335Y-42065162D01*
X55082149Y-42042851D01*
X55059838Y-42015665D01*
X55043261Y-41984652D01*
X55033051Y-41950997D01*
X55029000Y-41909862D01*
X55029000Y-39580138D01*
X55033051Y-39539003D01*
X55043261Y-39505348D01*
X55059838Y-39474335D01*
X55082149Y-39447149D01*
X55109335Y-39424838D01*
X55140348Y-39408261D01*
X55174003Y-39398051D01*
X55215138Y-39394000D01*
X56544862Y-39394000D01*
X56585997Y-39398051D01*
X56585997Y-39398051D01*
G37*
G36*
X50369798Y-39558167D02*
G01*
X50486150Y-39581311D01*
X50550715Y-39608055D01*
X50686520Y-39664307D01*
X50866844Y-39784795D01*
X51020205Y-39938156D01*
X51140693Y-40118480D01*
X51171134Y-40191971D01*
X51223689Y-40318850D01*
X51233802Y-40369691D01*
X51266000Y-40531560D01*
X51266000Y-40748440D01*
X51223689Y-40961149D01*
X51140693Y-41161520D01*
X51020205Y-41341844D01*
X50866844Y-41495205D01*
X50686520Y-41615693D01*
X50586334Y-41657191D01*
X50486150Y-41698689D01*
X50379794Y-41719845D01*
X50273440Y-41741000D01*
X50056560Y-41741000D01*
X49950206Y-41719845D01*
X49843850Y-41698689D01*
X49643480Y-41615693D01*
X49463156Y-41495205D01*
X49309795Y-41341844D01*
X49189307Y-41161520D01*
X49106311Y-40961149D01*
X49064000Y-40748440D01*
X49064000Y-40531560D01*
X49096198Y-40369691D01*
X49106311Y-40318850D01*
X49158866Y-40191971D01*
X49189307Y-40118480D01*
X49309795Y-39938156D01*
X49463156Y-39784795D01*
X49643480Y-39664307D01*
X49779285Y-39608055D01*
X49843850Y-39581311D01*
X49960202Y-39558167D01*
X50056560Y-39539000D01*
X50273440Y-39539000D01*
X50369798Y-39558167D01*
X50369798Y-39558167D01*
G37*
G36*
X76414795Y-38290156D02*
G01*
X76521150Y-38311311D01*
X76721520Y-38394307D01*
X76901844Y-38514795D01*
X77055205Y-38668156D01*
X77175693Y-38848480D01*
X77258689Y-39048851D01*
X77301000Y-39261560D01*
X77301000Y-39478440D01*
X77288954Y-39539000D01*
X77258689Y-39691150D01*
X77217191Y-39791334D01*
X77175693Y-39891520D01*
X77055205Y-40071844D01*
X76901844Y-40225205D01*
X76721520Y-40345693D01*
X76684973Y-40360831D01*
X76521150Y-40428689D01*
X76414794Y-40449845D01*
X76308440Y-40471000D01*
X76091560Y-40471000D01*
X75985206Y-40449845D01*
X75878850Y-40428689D01*
X75715027Y-40360831D01*
X75678480Y-40345693D01*
X75498156Y-40225205D01*
X75344795Y-40071844D01*
X75224307Y-39891520D01*
X75182809Y-39791334D01*
X75141311Y-39691150D01*
X75111046Y-39539000D01*
X75099000Y-39478440D01*
X75099000Y-39261560D01*
X75141311Y-39048851D01*
X75224307Y-38848480D01*
X75344795Y-38668156D01*
X75498156Y-38514795D01*
X75678480Y-38394307D01*
X75878850Y-38311311D01*
X75985205Y-38290156D01*
X76091560Y-38269000D01*
X76308440Y-38269000D01*
X76414795Y-38290156D01*
X76414795Y-38290156D01*
G37*
G36*
X60539795Y-35115156D02*
G01*
X60646150Y-35136311D01*
X60723025Y-35168154D01*
X60846520Y-35219307D01*
X61026844Y-35339795D01*
X61180205Y-35493156D01*
X61300693Y-35673480D01*
X61300693Y-35673481D01*
X61383689Y-35873850D01*
X61426000Y-36086561D01*
X61426000Y-36303439D01*
X61383689Y-36516150D01*
X61360619Y-36571846D01*
X61300693Y-36716520D01*
X61180205Y-36896844D01*
X61026844Y-37050205D01*
X60846520Y-37170693D01*
X60746334Y-37212191D01*
X60646150Y-37253689D01*
X60539794Y-37274845D01*
X60433440Y-37296000D01*
X60216560Y-37296000D01*
X60110206Y-37274845D01*
X60003850Y-37253689D01*
X59903666Y-37212191D01*
X59803480Y-37170693D01*
X59623156Y-37050205D01*
X59469795Y-36896844D01*
X59349307Y-36716520D01*
X59289381Y-36571846D01*
X59266311Y-36516150D01*
X59224000Y-36303439D01*
X59224000Y-36086561D01*
X59266311Y-35873850D01*
X59349307Y-35673481D01*
X59349307Y-35673480D01*
X59469795Y-35493156D01*
X59623156Y-35339795D01*
X59803480Y-35219307D01*
X59926975Y-35168154D01*
X60003850Y-35136311D01*
X60110205Y-35115156D01*
X60216560Y-35094000D01*
X60433440Y-35094000D01*
X60539795Y-35115156D01*
X60539795Y-35115156D01*
G37*
G36*
X56729795Y-35115156D02*
G01*
X56836150Y-35136311D01*
X56913025Y-35168154D01*
X57036520Y-35219307D01*
X57216844Y-35339795D01*
X57370205Y-35493156D01*
X57490693Y-35673480D01*
X57490693Y-35673481D01*
X57573689Y-35873850D01*
X57616000Y-36086561D01*
X57616000Y-36303439D01*
X57573689Y-36516150D01*
X57550619Y-36571846D01*
X57490693Y-36716520D01*
X57370205Y-36896844D01*
X57216844Y-37050205D01*
X57036520Y-37170693D01*
X56936334Y-37212191D01*
X56836150Y-37253689D01*
X56729794Y-37274845D01*
X56623440Y-37296000D01*
X56406560Y-37296000D01*
X56300206Y-37274845D01*
X56193850Y-37253689D01*
X56093666Y-37212191D01*
X55993480Y-37170693D01*
X55813156Y-37050205D01*
X55659795Y-36896844D01*
X55539307Y-36716520D01*
X55479381Y-36571846D01*
X55456311Y-36516150D01*
X55414000Y-36303439D01*
X55414000Y-36086561D01*
X55456311Y-35873850D01*
X55539307Y-35673481D01*
X55539307Y-35673480D01*
X55659795Y-35493156D01*
X55813156Y-35339795D01*
X55993480Y-35219307D01*
X56116975Y-35168154D01*
X56193850Y-35136311D01*
X56300205Y-35115156D01*
X56406560Y-35094000D01*
X56623440Y-35094000D01*
X56729795Y-35115156D01*
X56729795Y-35115156D01*
G37*
G36*
X66889795Y-35115156D02*
G01*
X66996150Y-35136311D01*
X67073025Y-35168154D01*
X67196520Y-35219307D01*
X67376844Y-35339795D01*
X67530205Y-35493156D01*
X67650693Y-35673480D01*
X67650693Y-35673481D01*
X67733689Y-35873850D01*
X67776000Y-36086561D01*
X67776000Y-36303439D01*
X67733689Y-36516150D01*
X67710619Y-36571846D01*
X67650693Y-36716520D01*
X67530205Y-36896844D01*
X67376844Y-37050205D01*
X67196520Y-37170693D01*
X67096334Y-37212191D01*
X66996150Y-37253689D01*
X66889794Y-37274845D01*
X66783440Y-37296000D01*
X66566560Y-37296000D01*
X66460206Y-37274845D01*
X66353850Y-37253689D01*
X66253666Y-37212191D01*
X66153480Y-37170693D01*
X65973156Y-37050205D01*
X65819795Y-36896844D01*
X65699307Y-36716520D01*
X65639381Y-36571846D01*
X65616311Y-36516150D01*
X65574000Y-36303439D01*
X65574000Y-36086561D01*
X65616311Y-35873850D01*
X65699307Y-35673481D01*
X65699307Y-35673480D01*
X65819795Y-35493156D01*
X65973156Y-35339795D01*
X66153480Y-35219307D01*
X66276975Y-35168154D01*
X66353850Y-35136311D01*
X66460205Y-35115156D01*
X66566560Y-35094000D01*
X66783440Y-35094000D01*
X66889795Y-35115156D01*
X66889795Y-35115156D01*
G37*
G36*
X70699795Y-35115156D02*
G01*
X70806150Y-35136311D01*
X70883025Y-35168154D01*
X71006520Y-35219307D01*
X71186844Y-35339795D01*
X71340205Y-35493156D01*
X71460693Y-35673480D01*
X71460693Y-35673481D01*
X71543689Y-35873850D01*
X71586000Y-36086561D01*
X71586000Y-36303439D01*
X71543689Y-36516150D01*
X71520619Y-36571846D01*
X71460693Y-36716520D01*
X71340205Y-36896844D01*
X71186844Y-37050205D01*
X71006520Y-37170693D01*
X70906334Y-37212191D01*
X70806150Y-37253689D01*
X70699794Y-37274845D01*
X70593440Y-37296000D01*
X70376560Y-37296000D01*
X70270206Y-37274845D01*
X70163850Y-37253689D01*
X70063666Y-37212191D01*
X69963480Y-37170693D01*
X69783156Y-37050205D01*
X69629795Y-36896844D01*
X69509307Y-36716520D01*
X69449381Y-36571846D01*
X69426311Y-36516150D01*
X69384000Y-36303439D01*
X69384000Y-36086561D01*
X69426311Y-35873850D01*
X69509307Y-35673481D01*
X69509307Y-35673480D01*
X69629795Y-35493156D01*
X69783156Y-35339795D01*
X69963480Y-35219307D01*
X70086975Y-35168154D01*
X70163850Y-35136311D01*
X70270205Y-35115156D01*
X70376560Y-35094000D01*
X70593440Y-35094000D01*
X70699795Y-35115156D01*
X70699795Y-35115156D01*
G37*
G36*
X76414794Y-34790155D02*
G01*
X76521150Y-34811311D01*
X76621334Y-34852809D01*
X76721520Y-34894307D01*
X76901844Y-35014795D01*
X77055205Y-35168156D01*
X77175693Y-35348480D01*
X77175693Y-35348481D01*
X77235620Y-35493156D01*
X77258689Y-35548851D01*
X77301000Y-35761560D01*
X77301000Y-35978440D01*
X77258689Y-36191149D01*
X77175693Y-36391520D01*
X77055205Y-36571844D01*
X76901844Y-36725205D01*
X76721520Y-36845693D01*
X76521150Y-36928689D01*
X76414794Y-36949845D01*
X76308440Y-36971000D01*
X76091560Y-36971000D01*
X75985206Y-36949845D01*
X75878850Y-36928689D01*
X75678480Y-36845693D01*
X75498156Y-36725205D01*
X75344795Y-36571844D01*
X75224307Y-36391520D01*
X75141311Y-36191149D01*
X75099000Y-35978440D01*
X75099000Y-35761560D01*
X75141311Y-35548851D01*
X75164381Y-35493156D01*
X75224307Y-35348481D01*
X75224307Y-35348480D01*
X75344795Y-35168156D01*
X75498156Y-35014795D01*
X75678480Y-34894307D01*
X75778666Y-34852809D01*
X75878850Y-34811311D01*
X75985206Y-34790155D01*
X76091560Y-34769000D01*
X76308440Y-34769000D01*
X76414794Y-34790155D01*
X76414794Y-34790155D01*
G37*
G36*
X50379795Y-33845156D02*
G01*
X50486150Y-33866311D01*
X50586334Y-33907809D01*
X50686520Y-33949307D01*
X50866844Y-34069795D01*
X51020205Y-34223156D01*
X51140693Y-34403480D01*
X51223689Y-34603851D01*
X51256540Y-34769000D01*
X51266000Y-34816561D01*
X51266000Y-35033439D01*
X51223689Y-35246150D01*
X51182191Y-35346334D01*
X51140693Y-35446520D01*
X51020205Y-35626844D01*
X50866844Y-35780205D01*
X50686520Y-35900693D01*
X50586334Y-35942191D01*
X50486150Y-35983689D01*
X50379795Y-36004844D01*
X50273440Y-36026000D01*
X50056560Y-36026000D01*
X49950205Y-36004844D01*
X49843850Y-35983689D01*
X49643480Y-35900693D01*
X49463156Y-35780205D01*
X49309795Y-35626844D01*
X49189307Y-35446520D01*
X49147809Y-35346334D01*
X49106311Y-35246150D01*
X49064000Y-35033439D01*
X49064000Y-34816561D01*
X49073461Y-34769000D01*
X49106311Y-34603851D01*
X49189307Y-34403480D01*
X49309795Y-34223156D01*
X49463156Y-34069795D01*
X49643480Y-33949307D01*
X49743666Y-33907809D01*
X49843850Y-33866311D01*
X49950205Y-33845156D01*
X50056560Y-33824000D01*
X50273440Y-33824000D01*
X50379795Y-33845156D01*
X50379795Y-33845156D01*
G37*
G36*
X83127313Y-26723523D02*
G01*
X83645980Y-26938362D01*
X83645981Y-26938363D01*
X84112769Y-27250260D01*
X84509740Y-27647231D01*
X84663464Y-27877296D01*
X84821638Y-28114020D01*
X85036477Y-28632687D01*
X85146000Y-29183298D01*
X85146000Y-29744702D01*
X85036477Y-30295313D01*
X84821638Y-30813980D01*
X84821637Y-30813981D01*
X84509740Y-31280769D01*
X84112769Y-31677740D01*
X83800871Y-31886143D01*
X83645980Y-31989638D01*
X83127313Y-32204477D01*
X82576702Y-32314000D01*
X82015298Y-32314000D01*
X81464687Y-32204477D01*
X80946020Y-31989638D01*
X80791129Y-31886143D01*
X80479231Y-31677740D01*
X80082260Y-31280769D01*
X79770363Y-30813981D01*
X79770362Y-30813980D01*
X79555523Y-30295313D01*
X79446000Y-29744702D01*
X79446000Y-29183298D01*
X79555523Y-28632687D01*
X79770362Y-28114020D01*
X79928536Y-27877296D01*
X80082260Y-27647231D01*
X80479231Y-27250260D01*
X80946019Y-26938363D01*
X80946020Y-26938362D01*
X81464687Y-26723523D01*
X82015298Y-26614000D01*
X82576702Y-26614000D01*
X83127313Y-26723523D01*
X83127313Y-26723523D01*
G37*
G36*
X42995313Y-26723523D02*
G01*
X43513980Y-26938362D01*
X43513981Y-26938363D01*
X43980769Y-27250260D01*
X44377740Y-27647231D01*
X44531464Y-27877296D01*
X44689638Y-28114020D01*
X44904477Y-28632687D01*
X45014000Y-29183298D01*
X45014000Y-29744702D01*
X44904477Y-30295313D01*
X44689638Y-30813980D01*
X44689637Y-30813981D01*
X44377740Y-31280769D01*
X43980769Y-31677740D01*
X43668871Y-31886143D01*
X43513980Y-31989638D01*
X42995313Y-32204477D01*
X42444702Y-32314000D01*
X41883298Y-32314000D01*
X41332687Y-32204477D01*
X40814020Y-31989638D01*
X40659129Y-31886143D01*
X40347231Y-31677740D01*
X39950260Y-31280769D01*
X39638363Y-30813981D01*
X39638362Y-30813980D01*
X39423523Y-30295313D01*
X39314000Y-29744702D01*
X39314000Y-29183298D01*
X39423523Y-28632687D01*
X39638362Y-28114020D01*
X39796536Y-27877296D01*
X39950260Y-27647231D01*
X40347231Y-27250260D01*
X40814019Y-26938363D01*
X40814020Y-26938362D01*
X41332687Y-26723523D01*
X41883298Y-26614000D01*
X42444702Y-26614000D01*
X42995313Y-26723523D01*
X42995313Y-26723523D01*
G37*
G36*
X50379795Y-30035156D02*
G01*
X50486150Y-30056311D01*
X50586334Y-30097809D01*
X50686520Y-30139307D01*
X50866844Y-30259795D01*
X51020205Y-30413156D01*
X51140693Y-30593480D01*
X51140693Y-30593481D01*
X51223132Y-30792505D01*
X51223689Y-30793851D01*
X51266000Y-31006560D01*
X51266000Y-31223440D01*
X51223689Y-31436149D01*
X51140693Y-31636520D01*
X51020205Y-31816844D01*
X50866844Y-31970205D01*
X50686520Y-32090693D01*
X50586334Y-32132191D01*
X50486150Y-32173689D01*
X50379795Y-32194844D01*
X50273440Y-32216000D01*
X50056560Y-32216000D01*
X49950205Y-32194844D01*
X49843850Y-32173689D01*
X49743666Y-32132191D01*
X49643480Y-32090693D01*
X49463156Y-31970205D01*
X49309795Y-31816844D01*
X49189307Y-31636520D01*
X49106311Y-31436149D01*
X49064000Y-31223440D01*
X49064000Y-31006560D01*
X49106311Y-30793851D01*
X49106869Y-30792505D01*
X49189307Y-30593481D01*
X49189307Y-30593480D01*
X49309795Y-30413156D01*
X49463156Y-30259795D01*
X49643480Y-30139307D01*
X49743666Y-30097809D01*
X49843850Y-30056311D01*
X49950205Y-30035156D01*
X50056560Y-30014000D01*
X50273440Y-30014000D01*
X50379795Y-30035156D01*
X50379795Y-30035156D01*
G37*
G36*
X78054468Y-29740565D02*
G01*
X78093138Y-29752296D01*
X78128777Y-29771346D01*
X78160017Y-29796983D01*
X78185654Y-29828223D01*
X78204704Y-29863862D01*
X78216435Y-29902532D01*
X78221000Y-29948888D01*
X78221000Y-30600112D01*
X78216435Y-30646468D01*
X78204704Y-30685138D01*
X78185654Y-30720777D01*
X78160017Y-30752017D01*
X78128777Y-30777654D01*
X78093138Y-30796704D01*
X78054468Y-30808435D01*
X78008112Y-30813000D01*
X76931888Y-30813000D01*
X76885532Y-30808435D01*
X76846862Y-30796704D01*
X76811223Y-30777654D01*
X76779983Y-30752017D01*
X76754346Y-30720777D01*
X76735296Y-30685138D01*
X76723565Y-30646468D01*
X76719000Y-30600112D01*
X76719000Y-29948888D01*
X76723565Y-29902532D01*
X76735296Y-29863862D01*
X76754346Y-29828223D01*
X76779983Y-29796983D01*
X76811223Y-29771346D01*
X76846862Y-29752296D01*
X76885532Y-29740565D01*
X76931888Y-29736000D01*
X78008112Y-29736000D01*
X78054468Y-29740565D01*
X78054468Y-29740565D01*
G37*
G36*
X75514468Y-29740565D02*
G01*
X75553138Y-29752296D01*
X75588777Y-29771346D01*
X75620017Y-29796983D01*
X75645654Y-29828223D01*
X75664704Y-29863862D01*
X75676435Y-29902532D01*
X75681000Y-29948888D01*
X75681000Y-30600112D01*
X75676435Y-30646468D01*
X75664704Y-30685138D01*
X75645654Y-30720777D01*
X75620017Y-30752017D01*
X75588777Y-30777654D01*
X75553138Y-30796704D01*
X75514468Y-30808435D01*
X75468112Y-30813000D01*
X74391888Y-30813000D01*
X74345532Y-30808435D01*
X74306862Y-30796704D01*
X74271223Y-30777654D01*
X74239983Y-30752017D01*
X74214346Y-30720777D01*
X74195296Y-30685138D01*
X74183565Y-30646468D01*
X74179000Y-30600112D01*
X74179000Y-29948888D01*
X74183565Y-29902532D01*
X74195296Y-29863862D01*
X74214346Y-29828223D01*
X74239983Y-29796983D01*
X74271223Y-29771346D01*
X74306862Y-29752296D01*
X74345532Y-29740565D01*
X74391888Y-29736000D01*
X75468112Y-29736000D01*
X75514468Y-29740565D01*
X75514468Y-29740565D01*
G37*
G36*
X75514468Y-27865565D02*
G01*
X75553138Y-27877296D01*
X75588777Y-27896346D01*
X75620017Y-27921983D01*
X75645654Y-27953223D01*
X75664704Y-27988862D01*
X75676435Y-28027532D01*
X75681000Y-28073888D01*
X75681000Y-28725112D01*
X75676435Y-28771468D01*
X75664704Y-28810138D01*
X75645654Y-28845777D01*
X75620017Y-28877017D01*
X75588777Y-28902654D01*
X75553138Y-28921704D01*
X75514468Y-28933435D01*
X75468112Y-28938000D01*
X74391888Y-28938000D01*
X74345532Y-28933435D01*
X74306862Y-28921704D01*
X74271223Y-28902654D01*
X74239983Y-28877017D01*
X74214346Y-28845777D01*
X74195296Y-28810138D01*
X74183565Y-28771468D01*
X74179000Y-28725112D01*
X74179000Y-28073888D01*
X74183565Y-28027532D01*
X74195296Y-27988862D01*
X74214346Y-27953223D01*
X74239983Y-27921983D01*
X74271223Y-27896346D01*
X74306862Y-27877296D01*
X74345532Y-27865565D01*
X74391888Y-27861000D01*
X75468112Y-27861000D01*
X75514468Y-27865565D01*
X75514468Y-27865565D01*
G37*
G36*
X78054468Y-27865565D02*
G01*
X78093138Y-27877296D01*
X78128777Y-27896346D01*
X78160017Y-27921983D01*
X78185654Y-27953223D01*
X78204704Y-27988862D01*
X78216435Y-28027532D01*
X78221000Y-28073888D01*
X78221000Y-28725112D01*
X78216435Y-28771468D01*
X78204704Y-28810138D01*
X78185654Y-28845777D01*
X78160017Y-28877017D01*
X78128777Y-28902654D01*
X78093138Y-28921704D01*
X78054468Y-28933435D01*
X78008112Y-28938000D01*
X76931888Y-28938000D01*
X76885532Y-28933435D01*
X76846862Y-28921704D01*
X76811223Y-28902654D01*
X76779983Y-28877017D01*
X76754346Y-28845777D01*
X76735296Y-28810138D01*
X76723565Y-28771468D01*
X76719000Y-28725112D01*
X76719000Y-28073888D01*
X76723565Y-28027532D01*
X76735296Y-27988862D01*
X76754346Y-27953223D01*
X76779983Y-27921983D01*
X76811223Y-27896346D01*
X76846862Y-27877296D01*
X76885532Y-27865565D01*
X76931888Y-27861000D01*
X78008112Y-27861000D01*
X78054468Y-27865565D01*
X78054468Y-27865565D01*
G37*
M02*
