G04 #@! TF.GenerationSoftware,KiCad,Pcbnew,5.1.4-e60b266~84~ubuntu18.04.1*
G04 #@! TF.CreationDate,2019-09-26T20:27:51+08:00*
G04 #@! TF.ProjectId,head,68656164-2e6b-4696-9361-645f70636258,rev?*
G04 #@! TF.SameCoordinates,Original*
G04 #@! TF.FileFunction,Paste,Bot*
G04 #@! TF.FilePolarity,Positive*
%FSLAX46Y46*%
G04 Gerber Fmt 4.6, Leading zero omitted, Abs format (unit mm)*
G04 Created by KiCad (PCBNEW 5.1.4-e60b266~84~ubuntu18.04.1) date 2019-09-26 20:27:51*
%MOMM*%
%LPD*%
G04 APERTURE LIST*
%ADD10C,0.100000*%
%ADD11C,0.950000*%
G04 APERTURE END LIST*
D10*
G36*
X77730779Y-47623144D02*
G01*
X77753834Y-47626563D01*
X77776443Y-47632227D01*
X77798387Y-47640079D01*
X77819457Y-47650044D01*
X77839448Y-47662026D01*
X77858168Y-47675910D01*
X77875438Y-47691562D01*
X77891090Y-47708832D01*
X77904974Y-47727552D01*
X77916956Y-47747543D01*
X77926921Y-47768613D01*
X77934773Y-47790557D01*
X77940437Y-47813166D01*
X77943856Y-47836221D01*
X77945000Y-47859500D01*
X77945000Y-48434500D01*
X77943856Y-48457779D01*
X77940437Y-48480834D01*
X77934773Y-48503443D01*
X77926921Y-48525387D01*
X77916956Y-48546457D01*
X77904974Y-48566448D01*
X77891090Y-48585168D01*
X77875438Y-48602438D01*
X77858168Y-48618090D01*
X77839448Y-48631974D01*
X77819457Y-48643956D01*
X77798387Y-48653921D01*
X77776443Y-48661773D01*
X77753834Y-48667437D01*
X77730779Y-48670856D01*
X77707500Y-48672000D01*
X77232500Y-48672000D01*
X77209221Y-48670856D01*
X77186166Y-48667437D01*
X77163557Y-48661773D01*
X77141613Y-48653921D01*
X77120543Y-48643956D01*
X77100552Y-48631974D01*
X77081832Y-48618090D01*
X77064562Y-48602438D01*
X77048910Y-48585168D01*
X77035026Y-48566448D01*
X77023044Y-48546457D01*
X77013079Y-48525387D01*
X77005227Y-48503443D01*
X76999563Y-48480834D01*
X76996144Y-48457779D01*
X76995000Y-48434500D01*
X76995000Y-47859500D01*
X76996144Y-47836221D01*
X76999563Y-47813166D01*
X77005227Y-47790557D01*
X77013079Y-47768613D01*
X77023044Y-47747543D01*
X77035026Y-47727552D01*
X77048910Y-47708832D01*
X77064562Y-47691562D01*
X77081832Y-47675910D01*
X77100552Y-47662026D01*
X77120543Y-47650044D01*
X77141613Y-47640079D01*
X77163557Y-47632227D01*
X77186166Y-47626563D01*
X77209221Y-47623144D01*
X77232500Y-47622000D01*
X77707500Y-47622000D01*
X77730779Y-47623144D01*
X77730779Y-47623144D01*
G37*
D11*
X77470000Y-48147000D03*
D10*
G36*
X77730779Y-49373144D02*
G01*
X77753834Y-49376563D01*
X77776443Y-49382227D01*
X77798387Y-49390079D01*
X77819457Y-49400044D01*
X77839448Y-49412026D01*
X77858168Y-49425910D01*
X77875438Y-49441562D01*
X77891090Y-49458832D01*
X77904974Y-49477552D01*
X77916956Y-49497543D01*
X77926921Y-49518613D01*
X77934773Y-49540557D01*
X77940437Y-49563166D01*
X77943856Y-49586221D01*
X77945000Y-49609500D01*
X77945000Y-50184500D01*
X77943856Y-50207779D01*
X77940437Y-50230834D01*
X77934773Y-50253443D01*
X77926921Y-50275387D01*
X77916956Y-50296457D01*
X77904974Y-50316448D01*
X77891090Y-50335168D01*
X77875438Y-50352438D01*
X77858168Y-50368090D01*
X77839448Y-50381974D01*
X77819457Y-50393956D01*
X77798387Y-50403921D01*
X77776443Y-50411773D01*
X77753834Y-50417437D01*
X77730779Y-50420856D01*
X77707500Y-50422000D01*
X77232500Y-50422000D01*
X77209221Y-50420856D01*
X77186166Y-50417437D01*
X77163557Y-50411773D01*
X77141613Y-50403921D01*
X77120543Y-50393956D01*
X77100552Y-50381974D01*
X77081832Y-50368090D01*
X77064562Y-50352438D01*
X77048910Y-50335168D01*
X77035026Y-50316448D01*
X77023044Y-50296457D01*
X77013079Y-50275387D01*
X77005227Y-50253443D01*
X76999563Y-50230834D01*
X76996144Y-50207779D01*
X76995000Y-50184500D01*
X76995000Y-49609500D01*
X76996144Y-49586221D01*
X76999563Y-49563166D01*
X77005227Y-49540557D01*
X77013079Y-49518613D01*
X77023044Y-49497543D01*
X77035026Y-49477552D01*
X77048910Y-49458832D01*
X77064562Y-49441562D01*
X77081832Y-49425910D01*
X77100552Y-49412026D01*
X77120543Y-49400044D01*
X77141613Y-49390079D01*
X77163557Y-49382227D01*
X77186166Y-49376563D01*
X77209221Y-49373144D01*
X77232500Y-49372000D01*
X77707500Y-49372000D01*
X77730779Y-49373144D01*
X77730779Y-49373144D01*
G37*
D11*
X77470000Y-49897000D03*
D10*
G36*
X75190779Y-47623144D02*
G01*
X75213834Y-47626563D01*
X75236443Y-47632227D01*
X75258387Y-47640079D01*
X75279457Y-47650044D01*
X75299448Y-47662026D01*
X75318168Y-47675910D01*
X75335438Y-47691562D01*
X75351090Y-47708832D01*
X75364974Y-47727552D01*
X75376956Y-47747543D01*
X75386921Y-47768613D01*
X75394773Y-47790557D01*
X75400437Y-47813166D01*
X75403856Y-47836221D01*
X75405000Y-47859500D01*
X75405000Y-48434500D01*
X75403856Y-48457779D01*
X75400437Y-48480834D01*
X75394773Y-48503443D01*
X75386921Y-48525387D01*
X75376956Y-48546457D01*
X75364974Y-48566448D01*
X75351090Y-48585168D01*
X75335438Y-48602438D01*
X75318168Y-48618090D01*
X75299448Y-48631974D01*
X75279457Y-48643956D01*
X75258387Y-48653921D01*
X75236443Y-48661773D01*
X75213834Y-48667437D01*
X75190779Y-48670856D01*
X75167500Y-48672000D01*
X74692500Y-48672000D01*
X74669221Y-48670856D01*
X74646166Y-48667437D01*
X74623557Y-48661773D01*
X74601613Y-48653921D01*
X74580543Y-48643956D01*
X74560552Y-48631974D01*
X74541832Y-48618090D01*
X74524562Y-48602438D01*
X74508910Y-48585168D01*
X74495026Y-48566448D01*
X74483044Y-48546457D01*
X74473079Y-48525387D01*
X74465227Y-48503443D01*
X74459563Y-48480834D01*
X74456144Y-48457779D01*
X74455000Y-48434500D01*
X74455000Y-47859500D01*
X74456144Y-47836221D01*
X74459563Y-47813166D01*
X74465227Y-47790557D01*
X74473079Y-47768613D01*
X74483044Y-47747543D01*
X74495026Y-47727552D01*
X74508910Y-47708832D01*
X74524562Y-47691562D01*
X74541832Y-47675910D01*
X74560552Y-47662026D01*
X74580543Y-47650044D01*
X74601613Y-47640079D01*
X74623557Y-47632227D01*
X74646166Y-47626563D01*
X74669221Y-47623144D01*
X74692500Y-47622000D01*
X75167500Y-47622000D01*
X75190779Y-47623144D01*
X75190779Y-47623144D01*
G37*
D11*
X74930000Y-48147000D03*
D10*
G36*
X75190779Y-49373144D02*
G01*
X75213834Y-49376563D01*
X75236443Y-49382227D01*
X75258387Y-49390079D01*
X75279457Y-49400044D01*
X75299448Y-49412026D01*
X75318168Y-49425910D01*
X75335438Y-49441562D01*
X75351090Y-49458832D01*
X75364974Y-49477552D01*
X75376956Y-49497543D01*
X75386921Y-49518613D01*
X75394773Y-49540557D01*
X75400437Y-49563166D01*
X75403856Y-49586221D01*
X75405000Y-49609500D01*
X75405000Y-50184500D01*
X75403856Y-50207779D01*
X75400437Y-50230834D01*
X75394773Y-50253443D01*
X75386921Y-50275387D01*
X75376956Y-50296457D01*
X75364974Y-50316448D01*
X75351090Y-50335168D01*
X75335438Y-50352438D01*
X75318168Y-50368090D01*
X75299448Y-50381974D01*
X75279457Y-50393956D01*
X75258387Y-50403921D01*
X75236443Y-50411773D01*
X75213834Y-50417437D01*
X75190779Y-50420856D01*
X75167500Y-50422000D01*
X74692500Y-50422000D01*
X74669221Y-50420856D01*
X74646166Y-50417437D01*
X74623557Y-50411773D01*
X74601613Y-50403921D01*
X74580543Y-50393956D01*
X74560552Y-50381974D01*
X74541832Y-50368090D01*
X74524562Y-50352438D01*
X74508910Y-50335168D01*
X74495026Y-50316448D01*
X74483044Y-50296457D01*
X74473079Y-50275387D01*
X74465227Y-50253443D01*
X74459563Y-50230834D01*
X74456144Y-50207779D01*
X74455000Y-50184500D01*
X74455000Y-49609500D01*
X74456144Y-49586221D01*
X74459563Y-49563166D01*
X74465227Y-49540557D01*
X74473079Y-49518613D01*
X74483044Y-49497543D01*
X74495026Y-49477552D01*
X74508910Y-49458832D01*
X74524562Y-49441562D01*
X74541832Y-49425910D01*
X74560552Y-49412026D01*
X74580543Y-49400044D01*
X74601613Y-49390079D01*
X74623557Y-49382227D01*
X74646166Y-49376563D01*
X74669221Y-49373144D01*
X74692500Y-49372000D01*
X75167500Y-49372000D01*
X75190779Y-49373144D01*
X75190779Y-49373144D01*
G37*
D11*
X74930000Y-49897000D03*
D10*
G36*
X77730779Y-27938144D02*
G01*
X77753834Y-27941563D01*
X77776443Y-27947227D01*
X77798387Y-27955079D01*
X77819457Y-27965044D01*
X77839448Y-27977026D01*
X77858168Y-27990910D01*
X77875438Y-28006562D01*
X77891090Y-28023832D01*
X77904974Y-28042552D01*
X77916956Y-28062543D01*
X77926921Y-28083613D01*
X77934773Y-28105557D01*
X77940437Y-28128166D01*
X77943856Y-28151221D01*
X77945000Y-28174500D01*
X77945000Y-28749500D01*
X77943856Y-28772779D01*
X77940437Y-28795834D01*
X77934773Y-28818443D01*
X77926921Y-28840387D01*
X77916956Y-28861457D01*
X77904974Y-28881448D01*
X77891090Y-28900168D01*
X77875438Y-28917438D01*
X77858168Y-28933090D01*
X77839448Y-28946974D01*
X77819457Y-28958956D01*
X77798387Y-28968921D01*
X77776443Y-28976773D01*
X77753834Y-28982437D01*
X77730779Y-28985856D01*
X77707500Y-28987000D01*
X77232500Y-28987000D01*
X77209221Y-28985856D01*
X77186166Y-28982437D01*
X77163557Y-28976773D01*
X77141613Y-28968921D01*
X77120543Y-28958956D01*
X77100552Y-28946974D01*
X77081832Y-28933090D01*
X77064562Y-28917438D01*
X77048910Y-28900168D01*
X77035026Y-28881448D01*
X77023044Y-28861457D01*
X77013079Y-28840387D01*
X77005227Y-28818443D01*
X76999563Y-28795834D01*
X76996144Y-28772779D01*
X76995000Y-28749500D01*
X76995000Y-28174500D01*
X76996144Y-28151221D01*
X76999563Y-28128166D01*
X77005227Y-28105557D01*
X77013079Y-28083613D01*
X77023044Y-28062543D01*
X77035026Y-28042552D01*
X77048910Y-28023832D01*
X77064562Y-28006562D01*
X77081832Y-27990910D01*
X77100552Y-27977026D01*
X77120543Y-27965044D01*
X77141613Y-27955079D01*
X77163557Y-27947227D01*
X77186166Y-27941563D01*
X77209221Y-27938144D01*
X77232500Y-27937000D01*
X77707500Y-27937000D01*
X77730779Y-27938144D01*
X77730779Y-27938144D01*
G37*
D11*
X77470000Y-28462000D03*
D10*
G36*
X77730779Y-29688144D02*
G01*
X77753834Y-29691563D01*
X77776443Y-29697227D01*
X77798387Y-29705079D01*
X77819457Y-29715044D01*
X77839448Y-29727026D01*
X77858168Y-29740910D01*
X77875438Y-29756562D01*
X77891090Y-29773832D01*
X77904974Y-29792552D01*
X77916956Y-29812543D01*
X77926921Y-29833613D01*
X77934773Y-29855557D01*
X77940437Y-29878166D01*
X77943856Y-29901221D01*
X77945000Y-29924500D01*
X77945000Y-30499500D01*
X77943856Y-30522779D01*
X77940437Y-30545834D01*
X77934773Y-30568443D01*
X77926921Y-30590387D01*
X77916956Y-30611457D01*
X77904974Y-30631448D01*
X77891090Y-30650168D01*
X77875438Y-30667438D01*
X77858168Y-30683090D01*
X77839448Y-30696974D01*
X77819457Y-30708956D01*
X77798387Y-30718921D01*
X77776443Y-30726773D01*
X77753834Y-30732437D01*
X77730779Y-30735856D01*
X77707500Y-30737000D01*
X77232500Y-30737000D01*
X77209221Y-30735856D01*
X77186166Y-30732437D01*
X77163557Y-30726773D01*
X77141613Y-30718921D01*
X77120543Y-30708956D01*
X77100552Y-30696974D01*
X77081832Y-30683090D01*
X77064562Y-30667438D01*
X77048910Y-30650168D01*
X77035026Y-30631448D01*
X77023044Y-30611457D01*
X77013079Y-30590387D01*
X77005227Y-30568443D01*
X76999563Y-30545834D01*
X76996144Y-30522779D01*
X76995000Y-30499500D01*
X76995000Y-29924500D01*
X76996144Y-29901221D01*
X76999563Y-29878166D01*
X77005227Y-29855557D01*
X77013079Y-29833613D01*
X77023044Y-29812543D01*
X77035026Y-29792552D01*
X77048910Y-29773832D01*
X77064562Y-29756562D01*
X77081832Y-29740910D01*
X77100552Y-29727026D01*
X77120543Y-29715044D01*
X77141613Y-29705079D01*
X77163557Y-29697227D01*
X77186166Y-29691563D01*
X77209221Y-29688144D01*
X77232500Y-29687000D01*
X77707500Y-29687000D01*
X77730779Y-29688144D01*
X77730779Y-29688144D01*
G37*
D11*
X77470000Y-30212000D03*
D10*
G36*
X75190779Y-27938144D02*
G01*
X75213834Y-27941563D01*
X75236443Y-27947227D01*
X75258387Y-27955079D01*
X75279457Y-27965044D01*
X75299448Y-27977026D01*
X75318168Y-27990910D01*
X75335438Y-28006562D01*
X75351090Y-28023832D01*
X75364974Y-28042552D01*
X75376956Y-28062543D01*
X75386921Y-28083613D01*
X75394773Y-28105557D01*
X75400437Y-28128166D01*
X75403856Y-28151221D01*
X75405000Y-28174500D01*
X75405000Y-28749500D01*
X75403856Y-28772779D01*
X75400437Y-28795834D01*
X75394773Y-28818443D01*
X75386921Y-28840387D01*
X75376956Y-28861457D01*
X75364974Y-28881448D01*
X75351090Y-28900168D01*
X75335438Y-28917438D01*
X75318168Y-28933090D01*
X75299448Y-28946974D01*
X75279457Y-28958956D01*
X75258387Y-28968921D01*
X75236443Y-28976773D01*
X75213834Y-28982437D01*
X75190779Y-28985856D01*
X75167500Y-28987000D01*
X74692500Y-28987000D01*
X74669221Y-28985856D01*
X74646166Y-28982437D01*
X74623557Y-28976773D01*
X74601613Y-28968921D01*
X74580543Y-28958956D01*
X74560552Y-28946974D01*
X74541832Y-28933090D01*
X74524562Y-28917438D01*
X74508910Y-28900168D01*
X74495026Y-28881448D01*
X74483044Y-28861457D01*
X74473079Y-28840387D01*
X74465227Y-28818443D01*
X74459563Y-28795834D01*
X74456144Y-28772779D01*
X74455000Y-28749500D01*
X74455000Y-28174500D01*
X74456144Y-28151221D01*
X74459563Y-28128166D01*
X74465227Y-28105557D01*
X74473079Y-28083613D01*
X74483044Y-28062543D01*
X74495026Y-28042552D01*
X74508910Y-28023832D01*
X74524562Y-28006562D01*
X74541832Y-27990910D01*
X74560552Y-27977026D01*
X74580543Y-27965044D01*
X74601613Y-27955079D01*
X74623557Y-27947227D01*
X74646166Y-27941563D01*
X74669221Y-27938144D01*
X74692500Y-27937000D01*
X75167500Y-27937000D01*
X75190779Y-27938144D01*
X75190779Y-27938144D01*
G37*
D11*
X74930000Y-28462000D03*
D10*
G36*
X75190779Y-29688144D02*
G01*
X75213834Y-29691563D01*
X75236443Y-29697227D01*
X75258387Y-29705079D01*
X75279457Y-29715044D01*
X75299448Y-29727026D01*
X75318168Y-29740910D01*
X75335438Y-29756562D01*
X75351090Y-29773832D01*
X75364974Y-29792552D01*
X75376956Y-29812543D01*
X75386921Y-29833613D01*
X75394773Y-29855557D01*
X75400437Y-29878166D01*
X75403856Y-29901221D01*
X75405000Y-29924500D01*
X75405000Y-30499500D01*
X75403856Y-30522779D01*
X75400437Y-30545834D01*
X75394773Y-30568443D01*
X75386921Y-30590387D01*
X75376956Y-30611457D01*
X75364974Y-30631448D01*
X75351090Y-30650168D01*
X75335438Y-30667438D01*
X75318168Y-30683090D01*
X75299448Y-30696974D01*
X75279457Y-30708956D01*
X75258387Y-30718921D01*
X75236443Y-30726773D01*
X75213834Y-30732437D01*
X75190779Y-30735856D01*
X75167500Y-30737000D01*
X74692500Y-30737000D01*
X74669221Y-30735856D01*
X74646166Y-30732437D01*
X74623557Y-30726773D01*
X74601613Y-30718921D01*
X74580543Y-30708956D01*
X74560552Y-30696974D01*
X74541832Y-30683090D01*
X74524562Y-30667438D01*
X74508910Y-30650168D01*
X74495026Y-30631448D01*
X74483044Y-30611457D01*
X74473079Y-30590387D01*
X74465227Y-30568443D01*
X74459563Y-30545834D01*
X74456144Y-30522779D01*
X74455000Y-30499500D01*
X74455000Y-29924500D01*
X74456144Y-29901221D01*
X74459563Y-29878166D01*
X74465227Y-29855557D01*
X74473079Y-29833613D01*
X74483044Y-29812543D01*
X74495026Y-29792552D01*
X74508910Y-29773832D01*
X74524562Y-29756562D01*
X74541832Y-29740910D01*
X74560552Y-29727026D01*
X74580543Y-29715044D01*
X74601613Y-29705079D01*
X74623557Y-29697227D01*
X74646166Y-29691563D01*
X74669221Y-29688144D01*
X74692500Y-29687000D01*
X75167500Y-29687000D01*
X75190779Y-29688144D01*
X75190779Y-29688144D01*
G37*
D11*
X74930000Y-30212000D03*
M02*
