G04 #@! TF.GenerationSoftware,KiCad,Pcbnew,5.1.4-e60b266~84~ubuntu18.04.1*
G04 #@! TF.CreationDate,2019-09-26T21:49:53+08:00*
G04 #@! TF.ProjectId,head,68656164-2e6b-4696-9361-645f70636258,rev?*
G04 #@! TF.SameCoordinates,Original*
G04 #@! TF.FileFunction,Legend,Bot*
G04 #@! TF.FilePolarity,Positive*
%FSLAX46Y46*%
G04 Gerber Fmt 4.6, Leading zero omitted, Abs format (unit mm)*
G04 Created by KiCad (PCBNEW 5.1.4-e60b266~84~ubuntu18.04.1) date 2019-09-26 21:49:53*
%MOMM*%
%LPD*%
G04 APERTURE LIST*
%ADD10C,0.300000*%
%ADD11C,0.120000*%
%ADD12C,0.200000*%
%ADD13C,0.150000*%
G04 APERTURE END LIST*
D10*
X100749571Y-41660428D02*
X100678142Y-41517571D01*
X100535285Y-41446142D01*
X99249571Y-41446142D01*
X100749571Y-42446142D02*
X100678142Y-42303285D01*
X100606714Y-42231857D01*
X100463857Y-42160428D01*
X100035285Y-42160428D01*
X99892428Y-42231857D01*
X99821000Y-42303285D01*
X99749571Y-42446142D01*
X99749571Y-42660428D01*
X99821000Y-42803285D01*
X99892428Y-42874714D01*
X100035285Y-42946142D01*
X100463857Y-42946142D01*
X100606714Y-42874714D01*
X100678142Y-42803285D01*
X100749571Y-42660428D01*
X100749571Y-42446142D01*
X99749571Y-44231857D02*
X100749571Y-44231857D01*
X99749571Y-43589000D02*
X100535285Y-43589000D01*
X100678142Y-43660428D01*
X100749571Y-43803285D01*
X100749571Y-44017571D01*
X100678142Y-44160428D01*
X100606714Y-44231857D01*
X100749571Y-44946142D02*
X99749571Y-44946142D01*
X99249571Y-44946142D02*
X99321000Y-44874714D01*
X99392428Y-44946142D01*
X99321000Y-45017571D01*
X99249571Y-44946142D01*
X99392428Y-44946142D01*
X100678142Y-45589000D02*
X100749571Y-45731857D01*
X100749571Y-46017571D01*
X100678142Y-46160428D01*
X100535285Y-46231857D01*
X100463857Y-46231857D01*
X100321000Y-46160428D01*
X100249571Y-46017571D01*
X100249571Y-45803285D01*
X100178142Y-45660428D01*
X100035285Y-45589000D01*
X99963857Y-45589000D01*
X99821000Y-45660428D01*
X99749571Y-45803285D01*
X99749571Y-46017571D01*
X99821000Y-46160428D01*
X100678142Y-47517571D02*
X100749571Y-47374714D01*
X100749571Y-47089000D01*
X100678142Y-46946142D01*
X100606714Y-46874714D01*
X100463857Y-46803285D01*
X100035285Y-46803285D01*
X99892428Y-46874714D01*
X99821000Y-46946142D01*
X99749571Y-47089000D01*
X99749571Y-47374714D01*
X99821000Y-47517571D01*
X100749571Y-48160428D02*
X99249571Y-48160428D01*
X100178142Y-48303285D02*
X100749571Y-48731857D01*
X99749571Y-48731857D02*
X100321000Y-48160428D01*
X100749571Y-49589000D02*
X100678142Y-49446142D01*
X100535285Y-49374714D01*
X99249571Y-49374714D01*
X100749571Y-50803285D02*
X99963857Y-50803285D01*
X99821000Y-50731857D01*
X99749571Y-50589000D01*
X99749571Y-50303285D01*
X99821000Y-50160428D01*
X100678142Y-50803285D02*
X100749571Y-50660428D01*
X100749571Y-50303285D01*
X100678142Y-50160428D01*
X100535285Y-50089000D01*
X100392428Y-50089000D01*
X100249571Y-50160428D01*
X100178142Y-50303285D01*
X100178142Y-50660428D01*
X100106714Y-50803285D01*
X99749571Y-51374714D02*
X100749571Y-51660428D01*
X100035285Y-51946142D01*
X100749571Y-52231857D01*
X99749571Y-52517571D01*
X100606714Y-53089000D02*
X100678142Y-53160428D01*
X100749571Y-53089000D01*
X100678142Y-53017571D01*
X100606714Y-53089000D01*
X100749571Y-53089000D01*
X99749571Y-54446142D02*
X100963857Y-54446142D01*
X101106714Y-54374714D01*
X101178142Y-54303285D01*
X101249571Y-54160428D01*
X101249571Y-53946142D01*
X101178142Y-53803285D01*
X100678142Y-54446142D02*
X100749571Y-54303285D01*
X100749571Y-54017571D01*
X100678142Y-53874714D01*
X100606714Y-53803285D01*
X100463857Y-53731857D01*
X100035285Y-53731857D01*
X99892428Y-53803285D01*
X99821000Y-53874714D01*
X99749571Y-54017571D01*
X99749571Y-54303285D01*
X99821000Y-54446142D01*
X100749571Y-55160428D02*
X99749571Y-55160428D01*
X99249571Y-55160428D02*
X99321000Y-55089000D01*
X99392428Y-55160428D01*
X99321000Y-55231857D01*
X99249571Y-55160428D01*
X99392428Y-55160428D01*
X99749571Y-55660428D02*
X99749571Y-56231857D01*
X99249571Y-55874714D02*
X100535285Y-55874714D01*
X100678142Y-55946142D01*
X100749571Y-56089000D01*
X100749571Y-56231857D01*
X100749571Y-56731857D02*
X99249571Y-56731857D01*
X100749571Y-57374714D02*
X99963857Y-57374714D01*
X99821000Y-57303285D01*
X99749571Y-57160428D01*
X99749571Y-56946142D01*
X99821000Y-56803285D01*
X99892428Y-56731857D01*
X99749571Y-58731857D02*
X100749571Y-58731857D01*
X99749571Y-58089000D02*
X100535285Y-58089000D01*
X100678142Y-58160428D01*
X100749571Y-58303285D01*
X100749571Y-58517571D01*
X100678142Y-58660428D01*
X100606714Y-58731857D01*
X100749571Y-59446142D02*
X99249571Y-59446142D01*
X99821000Y-59446142D02*
X99749571Y-59589000D01*
X99749571Y-59874714D01*
X99821000Y-60017571D01*
X99892428Y-60089000D01*
X100035285Y-60160428D01*
X100463857Y-60160428D01*
X100606714Y-60089000D01*
X100678142Y-60017571D01*
X100749571Y-59874714D01*
X100749571Y-59589000D01*
X100678142Y-59446142D01*
X100606714Y-60803285D02*
X100678142Y-60874714D01*
X100749571Y-60803285D01*
X100678142Y-60731857D01*
X100606714Y-60803285D01*
X100749571Y-60803285D01*
X100749571Y-61517571D02*
X99749571Y-61517571D01*
X99249571Y-61517571D02*
X99321000Y-61446142D01*
X99392428Y-61517571D01*
X99321000Y-61589000D01*
X99249571Y-61517571D01*
X99392428Y-61517571D01*
X100749571Y-62446142D02*
X100678142Y-62303285D01*
X100606714Y-62231857D01*
X100463857Y-62160428D01*
X100035285Y-62160428D01*
X99892428Y-62231857D01*
X99821000Y-62303285D01*
X99749571Y-62446142D01*
X99749571Y-62660428D01*
X99821000Y-62803285D01*
X99892428Y-62874714D01*
X100035285Y-62946142D01*
X100463857Y-62946142D01*
X100606714Y-62874714D01*
X100678142Y-62803285D01*
X100749571Y-62660428D01*
X100749571Y-62446142D01*
X101942428Y-41374714D02*
X101871000Y-41446142D01*
X101799571Y-41589000D01*
X101799571Y-41946142D01*
X101871000Y-42089000D01*
X101942428Y-42160428D01*
X102085285Y-42231857D01*
X102228142Y-42231857D01*
X102442428Y-42160428D01*
X103299571Y-41303285D01*
X103299571Y-42231857D01*
X101799571Y-43160428D02*
X101799571Y-43303285D01*
X101871000Y-43446142D01*
X101942428Y-43517571D01*
X102085285Y-43589000D01*
X102371000Y-43660428D01*
X102728142Y-43660428D01*
X103013857Y-43589000D01*
X103156714Y-43517571D01*
X103228142Y-43446142D01*
X103299571Y-43303285D01*
X103299571Y-43160428D01*
X103228142Y-43017571D01*
X103156714Y-42946142D01*
X103013857Y-42874714D01*
X102728142Y-42803285D01*
X102371000Y-42803285D01*
X102085285Y-42874714D01*
X101942428Y-42946142D01*
X101871000Y-43017571D01*
X101799571Y-43160428D01*
X103299571Y-45089000D02*
X103299571Y-44231857D01*
X103299571Y-44660428D02*
X101799571Y-44660428D01*
X102013857Y-44517571D01*
X102156714Y-44374714D01*
X102228142Y-44231857D01*
X103299571Y-45803285D02*
X103299571Y-46089000D01*
X103228142Y-46231857D01*
X103156714Y-46303285D01*
X102942428Y-46446142D01*
X102656714Y-46517571D01*
X102085285Y-46517571D01*
X101942428Y-46446142D01*
X101871000Y-46374714D01*
X101799571Y-46231857D01*
X101799571Y-45946142D01*
X101871000Y-45803285D01*
X101942428Y-45731857D01*
X102085285Y-45660428D01*
X102442428Y-45660428D01*
X102585285Y-45731857D01*
X102656714Y-45803285D01*
X102728142Y-45946142D01*
X102728142Y-46231857D01*
X102656714Y-46374714D01*
X102585285Y-46446142D01*
X102442428Y-46517571D01*
X102728142Y-47160428D02*
X102728142Y-48303285D01*
X103228142Y-48946142D02*
X103299571Y-49160428D01*
X103299571Y-49517571D01*
X103228142Y-49660428D01*
X103156714Y-49731857D01*
X103013857Y-49803285D01*
X102871000Y-49803285D01*
X102728142Y-49731857D01*
X102656714Y-49660428D01*
X102585285Y-49517571D01*
X102513857Y-49231857D01*
X102442428Y-49089000D01*
X102371000Y-49017571D01*
X102228142Y-48946142D01*
X102085285Y-48946142D01*
X101942428Y-49017571D01*
X101871000Y-49089000D01*
X101799571Y-49231857D01*
X101799571Y-49589000D01*
X101871000Y-49803285D01*
X102513857Y-50446142D02*
X102513857Y-50946142D01*
X103299571Y-51160428D02*
X103299571Y-50446142D01*
X101799571Y-50446142D01*
X101799571Y-51160428D01*
X103299571Y-51803285D02*
X101799571Y-51803285D01*
X101799571Y-52374714D01*
X101871000Y-52517571D01*
X101942428Y-52589000D01*
X102085285Y-52660428D01*
X102299571Y-52660428D01*
X102442428Y-52589000D01*
X102513857Y-52517571D01*
X102585285Y-52374714D01*
X102585285Y-51803285D01*
X102728142Y-53303285D02*
X102728142Y-54446142D01*
X101942428Y-55089000D02*
X101871000Y-55160428D01*
X101799571Y-55303285D01*
X101799571Y-55660428D01*
X101871000Y-55803285D01*
X101942428Y-55874714D01*
X102085285Y-55946142D01*
X102228142Y-55946142D01*
X102442428Y-55874714D01*
X103299571Y-55017571D01*
X103299571Y-55946142D01*
X101799571Y-57231857D02*
X101799571Y-56946142D01*
X101871000Y-56803285D01*
X101942428Y-56731857D01*
X102156714Y-56589000D01*
X102442428Y-56517571D01*
X103013857Y-56517571D01*
X103156714Y-56589000D01*
X103228142Y-56660428D01*
X103299571Y-56803285D01*
X103299571Y-57089000D01*
X103228142Y-57231857D01*
X103156714Y-57303285D01*
X103013857Y-57374714D01*
X102656714Y-57374714D01*
X102513857Y-57303285D01*
X102442428Y-57231857D01*
X102371000Y-57089000D01*
X102371000Y-56803285D01*
X102442428Y-56660428D01*
X102513857Y-56589000D01*
X102656714Y-56517571D01*
X102728142Y-58017571D02*
X102728142Y-59160428D01*
X102299571Y-59874714D02*
X103799571Y-59874714D01*
X102371000Y-59874714D02*
X102299571Y-60017571D01*
X102299571Y-60303285D01*
X102371000Y-60446142D01*
X102442428Y-60517571D01*
X102585285Y-60589000D01*
X103013857Y-60589000D01*
X103156714Y-60517571D01*
X103228142Y-60446142D01*
X103299571Y-60303285D01*
X103299571Y-60017571D01*
X103228142Y-59874714D01*
X103299571Y-61231857D02*
X102299571Y-61231857D01*
X102585285Y-61231857D02*
X102442428Y-61303285D01*
X102371000Y-61374714D01*
X102299571Y-61517571D01*
X102299571Y-61660428D01*
X103299571Y-62160428D02*
X102299571Y-62160428D01*
X101799571Y-62160428D02*
X101871000Y-62089000D01*
X101942428Y-62160428D01*
X101871000Y-62231857D01*
X101799571Y-62160428D01*
X101942428Y-62160428D01*
X102299571Y-62874714D02*
X103299571Y-62874714D01*
X102442428Y-62874714D02*
X102371000Y-62946142D01*
X102299571Y-63089000D01*
X102299571Y-63303285D01*
X102371000Y-63446142D01*
X102513857Y-63517571D01*
X103299571Y-63517571D01*
X102299571Y-64017571D02*
X102299571Y-64589000D01*
X101799571Y-64231857D02*
X103085285Y-64231857D01*
X103228142Y-64303285D01*
X103299571Y-64446142D01*
X103299571Y-64589000D01*
X103299571Y-65874714D02*
X103299571Y-65017571D01*
X103299571Y-65446142D02*
X101799571Y-65446142D01*
X102013857Y-65303285D01*
X102156714Y-65160428D01*
X102228142Y-65017571D01*
X106361571Y-41514571D02*
X107861571Y-42014571D01*
X106361571Y-42514571D01*
X106361571Y-43300285D02*
X106361571Y-43586000D01*
X106433000Y-43728857D01*
X106575857Y-43871714D01*
X106861571Y-43943142D01*
X107361571Y-43943142D01*
X107647285Y-43871714D01*
X107790142Y-43728857D01*
X107861571Y-43586000D01*
X107861571Y-43300285D01*
X107790142Y-43157428D01*
X107647285Y-43014571D01*
X107361571Y-42943142D01*
X106861571Y-42943142D01*
X106575857Y-43014571D01*
X106433000Y-43157428D01*
X106361571Y-43300285D01*
X107861571Y-45443142D02*
X107147285Y-44943142D01*
X107861571Y-44586000D02*
X106361571Y-44586000D01*
X106361571Y-45157428D01*
X106433000Y-45300285D01*
X106504428Y-45371714D01*
X106647285Y-45443142D01*
X106861571Y-45443142D01*
X107004428Y-45371714D01*
X107075857Y-45300285D01*
X107147285Y-45157428D01*
X107147285Y-44586000D01*
X106361571Y-46371714D02*
X106361571Y-46657428D01*
X106433000Y-46800285D01*
X106575857Y-46943142D01*
X106861571Y-47014571D01*
X107361571Y-47014571D01*
X107647285Y-46943142D01*
X107790142Y-46800285D01*
X107861571Y-46657428D01*
X107861571Y-46371714D01*
X107790142Y-46228857D01*
X107647285Y-46086000D01*
X107361571Y-46014571D01*
X106861571Y-46014571D01*
X106575857Y-46086000D01*
X106433000Y-46228857D01*
X106361571Y-46371714D01*
X107861571Y-47657428D02*
X106361571Y-47657428D01*
X107861571Y-48514571D01*
X106361571Y-48514571D01*
X107290142Y-49228857D02*
X107290142Y-50371714D01*
X106361571Y-50943142D02*
X106361571Y-51871714D01*
X106933000Y-51371714D01*
X106933000Y-51586000D01*
X107004428Y-51728857D01*
X107075857Y-51800285D01*
X107218714Y-51871714D01*
X107575857Y-51871714D01*
X107718714Y-51800285D01*
X107790142Y-51728857D01*
X107861571Y-51586000D01*
X107861571Y-51157428D01*
X107790142Y-51014571D01*
X107718714Y-50943142D01*
X107861571Y-52514571D02*
X106361571Y-52514571D01*
X106361571Y-52871714D01*
X106433000Y-53086000D01*
X106575857Y-53228857D01*
X106718714Y-53300285D01*
X107004428Y-53371714D01*
X107218714Y-53371714D01*
X107504428Y-53300285D01*
X107647285Y-53228857D01*
X107790142Y-53086000D01*
X107861571Y-52871714D01*
X107861571Y-52514571D01*
X107290142Y-54014571D02*
X107290142Y-55157428D01*
X107861571Y-55871714D02*
X106361571Y-55871714D01*
X106361571Y-56443142D01*
X106433000Y-56586000D01*
X106504428Y-56657428D01*
X106647285Y-56728857D01*
X106861571Y-56728857D01*
X107004428Y-56657428D01*
X107075857Y-56586000D01*
X107147285Y-56443142D01*
X107147285Y-55871714D01*
X107861571Y-58228857D02*
X107147285Y-57728857D01*
X107861571Y-57371714D02*
X106361571Y-57371714D01*
X106361571Y-57943142D01*
X106433000Y-58086000D01*
X106504428Y-58157428D01*
X106647285Y-58228857D01*
X106861571Y-58228857D01*
X107004428Y-58157428D01*
X107075857Y-58086000D01*
X107147285Y-57943142D01*
X107147285Y-57371714D01*
X107861571Y-58871714D02*
X106361571Y-58871714D01*
X107861571Y-59586000D02*
X106361571Y-59586000D01*
X107861571Y-60443142D01*
X106361571Y-60443142D01*
X106361571Y-60943142D02*
X106361571Y-61800285D01*
X107861571Y-61371714D02*
X106361571Y-61371714D01*
X107075857Y-62300285D02*
X107075857Y-62800285D01*
X107861571Y-63014571D02*
X107861571Y-62300285D01*
X106361571Y-62300285D01*
X106361571Y-63014571D01*
X107861571Y-64514571D02*
X107147285Y-64014571D01*
X107861571Y-63657428D02*
X106361571Y-63657428D01*
X106361571Y-64228857D01*
X106433000Y-64371714D01*
X106504428Y-64443142D01*
X106647285Y-64514571D01*
X106861571Y-64514571D01*
X107004428Y-64443142D01*
X107075857Y-64371714D01*
X107147285Y-64228857D01*
X107147285Y-63657428D01*
X110411571Y-43264571D02*
X108911571Y-43264571D01*
X109625857Y-43264571D02*
X109625857Y-44121714D01*
X110411571Y-44121714D02*
X108911571Y-44121714D01*
X108911571Y-45121714D02*
X108911571Y-45407428D01*
X108983000Y-45550285D01*
X109125857Y-45693142D01*
X109411571Y-45764571D01*
X109911571Y-45764571D01*
X110197285Y-45693142D01*
X110340142Y-45550285D01*
X110411571Y-45407428D01*
X110411571Y-45121714D01*
X110340142Y-44978857D01*
X110197285Y-44836000D01*
X109911571Y-44764571D01*
X109411571Y-44764571D01*
X109125857Y-44836000D01*
X108983000Y-44978857D01*
X108911571Y-45121714D01*
X108911571Y-46193142D02*
X108911571Y-47050285D01*
X110411571Y-46621714D02*
X108911571Y-46621714D01*
X109625857Y-47550285D02*
X109625857Y-48050285D01*
X110411571Y-48264571D02*
X110411571Y-47550285D01*
X108911571Y-47550285D01*
X108911571Y-48264571D01*
X110411571Y-48907428D02*
X108911571Y-48907428D01*
X110411571Y-49764571D01*
X108911571Y-49764571D01*
X110411571Y-50478857D02*
X108911571Y-50478857D01*
X108911571Y-50836000D01*
X108983000Y-51050285D01*
X109125857Y-51193142D01*
X109268714Y-51264571D01*
X109554428Y-51336000D01*
X109768714Y-51336000D01*
X110054428Y-51264571D01*
X110197285Y-51193142D01*
X110340142Y-51050285D01*
X110411571Y-50836000D01*
X110411571Y-50478857D01*
X108911571Y-52907428D02*
X108911571Y-53764571D01*
X110411571Y-53336000D02*
X108911571Y-53336000D01*
X109625857Y-54264571D02*
X109625857Y-54764571D01*
X110411571Y-54978857D02*
X110411571Y-54264571D01*
X108911571Y-54264571D01*
X108911571Y-54978857D01*
X110411571Y-56478857D02*
X109697285Y-55978857D01*
X110411571Y-55621714D02*
X108911571Y-55621714D01*
X108911571Y-56193142D01*
X108983000Y-56336000D01*
X109054428Y-56407428D01*
X109197285Y-56478857D01*
X109411571Y-56478857D01*
X109554428Y-56407428D01*
X109625857Y-56336000D01*
X109697285Y-56193142D01*
X109697285Y-55621714D01*
X110411571Y-57121714D02*
X108911571Y-57121714D01*
X109983000Y-57621714D01*
X108911571Y-58121714D01*
X110411571Y-58121714D01*
X110411571Y-58836000D02*
X108911571Y-58836000D01*
X110411571Y-59550285D02*
X108911571Y-59550285D01*
X110411571Y-60407428D01*
X108911571Y-60407428D01*
X109983000Y-61050285D02*
X109983000Y-61764571D01*
X110411571Y-60907428D02*
X108911571Y-61407428D01*
X110411571Y-61907428D01*
X110411571Y-63121714D02*
X110411571Y-62407428D01*
X108911571Y-62407428D01*
D11*
X94659267Y-37721000D02*
X94316733Y-37721000D01*
X94659267Y-36701000D02*
X94316733Y-36701000D01*
X97110733Y-75309000D02*
X97453267Y-75309000D01*
X97110733Y-76329000D02*
X97453267Y-76329000D01*
X97110733Y-73023000D02*
X97453267Y-73023000D01*
X97110733Y-74043000D02*
X97453267Y-74043000D01*
X97110733Y-70483000D02*
X97453267Y-70483000D01*
X97110733Y-71503000D02*
X97453267Y-71503000D01*
D12*
X107727523Y-73366380D02*
X107156095Y-73366380D01*
X107441809Y-74366380D02*
X107441809Y-73366380D01*
X106822761Y-73842571D02*
X106489428Y-73842571D01*
X106346571Y-74366380D02*
X106822761Y-74366380D01*
X106822761Y-73366380D01*
X106346571Y-73366380D01*
X105918000Y-74366380D02*
X105918000Y-73366380D01*
X105584666Y-74080666D01*
X105251333Y-73366380D01*
X105251333Y-74366380D01*
X104775142Y-74366380D02*
X104775142Y-73366380D01*
X104394190Y-73366380D01*
X104298952Y-73414000D01*
X104251333Y-73461619D01*
X104203714Y-73556857D01*
X104203714Y-73699714D01*
X104251333Y-73794952D01*
X104298952Y-73842571D01*
X104394190Y-73890190D01*
X104775142Y-73890190D01*
X92400380Y-62270000D02*
X91400380Y-62270000D01*
X91876571Y-62270000D02*
X91876571Y-62841428D01*
X92400380Y-62841428D02*
X91400380Y-62841428D01*
X91876571Y-63317619D02*
X91876571Y-63650952D01*
X92400380Y-63793809D02*
X92400380Y-63317619D01*
X91400380Y-63317619D01*
X91400380Y-63793809D01*
X92114666Y-64174761D02*
X92114666Y-64650952D01*
X92400380Y-64079523D02*
X91400380Y-64412857D01*
X92400380Y-64746190D01*
X91400380Y-64936666D02*
X91400380Y-65508095D01*
X92400380Y-65222380D02*
X91400380Y-65222380D01*
X91876571Y-65841428D02*
X91876571Y-66174761D01*
X92400380Y-66317619D02*
X92400380Y-65841428D01*
X91400380Y-65841428D01*
X91400380Y-66317619D01*
X92400380Y-67317619D02*
X91924190Y-66984285D01*
X92400380Y-66746190D02*
X91400380Y-66746190D01*
X91400380Y-67127142D01*
X91448000Y-67222380D01*
X91495619Y-67270000D01*
X91590857Y-67317619D01*
X91733714Y-67317619D01*
X91828952Y-67270000D01*
X91876571Y-67222380D01*
X91924190Y-67127142D01*
X91924190Y-66746190D01*
X91876571Y-54054476D02*
X91876571Y-53721142D01*
X92400380Y-53721142D02*
X91400380Y-53721142D01*
X91400380Y-54197333D01*
X92114666Y-54530666D02*
X92114666Y-55006857D01*
X92400380Y-54435428D02*
X91400380Y-54768761D01*
X92400380Y-55102095D01*
X92400380Y-55435428D02*
X91400380Y-55435428D01*
X92400380Y-56006857D01*
X91400380Y-56006857D01*
X92305142Y-42053238D02*
X92352761Y-42005619D01*
X92400380Y-41862761D01*
X92400380Y-41767523D01*
X92352761Y-41624666D01*
X92257523Y-41529428D01*
X92162285Y-41481809D01*
X91971809Y-41434190D01*
X91828952Y-41434190D01*
X91638476Y-41481809D01*
X91543238Y-41529428D01*
X91448000Y-41624666D01*
X91400380Y-41767523D01*
X91400380Y-41862761D01*
X91448000Y-42005619D01*
X91495619Y-42053238D01*
X91400380Y-42672285D02*
X91400380Y-42862761D01*
X91448000Y-42958000D01*
X91543238Y-43053238D01*
X91733714Y-43100857D01*
X92067047Y-43100857D01*
X92257523Y-43053238D01*
X92352761Y-42958000D01*
X92400380Y-42862761D01*
X92400380Y-42672285D01*
X92352761Y-42577047D01*
X92257523Y-42481809D01*
X92067047Y-42434190D01*
X91733714Y-42434190D01*
X91543238Y-42481809D01*
X91448000Y-42577047D01*
X91400380Y-42672285D01*
X91400380Y-43719904D02*
X91400380Y-43910380D01*
X91448000Y-44005619D01*
X91543238Y-44100857D01*
X91733714Y-44148476D01*
X92067047Y-44148476D01*
X92257523Y-44100857D01*
X92352761Y-44005619D01*
X92400380Y-43910380D01*
X92400380Y-43719904D01*
X92352761Y-43624666D01*
X92257523Y-43529428D01*
X92067047Y-43481809D01*
X91733714Y-43481809D01*
X91543238Y-43529428D01*
X91448000Y-43624666D01*
X91400380Y-43719904D01*
X92400380Y-45053238D02*
X92400380Y-44577047D01*
X91400380Y-44577047D01*
X92495619Y-45148476D02*
X92495619Y-45910380D01*
X91876571Y-46481809D02*
X91876571Y-46148476D01*
X92400380Y-46148476D02*
X91400380Y-46148476D01*
X91400380Y-46624666D01*
X92114666Y-46958000D02*
X92114666Y-47434190D01*
X92400380Y-46862761D02*
X91400380Y-47196095D01*
X92400380Y-47529428D01*
X92400380Y-47862761D02*
X91400380Y-47862761D01*
X92400380Y-48434190D01*
X91400380Y-48434190D01*
D13*
X91860666Y-37790380D02*
X92194000Y-37314190D01*
X92432095Y-37790380D02*
X92432095Y-36790380D01*
X92051142Y-36790380D01*
X91955904Y-36838000D01*
X91908285Y-36885619D01*
X91860666Y-36980857D01*
X91860666Y-37123714D01*
X91908285Y-37218952D01*
X91955904Y-37266571D01*
X92051142Y-37314190D01*
X92432095Y-37314190D01*
X91003523Y-37123714D02*
X91003523Y-37790380D01*
X91241619Y-36742761D02*
X91479714Y-37457047D01*
X90860666Y-37457047D01*
X100496666Y-75636380D02*
X100830000Y-75160190D01*
X101068095Y-75636380D02*
X101068095Y-74636380D01*
X100687142Y-74636380D01*
X100591904Y-74684000D01*
X100544285Y-74731619D01*
X100496666Y-74826857D01*
X100496666Y-74969714D01*
X100544285Y-75064952D01*
X100591904Y-75112571D01*
X100687142Y-75160190D01*
X101068095Y-75160190D01*
X100163333Y-74636380D02*
X99544285Y-74636380D01*
X99877619Y-75017333D01*
X99734761Y-75017333D01*
X99639523Y-75064952D01*
X99591904Y-75112571D01*
X99544285Y-75207809D01*
X99544285Y-75445904D01*
X99591904Y-75541142D01*
X99639523Y-75588761D01*
X99734761Y-75636380D01*
X100020476Y-75636380D01*
X100115714Y-75588761D01*
X100163333Y-75541142D01*
X100496666Y-74112380D02*
X100830000Y-73636190D01*
X101068095Y-74112380D02*
X101068095Y-73112380D01*
X100687142Y-73112380D01*
X100591904Y-73160000D01*
X100544285Y-73207619D01*
X100496666Y-73302857D01*
X100496666Y-73445714D01*
X100544285Y-73540952D01*
X100591904Y-73588571D01*
X100687142Y-73636190D01*
X101068095Y-73636190D01*
X100115714Y-73207619D02*
X100068095Y-73160000D01*
X99972857Y-73112380D01*
X99734761Y-73112380D01*
X99639523Y-73160000D01*
X99591904Y-73207619D01*
X99544285Y-73302857D01*
X99544285Y-73398095D01*
X99591904Y-73540952D01*
X100163333Y-74112380D01*
X99544285Y-74112380D01*
X100496666Y-72588380D02*
X100830000Y-72112190D01*
X101068095Y-72588380D02*
X101068095Y-71588380D01*
X100687142Y-71588380D01*
X100591904Y-71636000D01*
X100544285Y-71683619D01*
X100496666Y-71778857D01*
X100496666Y-71921714D01*
X100544285Y-72016952D01*
X100591904Y-72064571D01*
X100687142Y-72112190D01*
X101068095Y-72112190D01*
X99544285Y-72588380D02*
X100115714Y-72588380D01*
X99830000Y-72588380D02*
X99830000Y-71588380D01*
X99925238Y-71731238D01*
X100020476Y-71826476D01*
X100115714Y-71874095D01*
M02*
