G04 #@! TF.GenerationSoftware,KiCad,Pcbnew,5.1.4-e60b266~84~ubuntu18.04.1*
G04 #@! TF.CreationDate,2019-09-27T15:55:01+08:00*
G04 #@! TF.ProjectId,head,68656164-2e6b-4696-9361-645f70636258,rev?*
G04 #@! TF.SameCoordinates,Original*
G04 #@! TF.FileFunction,Soldermask,Bot*
G04 #@! TF.FilePolarity,Negative*
%FSLAX46Y46*%
G04 Gerber Fmt 4.6, Leading zero omitted, Abs format (unit mm)*
G04 Created by KiCad (PCBNEW 5.1.4-e60b266~84~ubuntu18.04.1) date 2019-09-27 15:55:01*
%MOMM*%
%LPD*%
G04 APERTURE LIST*
%ADD10C,1.200000*%
%ADD11C,0.100000*%
G04 APERTURE END LIST*
D10*
X117094000Y-32131000D02*
G75*
G03X117094000Y-32131000I-1905000J0D01*
G01*
X117094000Y-75565000D02*
G75*
G03X117094000Y-75565000I-1905000J0D01*
G01*
X93726000Y-75565000D02*
G75*
G03X93726000Y-75565000I-1905000J0D01*
G01*
X93726000Y-32131000D02*
G75*
G03X93726000Y-32131000I-1905000J0D01*
G01*
D11*
G36*
X116020313Y-72824523D02*
G01*
X116538980Y-73039362D01*
X116538981Y-73039363D01*
X117005769Y-73351260D01*
X117402740Y-73748231D01*
X117611143Y-74060129D01*
X117714638Y-74215020D01*
X117929477Y-74733687D01*
X118039000Y-75284298D01*
X118039000Y-75845702D01*
X117929477Y-76396313D01*
X117714638Y-76914980D01*
X117714637Y-76914981D01*
X117402740Y-77381769D01*
X117005769Y-77778740D01*
X116693871Y-77987143D01*
X116538980Y-78090638D01*
X116020313Y-78305477D01*
X115469702Y-78415000D01*
X114908298Y-78415000D01*
X114357687Y-78305477D01*
X113839020Y-78090638D01*
X113684129Y-77987143D01*
X113372231Y-77778740D01*
X112975260Y-77381769D01*
X112663363Y-76914981D01*
X112663362Y-76914980D01*
X112448523Y-76396313D01*
X112339000Y-75845702D01*
X112339000Y-75284298D01*
X112448523Y-74733687D01*
X112663362Y-74215020D01*
X112766857Y-74060129D01*
X112975260Y-73748231D01*
X113372231Y-73351260D01*
X113839019Y-73039363D01*
X113839020Y-73039362D01*
X114357687Y-72824523D01*
X114908298Y-72715000D01*
X115469702Y-72715000D01*
X116020313Y-72824523D01*
X116020313Y-72824523D01*
G37*
G36*
X92652313Y-72824523D02*
G01*
X93170980Y-73039362D01*
X93170981Y-73039363D01*
X93637769Y-73351260D01*
X94034740Y-73748231D01*
X94243143Y-74060129D01*
X94346638Y-74215020D01*
X94561477Y-74733687D01*
X94671000Y-75284298D01*
X94671000Y-75845702D01*
X94561477Y-76396313D01*
X94346638Y-76914980D01*
X94346637Y-76914981D01*
X94034740Y-77381769D01*
X93637769Y-77778740D01*
X93325871Y-77987143D01*
X93170980Y-78090638D01*
X92652313Y-78305477D01*
X92101702Y-78415000D01*
X91540298Y-78415000D01*
X90989687Y-78305477D01*
X90471020Y-78090638D01*
X90316129Y-77987143D01*
X90004231Y-77778740D01*
X89607260Y-77381769D01*
X89295363Y-76914981D01*
X89295362Y-76914980D01*
X89080523Y-76396313D01*
X88971000Y-75845702D01*
X88971000Y-75284298D01*
X89080523Y-74733687D01*
X89295362Y-74215020D01*
X89398857Y-74060129D01*
X89607260Y-73748231D01*
X90004231Y-73351260D01*
X90471019Y-73039363D01*
X90471020Y-73039362D01*
X90989687Y-72824523D01*
X91540298Y-72715000D01*
X92101702Y-72715000D01*
X92652313Y-72824523D01*
X92652313Y-72824523D01*
G37*
G36*
X106155499Y-71423445D02*
G01*
X106192995Y-71434820D01*
X106227554Y-71453292D01*
X106257847Y-71478153D01*
X106282708Y-71508446D01*
X106301180Y-71543005D01*
X106312555Y-71580501D01*
X106317000Y-71625638D01*
X106317000Y-72364362D01*
X106312555Y-72409499D01*
X106301180Y-72446995D01*
X106282708Y-72481554D01*
X106257847Y-72511847D01*
X106227554Y-72536708D01*
X106192995Y-72555180D01*
X106155499Y-72566555D01*
X106110362Y-72571000D01*
X105471638Y-72571000D01*
X105426501Y-72566555D01*
X105389005Y-72555180D01*
X105354446Y-72536708D01*
X105324153Y-72511847D01*
X105299292Y-72481554D01*
X105280820Y-72446995D01*
X105269445Y-72409499D01*
X105265000Y-72364362D01*
X105265000Y-71625638D01*
X105269445Y-71580501D01*
X105280820Y-71543005D01*
X105299292Y-71508446D01*
X105324153Y-71478153D01*
X105354446Y-71453292D01*
X105389005Y-71434820D01*
X105426501Y-71423445D01*
X105471638Y-71419000D01*
X106110362Y-71419000D01*
X106155499Y-71423445D01*
X106155499Y-71423445D01*
G37*
G36*
X108695499Y-71423445D02*
G01*
X108732995Y-71434820D01*
X108767554Y-71453292D01*
X108797847Y-71478153D01*
X108822708Y-71508446D01*
X108841180Y-71543005D01*
X108852555Y-71580501D01*
X108857000Y-71625638D01*
X108857000Y-72364362D01*
X108852555Y-72409499D01*
X108841180Y-72446995D01*
X108822708Y-72481554D01*
X108797847Y-72511847D01*
X108767554Y-72536708D01*
X108732995Y-72555180D01*
X108695499Y-72566555D01*
X108650362Y-72571000D01*
X108011638Y-72571000D01*
X107966501Y-72566555D01*
X107929005Y-72555180D01*
X107894446Y-72536708D01*
X107864153Y-72511847D01*
X107839292Y-72481554D01*
X107820820Y-72446995D01*
X107809445Y-72409499D01*
X107805000Y-72364362D01*
X107805000Y-71625638D01*
X107809445Y-71580501D01*
X107820820Y-71543005D01*
X107839292Y-71508446D01*
X107864153Y-71478153D01*
X107894446Y-71453292D01*
X107929005Y-71434820D01*
X107966501Y-71423445D01*
X108011638Y-71419000D01*
X108650362Y-71419000D01*
X108695499Y-71423445D01*
X108695499Y-71423445D01*
G37*
G36*
X111235499Y-71423445D02*
G01*
X111272995Y-71434820D01*
X111307554Y-71453292D01*
X111337847Y-71478153D01*
X111362708Y-71508446D01*
X111381180Y-71543005D01*
X111392555Y-71580501D01*
X111397000Y-71625638D01*
X111397000Y-72364362D01*
X111392555Y-72409499D01*
X111381180Y-72446995D01*
X111362708Y-72481554D01*
X111337847Y-72511847D01*
X111307554Y-72536708D01*
X111272995Y-72555180D01*
X111235499Y-72566555D01*
X111190362Y-72571000D01*
X110551638Y-72571000D01*
X110506501Y-72566555D01*
X110469005Y-72555180D01*
X110434446Y-72536708D01*
X110404153Y-72511847D01*
X110379292Y-72481554D01*
X110360820Y-72446995D01*
X110349445Y-72409499D01*
X110345000Y-72364362D01*
X110345000Y-71625638D01*
X110349445Y-71580501D01*
X110360820Y-71543005D01*
X110379292Y-71508446D01*
X110404153Y-71478153D01*
X110434446Y-71453292D01*
X110469005Y-71434820D01*
X110506501Y-71423445D01*
X110551638Y-71419000D01*
X111190362Y-71419000D01*
X111235499Y-71423445D01*
X111235499Y-71423445D01*
G37*
G36*
X103615499Y-71423445D02*
G01*
X103652995Y-71434820D01*
X103687554Y-71453292D01*
X103717847Y-71478153D01*
X103742708Y-71508446D01*
X103761180Y-71543005D01*
X103772555Y-71580501D01*
X103777000Y-71625638D01*
X103777000Y-72364362D01*
X103772555Y-72409499D01*
X103761180Y-72446995D01*
X103742708Y-72481554D01*
X103717847Y-72511847D01*
X103687554Y-72536708D01*
X103652995Y-72555180D01*
X103615499Y-72566555D01*
X103570362Y-72571000D01*
X102931638Y-72571000D01*
X102886501Y-72566555D01*
X102849005Y-72555180D01*
X102814446Y-72536708D01*
X102784153Y-72511847D01*
X102759292Y-72481554D01*
X102740820Y-72446995D01*
X102729445Y-72409499D01*
X102725000Y-72364362D01*
X102725000Y-71625638D01*
X102729445Y-71580501D01*
X102740820Y-71543005D01*
X102759292Y-71508446D01*
X102784153Y-71478153D01*
X102814446Y-71453292D01*
X102849005Y-71434820D01*
X102886501Y-71423445D01*
X102931638Y-71419000D01*
X103570362Y-71419000D01*
X103615499Y-71423445D01*
X103615499Y-71423445D01*
G37*
G36*
X97426143Y-67925481D02*
G01*
X97578049Y-67940442D01*
X97870414Y-68029130D01*
X97870416Y-68029131D01*
X98139858Y-68173150D01*
X98376029Y-68366971D01*
X98569850Y-68603142D01*
X98713869Y-68872584D01*
X98713870Y-68872586D01*
X98802558Y-69164951D01*
X98832504Y-69469000D01*
X98802558Y-69773049D01*
X98713870Y-70065414D01*
X98713869Y-70065416D01*
X98569850Y-70334858D01*
X98376029Y-70571029D01*
X98139858Y-70764850D01*
X97870416Y-70908869D01*
X97870414Y-70908870D01*
X97578049Y-70997558D01*
X97426143Y-71012519D01*
X97350191Y-71020000D01*
X96197809Y-71020000D01*
X96121857Y-71012519D01*
X95969951Y-70997558D01*
X95677586Y-70908870D01*
X95677584Y-70908869D01*
X95408142Y-70764850D01*
X95171971Y-70571029D01*
X94978150Y-70334858D01*
X94834131Y-70065416D01*
X94834130Y-70065414D01*
X94745442Y-69773049D01*
X94715496Y-69469000D01*
X94745442Y-69164951D01*
X94834130Y-68872586D01*
X94834131Y-68872584D01*
X94978150Y-68603142D01*
X95171971Y-68366971D01*
X95408142Y-68173150D01*
X95677584Y-68029131D01*
X95677586Y-68029130D01*
X95969951Y-67940442D01*
X96121857Y-67925481D01*
X96197809Y-67918000D01*
X97350191Y-67918000D01*
X97426143Y-67925481D01*
X97426143Y-67925481D01*
G37*
G36*
X106155499Y-69673445D02*
G01*
X106192995Y-69684820D01*
X106227554Y-69703292D01*
X106257847Y-69728153D01*
X106282708Y-69758446D01*
X106301180Y-69793005D01*
X106312555Y-69830501D01*
X106317000Y-69875638D01*
X106317000Y-70614362D01*
X106312555Y-70659499D01*
X106301180Y-70696995D01*
X106282708Y-70731554D01*
X106257847Y-70761847D01*
X106227554Y-70786708D01*
X106192995Y-70805180D01*
X106155499Y-70816555D01*
X106110362Y-70821000D01*
X105471638Y-70821000D01*
X105426501Y-70816555D01*
X105389005Y-70805180D01*
X105354446Y-70786708D01*
X105324153Y-70761847D01*
X105299292Y-70731554D01*
X105280820Y-70696995D01*
X105269445Y-70659499D01*
X105265000Y-70614362D01*
X105265000Y-69875638D01*
X105269445Y-69830501D01*
X105280820Y-69793005D01*
X105299292Y-69758446D01*
X105324153Y-69728153D01*
X105354446Y-69703292D01*
X105389005Y-69684820D01*
X105426501Y-69673445D01*
X105471638Y-69669000D01*
X106110362Y-69669000D01*
X106155499Y-69673445D01*
X106155499Y-69673445D01*
G37*
G36*
X108695499Y-69673445D02*
G01*
X108732995Y-69684820D01*
X108767554Y-69703292D01*
X108797847Y-69728153D01*
X108822708Y-69758446D01*
X108841180Y-69793005D01*
X108852555Y-69830501D01*
X108857000Y-69875638D01*
X108857000Y-70614362D01*
X108852555Y-70659499D01*
X108841180Y-70696995D01*
X108822708Y-70731554D01*
X108797847Y-70761847D01*
X108767554Y-70786708D01*
X108732995Y-70805180D01*
X108695499Y-70816555D01*
X108650362Y-70821000D01*
X108011638Y-70821000D01*
X107966501Y-70816555D01*
X107929005Y-70805180D01*
X107894446Y-70786708D01*
X107864153Y-70761847D01*
X107839292Y-70731554D01*
X107820820Y-70696995D01*
X107809445Y-70659499D01*
X107805000Y-70614362D01*
X107805000Y-69875638D01*
X107809445Y-69830501D01*
X107820820Y-69793005D01*
X107839292Y-69758446D01*
X107864153Y-69728153D01*
X107894446Y-69703292D01*
X107929005Y-69684820D01*
X107966501Y-69673445D01*
X108011638Y-69669000D01*
X108650362Y-69669000D01*
X108695499Y-69673445D01*
X108695499Y-69673445D01*
G37*
G36*
X111235499Y-69673445D02*
G01*
X111272995Y-69684820D01*
X111307554Y-69703292D01*
X111337847Y-69728153D01*
X111362708Y-69758446D01*
X111381180Y-69793005D01*
X111392555Y-69830501D01*
X111397000Y-69875638D01*
X111397000Y-70614362D01*
X111392555Y-70659499D01*
X111381180Y-70696995D01*
X111362708Y-70731554D01*
X111337847Y-70761847D01*
X111307554Y-70786708D01*
X111272995Y-70805180D01*
X111235499Y-70816555D01*
X111190362Y-70821000D01*
X110551638Y-70821000D01*
X110506501Y-70816555D01*
X110469005Y-70805180D01*
X110434446Y-70786708D01*
X110404153Y-70761847D01*
X110379292Y-70731554D01*
X110360820Y-70696995D01*
X110349445Y-70659499D01*
X110345000Y-70614362D01*
X110345000Y-69875638D01*
X110349445Y-69830501D01*
X110360820Y-69793005D01*
X110379292Y-69758446D01*
X110404153Y-69728153D01*
X110434446Y-69703292D01*
X110469005Y-69684820D01*
X110506501Y-69673445D01*
X110551638Y-69669000D01*
X111190362Y-69669000D01*
X111235499Y-69673445D01*
X111235499Y-69673445D01*
G37*
G36*
X103615499Y-69673445D02*
G01*
X103652995Y-69684820D01*
X103687554Y-69703292D01*
X103717847Y-69728153D01*
X103742708Y-69758446D01*
X103761180Y-69793005D01*
X103772555Y-69830501D01*
X103777000Y-69875638D01*
X103777000Y-70614362D01*
X103772555Y-70659499D01*
X103761180Y-70696995D01*
X103742708Y-70731554D01*
X103717847Y-70761847D01*
X103687554Y-70786708D01*
X103652995Y-70805180D01*
X103615499Y-70816555D01*
X103570362Y-70821000D01*
X102931638Y-70821000D01*
X102886501Y-70816555D01*
X102849005Y-70805180D01*
X102814446Y-70786708D01*
X102784153Y-70761847D01*
X102759292Y-70731554D01*
X102740820Y-70696995D01*
X102729445Y-70659499D01*
X102725000Y-70614362D01*
X102725000Y-69875638D01*
X102729445Y-69830501D01*
X102740820Y-69793005D01*
X102759292Y-69758446D01*
X102784153Y-69728153D01*
X102814446Y-69703292D01*
X102849005Y-69684820D01*
X102886501Y-69673445D01*
X102931638Y-69669000D01*
X103570362Y-69669000D01*
X103615499Y-69673445D01*
X103615499Y-69673445D01*
G37*
G36*
X97426143Y-64115481D02*
G01*
X97578049Y-64130442D01*
X97870414Y-64219130D01*
X97870416Y-64219131D01*
X98139858Y-64363150D01*
X98376029Y-64556971D01*
X98569850Y-64793142D01*
X98688316Y-65014778D01*
X98713870Y-65062586D01*
X98802558Y-65354951D01*
X98832504Y-65659000D01*
X98802558Y-65963049D01*
X98713870Y-66255414D01*
X98713869Y-66255416D01*
X98569850Y-66524858D01*
X98376029Y-66761029D01*
X98139858Y-66954850D01*
X97870416Y-67098869D01*
X97870414Y-67098870D01*
X97578049Y-67187558D01*
X97426143Y-67202519D01*
X97350191Y-67210000D01*
X96197809Y-67210000D01*
X96121857Y-67202519D01*
X95969951Y-67187558D01*
X95677586Y-67098870D01*
X95677584Y-67098869D01*
X95408142Y-66954850D01*
X95171971Y-66761029D01*
X94978150Y-66524858D01*
X94834131Y-66255416D01*
X94834130Y-66255414D01*
X94745442Y-65963049D01*
X94715496Y-65659000D01*
X94745442Y-65354951D01*
X94834130Y-65062586D01*
X94859684Y-65014778D01*
X94978150Y-64793142D01*
X95171971Y-64556971D01*
X95408142Y-64363150D01*
X95677584Y-64219131D01*
X95677586Y-64219130D01*
X95969951Y-64130442D01*
X96121857Y-64115481D01*
X96197809Y-64108000D01*
X97350191Y-64108000D01*
X97426143Y-64115481D01*
X97426143Y-64115481D01*
G37*
G36*
X116080442Y-63367518D02*
G01*
X116146627Y-63374037D01*
X116316466Y-63425557D01*
X116472991Y-63509222D01*
X116508729Y-63538552D01*
X116610186Y-63621814D01*
X116693448Y-63723271D01*
X116722778Y-63759009D01*
X116806443Y-63915534D01*
X116857963Y-64085373D01*
X116875359Y-64262000D01*
X116857963Y-64438627D01*
X116806443Y-64608466D01*
X116722778Y-64764991D01*
X116699675Y-64793142D01*
X116610186Y-64902186D01*
X116508729Y-64985448D01*
X116472991Y-65014778D01*
X116316466Y-65098443D01*
X116146627Y-65149963D01*
X116080443Y-65156481D01*
X116014260Y-65163000D01*
X115125740Y-65163000D01*
X115059557Y-65156481D01*
X114993373Y-65149963D01*
X114823534Y-65098443D01*
X114667009Y-65014778D01*
X114631271Y-64985448D01*
X114529814Y-64902186D01*
X114440325Y-64793142D01*
X114417222Y-64764991D01*
X114333557Y-64608466D01*
X114282037Y-64438627D01*
X114264641Y-64262000D01*
X114282037Y-64085373D01*
X114333557Y-63915534D01*
X114417222Y-63759009D01*
X114446552Y-63723271D01*
X114529814Y-63621814D01*
X114631271Y-63538552D01*
X114667009Y-63509222D01*
X114823534Y-63425557D01*
X114993373Y-63374037D01*
X115059558Y-63367518D01*
X115125740Y-63361000D01*
X116014260Y-63361000D01*
X116080442Y-63367518D01*
X116080442Y-63367518D01*
G37*
G36*
X116080443Y-60827519D02*
G01*
X116146627Y-60834037D01*
X116316466Y-60885557D01*
X116472991Y-60969222D01*
X116508729Y-60998552D01*
X116610186Y-61081814D01*
X116693448Y-61183271D01*
X116722778Y-61219009D01*
X116806443Y-61375534D01*
X116857963Y-61545373D01*
X116875359Y-61722000D01*
X116857963Y-61898627D01*
X116806443Y-62068466D01*
X116722778Y-62224991D01*
X116693448Y-62260729D01*
X116610186Y-62362186D01*
X116508729Y-62445448D01*
X116472991Y-62474778D01*
X116316466Y-62558443D01*
X116146627Y-62609963D01*
X116080442Y-62616482D01*
X116014260Y-62623000D01*
X115125740Y-62623000D01*
X115059558Y-62616482D01*
X114993373Y-62609963D01*
X114823534Y-62558443D01*
X114667009Y-62474778D01*
X114631271Y-62445448D01*
X114529814Y-62362186D01*
X114446552Y-62260729D01*
X114417222Y-62224991D01*
X114333557Y-62068466D01*
X114282037Y-61898627D01*
X114264641Y-61722000D01*
X114282037Y-61545373D01*
X114333557Y-61375534D01*
X114417222Y-61219009D01*
X114446552Y-61183271D01*
X114529814Y-61081814D01*
X114631271Y-60998552D01*
X114667009Y-60969222D01*
X114823534Y-60885557D01*
X114993373Y-60834037D01*
X115059557Y-60827519D01*
X115125740Y-60821000D01*
X116014260Y-60821000D01*
X116080443Y-60827519D01*
X116080443Y-60827519D01*
G37*
G36*
X97426143Y-58781481D02*
G01*
X97578049Y-58796442D01*
X97870414Y-58885130D01*
X97870416Y-58885131D01*
X98139858Y-59029150D01*
X98376029Y-59222971D01*
X98569850Y-59459142D01*
X98606905Y-59528468D01*
X98713870Y-59728586D01*
X98802558Y-60020951D01*
X98832504Y-60325000D01*
X98802558Y-60629049D01*
X98713870Y-60921414D01*
X98713869Y-60921416D01*
X98569850Y-61190858D01*
X98376029Y-61427029D01*
X98139858Y-61620850D01*
X97870416Y-61764869D01*
X97870414Y-61764870D01*
X97578049Y-61853558D01*
X97426143Y-61868519D01*
X97350191Y-61876000D01*
X96197809Y-61876000D01*
X96121857Y-61868519D01*
X95969951Y-61853558D01*
X95677586Y-61764870D01*
X95677584Y-61764869D01*
X95408142Y-61620850D01*
X95171971Y-61427029D01*
X94978150Y-61190858D01*
X94834131Y-60921416D01*
X94834130Y-60921414D01*
X94745442Y-60629049D01*
X94715496Y-60325000D01*
X94745442Y-60020951D01*
X94834130Y-59728586D01*
X94941095Y-59528468D01*
X94978150Y-59459142D01*
X95171971Y-59222971D01*
X95408142Y-59029150D01*
X95677584Y-58885131D01*
X95677586Y-58885130D01*
X95969951Y-58796442D01*
X96121857Y-58781481D01*
X96197809Y-58774000D01*
X97350191Y-58774000D01*
X97426143Y-58781481D01*
X97426143Y-58781481D01*
G37*
G36*
X116080442Y-58287518D02*
G01*
X116146627Y-58294037D01*
X116316466Y-58345557D01*
X116472991Y-58429222D01*
X116508729Y-58458552D01*
X116610186Y-58541814D01*
X116693448Y-58643271D01*
X116722778Y-58679009D01*
X116806443Y-58835534D01*
X116857963Y-59005373D01*
X116875359Y-59182000D01*
X116857963Y-59358627D01*
X116806443Y-59528466D01*
X116722778Y-59684991D01*
X116693448Y-59720729D01*
X116610186Y-59822186D01*
X116508729Y-59905448D01*
X116472991Y-59934778D01*
X116316466Y-60018443D01*
X116146627Y-60069963D01*
X116080442Y-60076482D01*
X116014260Y-60083000D01*
X115125740Y-60083000D01*
X115059558Y-60076482D01*
X114993373Y-60069963D01*
X114823534Y-60018443D01*
X114667009Y-59934778D01*
X114631271Y-59905448D01*
X114529814Y-59822186D01*
X114446552Y-59720729D01*
X114417222Y-59684991D01*
X114333557Y-59528466D01*
X114282037Y-59358627D01*
X114264641Y-59182000D01*
X114282037Y-59005373D01*
X114333557Y-58835534D01*
X114417222Y-58679009D01*
X114446552Y-58643271D01*
X114529814Y-58541814D01*
X114631271Y-58458552D01*
X114667009Y-58429222D01*
X114823534Y-58345557D01*
X114993373Y-58294037D01*
X115059558Y-58287518D01*
X115125740Y-58281000D01*
X116014260Y-58281000D01*
X116080442Y-58287518D01*
X116080442Y-58287518D01*
G37*
G36*
X97426143Y-54971481D02*
G01*
X97578049Y-54986442D01*
X97870414Y-55075130D01*
X97870416Y-55075131D01*
X98139858Y-55219150D01*
X98376029Y-55412971D01*
X98569850Y-55649142D01*
X98698174Y-55889221D01*
X98713870Y-55918586D01*
X98802558Y-56210951D01*
X98832504Y-56515000D01*
X98802558Y-56819049D01*
X98751165Y-56988468D01*
X98713869Y-57111416D01*
X98569850Y-57380858D01*
X98376029Y-57617029D01*
X98139858Y-57810850D01*
X97870416Y-57954869D01*
X97870414Y-57954870D01*
X97578049Y-58043558D01*
X97426143Y-58058519D01*
X97350191Y-58066000D01*
X96197809Y-58066000D01*
X96121857Y-58058519D01*
X95969951Y-58043558D01*
X95677586Y-57954870D01*
X95677584Y-57954869D01*
X95408142Y-57810850D01*
X95171971Y-57617029D01*
X94978150Y-57380858D01*
X94834131Y-57111416D01*
X94796835Y-56988468D01*
X94745442Y-56819049D01*
X94715496Y-56515000D01*
X94745442Y-56210951D01*
X94834130Y-55918586D01*
X94849826Y-55889221D01*
X94978150Y-55649142D01*
X95171971Y-55412971D01*
X95408142Y-55219150D01*
X95677584Y-55075131D01*
X95677586Y-55075130D01*
X95969951Y-54986442D01*
X96121857Y-54971481D01*
X96197809Y-54964000D01*
X97350191Y-54964000D01*
X97426143Y-54971481D01*
X97426143Y-54971481D01*
G37*
G36*
X116080442Y-55747518D02*
G01*
X116146627Y-55754037D01*
X116316466Y-55805557D01*
X116472991Y-55889222D01*
X116508729Y-55918552D01*
X116610186Y-56001814D01*
X116693448Y-56103271D01*
X116722778Y-56139009D01*
X116806443Y-56295534D01*
X116857963Y-56465373D01*
X116875359Y-56642000D01*
X116857963Y-56818627D01*
X116806443Y-56988466D01*
X116722778Y-57144991D01*
X116693448Y-57180729D01*
X116610186Y-57282186D01*
X116508729Y-57365448D01*
X116472991Y-57394778D01*
X116316466Y-57478443D01*
X116146627Y-57529963D01*
X116080442Y-57536482D01*
X116014260Y-57543000D01*
X115125740Y-57543000D01*
X115059558Y-57536482D01*
X114993373Y-57529963D01*
X114823534Y-57478443D01*
X114667009Y-57394778D01*
X114631271Y-57365448D01*
X114529814Y-57282186D01*
X114446552Y-57180729D01*
X114417222Y-57144991D01*
X114333557Y-56988466D01*
X114282037Y-56818627D01*
X114264641Y-56642000D01*
X114282037Y-56465373D01*
X114333557Y-56295534D01*
X114417222Y-56139009D01*
X114446552Y-56103271D01*
X114529814Y-56001814D01*
X114631271Y-55918552D01*
X114667009Y-55889222D01*
X114823534Y-55805557D01*
X114993373Y-55754037D01*
X115059558Y-55747518D01*
X115125740Y-55741000D01*
X116014260Y-55741000D01*
X116080442Y-55747518D01*
X116080442Y-55747518D01*
G37*
G36*
X116080442Y-53207518D02*
G01*
X116146627Y-53214037D01*
X116316466Y-53265557D01*
X116472991Y-53349222D01*
X116508729Y-53378552D01*
X116610186Y-53461814D01*
X116693448Y-53563271D01*
X116722778Y-53599009D01*
X116806443Y-53755534D01*
X116857963Y-53925373D01*
X116875359Y-54102000D01*
X116857963Y-54278627D01*
X116806443Y-54448466D01*
X116722778Y-54604991D01*
X116693448Y-54640729D01*
X116610186Y-54742186D01*
X116508729Y-54825448D01*
X116472991Y-54854778D01*
X116316466Y-54938443D01*
X116146627Y-54989963D01*
X116080443Y-54996481D01*
X116014260Y-55003000D01*
X115125740Y-55003000D01*
X115059557Y-54996481D01*
X114993373Y-54989963D01*
X114823534Y-54938443D01*
X114667009Y-54854778D01*
X114631271Y-54825448D01*
X114529814Y-54742186D01*
X114446552Y-54640729D01*
X114417222Y-54604991D01*
X114333557Y-54448466D01*
X114282037Y-54278627D01*
X114264641Y-54102000D01*
X114282037Y-53925373D01*
X114333557Y-53755534D01*
X114417222Y-53599009D01*
X114446552Y-53563271D01*
X114529814Y-53461814D01*
X114631271Y-53378552D01*
X114667009Y-53349222D01*
X114823534Y-53265557D01*
X114993373Y-53214037D01*
X115059558Y-53207518D01*
X115125740Y-53201000D01*
X116014260Y-53201000D01*
X116080442Y-53207518D01*
X116080442Y-53207518D01*
G37*
G36*
X97426143Y-49637481D02*
G01*
X97578049Y-49652442D01*
X97870414Y-49741130D01*
X97870416Y-49741131D01*
X98139858Y-49885150D01*
X98376029Y-50078971D01*
X98569850Y-50315142D01*
X98713869Y-50584584D01*
X98713870Y-50584586D01*
X98802558Y-50876951D01*
X98832504Y-51181000D01*
X98802558Y-51485049D01*
X98713870Y-51777414D01*
X98713869Y-51777416D01*
X98569850Y-52046858D01*
X98376029Y-52283029D01*
X98139858Y-52476850D01*
X97870416Y-52620869D01*
X97870414Y-52620870D01*
X97578049Y-52709558D01*
X97426143Y-52724519D01*
X97350191Y-52732000D01*
X96197809Y-52732000D01*
X96121857Y-52724519D01*
X95969951Y-52709558D01*
X95677586Y-52620870D01*
X95677584Y-52620869D01*
X95408142Y-52476850D01*
X95171971Y-52283029D01*
X94978150Y-52046858D01*
X94834131Y-51777416D01*
X94834130Y-51777414D01*
X94745442Y-51485049D01*
X94715496Y-51181000D01*
X94745442Y-50876951D01*
X94834130Y-50584586D01*
X94834131Y-50584584D01*
X94978150Y-50315142D01*
X95171971Y-50078971D01*
X95408142Y-49885150D01*
X95677584Y-49741131D01*
X95677586Y-49741130D01*
X95969951Y-49652442D01*
X96121857Y-49637481D01*
X96197809Y-49630000D01*
X97350191Y-49630000D01*
X97426143Y-49637481D01*
X97426143Y-49637481D01*
G37*
G36*
X116080442Y-50667518D02*
G01*
X116146627Y-50674037D01*
X116316466Y-50725557D01*
X116472991Y-50809222D01*
X116508729Y-50838552D01*
X116610186Y-50921814D01*
X116693448Y-51023271D01*
X116722778Y-51059009D01*
X116806443Y-51215534D01*
X116857963Y-51385373D01*
X116875359Y-51562000D01*
X116857963Y-51738627D01*
X116806443Y-51908466D01*
X116722778Y-52064991D01*
X116693448Y-52100729D01*
X116610186Y-52202186D01*
X116511677Y-52283029D01*
X116472991Y-52314778D01*
X116316466Y-52398443D01*
X116146627Y-52449963D01*
X116080443Y-52456481D01*
X116014260Y-52463000D01*
X115125740Y-52463000D01*
X115059557Y-52456481D01*
X114993373Y-52449963D01*
X114823534Y-52398443D01*
X114667009Y-52314778D01*
X114628323Y-52283029D01*
X114529814Y-52202186D01*
X114446552Y-52100729D01*
X114417222Y-52064991D01*
X114333557Y-51908466D01*
X114282037Y-51738627D01*
X114264641Y-51562000D01*
X114282037Y-51385373D01*
X114333557Y-51215534D01*
X114417222Y-51059009D01*
X114446552Y-51023271D01*
X114529814Y-50921814D01*
X114631271Y-50838552D01*
X114667009Y-50809222D01*
X114823534Y-50725557D01*
X114993373Y-50674037D01*
X115059558Y-50667518D01*
X115125740Y-50661000D01*
X116014260Y-50661000D01*
X116080442Y-50667518D01*
X116080442Y-50667518D01*
G37*
G36*
X116080443Y-48127519D02*
G01*
X116146627Y-48134037D01*
X116316466Y-48185557D01*
X116472991Y-48269222D01*
X116508729Y-48298552D01*
X116610186Y-48381814D01*
X116685043Y-48473029D01*
X116722778Y-48519009D01*
X116806443Y-48675534D01*
X116857963Y-48845373D01*
X116875359Y-49022000D01*
X116857963Y-49198627D01*
X116806443Y-49368466D01*
X116722778Y-49524991D01*
X116693448Y-49560729D01*
X116610186Y-49662186D01*
X116513991Y-49741130D01*
X116472991Y-49774778D01*
X116316466Y-49858443D01*
X116146627Y-49909963D01*
X116080443Y-49916481D01*
X116014260Y-49923000D01*
X115125740Y-49923000D01*
X115059557Y-49916481D01*
X114993373Y-49909963D01*
X114823534Y-49858443D01*
X114667009Y-49774778D01*
X114626009Y-49741130D01*
X114529814Y-49662186D01*
X114446552Y-49560729D01*
X114417222Y-49524991D01*
X114333557Y-49368466D01*
X114282037Y-49198627D01*
X114264641Y-49022000D01*
X114282037Y-48845373D01*
X114333557Y-48675534D01*
X114417222Y-48519009D01*
X114454957Y-48473029D01*
X114529814Y-48381814D01*
X114631271Y-48298552D01*
X114667009Y-48269222D01*
X114823534Y-48185557D01*
X114993373Y-48134037D01*
X115059558Y-48127518D01*
X115125740Y-48121000D01*
X116014260Y-48121000D01*
X116080443Y-48127519D01*
X116080443Y-48127519D01*
G37*
G36*
X97426143Y-45827481D02*
G01*
X97578049Y-45842442D01*
X97870414Y-45931130D01*
X97870416Y-45931131D01*
X98139858Y-46075150D01*
X98376029Y-46268971D01*
X98569850Y-46505142D01*
X98651889Y-46658627D01*
X98713870Y-46774586D01*
X98802558Y-47066951D01*
X98832504Y-47371000D01*
X98802558Y-47675049D01*
X98713870Y-47967414D01*
X98713869Y-47967416D01*
X98569850Y-48236858D01*
X98376029Y-48473029D01*
X98139858Y-48666850D01*
X97870416Y-48810869D01*
X97870414Y-48810870D01*
X97578049Y-48899558D01*
X97426143Y-48914519D01*
X97350191Y-48922000D01*
X96197809Y-48922000D01*
X96121857Y-48914519D01*
X95969951Y-48899558D01*
X95677586Y-48810870D01*
X95677584Y-48810869D01*
X95408142Y-48666850D01*
X95171971Y-48473029D01*
X94978150Y-48236858D01*
X94834131Y-47967416D01*
X94834130Y-47967414D01*
X94745442Y-47675049D01*
X94715496Y-47371000D01*
X94745442Y-47066951D01*
X94834130Y-46774586D01*
X94896111Y-46658627D01*
X94978150Y-46505142D01*
X95171971Y-46268971D01*
X95408142Y-46075150D01*
X95677584Y-45931131D01*
X95677586Y-45931130D01*
X95969951Y-45842442D01*
X96121857Y-45827481D01*
X96197809Y-45820000D01*
X97350191Y-45820000D01*
X97426143Y-45827481D01*
X97426143Y-45827481D01*
G37*
G36*
X116080442Y-45587518D02*
G01*
X116146627Y-45594037D01*
X116316466Y-45645557D01*
X116472991Y-45729222D01*
X116508729Y-45758552D01*
X116610186Y-45841814D01*
X116683485Y-45931131D01*
X116722778Y-45979009D01*
X116806443Y-46135534D01*
X116857963Y-46305373D01*
X116875359Y-46482000D01*
X116857963Y-46658627D01*
X116806443Y-46828466D01*
X116722778Y-46984991D01*
X116693448Y-47020729D01*
X116610186Y-47122186D01*
X116508729Y-47205448D01*
X116472991Y-47234778D01*
X116316466Y-47318443D01*
X116146627Y-47369963D01*
X116080442Y-47376482D01*
X116014260Y-47383000D01*
X115125740Y-47383000D01*
X115059557Y-47376481D01*
X114993373Y-47369963D01*
X114823534Y-47318443D01*
X114667009Y-47234778D01*
X114631271Y-47205448D01*
X114529814Y-47122186D01*
X114446552Y-47020729D01*
X114417222Y-46984991D01*
X114333557Y-46828466D01*
X114282037Y-46658627D01*
X114264641Y-46482000D01*
X114282037Y-46305373D01*
X114333557Y-46135534D01*
X114417222Y-45979009D01*
X114456515Y-45931131D01*
X114529814Y-45841814D01*
X114631271Y-45758552D01*
X114667009Y-45729222D01*
X114823534Y-45645557D01*
X114993373Y-45594037D01*
X115059558Y-45587518D01*
X115125740Y-45581000D01*
X116014260Y-45581000D01*
X116080442Y-45587518D01*
X116080442Y-45587518D01*
G37*
G36*
X116080442Y-43047518D02*
G01*
X116146627Y-43054037D01*
X116316466Y-43105557D01*
X116472991Y-43189222D01*
X116508729Y-43218552D01*
X116610186Y-43301814D01*
X116693448Y-43403271D01*
X116722778Y-43439009D01*
X116806443Y-43595534D01*
X116857963Y-43765373D01*
X116875359Y-43942000D01*
X116857963Y-44118627D01*
X116806443Y-44288466D01*
X116722778Y-44444991D01*
X116693448Y-44480729D01*
X116610186Y-44582186D01*
X116508729Y-44665448D01*
X116472991Y-44694778D01*
X116316466Y-44778443D01*
X116146627Y-44829963D01*
X116080442Y-44836482D01*
X116014260Y-44843000D01*
X115125740Y-44843000D01*
X115059558Y-44836482D01*
X114993373Y-44829963D01*
X114823534Y-44778443D01*
X114667009Y-44694778D01*
X114631271Y-44665448D01*
X114529814Y-44582186D01*
X114446552Y-44480729D01*
X114417222Y-44444991D01*
X114333557Y-44288466D01*
X114282037Y-44118627D01*
X114264641Y-43942000D01*
X114282037Y-43765373D01*
X114333557Y-43595534D01*
X114417222Y-43439009D01*
X114446552Y-43403271D01*
X114529814Y-43301814D01*
X114631271Y-43218552D01*
X114667009Y-43189222D01*
X114823534Y-43105557D01*
X114993373Y-43054037D01*
X115059557Y-43047519D01*
X115125740Y-43041000D01*
X116014260Y-43041000D01*
X116080442Y-43047518D01*
X116080442Y-43047518D01*
G37*
G36*
X97426143Y-40493481D02*
G01*
X97578049Y-40508442D01*
X97870414Y-40597130D01*
X97870416Y-40597131D01*
X98139858Y-40741150D01*
X98376029Y-40934971D01*
X98569850Y-41171142D01*
X98713869Y-41440584D01*
X98713870Y-41440586D01*
X98802558Y-41732951D01*
X98832504Y-42037000D01*
X98802558Y-42341049D01*
X98713870Y-42633414D01*
X98713869Y-42633416D01*
X98569850Y-42902858D01*
X98376029Y-43139029D01*
X98139858Y-43332850D01*
X97870416Y-43476869D01*
X97870414Y-43476870D01*
X97578049Y-43565558D01*
X97426143Y-43580519D01*
X97350191Y-43588000D01*
X96197809Y-43588000D01*
X96121857Y-43580519D01*
X95969951Y-43565558D01*
X95677586Y-43476870D01*
X95677584Y-43476869D01*
X95408142Y-43332850D01*
X95171971Y-43139029D01*
X94978150Y-42902858D01*
X94834131Y-42633416D01*
X94834130Y-42633414D01*
X94745442Y-42341049D01*
X94715496Y-42037000D01*
X94745442Y-41732951D01*
X94834130Y-41440586D01*
X94834131Y-41440584D01*
X94978150Y-41171142D01*
X95171971Y-40934971D01*
X95408142Y-40741150D01*
X95677584Y-40597131D01*
X95677586Y-40597130D01*
X95969951Y-40508442D01*
X96121857Y-40493481D01*
X96197809Y-40486000D01*
X97350191Y-40486000D01*
X97426143Y-40493481D01*
X97426143Y-40493481D01*
G37*
G36*
X116871000Y-42303000D02*
G01*
X114269000Y-42303000D01*
X114269000Y-40501000D01*
X116871000Y-40501000D01*
X116871000Y-42303000D01*
X116871000Y-42303000D01*
G37*
G36*
X97426143Y-36683481D02*
G01*
X97578049Y-36698442D01*
X97870414Y-36787130D01*
X97870416Y-36787131D01*
X98139858Y-36931150D01*
X98376029Y-37124971D01*
X98569850Y-37361142D01*
X98713869Y-37630584D01*
X98713870Y-37630586D01*
X98802558Y-37922951D01*
X98832504Y-38227000D01*
X98802558Y-38531049D01*
X98755545Y-38686029D01*
X98713869Y-38823416D01*
X98569850Y-39092858D01*
X98376029Y-39329029D01*
X98139858Y-39522850D01*
X97870416Y-39666869D01*
X97870414Y-39666870D01*
X97578049Y-39755558D01*
X97426143Y-39770519D01*
X97350191Y-39778000D01*
X96197809Y-39778000D01*
X96121857Y-39770519D01*
X95969951Y-39755558D01*
X95677586Y-39666870D01*
X95677584Y-39666869D01*
X95408142Y-39522850D01*
X95171971Y-39329029D01*
X94978150Y-39092858D01*
X94834131Y-38823416D01*
X94792455Y-38686029D01*
X94745442Y-38531049D01*
X94715496Y-38227000D01*
X94745442Y-37922951D01*
X94834130Y-37630586D01*
X94834131Y-37630584D01*
X94978150Y-37361142D01*
X95171971Y-37124971D01*
X95408142Y-36931150D01*
X95677584Y-36787131D01*
X95677586Y-36787130D01*
X95969951Y-36698442D01*
X96121857Y-36683481D01*
X96197809Y-36676000D01*
X97350191Y-36676000D01*
X97426143Y-36683481D01*
X97426143Y-36683481D01*
G37*
G36*
X109214048Y-35055442D02*
G01*
X109506413Y-35144130D01*
X109506415Y-35144131D01*
X109775856Y-35288150D01*
X109775858Y-35288151D01*
X109775857Y-35288151D01*
X110012029Y-35481971D01*
X110099395Y-35588426D01*
X110205850Y-35718142D01*
X110349869Y-35987584D01*
X110349870Y-35987586D01*
X110438558Y-36279951D01*
X110461000Y-36507810D01*
X110461000Y-37660190D01*
X110438558Y-37888049D01*
X110349870Y-38180414D01*
X110349869Y-38180416D01*
X110205850Y-38449858D01*
X110012029Y-38686029D01*
X109775858Y-38879850D01*
X109506416Y-39023869D01*
X109506414Y-39023870D01*
X109214049Y-39112558D01*
X108910000Y-39142504D01*
X108605952Y-39112558D01*
X108313587Y-39023870D01*
X108313585Y-39023869D01*
X108044143Y-38879850D01*
X107807972Y-38686029D01*
X107680783Y-38531049D01*
X107614151Y-38449858D01*
X107470130Y-38180414D01*
X107381442Y-37888049D01*
X107359000Y-37660190D01*
X107359000Y-36507811D01*
X107381442Y-36279952D01*
X107470130Y-35987587D01*
X107614151Y-35718143D01*
X107807971Y-35481971D01*
X107914426Y-35394605D01*
X108044142Y-35288150D01*
X108313584Y-35144131D01*
X108313586Y-35144130D01*
X108605951Y-35055442D01*
X108910000Y-35025496D01*
X109214048Y-35055442D01*
X109214048Y-35055442D01*
G37*
G36*
X105714048Y-35055442D02*
G01*
X106006413Y-35144130D01*
X106006415Y-35144131D01*
X106275856Y-35288150D01*
X106275858Y-35288151D01*
X106275857Y-35288151D01*
X106512029Y-35481971D01*
X106599395Y-35588426D01*
X106705850Y-35718142D01*
X106849869Y-35987584D01*
X106849870Y-35987586D01*
X106938558Y-36279951D01*
X106961000Y-36507810D01*
X106961000Y-37660190D01*
X106938558Y-37888049D01*
X106849870Y-38180414D01*
X106849869Y-38180416D01*
X106705850Y-38449858D01*
X106512029Y-38686029D01*
X106275858Y-38879850D01*
X106006416Y-39023869D01*
X106006414Y-39023870D01*
X105714049Y-39112558D01*
X105410000Y-39142504D01*
X105105952Y-39112558D01*
X104813587Y-39023870D01*
X104813585Y-39023869D01*
X104544143Y-38879850D01*
X104307972Y-38686029D01*
X104180783Y-38531049D01*
X104114151Y-38449858D01*
X103970130Y-38180414D01*
X103881442Y-37888049D01*
X103859000Y-37660190D01*
X103859000Y-36507811D01*
X103881442Y-36279952D01*
X103970130Y-35987587D01*
X104114151Y-35718143D01*
X104307971Y-35481971D01*
X104414426Y-35394605D01*
X104544142Y-35288150D01*
X104813584Y-35144131D01*
X104813586Y-35144130D01*
X105105951Y-35055442D01*
X105410000Y-35025496D01*
X105714048Y-35055442D01*
X105714048Y-35055442D01*
G37*
G36*
X102214048Y-35055442D02*
G01*
X102506413Y-35144130D01*
X102506415Y-35144131D01*
X102775856Y-35288150D01*
X102775858Y-35288151D01*
X102775857Y-35288151D01*
X103012029Y-35481971D01*
X103099395Y-35588426D01*
X103205850Y-35718142D01*
X103349869Y-35987584D01*
X103349870Y-35987586D01*
X103438558Y-36279951D01*
X103461000Y-36507810D01*
X103461000Y-37660190D01*
X103438558Y-37888049D01*
X103349870Y-38180414D01*
X103349869Y-38180416D01*
X103205850Y-38449858D01*
X103012029Y-38686029D01*
X102775858Y-38879850D01*
X102506416Y-39023869D01*
X102506414Y-39023870D01*
X102214049Y-39112558D01*
X101910000Y-39142504D01*
X101605952Y-39112558D01*
X101313587Y-39023870D01*
X101313585Y-39023869D01*
X101044143Y-38879850D01*
X100807972Y-38686029D01*
X100680783Y-38531049D01*
X100614151Y-38449858D01*
X100470130Y-38180414D01*
X100381442Y-37888049D01*
X100359000Y-37660190D01*
X100359000Y-36507811D01*
X100381442Y-36279952D01*
X100470130Y-35987587D01*
X100614151Y-35718143D01*
X100807971Y-35481971D01*
X100914426Y-35394605D01*
X101044142Y-35288150D01*
X101313584Y-35144131D01*
X101313586Y-35144130D01*
X101605951Y-35055442D01*
X101910000Y-35025496D01*
X102214048Y-35055442D01*
X102214048Y-35055442D01*
G37*
G36*
X116020313Y-29390523D02*
G01*
X116538980Y-29605362D01*
X116538981Y-29605363D01*
X117005769Y-29917260D01*
X117402740Y-30314231D01*
X117611143Y-30626129D01*
X117714638Y-30781020D01*
X117929477Y-31299687D01*
X118039000Y-31850298D01*
X118039000Y-32411702D01*
X117929477Y-32962313D01*
X117714638Y-33480980D01*
X117714637Y-33480981D01*
X117402740Y-33947769D01*
X117005769Y-34344740D01*
X116693871Y-34553143D01*
X116538980Y-34656638D01*
X116020313Y-34871477D01*
X115469702Y-34981000D01*
X114908298Y-34981000D01*
X114357687Y-34871477D01*
X113839020Y-34656638D01*
X113684129Y-34553143D01*
X113372231Y-34344740D01*
X112975260Y-33947769D01*
X112663363Y-33480981D01*
X112663362Y-33480980D01*
X112448523Y-32962313D01*
X112339000Y-32411702D01*
X112339000Y-31850298D01*
X112448523Y-31299687D01*
X112663362Y-30781020D01*
X112766857Y-30626129D01*
X112975260Y-30314231D01*
X113372231Y-29917260D01*
X113839019Y-29605363D01*
X113839020Y-29605362D01*
X114357687Y-29390523D01*
X114908298Y-29281000D01*
X115469702Y-29281000D01*
X116020313Y-29390523D01*
X116020313Y-29390523D01*
G37*
G36*
X92652313Y-29390523D02*
G01*
X93170980Y-29605362D01*
X93170981Y-29605363D01*
X93637769Y-29917260D01*
X94034740Y-30314231D01*
X94243143Y-30626129D01*
X94346638Y-30781020D01*
X94561477Y-31299687D01*
X94671000Y-31850298D01*
X94671000Y-32411702D01*
X94561477Y-32962313D01*
X94346638Y-33480980D01*
X94346637Y-33480981D01*
X94034740Y-33947769D01*
X93637769Y-34344740D01*
X93325871Y-34553143D01*
X93170980Y-34656638D01*
X92652313Y-34871477D01*
X92101702Y-34981000D01*
X91540298Y-34981000D01*
X90989687Y-34871477D01*
X90471020Y-34656638D01*
X90316129Y-34553143D01*
X90004231Y-34344740D01*
X89607260Y-33947769D01*
X89295363Y-33480981D01*
X89295362Y-33480980D01*
X89080523Y-32962313D01*
X88971000Y-32411702D01*
X88971000Y-31850298D01*
X89080523Y-31299687D01*
X89295362Y-30781020D01*
X89398857Y-30626129D01*
X89607260Y-30314231D01*
X90004231Y-29917260D01*
X90471019Y-29605363D01*
X90471020Y-29605362D01*
X90989687Y-29390523D01*
X91540298Y-29281000D01*
X92101702Y-29281000D01*
X92652313Y-29390523D01*
X92652313Y-29390523D01*
G37*
M02*
