G04 #@! TF.GenerationSoftware,KiCad,Pcbnew,5.1.4-e60b266~84~ubuntu18.04.1*
G04 #@! TF.CreationDate,2019-09-26T21:49:53+08:00*
G04 #@! TF.ProjectId,head,68656164-2e6b-4696-9361-645f70636258,rev?*
G04 #@! TF.SameCoordinates,Original*
G04 #@! TF.FileFunction,Legend,Top*
G04 #@! TF.FilePolarity,Positive*
%FSLAX46Y46*%
G04 Gerber Fmt 4.6, Leading zero omitted, Abs format (unit mm)*
G04 Created by KiCad (PCBNEW 5.1.4-e60b266~84~ubuntu18.04.1) date 2019-09-26 21:49:53*
%MOMM*%
%LPD*%
G04 APERTURE LIST*
%ADD10C,0.120000*%
%ADD11C,0.127000*%
%ADD12C,0.381000*%
%ADD13C,0.200000*%
%ADD14C,0.150000*%
G04 APERTURE END LIST*
D10*
X111954000Y-40072000D02*
X113284000Y-40072000D01*
X111954000Y-41402000D02*
X111954000Y-40072000D01*
X111954000Y-42672000D02*
X114614000Y-42672000D01*
X114614000Y-42672000D02*
X114614000Y-65592000D01*
X111954000Y-42672000D02*
X111954000Y-65592000D01*
X111954000Y-65592000D02*
X114614000Y-65592000D01*
D11*
X101513000Y-67888000D02*
X101513000Y-77088000D01*
X110323000Y-67888000D02*
X101513000Y-67888000D01*
X110323000Y-77088000D02*
X110323000Y-67888000D01*
X101513000Y-77088000D02*
X110323000Y-77088000D01*
X97974000Y-60365000D02*
X88774000Y-60365000D01*
X97974000Y-69175000D02*
X97974000Y-60365000D01*
X88774000Y-69175000D02*
X97974000Y-69175000D01*
X88774000Y-60365000D02*
X88774000Y-69175000D01*
X97974000Y-50459000D02*
X88774000Y-50459000D01*
X97974000Y-59269000D02*
X97974000Y-50459000D01*
X88774000Y-59269000D02*
X97974000Y-59269000D01*
X88774000Y-50459000D02*
X88774000Y-59269000D01*
X97974000Y-40553000D02*
X88774000Y-40553000D01*
X97974000Y-49363000D02*
X97974000Y-40553000D01*
X88774000Y-49363000D02*
X97974000Y-49363000D01*
X88774000Y-40553000D02*
X88774000Y-49363000D01*
X96666000Y-29338000D02*
X96666000Y-38538000D01*
X108566000Y-29338000D02*
X96666000Y-29338000D01*
X108566000Y-38538000D02*
X108566000Y-29338000D01*
X96666000Y-38538000D02*
X108566000Y-38538000D01*
D12*
X94388000Y-37411000D02*
X94588000Y-37211000D01*
D13*
X94388000Y-36911000D02*
X94388000Y-37411000D01*
X94788000Y-37211000D02*
X94288000Y-36711000D01*
X94288000Y-37711000D02*
X94788000Y-37211000D01*
X94288000Y-36711000D02*
X94288000Y-37711000D01*
D10*
X95488000Y-36251000D02*
X92803000Y-36251000D01*
X92803000Y-36251000D02*
X92803000Y-38171000D01*
X92803000Y-38171000D02*
X95488000Y-38171000D01*
D12*
X97382000Y-75619000D02*
X97182000Y-75819000D01*
D13*
X97382000Y-76119000D02*
X97382000Y-75619000D01*
X96982000Y-75819000D02*
X97482000Y-76319000D01*
X97482000Y-75319000D02*
X96982000Y-75819000D01*
X97482000Y-76319000D02*
X97482000Y-75319000D01*
D10*
X96282000Y-76779000D02*
X98967000Y-76779000D01*
X98967000Y-76779000D02*
X98967000Y-74859000D01*
X98967000Y-74859000D02*
X96282000Y-74859000D01*
D12*
X97382000Y-73333000D02*
X97182000Y-73533000D01*
D13*
X97382000Y-73833000D02*
X97382000Y-73333000D01*
X96982000Y-73533000D02*
X97482000Y-74033000D01*
X97482000Y-73033000D02*
X96982000Y-73533000D01*
X97482000Y-74033000D02*
X97482000Y-73033000D01*
D10*
X96282000Y-74493000D02*
X98967000Y-74493000D01*
X98967000Y-74493000D02*
X98967000Y-72573000D01*
X98967000Y-72573000D02*
X96282000Y-72573000D01*
D12*
X97382000Y-70793000D02*
X97182000Y-70993000D01*
D13*
X97382000Y-71293000D02*
X97382000Y-70793000D01*
X96982000Y-70993000D02*
X97482000Y-71493000D01*
X97482000Y-70493000D02*
X96982000Y-70993000D01*
X97482000Y-71493000D02*
X97482000Y-70493000D01*
D10*
X96282000Y-71953000D02*
X98967000Y-71953000D01*
X98967000Y-71953000D02*
X98967000Y-70033000D01*
X98967000Y-70033000D02*
X96282000Y-70033000D01*
X101136000Y-41116000D02*
X101136000Y-41616000D01*
X100886000Y-41366000D02*
X101386000Y-41366000D01*
X101626000Y-44121563D02*
X102690437Y-45186000D01*
X101626000Y-41730437D02*
X102690437Y-40666000D01*
X101626000Y-41730437D02*
X101626000Y-41866000D01*
X101626000Y-44121563D02*
X101626000Y-43986000D01*
X102690437Y-45186000D02*
X106146000Y-45186000D01*
X102690437Y-40666000D02*
X106146000Y-40666000D01*
X106146000Y-40666000D02*
X106146000Y-41866000D01*
X106146000Y-45186000D02*
X106146000Y-43986000D01*
X101136000Y-53308000D02*
X101136000Y-53808000D01*
X100886000Y-53558000D02*
X101386000Y-53558000D01*
X101626000Y-56313563D02*
X102690437Y-57378000D01*
X101626000Y-53922437D02*
X102690437Y-52858000D01*
X101626000Y-53922437D02*
X101626000Y-54058000D01*
X101626000Y-56313563D02*
X101626000Y-56178000D01*
X102690437Y-57378000D02*
X106146000Y-57378000D01*
X102690437Y-52858000D02*
X106146000Y-52858000D01*
X106146000Y-52858000D02*
X106146000Y-54058000D01*
X106146000Y-57378000D02*
X106146000Y-56178000D01*
X101136000Y-47212000D02*
X101136000Y-47712000D01*
X100886000Y-47462000D02*
X101386000Y-47462000D01*
X101626000Y-50217563D02*
X102690437Y-51282000D01*
X101626000Y-47826437D02*
X102690437Y-46762000D01*
X101626000Y-47826437D02*
X101626000Y-47962000D01*
X101626000Y-50217563D02*
X101626000Y-50082000D01*
X102690437Y-51282000D02*
X106146000Y-51282000D01*
X102690437Y-46762000D02*
X106146000Y-46762000D01*
X106146000Y-46762000D02*
X106146000Y-47962000D01*
X106146000Y-51282000D02*
X106146000Y-50082000D01*
X104456000Y-59452000D02*
X105856000Y-59452000D01*
X106556000Y-60152000D02*
X106556000Y-60752000D01*
X105856000Y-61452000D02*
X104456000Y-61452000D01*
X103756000Y-60752000D02*
X103756000Y-60152000D01*
X103756000Y-60152000D02*
G75*
G02X104456000Y-59452000I700000J0D01*
G01*
X104456000Y-61452000D02*
G75*
G02X103756000Y-60752000I0J700000D01*
G01*
X106556000Y-60752000D02*
G75*
G02X105856000Y-61452000I-700000J0D01*
G01*
X105856000Y-59452000D02*
G75*
G02X106556000Y-60152000I0J-700000D01*
G01*
D13*
X110037904Y-36361714D02*
X110561714Y-36361714D01*
X110037904Y-37028380D01*
X110561714Y-37028380D01*
X111704571Y-36361714D02*
X111704571Y-37361714D01*
X111704571Y-36409333D02*
X111799809Y-36361714D01*
X111990285Y-36361714D01*
X112085523Y-36409333D01*
X112133142Y-36456952D01*
X112180761Y-36552190D01*
X112180761Y-36837904D01*
X112133142Y-36933142D01*
X112085523Y-36980761D01*
X111990285Y-37028380D01*
X111799809Y-37028380D01*
X111704571Y-36980761D01*
X112609333Y-37028380D02*
X112609333Y-36361714D01*
X112609333Y-36552190D02*
X112656952Y-36456952D01*
X112704571Y-36409333D01*
X112799809Y-36361714D01*
X112895047Y-36361714D01*
X113371238Y-37028380D02*
X113276000Y-36980761D01*
X113228380Y-36933142D01*
X113180761Y-36837904D01*
X113180761Y-36552190D01*
X113228380Y-36456952D01*
X113276000Y-36409333D01*
X113371238Y-36361714D01*
X113514095Y-36361714D01*
X113609333Y-36409333D01*
X113656952Y-36456952D01*
X113704571Y-36552190D01*
X113704571Y-36837904D01*
X113656952Y-36933142D01*
X113609333Y-36980761D01*
X113514095Y-37028380D01*
X113371238Y-37028380D01*
X114133142Y-37028380D02*
X114133142Y-36028380D01*
X114133142Y-36409333D02*
X114228380Y-36361714D01*
X114418857Y-36361714D01*
X114514095Y-36409333D01*
X114561714Y-36456952D01*
X114609333Y-36552190D01*
X114609333Y-36837904D01*
X114561714Y-36933142D01*
X114514095Y-36980761D01*
X114418857Y-37028380D01*
X114228380Y-37028380D01*
X114133142Y-36980761D01*
X115418857Y-36980761D02*
X115323619Y-37028380D01*
X115133142Y-37028380D01*
X115037904Y-36980761D01*
X114990285Y-36885523D01*
X114990285Y-36504571D01*
X115037904Y-36409333D01*
X115133142Y-36361714D01*
X115323619Y-36361714D01*
X115418857Y-36409333D01*
X115466476Y-36504571D01*
X115466476Y-36599809D01*
X114990285Y-36695047D01*
D14*
X91454214Y-39568380D02*
X91454214Y-38568380D01*
X91835166Y-38568380D01*
X91930404Y-38616000D01*
X91978023Y-38663619D01*
X92025642Y-38758857D01*
X92025642Y-38901714D01*
X91978023Y-38996952D01*
X91930404Y-39044571D01*
X91835166Y-39092190D01*
X91454214Y-39092190D01*
X93025642Y-39568380D02*
X92692309Y-39092190D01*
X92454214Y-39568380D02*
X92454214Y-38568380D01*
X92835166Y-38568380D01*
X92930404Y-38616000D01*
X92978023Y-38663619D01*
X93025642Y-38758857D01*
X93025642Y-38901714D01*
X92978023Y-38996952D01*
X92930404Y-39044571D01*
X92835166Y-39092190D01*
X92454214Y-39092190D01*
X93644690Y-38568380D02*
X93835166Y-38568380D01*
X93930404Y-38616000D01*
X94025642Y-38711238D01*
X94073261Y-38901714D01*
X94073261Y-39235047D01*
X94025642Y-39425523D01*
X93930404Y-39520761D01*
X93835166Y-39568380D01*
X93644690Y-39568380D01*
X93549452Y-39520761D01*
X93454214Y-39425523D01*
X93406595Y-39235047D01*
X93406595Y-38901714D01*
X93454214Y-38711238D01*
X93549452Y-38616000D01*
X93644690Y-38568380D01*
X94835166Y-39044571D02*
X94978023Y-39092190D01*
X95025642Y-39139809D01*
X95073261Y-39235047D01*
X95073261Y-39377904D01*
X95025642Y-39473142D01*
X94978023Y-39520761D01*
X94882785Y-39568380D01*
X94501833Y-39568380D01*
X94501833Y-38568380D01*
X94835166Y-38568380D01*
X94930404Y-38616000D01*
X94978023Y-38663619D01*
X95025642Y-38758857D01*
X95025642Y-38854095D01*
X94978023Y-38949333D01*
X94930404Y-38996952D01*
X94835166Y-39044571D01*
X94501833Y-39044571D01*
X95501833Y-39044571D02*
X95835166Y-39044571D01*
X95978023Y-39568380D02*
X95501833Y-39568380D01*
X95501833Y-38568380D01*
X95978023Y-38568380D01*
X100157595Y-66492380D02*
X100157595Y-65492380D01*
X100157595Y-65968571D02*
X100729023Y-65968571D01*
X100729023Y-66492380D02*
X100729023Y-65492380D01*
X101205214Y-65968571D02*
X101538547Y-65968571D01*
X101681404Y-66492380D02*
X101205214Y-66492380D01*
X101205214Y-65492380D01*
X101681404Y-65492380D01*
X102062357Y-66206666D02*
X102538547Y-66206666D01*
X101967119Y-66492380D02*
X102300452Y-65492380D01*
X102633785Y-66492380D01*
X102824261Y-65492380D02*
X103395690Y-65492380D01*
X103109976Y-66492380D02*
X103109976Y-65492380D01*
X100490928Y-64444571D02*
X100157595Y-64444571D01*
X100157595Y-64968380D02*
X100157595Y-63968380D01*
X100633785Y-63968380D01*
X100967119Y-64682666D02*
X101443309Y-64682666D01*
X100871880Y-64968380D02*
X101205214Y-63968380D01*
X101538547Y-64968380D01*
X101871880Y-64968380D02*
X101871880Y-63968380D01*
X102443309Y-64968380D01*
X102443309Y-63968380D01*
X100729023Y-63349142D02*
X100681404Y-63396761D01*
X100538547Y-63444380D01*
X100443309Y-63444380D01*
X100300452Y-63396761D01*
X100205214Y-63301523D01*
X100157595Y-63206285D01*
X100109976Y-63015809D01*
X100109976Y-62872952D01*
X100157595Y-62682476D01*
X100205214Y-62587238D01*
X100300452Y-62492000D01*
X100443309Y-62444380D01*
X100538547Y-62444380D01*
X100681404Y-62492000D01*
X100729023Y-62539619D01*
X101348071Y-62444380D02*
X101538547Y-62444380D01*
X101633785Y-62492000D01*
X101729023Y-62587238D01*
X101776642Y-62777714D01*
X101776642Y-63111047D01*
X101729023Y-63301523D01*
X101633785Y-63396761D01*
X101538547Y-63444380D01*
X101348071Y-63444380D01*
X101252833Y-63396761D01*
X101157595Y-63301523D01*
X101109976Y-63111047D01*
X101109976Y-62777714D01*
X101157595Y-62587238D01*
X101252833Y-62492000D01*
X101348071Y-62444380D01*
X102395690Y-62444380D02*
X102586166Y-62444380D01*
X102681404Y-62492000D01*
X102776642Y-62587238D01*
X102824261Y-62777714D01*
X102824261Y-63111047D01*
X102776642Y-63301523D01*
X102681404Y-63396761D01*
X102586166Y-63444380D01*
X102395690Y-63444380D01*
X102300452Y-63396761D01*
X102205214Y-63301523D01*
X102157595Y-63111047D01*
X102157595Y-62777714D01*
X102205214Y-62587238D01*
X102300452Y-62492000D01*
X102395690Y-62444380D01*
X103729023Y-63444380D02*
X103252833Y-63444380D01*
X103252833Y-62444380D01*
X100671333Y-45315142D02*
X100623714Y-45362761D01*
X100480857Y-45410380D01*
X100385619Y-45410380D01*
X100242761Y-45362761D01*
X100147523Y-45267523D01*
X100099904Y-45172285D01*
X100052285Y-44981809D01*
X100052285Y-44838952D01*
X100099904Y-44648476D01*
X100147523Y-44553238D01*
X100242761Y-44458000D01*
X100385619Y-44410380D01*
X100480857Y-44410380D01*
X100623714Y-44458000D01*
X100671333Y-44505619D01*
X101004666Y-44410380D02*
X101623714Y-44410380D01*
X101290380Y-44791333D01*
X101433238Y-44791333D01*
X101528476Y-44838952D01*
X101576095Y-44886571D01*
X101623714Y-44981809D01*
X101623714Y-45219904D01*
X101576095Y-45315142D01*
X101528476Y-45362761D01*
X101433238Y-45410380D01*
X101147523Y-45410380D01*
X101052285Y-45362761D01*
X101004666Y-45315142D01*
X100798333Y-58269142D02*
X100750714Y-58316761D01*
X100607857Y-58364380D01*
X100512619Y-58364380D01*
X100369761Y-58316761D01*
X100274523Y-58221523D01*
X100226904Y-58126285D01*
X100179285Y-57935809D01*
X100179285Y-57792952D01*
X100226904Y-57602476D01*
X100274523Y-57507238D01*
X100369761Y-57412000D01*
X100512619Y-57364380D01*
X100607857Y-57364380D01*
X100750714Y-57412000D01*
X100798333Y-57459619D01*
X101179285Y-57459619D02*
X101226904Y-57412000D01*
X101322142Y-57364380D01*
X101560238Y-57364380D01*
X101655476Y-57412000D01*
X101703095Y-57459619D01*
X101750714Y-57554857D01*
X101750714Y-57650095D01*
X101703095Y-57792952D01*
X101131666Y-58364380D01*
X101750714Y-58364380D01*
X100671333Y-51411142D02*
X100623714Y-51458761D01*
X100480857Y-51506380D01*
X100385619Y-51506380D01*
X100242761Y-51458761D01*
X100147523Y-51363523D01*
X100099904Y-51268285D01*
X100052285Y-51077809D01*
X100052285Y-50934952D01*
X100099904Y-50744476D01*
X100147523Y-50649238D01*
X100242761Y-50554000D01*
X100385619Y-50506380D01*
X100480857Y-50506380D01*
X100623714Y-50554000D01*
X100671333Y-50601619D01*
X101623714Y-51506380D02*
X101052285Y-51506380D01*
X101338000Y-51506380D02*
X101338000Y-50506380D01*
X101242761Y-50649238D01*
X101147523Y-50744476D01*
X101052285Y-50792095D01*
X101020666Y-59904380D02*
X101020666Y-60618666D01*
X100973047Y-60761523D01*
X100877809Y-60856761D01*
X100734952Y-60904380D01*
X100639714Y-60904380D01*
X101496857Y-60904380D02*
X101496857Y-59904380D01*
X101877809Y-59904380D01*
X101973047Y-59952000D01*
X102020666Y-59999619D01*
X102068285Y-60094857D01*
X102068285Y-60237714D01*
X102020666Y-60332952D01*
X101973047Y-60380571D01*
X101877809Y-60428190D01*
X101496857Y-60428190D01*
X103020666Y-60904380D02*
X102449238Y-60904380D01*
X102734952Y-60904380D02*
X102734952Y-59904380D01*
X102639714Y-60047238D01*
X102544476Y-60142476D01*
X102449238Y-60190095D01*
M02*
