G04 #@! TF.GenerationSoftware,KiCad,Pcbnew,5.1.4-e60b266~84~ubuntu18.04.1*
G04 #@! TF.CreationDate,2019-09-26T21:49:53+08:00*
G04 #@! TF.ProjectId,head,68656164-2e6b-4696-9361-645f70636258,rev?*
G04 #@! TF.SameCoordinates,Original*
G04 #@! TF.FileFunction,Soldermask,Bot*
G04 #@! TF.FilePolarity,Negative*
%FSLAX46Y46*%
G04 Gerber Fmt 4.6, Leading zero omitted, Abs format (unit mm)*
G04 Created by KiCad (PCBNEW 5.1.4-e60b266~84~ubuntu18.04.1) date 2019-09-26 21:49:53*
%MOMM*%
%LPD*%
G04 APERTURE LIST*
%ADD10C,1.200000*%
%ADD11C,0.100000*%
G04 APERTURE END LIST*
D10*
X115316000Y-32131000D02*
G75*
G03X115316000Y-32131000I-1905000J0D01*
G01*
X115316000Y-74041000D02*
G75*
G03X115316000Y-74041000I-1905000J0D01*
G01*
X93726000Y-74041000D02*
G75*
G03X93726000Y-74041000I-1905000J0D01*
G01*
X93726000Y-32131000D02*
G75*
G03X93726000Y-32131000I-1905000J0D01*
G01*
D11*
G36*
X114242313Y-71300523D02*
G01*
X114760980Y-71515362D01*
X114915871Y-71618857D01*
X115227769Y-71827260D01*
X115624740Y-72224231D01*
X115833143Y-72536129D01*
X115936638Y-72691020D01*
X116151477Y-73209687D01*
X116261000Y-73760298D01*
X116261000Y-74321702D01*
X116151477Y-74872313D01*
X115936638Y-75390980D01*
X115864035Y-75499638D01*
X115624740Y-75857769D01*
X115227769Y-76254740D01*
X114915871Y-76463143D01*
X114760980Y-76566638D01*
X114242313Y-76781477D01*
X113691702Y-76891000D01*
X113130298Y-76891000D01*
X112579687Y-76781477D01*
X112061020Y-76566638D01*
X111906129Y-76463143D01*
X111594231Y-76254740D01*
X111197260Y-75857769D01*
X110957965Y-75499638D01*
X110885362Y-75390980D01*
X110670523Y-74872313D01*
X110561000Y-74321702D01*
X110561000Y-73760298D01*
X110670523Y-73209687D01*
X110885362Y-72691020D01*
X110988857Y-72536129D01*
X111197260Y-72224231D01*
X111594231Y-71827260D01*
X111906129Y-71618857D01*
X112061020Y-71515362D01*
X112579687Y-71300523D01*
X113130298Y-71191000D01*
X113691702Y-71191000D01*
X114242313Y-71300523D01*
X114242313Y-71300523D01*
G37*
G36*
X92652313Y-71300523D02*
G01*
X93170980Y-71515362D01*
X93325871Y-71618857D01*
X93637769Y-71827260D01*
X94034740Y-72224231D01*
X94243143Y-72536129D01*
X94346638Y-72691020D01*
X94561477Y-73209687D01*
X94671000Y-73760298D01*
X94671000Y-74321702D01*
X94561477Y-74872313D01*
X94346638Y-75390980D01*
X94274035Y-75499638D01*
X94034740Y-75857769D01*
X93637769Y-76254740D01*
X93325871Y-76463143D01*
X93170980Y-76566638D01*
X92652313Y-76781477D01*
X92101702Y-76891000D01*
X91540298Y-76891000D01*
X90989687Y-76781477D01*
X90471020Y-76566638D01*
X90316129Y-76463143D01*
X90004231Y-76254740D01*
X89607260Y-75857769D01*
X89367965Y-75499638D01*
X89295362Y-75390980D01*
X89080523Y-74872313D01*
X88971000Y-74321702D01*
X88971000Y-73760298D01*
X89080523Y-73209687D01*
X89295362Y-72691020D01*
X89398857Y-72536129D01*
X89607260Y-72224231D01*
X90004231Y-71827260D01*
X90316129Y-71618857D01*
X90471020Y-71515362D01*
X90989687Y-71300523D01*
X91540298Y-71191000D01*
X92101702Y-71191000D01*
X92652313Y-71300523D01*
X92652313Y-71300523D01*
G37*
G36*
X98571499Y-75297445D02*
G01*
X98608995Y-75308820D01*
X98643554Y-75327292D01*
X98673847Y-75352153D01*
X98698708Y-75382446D01*
X98717180Y-75417005D01*
X98728555Y-75454501D01*
X98733000Y-75499638D01*
X98733000Y-76138362D01*
X98728555Y-76183499D01*
X98717180Y-76220995D01*
X98698708Y-76255554D01*
X98673847Y-76285847D01*
X98643554Y-76310708D01*
X98608995Y-76329180D01*
X98571499Y-76340555D01*
X98526362Y-76345000D01*
X97787638Y-76345000D01*
X97742501Y-76340555D01*
X97705005Y-76329180D01*
X97670446Y-76310708D01*
X97640153Y-76285847D01*
X97615292Y-76255554D01*
X97596820Y-76220995D01*
X97585445Y-76183499D01*
X97581000Y-76138362D01*
X97581000Y-75499638D01*
X97585445Y-75454501D01*
X97596820Y-75417005D01*
X97615292Y-75382446D01*
X97640153Y-75352153D01*
X97670446Y-75327292D01*
X97705005Y-75308820D01*
X97742501Y-75297445D01*
X97787638Y-75293000D01*
X98526362Y-75293000D01*
X98571499Y-75297445D01*
X98571499Y-75297445D01*
G37*
G36*
X96821499Y-75297445D02*
G01*
X96858995Y-75308820D01*
X96893554Y-75327292D01*
X96923847Y-75352153D01*
X96948708Y-75382446D01*
X96967180Y-75417005D01*
X96978555Y-75454501D01*
X96983000Y-75499638D01*
X96983000Y-76138362D01*
X96978555Y-76183499D01*
X96967180Y-76220995D01*
X96948708Y-76255554D01*
X96923847Y-76285847D01*
X96893554Y-76310708D01*
X96858995Y-76329180D01*
X96821499Y-76340555D01*
X96776362Y-76345000D01*
X96037638Y-76345000D01*
X95992501Y-76340555D01*
X95955005Y-76329180D01*
X95920446Y-76310708D01*
X95890153Y-76285847D01*
X95865292Y-76255554D01*
X95846820Y-76220995D01*
X95835445Y-76183499D01*
X95831000Y-76138362D01*
X95831000Y-75499638D01*
X95835445Y-75454501D01*
X95846820Y-75417005D01*
X95865292Y-75382446D01*
X95890153Y-75352153D01*
X95920446Y-75327292D01*
X95955005Y-75308820D01*
X95992501Y-75297445D01*
X96037638Y-75293000D01*
X96776362Y-75293000D01*
X96821499Y-75297445D01*
X96821499Y-75297445D01*
G37*
G36*
X98571499Y-73011445D02*
G01*
X98608995Y-73022820D01*
X98643554Y-73041292D01*
X98673847Y-73066153D01*
X98698708Y-73096446D01*
X98717180Y-73131005D01*
X98728555Y-73168501D01*
X98733000Y-73213638D01*
X98733000Y-73852362D01*
X98728555Y-73897499D01*
X98717180Y-73934995D01*
X98698708Y-73969554D01*
X98673847Y-73999847D01*
X98643554Y-74024708D01*
X98608995Y-74043180D01*
X98571499Y-74054555D01*
X98526362Y-74059000D01*
X97787638Y-74059000D01*
X97742501Y-74054555D01*
X97705005Y-74043180D01*
X97670446Y-74024708D01*
X97640153Y-73999847D01*
X97615292Y-73969554D01*
X97596820Y-73934995D01*
X97585445Y-73897499D01*
X97581000Y-73852362D01*
X97581000Y-73213638D01*
X97585445Y-73168501D01*
X97596820Y-73131005D01*
X97615292Y-73096446D01*
X97640153Y-73066153D01*
X97670446Y-73041292D01*
X97705005Y-73022820D01*
X97742501Y-73011445D01*
X97787638Y-73007000D01*
X98526362Y-73007000D01*
X98571499Y-73011445D01*
X98571499Y-73011445D01*
G37*
G36*
X96821499Y-73011445D02*
G01*
X96858995Y-73022820D01*
X96893554Y-73041292D01*
X96923847Y-73066153D01*
X96948708Y-73096446D01*
X96967180Y-73131005D01*
X96978555Y-73168501D01*
X96983000Y-73213638D01*
X96983000Y-73852362D01*
X96978555Y-73897499D01*
X96967180Y-73934995D01*
X96948708Y-73969554D01*
X96923847Y-73999847D01*
X96893554Y-74024708D01*
X96858995Y-74043180D01*
X96821499Y-74054555D01*
X96776362Y-74059000D01*
X96037638Y-74059000D01*
X95992501Y-74054555D01*
X95955005Y-74043180D01*
X95920446Y-74024708D01*
X95890153Y-73999847D01*
X95865292Y-73969554D01*
X95846820Y-73934995D01*
X95835445Y-73897499D01*
X95831000Y-73852362D01*
X95831000Y-73213638D01*
X95835445Y-73168501D01*
X95846820Y-73131005D01*
X95865292Y-73096446D01*
X95890153Y-73066153D01*
X95920446Y-73041292D01*
X95955005Y-73022820D01*
X95992501Y-73011445D01*
X96037638Y-73007000D01*
X96776362Y-73007000D01*
X96821499Y-73011445D01*
X96821499Y-73011445D01*
G37*
G36*
X96821499Y-70471445D02*
G01*
X96858995Y-70482820D01*
X96893554Y-70501292D01*
X96923847Y-70526153D01*
X96948708Y-70556446D01*
X96967180Y-70591005D01*
X96978555Y-70628501D01*
X96983000Y-70673638D01*
X96983000Y-71312362D01*
X96978555Y-71357499D01*
X96967180Y-71394995D01*
X96948708Y-71429554D01*
X96923847Y-71459847D01*
X96893554Y-71484708D01*
X96858995Y-71503180D01*
X96821499Y-71514555D01*
X96776362Y-71519000D01*
X96037638Y-71519000D01*
X95992501Y-71514555D01*
X95955005Y-71503180D01*
X95920446Y-71484708D01*
X95890153Y-71459847D01*
X95865292Y-71429554D01*
X95846820Y-71394995D01*
X95835445Y-71357499D01*
X95831000Y-71312362D01*
X95831000Y-70673638D01*
X95835445Y-70628501D01*
X95846820Y-70591005D01*
X95865292Y-70556446D01*
X95890153Y-70526153D01*
X95920446Y-70501292D01*
X95955005Y-70482820D01*
X95992501Y-70471445D01*
X96037638Y-70467000D01*
X96776362Y-70467000D01*
X96821499Y-70471445D01*
X96821499Y-70471445D01*
G37*
G36*
X98571499Y-70471445D02*
G01*
X98608995Y-70482820D01*
X98643554Y-70501292D01*
X98673847Y-70526153D01*
X98698708Y-70556446D01*
X98717180Y-70591005D01*
X98728555Y-70628501D01*
X98733000Y-70673638D01*
X98733000Y-71312362D01*
X98728555Y-71357499D01*
X98717180Y-71394995D01*
X98698708Y-71429554D01*
X98673847Y-71459847D01*
X98643554Y-71484708D01*
X98608995Y-71503180D01*
X98571499Y-71514555D01*
X98526362Y-71519000D01*
X97787638Y-71519000D01*
X97742501Y-71514555D01*
X97705005Y-71503180D01*
X97670446Y-71484708D01*
X97640153Y-71459847D01*
X97615292Y-71429554D01*
X97596820Y-71394995D01*
X97585445Y-71357499D01*
X97581000Y-71312362D01*
X97581000Y-70673638D01*
X97585445Y-70628501D01*
X97596820Y-70591005D01*
X97615292Y-70556446D01*
X97640153Y-70526153D01*
X97670446Y-70501292D01*
X97705005Y-70482820D01*
X97742501Y-70471445D01*
X97787638Y-70467000D01*
X98526362Y-70467000D01*
X98571499Y-70471445D01*
X98571499Y-70471445D01*
G37*
G36*
X104317049Y-67059442D02*
G01*
X104609414Y-67148130D01*
X104609416Y-67148131D01*
X104878858Y-67292150D01*
X105115029Y-67485971D01*
X105308850Y-67722142D01*
X105452869Y-67991584D01*
X105452870Y-67991586D01*
X105541558Y-68283951D01*
X105564000Y-68511810D01*
X105564000Y-69664190D01*
X105541558Y-69892049D01*
X105452870Y-70184413D01*
X105452869Y-70184416D01*
X105308850Y-70453858D01*
X105202395Y-70583574D01*
X105115029Y-70690029D01*
X104914768Y-70854378D01*
X104878856Y-70883850D01*
X104609415Y-71027869D01*
X104609413Y-71027870D01*
X104317048Y-71116558D01*
X104013000Y-71146504D01*
X103708951Y-71116558D01*
X103416586Y-71027870D01*
X103416584Y-71027869D01*
X103147142Y-70883850D01*
X102959676Y-70730000D01*
X102910971Y-70690029D01*
X102717151Y-70453857D01*
X102573130Y-70184413D01*
X102484442Y-69892048D01*
X102462000Y-69664189D01*
X102462000Y-68511810D01*
X102484442Y-68283951D01*
X102573130Y-67991586D01*
X102717151Y-67722142D01*
X102910972Y-67485971D01*
X103147143Y-67292150D01*
X103416585Y-67148131D01*
X103416587Y-67148130D01*
X103708952Y-67059442D01*
X104013000Y-67029496D01*
X104317049Y-67059442D01*
X104317049Y-67059442D01*
G37*
G36*
X108127049Y-67059442D02*
G01*
X108419414Y-67148130D01*
X108419416Y-67148131D01*
X108688858Y-67292150D01*
X108925029Y-67485971D01*
X109118850Y-67722142D01*
X109262869Y-67991584D01*
X109262870Y-67991586D01*
X109351558Y-68283951D01*
X109374000Y-68511810D01*
X109374000Y-69664190D01*
X109351558Y-69892049D01*
X109262870Y-70184413D01*
X109262869Y-70184416D01*
X109118850Y-70453858D01*
X109012395Y-70583574D01*
X108925029Y-70690029D01*
X108724768Y-70854378D01*
X108688856Y-70883850D01*
X108419415Y-71027869D01*
X108419413Y-71027870D01*
X108127048Y-71116558D01*
X107823000Y-71146504D01*
X107518951Y-71116558D01*
X107226586Y-71027870D01*
X107226584Y-71027869D01*
X106957142Y-70883850D01*
X106769676Y-70730000D01*
X106720971Y-70690029D01*
X106527151Y-70453857D01*
X106383130Y-70184413D01*
X106294442Y-69892048D01*
X106272000Y-69664189D01*
X106272000Y-68511810D01*
X106294442Y-68283951D01*
X106383130Y-67991586D01*
X106527151Y-67722142D01*
X106720972Y-67485971D01*
X106957143Y-67292150D01*
X107226585Y-67148131D01*
X107226587Y-67148130D01*
X107518952Y-67059442D01*
X107823000Y-67029496D01*
X108127049Y-67059442D01*
X108127049Y-67059442D01*
G37*
G36*
X97426143Y-65131481D02*
G01*
X97578049Y-65146442D01*
X97870414Y-65235130D01*
X97870416Y-65235131D01*
X98139858Y-65379150D01*
X98376029Y-65572971D01*
X98569850Y-65809142D01*
X98713869Y-66078584D01*
X98713870Y-66078586D01*
X98802558Y-66370951D01*
X98832504Y-66675000D01*
X98802558Y-66979049D01*
X98713870Y-67271414D01*
X98713869Y-67271416D01*
X98569850Y-67540858D01*
X98376029Y-67777029D01*
X98139858Y-67970850D01*
X97870416Y-68114869D01*
X97870414Y-68114870D01*
X97578049Y-68203558D01*
X97426143Y-68218519D01*
X97350191Y-68226000D01*
X96197809Y-68226000D01*
X96121857Y-68218519D01*
X95969951Y-68203558D01*
X95677586Y-68114870D01*
X95677584Y-68114869D01*
X95408142Y-67970850D01*
X95171971Y-67777029D01*
X94978150Y-67540858D01*
X94834131Y-67271416D01*
X94834130Y-67271414D01*
X94745442Y-66979049D01*
X94715496Y-66675000D01*
X94745442Y-66370951D01*
X94834130Y-66078586D01*
X94834131Y-66078584D01*
X94978150Y-65809142D01*
X95171971Y-65572971D01*
X95408142Y-65379150D01*
X95677584Y-65235131D01*
X95677586Y-65235130D01*
X95969951Y-65146442D01*
X96121857Y-65131481D01*
X96197809Y-65124000D01*
X97350191Y-65124000D01*
X97426143Y-65131481D01*
X97426143Y-65131481D01*
G37*
G36*
X113794442Y-63367518D02*
G01*
X113860627Y-63374037D01*
X114030466Y-63425557D01*
X114186991Y-63509222D01*
X114222729Y-63538552D01*
X114324186Y-63621814D01*
X114407448Y-63723271D01*
X114436778Y-63759009D01*
X114520443Y-63915534D01*
X114571963Y-64085373D01*
X114589359Y-64262000D01*
X114571963Y-64438627D01*
X114520443Y-64608466D01*
X114436778Y-64764991D01*
X114407448Y-64800729D01*
X114324186Y-64902186D01*
X114222729Y-64985448D01*
X114186991Y-65014778D01*
X114030466Y-65098443D01*
X113860627Y-65149963D01*
X113794443Y-65156481D01*
X113728260Y-65163000D01*
X112839740Y-65163000D01*
X112773557Y-65156481D01*
X112707373Y-65149963D01*
X112537534Y-65098443D01*
X112381009Y-65014778D01*
X112345271Y-64985448D01*
X112243814Y-64902186D01*
X112160552Y-64800729D01*
X112131222Y-64764991D01*
X112047557Y-64608466D01*
X111996037Y-64438627D01*
X111978641Y-64262000D01*
X111996037Y-64085373D01*
X112047557Y-63915534D01*
X112131222Y-63759009D01*
X112160552Y-63723271D01*
X112243814Y-63621814D01*
X112345271Y-63538552D01*
X112381009Y-63509222D01*
X112537534Y-63425557D01*
X112707373Y-63374037D01*
X112773558Y-63367518D01*
X112839740Y-63361000D01*
X113728260Y-63361000D01*
X113794442Y-63367518D01*
X113794442Y-63367518D01*
G37*
G36*
X97426143Y-61321481D02*
G01*
X97578049Y-61336442D01*
X97870414Y-61425130D01*
X97870416Y-61425131D01*
X98139858Y-61569150D01*
X98376029Y-61762971D01*
X98569850Y-61999142D01*
X98606905Y-62068468D01*
X98713870Y-62268586D01*
X98802558Y-62560951D01*
X98832504Y-62865000D01*
X98802558Y-63169049D01*
X98713870Y-63461414D01*
X98713869Y-63461416D01*
X98569850Y-63730858D01*
X98376029Y-63967029D01*
X98139858Y-64160850D01*
X97870416Y-64304869D01*
X97870414Y-64304870D01*
X97578049Y-64393558D01*
X97426143Y-64408519D01*
X97350191Y-64416000D01*
X96197809Y-64416000D01*
X96121857Y-64408519D01*
X95969951Y-64393558D01*
X95677586Y-64304870D01*
X95677584Y-64304869D01*
X95408142Y-64160850D01*
X95171971Y-63967029D01*
X94978150Y-63730858D01*
X94834131Y-63461416D01*
X94834130Y-63461414D01*
X94745442Y-63169049D01*
X94715496Y-62865000D01*
X94745442Y-62560951D01*
X94834130Y-62268586D01*
X94941095Y-62068468D01*
X94978150Y-61999142D01*
X95171971Y-61762971D01*
X95408142Y-61569150D01*
X95677584Y-61425131D01*
X95677586Y-61425130D01*
X95969951Y-61336442D01*
X96121857Y-61321481D01*
X96197809Y-61314000D01*
X97350191Y-61314000D01*
X97426143Y-61321481D01*
X97426143Y-61321481D01*
G37*
G36*
X113794443Y-60827519D02*
G01*
X113860627Y-60834037D01*
X114030466Y-60885557D01*
X114186991Y-60969222D01*
X114222729Y-60998552D01*
X114324186Y-61081814D01*
X114407448Y-61183271D01*
X114436778Y-61219009D01*
X114520443Y-61375534D01*
X114571963Y-61545373D01*
X114589359Y-61722000D01*
X114571963Y-61898627D01*
X114520443Y-62068466D01*
X114436778Y-62224991D01*
X114407448Y-62260729D01*
X114324186Y-62362186D01*
X114222729Y-62445448D01*
X114186991Y-62474778D01*
X114030466Y-62558443D01*
X113860627Y-62609963D01*
X113794442Y-62616482D01*
X113728260Y-62623000D01*
X112839740Y-62623000D01*
X112773558Y-62616482D01*
X112707373Y-62609963D01*
X112537534Y-62558443D01*
X112381009Y-62474778D01*
X112345271Y-62445448D01*
X112243814Y-62362186D01*
X112160552Y-62260729D01*
X112131222Y-62224991D01*
X112047557Y-62068466D01*
X111996037Y-61898627D01*
X111978641Y-61722000D01*
X111996037Y-61545373D01*
X112047557Y-61375534D01*
X112131222Y-61219009D01*
X112160552Y-61183271D01*
X112243814Y-61081814D01*
X112345271Y-60998552D01*
X112381009Y-60969222D01*
X112537534Y-60885557D01*
X112707373Y-60834037D01*
X112773557Y-60827519D01*
X112839740Y-60821000D01*
X113728260Y-60821000D01*
X113794443Y-60827519D01*
X113794443Y-60827519D01*
G37*
G36*
X113794442Y-58287518D02*
G01*
X113860627Y-58294037D01*
X114030466Y-58345557D01*
X114186991Y-58429222D01*
X114222729Y-58458552D01*
X114324186Y-58541814D01*
X114407448Y-58643271D01*
X114436778Y-58679009D01*
X114520443Y-58835534D01*
X114571963Y-59005373D01*
X114589359Y-59182000D01*
X114571963Y-59358627D01*
X114520443Y-59528466D01*
X114436778Y-59684991D01*
X114407448Y-59720729D01*
X114324186Y-59822186D01*
X114222729Y-59905448D01*
X114186991Y-59934778D01*
X114030466Y-60018443D01*
X113860627Y-60069963D01*
X113794442Y-60076482D01*
X113728260Y-60083000D01*
X112839740Y-60083000D01*
X112773558Y-60076482D01*
X112707373Y-60069963D01*
X112537534Y-60018443D01*
X112381009Y-59934778D01*
X112345271Y-59905448D01*
X112243814Y-59822186D01*
X112160552Y-59720729D01*
X112131222Y-59684991D01*
X112047557Y-59528466D01*
X111996037Y-59358627D01*
X111978641Y-59182000D01*
X111996037Y-59005373D01*
X112047557Y-58835534D01*
X112131222Y-58679009D01*
X112160552Y-58643271D01*
X112243814Y-58541814D01*
X112345271Y-58458552D01*
X112381009Y-58429222D01*
X112537534Y-58345557D01*
X112707373Y-58294037D01*
X112773558Y-58287518D01*
X112839740Y-58281000D01*
X113728260Y-58281000D01*
X113794442Y-58287518D01*
X113794442Y-58287518D01*
G37*
G36*
X97426143Y-55225481D02*
G01*
X97578049Y-55240442D01*
X97870414Y-55329130D01*
X97870416Y-55329131D01*
X98139858Y-55473150D01*
X98376029Y-55666971D01*
X98569850Y-55903142D01*
X98695923Y-56139009D01*
X98713870Y-56172586D01*
X98802558Y-56464951D01*
X98832504Y-56769000D01*
X98802558Y-57073049D01*
X98713870Y-57365414D01*
X98713869Y-57365416D01*
X98569850Y-57634858D01*
X98376029Y-57871029D01*
X98139858Y-58064850D01*
X97870416Y-58208869D01*
X97870414Y-58208870D01*
X97578049Y-58297558D01*
X97426143Y-58312519D01*
X97350191Y-58320000D01*
X96197809Y-58320000D01*
X96121857Y-58312519D01*
X95969951Y-58297558D01*
X95677586Y-58208870D01*
X95677584Y-58208869D01*
X95408142Y-58064850D01*
X95171971Y-57871029D01*
X94978150Y-57634858D01*
X94834131Y-57365416D01*
X94834130Y-57365414D01*
X94745442Y-57073049D01*
X94715496Y-56769000D01*
X94745442Y-56464951D01*
X94834130Y-56172586D01*
X94852077Y-56139009D01*
X94978150Y-55903142D01*
X95171971Y-55666971D01*
X95408142Y-55473150D01*
X95677584Y-55329131D01*
X95677586Y-55329130D01*
X95969951Y-55240442D01*
X96121857Y-55225481D01*
X96197809Y-55218000D01*
X97350191Y-55218000D01*
X97426143Y-55225481D01*
X97426143Y-55225481D01*
G37*
G36*
X113794442Y-55747518D02*
G01*
X113860627Y-55754037D01*
X114030466Y-55805557D01*
X114186991Y-55889222D01*
X114203952Y-55903142D01*
X114324186Y-56001814D01*
X114407448Y-56103271D01*
X114436778Y-56139009D01*
X114520443Y-56295534D01*
X114571963Y-56465373D01*
X114589359Y-56642000D01*
X114571963Y-56818627D01*
X114520443Y-56988466D01*
X114436778Y-57144991D01*
X114407448Y-57180729D01*
X114324186Y-57282186D01*
X114222771Y-57365414D01*
X114186991Y-57394778D01*
X114030466Y-57478443D01*
X113860627Y-57529963D01*
X113794442Y-57536482D01*
X113728260Y-57543000D01*
X112839740Y-57543000D01*
X112773558Y-57536482D01*
X112707373Y-57529963D01*
X112537534Y-57478443D01*
X112381009Y-57394778D01*
X112345229Y-57365414D01*
X112243814Y-57282186D01*
X112160552Y-57180729D01*
X112131222Y-57144991D01*
X112047557Y-56988466D01*
X111996037Y-56818627D01*
X111978641Y-56642000D01*
X111996037Y-56465373D01*
X112047557Y-56295534D01*
X112131222Y-56139009D01*
X112160552Y-56103271D01*
X112243814Y-56001814D01*
X112364048Y-55903142D01*
X112381009Y-55889222D01*
X112537534Y-55805557D01*
X112707373Y-55754037D01*
X112773558Y-55747518D01*
X112839740Y-55741000D01*
X113728260Y-55741000D01*
X113794442Y-55747518D01*
X113794442Y-55747518D01*
G37*
G36*
X113794442Y-53207518D02*
G01*
X113860627Y-53214037D01*
X114030466Y-53265557D01*
X114186991Y-53349222D01*
X114222729Y-53378552D01*
X114324186Y-53461814D01*
X114401000Y-53555414D01*
X114436778Y-53599009D01*
X114520443Y-53755534D01*
X114571963Y-53925373D01*
X114589359Y-54102000D01*
X114571963Y-54278627D01*
X114520443Y-54448466D01*
X114436778Y-54604991D01*
X114407448Y-54640729D01*
X114324186Y-54742186D01*
X114222729Y-54825448D01*
X114186991Y-54854778D01*
X114030466Y-54938443D01*
X113860627Y-54989963D01*
X113794443Y-54996481D01*
X113728260Y-55003000D01*
X112839740Y-55003000D01*
X112773557Y-54996481D01*
X112707373Y-54989963D01*
X112537534Y-54938443D01*
X112381009Y-54854778D01*
X112345271Y-54825448D01*
X112243814Y-54742186D01*
X112160552Y-54640729D01*
X112131222Y-54604991D01*
X112047557Y-54448466D01*
X111996037Y-54278627D01*
X111978641Y-54102000D01*
X111996037Y-53925373D01*
X112047557Y-53755534D01*
X112131222Y-53599009D01*
X112167000Y-53555414D01*
X112243814Y-53461814D01*
X112345271Y-53378552D01*
X112381009Y-53349222D01*
X112537534Y-53265557D01*
X112707373Y-53214037D01*
X112773558Y-53207518D01*
X112839740Y-53201000D01*
X113728260Y-53201000D01*
X113794442Y-53207518D01*
X113794442Y-53207518D01*
G37*
G36*
X97426143Y-51415481D02*
G01*
X97578049Y-51430442D01*
X97870414Y-51519130D01*
X97870416Y-51519131D01*
X98139858Y-51663150D01*
X98376029Y-51856971D01*
X98569850Y-52093142D01*
X98688316Y-52314778D01*
X98713870Y-52362586D01*
X98802558Y-52654951D01*
X98832504Y-52959000D01*
X98802558Y-53263049D01*
X98713870Y-53555414D01*
X98713869Y-53555416D01*
X98569850Y-53824858D01*
X98376029Y-54061029D01*
X98139858Y-54254850D01*
X97870416Y-54398869D01*
X97870414Y-54398870D01*
X97578049Y-54487558D01*
X97426143Y-54502519D01*
X97350191Y-54510000D01*
X96197809Y-54510000D01*
X96121857Y-54502519D01*
X95969951Y-54487558D01*
X95677586Y-54398870D01*
X95677584Y-54398869D01*
X95408142Y-54254850D01*
X95171971Y-54061029D01*
X94978150Y-53824858D01*
X94834131Y-53555416D01*
X94834130Y-53555414D01*
X94745442Y-53263049D01*
X94715496Y-52959000D01*
X94745442Y-52654951D01*
X94834130Y-52362586D01*
X94859684Y-52314778D01*
X94978150Y-52093142D01*
X95171971Y-51856971D01*
X95408142Y-51663150D01*
X95677584Y-51519131D01*
X95677586Y-51519130D01*
X95969951Y-51430442D01*
X96121857Y-51415481D01*
X96197809Y-51408000D01*
X97350191Y-51408000D01*
X97426143Y-51415481D01*
X97426143Y-51415481D01*
G37*
G36*
X113794442Y-50667518D02*
G01*
X113860627Y-50674037D01*
X114030466Y-50725557D01*
X114186991Y-50809222D01*
X114222729Y-50838552D01*
X114324186Y-50921814D01*
X114407448Y-51023271D01*
X114436778Y-51059009D01*
X114520443Y-51215534D01*
X114571963Y-51385373D01*
X114589359Y-51562000D01*
X114571963Y-51738627D01*
X114520443Y-51908466D01*
X114436778Y-52064991D01*
X114413675Y-52093142D01*
X114324186Y-52202186D01*
X114222729Y-52285448D01*
X114186991Y-52314778D01*
X114030466Y-52398443D01*
X113860627Y-52449963D01*
X113794443Y-52456481D01*
X113728260Y-52463000D01*
X112839740Y-52463000D01*
X112773557Y-52456481D01*
X112707373Y-52449963D01*
X112537534Y-52398443D01*
X112381009Y-52314778D01*
X112345271Y-52285448D01*
X112243814Y-52202186D01*
X112154325Y-52093142D01*
X112131222Y-52064991D01*
X112047557Y-51908466D01*
X111996037Y-51738627D01*
X111978641Y-51562000D01*
X111996037Y-51385373D01*
X112047557Y-51215534D01*
X112131222Y-51059009D01*
X112160552Y-51023271D01*
X112243814Y-50921814D01*
X112345271Y-50838552D01*
X112381009Y-50809222D01*
X112537534Y-50725557D01*
X112707373Y-50674037D01*
X112773558Y-50667518D01*
X112839740Y-50661000D01*
X113728260Y-50661000D01*
X113794442Y-50667518D01*
X113794442Y-50667518D01*
G37*
G36*
X113794443Y-48127519D02*
G01*
X113860627Y-48134037D01*
X114030466Y-48185557D01*
X114186991Y-48269222D01*
X114222729Y-48298552D01*
X114324186Y-48381814D01*
X114407448Y-48483271D01*
X114436778Y-48519009D01*
X114520443Y-48675534D01*
X114571963Y-48845373D01*
X114589359Y-49022000D01*
X114571963Y-49198627D01*
X114520443Y-49368466D01*
X114436778Y-49524991D01*
X114407448Y-49560729D01*
X114324186Y-49662186D01*
X114222729Y-49745448D01*
X114186991Y-49774778D01*
X114030466Y-49858443D01*
X113860627Y-49909963D01*
X113794443Y-49916481D01*
X113728260Y-49923000D01*
X112839740Y-49923000D01*
X112773557Y-49916481D01*
X112707373Y-49909963D01*
X112537534Y-49858443D01*
X112381009Y-49774778D01*
X112345271Y-49745448D01*
X112243814Y-49662186D01*
X112160552Y-49560729D01*
X112131222Y-49524991D01*
X112047557Y-49368466D01*
X111996037Y-49198627D01*
X111978641Y-49022000D01*
X111996037Y-48845373D01*
X112047557Y-48675534D01*
X112131222Y-48519009D01*
X112160552Y-48483271D01*
X112243814Y-48381814D01*
X112345271Y-48298552D01*
X112381009Y-48269222D01*
X112537534Y-48185557D01*
X112707373Y-48134037D01*
X112773558Y-48127518D01*
X112839740Y-48121000D01*
X113728260Y-48121000D01*
X113794443Y-48127519D01*
X113794443Y-48127519D01*
G37*
G36*
X97426143Y-45319481D02*
G01*
X97578049Y-45334442D01*
X97870414Y-45423130D01*
X97870416Y-45423131D01*
X98139858Y-45567150D01*
X98376029Y-45760971D01*
X98569850Y-45997142D01*
X98713869Y-46266584D01*
X98713870Y-46266586D01*
X98802558Y-46558951D01*
X98832504Y-46863000D01*
X98802558Y-47167049D01*
X98713870Y-47459414D01*
X98713869Y-47459416D01*
X98569850Y-47728858D01*
X98376029Y-47965029D01*
X98139858Y-48158850D01*
X97933367Y-48269221D01*
X97870414Y-48302870D01*
X97578049Y-48391558D01*
X97426143Y-48406519D01*
X97350191Y-48414000D01*
X96197809Y-48414000D01*
X96121857Y-48406519D01*
X95969951Y-48391558D01*
X95677586Y-48302870D01*
X95614633Y-48269221D01*
X95408142Y-48158850D01*
X95171971Y-47965029D01*
X94978150Y-47728858D01*
X94834131Y-47459416D01*
X94834130Y-47459414D01*
X94745442Y-47167049D01*
X94715496Y-46863000D01*
X94745442Y-46558951D01*
X94834130Y-46266586D01*
X94834131Y-46266584D01*
X94978150Y-45997142D01*
X95171971Y-45760971D01*
X95408142Y-45567150D01*
X95677584Y-45423131D01*
X95677586Y-45423130D01*
X95969951Y-45334442D01*
X96121857Y-45319481D01*
X96197809Y-45312000D01*
X97350191Y-45312000D01*
X97426143Y-45319481D01*
X97426143Y-45319481D01*
G37*
G36*
X113794442Y-45587518D02*
G01*
X113860627Y-45594037D01*
X114030466Y-45645557D01*
X114186991Y-45729222D01*
X114222729Y-45758552D01*
X114324186Y-45841814D01*
X114407448Y-45943271D01*
X114436778Y-45979009D01*
X114520443Y-46135534D01*
X114571963Y-46305373D01*
X114589359Y-46482000D01*
X114571963Y-46658627D01*
X114520443Y-46828466D01*
X114436778Y-46984991D01*
X114407448Y-47020729D01*
X114324186Y-47122186D01*
X114222729Y-47205448D01*
X114186991Y-47234778D01*
X114030466Y-47318443D01*
X113860627Y-47369963D01*
X113794442Y-47376482D01*
X113728260Y-47383000D01*
X112839740Y-47383000D01*
X112773557Y-47376481D01*
X112707373Y-47369963D01*
X112537534Y-47318443D01*
X112381009Y-47234778D01*
X112345271Y-47205448D01*
X112243814Y-47122186D01*
X112160552Y-47020729D01*
X112131222Y-46984991D01*
X112047557Y-46828466D01*
X111996037Y-46658627D01*
X111978641Y-46482000D01*
X111996037Y-46305373D01*
X112047557Y-46135534D01*
X112131222Y-45979009D01*
X112160552Y-45943271D01*
X112243814Y-45841814D01*
X112345271Y-45758552D01*
X112381009Y-45729222D01*
X112537534Y-45645557D01*
X112707373Y-45594037D01*
X112773558Y-45587518D01*
X112839740Y-45581000D01*
X113728260Y-45581000D01*
X113794442Y-45587518D01*
X113794442Y-45587518D01*
G37*
G36*
X113794442Y-43047518D02*
G01*
X113860627Y-43054037D01*
X114030466Y-43105557D01*
X114186991Y-43189222D01*
X114222729Y-43218552D01*
X114324186Y-43301814D01*
X114407448Y-43403271D01*
X114436778Y-43439009D01*
X114520443Y-43595534D01*
X114571963Y-43765373D01*
X114589359Y-43942000D01*
X114571963Y-44118627D01*
X114520443Y-44288466D01*
X114436778Y-44444991D01*
X114407448Y-44480729D01*
X114324186Y-44582186D01*
X114222729Y-44665448D01*
X114186991Y-44694778D01*
X114030466Y-44778443D01*
X113860627Y-44829963D01*
X113794442Y-44836482D01*
X113728260Y-44843000D01*
X112839740Y-44843000D01*
X112773558Y-44836482D01*
X112707373Y-44829963D01*
X112537534Y-44778443D01*
X112381009Y-44694778D01*
X112345271Y-44665448D01*
X112243814Y-44582186D01*
X112160552Y-44480729D01*
X112131222Y-44444991D01*
X112047557Y-44288466D01*
X111996037Y-44118627D01*
X111978641Y-43942000D01*
X111996037Y-43765373D01*
X112047557Y-43595534D01*
X112131222Y-43439009D01*
X112160552Y-43403271D01*
X112243814Y-43301814D01*
X112345271Y-43218552D01*
X112381009Y-43189222D01*
X112537534Y-43105557D01*
X112707373Y-43054037D01*
X112773557Y-43047519D01*
X112839740Y-43041000D01*
X113728260Y-43041000D01*
X113794442Y-43047518D01*
X113794442Y-43047518D01*
G37*
G36*
X97426143Y-41509481D02*
G01*
X97578049Y-41524442D01*
X97870414Y-41613130D01*
X97870416Y-41613131D01*
X98139858Y-41757150D01*
X98376029Y-41950971D01*
X98569850Y-42187142D01*
X98713869Y-42456584D01*
X98713870Y-42456586D01*
X98802558Y-42748951D01*
X98832504Y-43053000D01*
X98802558Y-43357049D01*
X98777695Y-43439011D01*
X98713869Y-43649416D01*
X98569850Y-43918858D01*
X98376029Y-44155029D01*
X98139858Y-44348850D01*
X97870416Y-44492869D01*
X97870414Y-44492870D01*
X97578049Y-44581558D01*
X97426143Y-44596519D01*
X97350191Y-44604000D01*
X96197809Y-44604000D01*
X96121857Y-44596519D01*
X95969951Y-44581558D01*
X95677586Y-44492870D01*
X95677584Y-44492869D01*
X95408142Y-44348850D01*
X95171971Y-44155029D01*
X94978150Y-43918858D01*
X94834131Y-43649416D01*
X94770305Y-43439011D01*
X94745442Y-43357049D01*
X94715496Y-43053000D01*
X94745442Y-42748951D01*
X94834130Y-42456586D01*
X94834131Y-42456584D01*
X94978150Y-42187142D01*
X95171971Y-41950971D01*
X95408142Y-41757150D01*
X95677584Y-41613131D01*
X95677586Y-41613130D01*
X95969951Y-41524442D01*
X96121857Y-41509481D01*
X96197809Y-41502000D01*
X97350191Y-41502000D01*
X97426143Y-41509481D01*
X97426143Y-41509481D01*
G37*
G36*
X114585000Y-42303000D02*
G01*
X111983000Y-42303000D01*
X111983000Y-40501000D01*
X114585000Y-40501000D01*
X114585000Y-42303000D01*
X114585000Y-42303000D01*
G37*
G36*
X106420048Y-35309442D02*
G01*
X106712413Y-35398130D01*
X106712415Y-35398131D01*
X106981856Y-35542150D01*
X106981858Y-35542151D01*
X106981857Y-35542151D01*
X107218029Y-35735971D01*
X107305395Y-35842426D01*
X107411850Y-35972142D01*
X107555869Y-36241584D01*
X107555870Y-36241586D01*
X107644558Y-36533951D01*
X107667000Y-36761810D01*
X107667000Y-37914190D01*
X107644558Y-38142049D01*
X107555870Y-38434414D01*
X107555869Y-38434416D01*
X107411850Y-38703858D01*
X107218029Y-38940029D01*
X106981858Y-39133850D01*
X106712416Y-39277869D01*
X106712414Y-39277870D01*
X106420049Y-39366558D01*
X106116000Y-39396504D01*
X105811952Y-39366558D01*
X105519587Y-39277870D01*
X105519585Y-39277869D01*
X105250143Y-39133850D01*
X105013972Y-38940029D01*
X104820151Y-38703858D01*
X104676130Y-38434414D01*
X104587442Y-38142049D01*
X104565000Y-37914190D01*
X104565000Y-36761811D01*
X104587442Y-36533952D01*
X104676130Y-36241587D01*
X104820151Y-35972143D01*
X105013971Y-35735971D01*
X105120426Y-35648605D01*
X105250142Y-35542150D01*
X105519584Y-35398131D01*
X105519586Y-35398130D01*
X105811951Y-35309442D01*
X106116000Y-35279496D01*
X106420048Y-35309442D01*
X106420048Y-35309442D01*
G37*
G36*
X102920048Y-35309442D02*
G01*
X103212413Y-35398130D01*
X103212415Y-35398131D01*
X103481856Y-35542150D01*
X103481858Y-35542151D01*
X103481857Y-35542151D01*
X103718029Y-35735971D01*
X103805395Y-35842426D01*
X103911850Y-35972142D01*
X104055869Y-36241584D01*
X104055870Y-36241586D01*
X104144558Y-36533951D01*
X104167000Y-36761810D01*
X104167000Y-37914190D01*
X104144558Y-38142049D01*
X104055870Y-38434414D01*
X104055869Y-38434416D01*
X103911850Y-38703858D01*
X103718029Y-38940029D01*
X103481858Y-39133850D01*
X103212416Y-39277869D01*
X103212414Y-39277870D01*
X102920049Y-39366558D01*
X102616000Y-39396504D01*
X102311952Y-39366558D01*
X102019587Y-39277870D01*
X102019585Y-39277869D01*
X101750143Y-39133850D01*
X101513972Y-38940029D01*
X101320151Y-38703858D01*
X101176130Y-38434414D01*
X101087442Y-38142049D01*
X101065000Y-37914190D01*
X101065000Y-36761811D01*
X101087442Y-36533952D01*
X101176130Y-36241587D01*
X101320151Y-35972143D01*
X101513971Y-35735971D01*
X101620426Y-35648605D01*
X101750142Y-35542150D01*
X102019584Y-35398131D01*
X102019586Y-35398130D01*
X102311951Y-35309442D01*
X102616000Y-35279496D01*
X102920048Y-35309442D01*
X102920048Y-35309442D01*
G37*
G36*
X99420048Y-35309442D02*
G01*
X99712413Y-35398130D01*
X99712415Y-35398131D01*
X99981856Y-35542150D01*
X99981858Y-35542151D01*
X99981857Y-35542151D01*
X100218029Y-35735971D01*
X100305395Y-35842426D01*
X100411850Y-35972142D01*
X100555869Y-36241584D01*
X100555870Y-36241586D01*
X100644558Y-36533951D01*
X100667000Y-36761810D01*
X100667000Y-37914190D01*
X100644558Y-38142049D01*
X100555870Y-38434414D01*
X100555869Y-38434416D01*
X100411850Y-38703858D01*
X100218029Y-38940029D01*
X99981858Y-39133850D01*
X99712416Y-39277869D01*
X99712414Y-39277870D01*
X99420049Y-39366558D01*
X99116000Y-39396504D01*
X98811952Y-39366558D01*
X98519587Y-39277870D01*
X98519585Y-39277869D01*
X98250143Y-39133850D01*
X98013972Y-38940029D01*
X97820151Y-38703858D01*
X97676130Y-38434414D01*
X97587442Y-38142049D01*
X97565000Y-37914190D01*
X97565000Y-36761811D01*
X97587442Y-36533952D01*
X97676130Y-36241587D01*
X97820151Y-35972143D01*
X98013971Y-35735971D01*
X98120426Y-35648605D01*
X98250142Y-35542150D01*
X98519584Y-35398131D01*
X98519586Y-35398130D01*
X98811951Y-35309442D01*
X99116000Y-35279496D01*
X99420048Y-35309442D01*
X99420048Y-35309442D01*
G37*
G36*
X94027499Y-36689445D02*
G01*
X94064995Y-36700820D01*
X94099554Y-36719292D01*
X94129847Y-36744153D01*
X94154708Y-36774446D01*
X94173180Y-36809005D01*
X94184555Y-36846501D01*
X94189000Y-36891638D01*
X94189000Y-37530362D01*
X94184555Y-37575499D01*
X94173180Y-37612995D01*
X94154708Y-37647554D01*
X94129847Y-37677847D01*
X94099554Y-37702708D01*
X94064995Y-37721180D01*
X94027499Y-37732555D01*
X93982362Y-37737000D01*
X93243638Y-37737000D01*
X93198501Y-37732555D01*
X93161005Y-37721180D01*
X93126446Y-37702708D01*
X93096153Y-37677847D01*
X93071292Y-37647554D01*
X93052820Y-37612995D01*
X93041445Y-37575499D01*
X93037000Y-37530362D01*
X93037000Y-36891638D01*
X93041445Y-36846501D01*
X93052820Y-36809005D01*
X93071292Y-36774446D01*
X93096153Y-36744153D01*
X93126446Y-36719292D01*
X93161005Y-36700820D01*
X93198501Y-36689445D01*
X93243638Y-36685000D01*
X93982362Y-36685000D01*
X94027499Y-36689445D01*
X94027499Y-36689445D01*
G37*
G36*
X95777499Y-36689445D02*
G01*
X95814995Y-36700820D01*
X95849554Y-36719292D01*
X95879847Y-36744153D01*
X95904708Y-36774446D01*
X95923180Y-36809005D01*
X95934555Y-36846501D01*
X95939000Y-36891638D01*
X95939000Y-37530362D01*
X95934555Y-37575499D01*
X95923180Y-37612995D01*
X95904708Y-37647554D01*
X95879847Y-37677847D01*
X95849554Y-37702708D01*
X95814995Y-37721180D01*
X95777499Y-37732555D01*
X95732362Y-37737000D01*
X94993638Y-37737000D01*
X94948501Y-37732555D01*
X94911005Y-37721180D01*
X94876446Y-37702708D01*
X94846153Y-37677847D01*
X94821292Y-37647554D01*
X94802820Y-37612995D01*
X94791445Y-37575499D01*
X94787000Y-37530362D01*
X94787000Y-36891638D01*
X94791445Y-36846501D01*
X94802820Y-36809005D01*
X94821292Y-36774446D01*
X94846153Y-36744153D01*
X94876446Y-36719292D01*
X94911005Y-36700820D01*
X94948501Y-36689445D01*
X94993638Y-36685000D01*
X95732362Y-36685000D01*
X95777499Y-36689445D01*
X95777499Y-36689445D01*
G37*
G36*
X114242313Y-29390523D02*
G01*
X114760980Y-29605362D01*
X114760981Y-29605363D01*
X115227769Y-29917260D01*
X115624740Y-30314231D01*
X115833143Y-30626129D01*
X115936638Y-30781020D01*
X116151477Y-31299687D01*
X116261000Y-31850298D01*
X116261000Y-32411702D01*
X116151477Y-32962313D01*
X115936638Y-33480980D01*
X115936637Y-33480981D01*
X115624740Y-33947769D01*
X115227769Y-34344740D01*
X114915871Y-34553143D01*
X114760980Y-34656638D01*
X114242313Y-34871477D01*
X113691702Y-34981000D01*
X113130298Y-34981000D01*
X112579687Y-34871477D01*
X112061020Y-34656638D01*
X111906129Y-34553143D01*
X111594231Y-34344740D01*
X111197260Y-33947769D01*
X110885363Y-33480981D01*
X110885362Y-33480980D01*
X110670523Y-32962313D01*
X110561000Y-32411702D01*
X110561000Y-31850298D01*
X110670523Y-31299687D01*
X110885362Y-30781020D01*
X110988857Y-30626129D01*
X111197260Y-30314231D01*
X111594231Y-29917260D01*
X112061019Y-29605363D01*
X112061020Y-29605362D01*
X112579687Y-29390523D01*
X113130298Y-29281000D01*
X113691702Y-29281000D01*
X114242313Y-29390523D01*
X114242313Y-29390523D01*
G37*
G36*
X92652313Y-29390523D02*
G01*
X93170980Y-29605362D01*
X93170981Y-29605363D01*
X93637769Y-29917260D01*
X94034740Y-30314231D01*
X94243143Y-30626129D01*
X94346638Y-30781020D01*
X94561477Y-31299687D01*
X94671000Y-31850298D01*
X94671000Y-32411702D01*
X94561477Y-32962313D01*
X94346638Y-33480980D01*
X94346637Y-33480981D01*
X94034740Y-33947769D01*
X93637769Y-34344740D01*
X93325871Y-34553143D01*
X93170980Y-34656638D01*
X92652313Y-34871477D01*
X92101702Y-34981000D01*
X91540298Y-34981000D01*
X90989687Y-34871477D01*
X90471020Y-34656638D01*
X90316129Y-34553143D01*
X90004231Y-34344740D01*
X89607260Y-33947769D01*
X89295363Y-33480981D01*
X89295362Y-33480980D01*
X89080523Y-32962313D01*
X88971000Y-32411702D01*
X88971000Y-31850298D01*
X89080523Y-31299687D01*
X89295362Y-30781020D01*
X89398857Y-30626129D01*
X89607260Y-30314231D01*
X90004231Y-29917260D01*
X90471019Y-29605363D01*
X90471020Y-29605362D01*
X90989687Y-29390523D01*
X91540298Y-29281000D01*
X92101702Y-29281000D01*
X92652313Y-29390523D01*
X92652313Y-29390523D01*
G37*
M02*
