G04 #@! TF.GenerationSoftware,KiCad,Pcbnew,5.1.4-e60b266~84~ubuntu18.04.1*
G04 #@! TF.CreationDate,2019-09-26T21:44:43+08:00*
G04 #@! TF.ProjectId,head,68656164-2e6b-4696-9361-645f70636258,rev?*
G04 #@! TF.SameCoordinates,Original*
G04 #@! TF.FileFunction,Paste,Bot*
G04 #@! TF.FilePolarity,Positive*
%FSLAX46Y46*%
G04 Gerber Fmt 4.6, Leading zero omitted, Abs format (unit mm)*
G04 Created by KiCad (PCBNEW 5.1.4-e60b266~84~ubuntu18.04.1) date 2019-09-26 21:44:43*
%MOMM*%
%LPD*%
G04 APERTURE LIST*
%ADD10C,0.100000*%
%ADD11C,0.950000*%
G04 APERTURE END LIST*
D10*
G36*
X93923779Y-36737144D02*
G01*
X93946834Y-36740563D01*
X93969443Y-36746227D01*
X93991387Y-36754079D01*
X94012457Y-36764044D01*
X94032448Y-36776026D01*
X94051168Y-36789910D01*
X94068438Y-36805562D01*
X94084090Y-36822832D01*
X94097974Y-36841552D01*
X94109956Y-36861543D01*
X94119921Y-36882613D01*
X94127773Y-36904557D01*
X94133437Y-36927166D01*
X94136856Y-36950221D01*
X94138000Y-36973500D01*
X94138000Y-37448500D01*
X94136856Y-37471779D01*
X94133437Y-37494834D01*
X94127773Y-37517443D01*
X94119921Y-37539387D01*
X94109956Y-37560457D01*
X94097974Y-37580448D01*
X94084090Y-37599168D01*
X94068438Y-37616438D01*
X94051168Y-37632090D01*
X94032448Y-37645974D01*
X94012457Y-37657956D01*
X93991387Y-37667921D01*
X93969443Y-37675773D01*
X93946834Y-37681437D01*
X93923779Y-37684856D01*
X93900500Y-37686000D01*
X93325500Y-37686000D01*
X93302221Y-37684856D01*
X93279166Y-37681437D01*
X93256557Y-37675773D01*
X93234613Y-37667921D01*
X93213543Y-37657956D01*
X93193552Y-37645974D01*
X93174832Y-37632090D01*
X93157562Y-37616438D01*
X93141910Y-37599168D01*
X93128026Y-37580448D01*
X93116044Y-37560457D01*
X93106079Y-37539387D01*
X93098227Y-37517443D01*
X93092563Y-37494834D01*
X93089144Y-37471779D01*
X93088000Y-37448500D01*
X93088000Y-36973500D01*
X93089144Y-36950221D01*
X93092563Y-36927166D01*
X93098227Y-36904557D01*
X93106079Y-36882613D01*
X93116044Y-36861543D01*
X93128026Y-36841552D01*
X93141910Y-36822832D01*
X93157562Y-36805562D01*
X93174832Y-36789910D01*
X93193552Y-36776026D01*
X93213543Y-36764044D01*
X93234613Y-36754079D01*
X93256557Y-36746227D01*
X93279166Y-36740563D01*
X93302221Y-36737144D01*
X93325500Y-36736000D01*
X93900500Y-36736000D01*
X93923779Y-36737144D01*
X93923779Y-36737144D01*
G37*
D11*
X93613000Y-37211000D03*
D10*
G36*
X95673779Y-36737144D02*
G01*
X95696834Y-36740563D01*
X95719443Y-36746227D01*
X95741387Y-36754079D01*
X95762457Y-36764044D01*
X95782448Y-36776026D01*
X95801168Y-36789910D01*
X95818438Y-36805562D01*
X95834090Y-36822832D01*
X95847974Y-36841552D01*
X95859956Y-36861543D01*
X95869921Y-36882613D01*
X95877773Y-36904557D01*
X95883437Y-36927166D01*
X95886856Y-36950221D01*
X95888000Y-36973500D01*
X95888000Y-37448500D01*
X95886856Y-37471779D01*
X95883437Y-37494834D01*
X95877773Y-37517443D01*
X95869921Y-37539387D01*
X95859956Y-37560457D01*
X95847974Y-37580448D01*
X95834090Y-37599168D01*
X95818438Y-37616438D01*
X95801168Y-37632090D01*
X95782448Y-37645974D01*
X95762457Y-37657956D01*
X95741387Y-37667921D01*
X95719443Y-37675773D01*
X95696834Y-37681437D01*
X95673779Y-37684856D01*
X95650500Y-37686000D01*
X95075500Y-37686000D01*
X95052221Y-37684856D01*
X95029166Y-37681437D01*
X95006557Y-37675773D01*
X94984613Y-37667921D01*
X94963543Y-37657956D01*
X94943552Y-37645974D01*
X94924832Y-37632090D01*
X94907562Y-37616438D01*
X94891910Y-37599168D01*
X94878026Y-37580448D01*
X94866044Y-37560457D01*
X94856079Y-37539387D01*
X94848227Y-37517443D01*
X94842563Y-37494834D01*
X94839144Y-37471779D01*
X94838000Y-37448500D01*
X94838000Y-36973500D01*
X94839144Y-36950221D01*
X94842563Y-36927166D01*
X94848227Y-36904557D01*
X94856079Y-36882613D01*
X94866044Y-36861543D01*
X94878026Y-36841552D01*
X94891910Y-36822832D01*
X94907562Y-36805562D01*
X94924832Y-36789910D01*
X94943552Y-36776026D01*
X94963543Y-36764044D01*
X94984613Y-36754079D01*
X95006557Y-36746227D01*
X95029166Y-36740563D01*
X95052221Y-36737144D01*
X95075500Y-36736000D01*
X95650500Y-36736000D01*
X95673779Y-36737144D01*
X95673779Y-36737144D01*
G37*
D11*
X95363000Y-37211000D03*
D10*
G36*
X98467779Y-75345144D02*
G01*
X98490834Y-75348563D01*
X98513443Y-75354227D01*
X98535387Y-75362079D01*
X98556457Y-75372044D01*
X98576448Y-75384026D01*
X98595168Y-75397910D01*
X98612438Y-75413562D01*
X98628090Y-75430832D01*
X98641974Y-75449552D01*
X98653956Y-75469543D01*
X98663921Y-75490613D01*
X98671773Y-75512557D01*
X98677437Y-75535166D01*
X98680856Y-75558221D01*
X98682000Y-75581500D01*
X98682000Y-76056500D01*
X98680856Y-76079779D01*
X98677437Y-76102834D01*
X98671773Y-76125443D01*
X98663921Y-76147387D01*
X98653956Y-76168457D01*
X98641974Y-76188448D01*
X98628090Y-76207168D01*
X98612438Y-76224438D01*
X98595168Y-76240090D01*
X98576448Y-76253974D01*
X98556457Y-76265956D01*
X98535387Y-76275921D01*
X98513443Y-76283773D01*
X98490834Y-76289437D01*
X98467779Y-76292856D01*
X98444500Y-76294000D01*
X97869500Y-76294000D01*
X97846221Y-76292856D01*
X97823166Y-76289437D01*
X97800557Y-76283773D01*
X97778613Y-76275921D01*
X97757543Y-76265956D01*
X97737552Y-76253974D01*
X97718832Y-76240090D01*
X97701562Y-76224438D01*
X97685910Y-76207168D01*
X97672026Y-76188448D01*
X97660044Y-76168457D01*
X97650079Y-76147387D01*
X97642227Y-76125443D01*
X97636563Y-76102834D01*
X97633144Y-76079779D01*
X97632000Y-76056500D01*
X97632000Y-75581500D01*
X97633144Y-75558221D01*
X97636563Y-75535166D01*
X97642227Y-75512557D01*
X97650079Y-75490613D01*
X97660044Y-75469543D01*
X97672026Y-75449552D01*
X97685910Y-75430832D01*
X97701562Y-75413562D01*
X97718832Y-75397910D01*
X97737552Y-75384026D01*
X97757543Y-75372044D01*
X97778613Y-75362079D01*
X97800557Y-75354227D01*
X97823166Y-75348563D01*
X97846221Y-75345144D01*
X97869500Y-75344000D01*
X98444500Y-75344000D01*
X98467779Y-75345144D01*
X98467779Y-75345144D01*
G37*
D11*
X98157000Y-75819000D03*
D10*
G36*
X96717779Y-75345144D02*
G01*
X96740834Y-75348563D01*
X96763443Y-75354227D01*
X96785387Y-75362079D01*
X96806457Y-75372044D01*
X96826448Y-75384026D01*
X96845168Y-75397910D01*
X96862438Y-75413562D01*
X96878090Y-75430832D01*
X96891974Y-75449552D01*
X96903956Y-75469543D01*
X96913921Y-75490613D01*
X96921773Y-75512557D01*
X96927437Y-75535166D01*
X96930856Y-75558221D01*
X96932000Y-75581500D01*
X96932000Y-76056500D01*
X96930856Y-76079779D01*
X96927437Y-76102834D01*
X96921773Y-76125443D01*
X96913921Y-76147387D01*
X96903956Y-76168457D01*
X96891974Y-76188448D01*
X96878090Y-76207168D01*
X96862438Y-76224438D01*
X96845168Y-76240090D01*
X96826448Y-76253974D01*
X96806457Y-76265956D01*
X96785387Y-76275921D01*
X96763443Y-76283773D01*
X96740834Y-76289437D01*
X96717779Y-76292856D01*
X96694500Y-76294000D01*
X96119500Y-76294000D01*
X96096221Y-76292856D01*
X96073166Y-76289437D01*
X96050557Y-76283773D01*
X96028613Y-76275921D01*
X96007543Y-76265956D01*
X95987552Y-76253974D01*
X95968832Y-76240090D01*
X95951562Y-76224438D01*
X95935910Y-76207168D01*
X95922026Y-76188448D01*
X95910044Y-76168457D01*
X95900079Y-76147387D01*
X95892227Y-76125443D01*
X95886563Y-76102834D01*
X95883144Y-76079779D01*
X95882000Y-76056500D01*
X95882000Y-75581500D01*
X95883144Y-75558221D01*
X95886563Y-75535166D01*
X95892227Y-75512557D01*
X95900079Y-75490613D01*
X95910044Y-75469543D01*
X95922026Y-75449552D01*
X95935910Y-75430832D01*
X95951562Y-75413562D01*
X95968832Y-75397910D01*
X95987552Y-75384026D01*
X96007543Y-75372044D01*
X96028613Y-75362079D01*
X96050557Y-75354227D01*
X96073166Y-75348563D01*
X96096221Y-75345144D01*
X96119500Y-75344000D01*
X96694500Y-75344000D01*
X96717779Y-75345144D01*
X96717779Y-75345144D01*
G37*
D11*
X96407000Y-75819000D03*
D10*
G36*
X98467779Y-73059144D02*
G01*
X98490834Y-73062563D01*
X98513443Y-73068227D01*
X98535387Y-73076079D01*
X98556457Y-73086044D01*
X98576448Y-73098026D01*
X98595168Y-73111910D01*
X98612438Y-73127562D01*
X98628090Y-73144832D01*
X98641974Y-73163552D01*
X98653956Y-73183543D01*
X98663921Y-73204613D01*
X98671773Y-73226557D01*
X98677437Y-73249166D01*
X98680856Y-73272221D01*
X98682000Y-73295500D01*
X98682000Y-73770500D01*
X98680856Y-73793779D01*
X98677437Y-73816834D01*
X98671773Y-73839443D01*
X98663921Y-73861387D01*
X98653956Y-73882457D01*
X98641974Y-73902448D01*
X98628090Y-73921168D01*
X98612438Y-73938438D01*
X98595168Y-73954090D01*
X98576448Y-73967974D01*
X98556457Y-73979956D01*
X98535387Y-73989921D01*
X98513443Y-73997773D01*
X98490834Y-74003437D01*
X98467779Y-74006856D01*
X98444500Y-74008000D01*
X97869500Y-74008000D01*
X97846221Y-74006856D01*
X97823166Y-74003437D01*
X97800557Y-73997773D01*
X97778613Y-73989921D01*
X97757543Y-73979956D01*
X97737552Y-73967974D01*
X97718832Y-73954090D01*
X97701562Y-73938438D01*
X97685910Y-73921168D01*
X97672026Y-73902448D01*
X97660044Y-73882457D01*
X97650079Y-73861387D01*
X97642227Y-73839443D01*
X97636563Y-73816834D01*
X97633144Y-73793779D01*
X97632000Y-73770500D01*
X97632000Y-73295500D01*
X97633144Y-73272221D01*
X97636563Y-73249166D01*
X97642227Y-73226557D01*
X97650079Y-73204613D01*
X97660044Y-73183543D01*
X97672026Y-73163552D01*
X97685910Y-73144832D01*
X97701562Y-73127562D01*
X97718832Y-73111910D01*
X97737552Y-73098026D01*
X97757543Y-73086044D01*
X97778613Y-73076079D01*
X97800557Y-73068227D01*
X97823166Y-73062563D01*
X97846221Y-73059144D01*
X97869500Y-73058000D01*
X98444500Y-73058000D01*
X98467779Y-73059144D01*
X98467779Y-73059144D01*
G37*
D11*
X98157000Y-73533000D03*
D10*
G36*
X96717779Y-73059144D02*
G01*
X96740834Y-73062563D01*
X96763443Y-73068227D01*
X96785387Y-73076079D01*
X96806457Y-73086044D01*
X96826448Y-73098026D01*
X96845168Y-73111910D01*
X96862438Y-73127562D01*
X96878090Y-73144832D01*
X96891974Y-73163552D01*
X96903956Y-73183543D01*
X96913921Y-73204613D01*
X96921773Y-73226557D01*
X96927437Y-73249166D01*
X96930856Y-73272221D01*
X96932000Y-73295500D01*
X96932000Y-73770500D01*
X96930856Y-73793779D01*
X96927437Y-73816834D01*
X96921773Y-73839443D01*
X96913921Y-73861387D01*
X96903956Y-73882457D01*
X96891974Y-73902448D01*
X96878090Y-73921168D01*
X96862438Y-73938438D01*
X96845168Y-73954090D01*
X96826448Y-73967974D01*
X96806457Y-73979956D01*
X96785387Y-73989921D01*
X96763443Y-73997773D01*
X96740834Y-74003437D01*
X96717779Y-74006856D01*
X96694500Y-74008000D01*
X96119500Y-74008000D01*
X96096221Y-74006856D01*
X96073166Y-74003437D01*
X96050557Y-73997773D01*
X96028613Y-73989921D01*
X96007543Y-73979956D01*
X95987552Y-73967974D01*
X95968832Y-73954090D01*
X95951562Y-73938438D01*
X95935910Y-73921168D01*
X95922026Y-73902448D01*
X95910044Y-73882457D01*
X95900079Y-73861387D01*
X95892227Y-73839443D01*
X95886563Y-73816834D01*
X95883144Y-73793779D01*
X95882000Y-73770500D01*
X95882000Y-73295500D01*
X95883144Y-73272221D01*
X95886563Y-73249166D01*
X95892227Y-73226557D01*
X95900079Y-73204613D01*
X95910044Y-73183543D01*
X95922026Y-73163552D01*
X95935910Y-73144832D01*
X95951562Y-73127562D01*
X95968832Y-73111910D01*
X95987552Y-73098026D01*
X96007543Y-73086044D01*
X96028613Y-73076079D01*
X96050557Y-73068227D01*
X96073166Y-73062563D01*
X96096221Y-73059144D01*
X96119500Y-73058000D01*
X96694500Y-73058000D01*
X96717779Y-73059144D01*
X96717779Y-73059144D01*
G37*
D11*
X96407000Y-73533000D03*
D10*
G36*
X98467779Y-70519144D02*
G01*
X98490834Y-70522563D01*
X98513443Y-70528227D01*
X98535387Y-70536079D01*
X98556457Y-70546044D01*
X98576448Y-70558026D01*
X98595168Y-70571910D01*
X98612438Y-70587562D01*
X98628090Y-70604832D01*
X98641974Y-70623552D01*
X98653956Y-70643543D01*
X98663921Y-70664613D01*
X98671773Y-70686557D01*
X98677437Y-70709166D01*
X98680856Y-70732221D01*
X98682000Y-70755500D01*
X98682000Y-71230500D01*
X98680856Y-71253779D01*
X98677437Y-71276834D01*
X98671773Y-71299443D01*
X98663921Y-71321387D01*
X98653956Y-71342457D01*
X98641974Y-71362448D01*
X98628090Y-71381168D01*
X98612438Y-71398438D01*
X98595168Y-71414090D01*
X98576448Y-71427974D01*
X98556457Y-71439956D01*
X98535387Y-71449921D01*
X98513443Y-71457773D01*
X98490834Y-71463437D01*
X98467779Y-71466856D01*
X98444500Y-71468000D01*
X97869500Y-71468000D01*
X97846221Y-71466856D01*
X97823166Y-71463437D01*
X97800557Y-71457773D01*
X97778613Y-71449921D01*
X97757543Y-71439956D01*
X97737552Y-71427974D01*
X97718832Y-71414090D01*
X97701562Y-71398438D01*
X97685910Y-71381168D01*
X97672026Y-71362448D01*
X97660044Y-71342457D01*
X97650079Y-71321387D01*
X97642227Y-71299443D01*
X97636563Y-71276834D01*
X97633144Y-71253779D01*
X97632000Y-71230500D01*
X97632000Y-70755500D01*
X97633144Y-70732221D01*
X97636563Y-70709166D01*
X97642227Y-70686557D01*
X97650079Y-70664613D01*
X97660044Y-70643543D01*
X97672026Y-70623552D01*
X97685910Y-70604832D01*
X97701562Y-70587562D01*
X97718832Y-70571910D01*
X97737552Y-70558026D01*
X97757543Y-70546044D01*
X97778613Y-70536079D01*
X97800557Y-70528227D01*
X97823166Y-70522563D01*
X97846221Y-70519144D01*
X97869500Y-70518000D01*
X98444500Y-70518000D01*
X98467779Y-70519144D01*
X98467779Y-70519144D01*
G37*
D11*
X98157000Y-70993000D03*
D10*
G36*
X96717779Y-70519144D02*
G01*
X96740834Y-70522563D01*
X96763443Y-70528227D01*
X96785387Y-70536079D01*
X96806457Y-70546044D01*
X96826448Y-70558026D01*
X96845168Y-70571910D01*
X96862438Y-70587562D01*
X96878090Y-70604832D01*
X96891974Y-70623552D01*
X96903956Y-70643543D01*
X96913921Y-70664613D01*
X96921773Y-70686557D01*
X96927437Y-70709166D01*
X96930856Y-70732221D01*
X96932000Y-70755500D01*
X96932000Y-71230500D01*
X96930856Y-71253779D01*
X96927437Y-71276834D01*
X96921773Y-71299443D01*
X96913921Y-71321387D01*
X96903956Y-71342457D01*
X96891974Y-71362448D01*
X96878090Y-71381168D01*
X96862438Y-71398438D01*
X96845168Y-71414090D01*
X96826448Y-71427974D01*
X96806457Y-71439956D01*
X96785387Y-71449921D01*
X96763443Y-71457773D01*
X96740834Y-71463437D01*
X96717779Y-71466856D01*
X96694500Y-71468000D01*
X96119500Y-71468000D01*
X96096221Y-71466856D01*
X96073166Y-71463437D01*
X96050557Y-71457773D01*
X96028613Y-71449921D01*
X96007543Y-71439956D01*
X95987552Y-71427974D01*
X95968832Y-71414090D01*
X95951562Y-71398438D01*
X95935910Y-71381168D01*
X95922026Y-71362448D01*
X95910044Y-71342457D01*
X95900079Y-71321387D01*
X95892227Y-71299443D01*
X95886563Y-71276834D01*
X95883144Y-71253779D01*
X95882000Y-71230500D01*
X95882000Y-70755500D01*
X95883144Y-70732221D01*
X95886563Y-70709166D01*
X95892227Y-70686557D01*
X95900079Y-70664613D01*
X95910044Y-70643543D01*
X95922026Y-70623552D01*
X95935910Y-70604832D01*
X95951562Y-70587562D01*
X95968832Y-70571910D01*
X95987552Y-70558026D01*
X96007543Y-70546044D01*
X96028613Y-70536079D01*
X96050557Y-70528227D01*
X96073166Y-70522563D01*
X96096221Y-70519144D01*
X96119500Y-70518000D01*
X96694500Y-70518000D01*
X96717779Y-70519144D01*
X96717779Y-70519144D01*
G37*
D11*
X96407000Y-70993000D03*
M02*
