G04 #@! TF.GenerationSoftware,KiCad,Pcbnew,5.1.4-e60b266~84~ubuntu18.04.1*
G04 #@! TF.CreationDate,2019-09-27T15:55:01+08:00*
G04 #@! TF.ProjectId,head,68656164-2e6b-4696-9361-645f70636258,rev?*
G04 #@! TF.SameCoordinates,Original*
G04 #@! TF.FileFunction,Copper,L1,Top*
G04 #@! TF.FilePolarity,Positive*
%FSLAX46Y46*%
G04 Gerber Fmt 4.6, Leading zero omitted, Abs format (unit mm)*
G04 Created by KiCad (PCBNEW 5.1.4-e60b266~84~ubuntu18.04.1) date 2019-09-27 15:55:01*
%MOMM*%
%LPD*%
G04 APERTURE LIST*
%ADD10O,2.500000X1.700000*%
%ADD11C,1.700000*%
%ADD12C,0.100000*%
%ADD13O,4.000000X3.000000*%
%ADD14O,3.000000X4.000000*%
%ADD15C,0.975000*%
%ADD16C,1.600000*%
%ADD17C,0.500000*%
%ADD18C,1.000000*%
%ADD19C,0.800000*%
%ADD20C,0.400000*%
%ADD21C,1.600000*%
%ADD22C,0.254000*%
G04 APERTURE END LIST*
D10*
X115570000Y-64262000D03*
X115570000Y-61722000D03*
X115570000Y-59182000D03*
X115570000Y-56642000D03*
X115570000Y-54102000D03*
X115570000Y-51562000D03*
X115570000Y-49022000D03*
X115570000Y-46482000D03*
X115570000Y-43942000D03*
D11*
X115570000Y-41402000D03*
D12*
G36*
X114320000Y-42252000D02*
G01*
X114320000Y-40552000D01*
X116820000Y-40552000D01*
X116820000Y-42252000D01*
X114320000Y-42252000D01*
X114320000Y-42252000D01*
G37*
D13*
X96774000Y-65659000D03*
X96774000Y-69469000D03*
X96774000Y-56515000D03*
X96774000Y-60325000D03*
X96774000Y-47371000D03*
X96774000Y-51181000D03*
X96774000Y-38227000D03*
X96774000Y-42037000D03*
D14*
X108910000Y-37084000D03*
X105410000Y-37084000D03*
X101910000Y-37084000D03*
D12*
G36*
X103731142Y-69696174D02*
G01*
X103754803Y-69699684D01*
X103778007Y-69705496D01*
X103800529Y-69713554D01*
X103822153Y-69723782D01*
X103842670Y-69736079D01*
X103861883Y-69750329D01*
X103879607Y-69766393D01*
X103895671Y-69784117D01*
X103909921Y-69803330D01*
X103922218Y-69823847D01*
X103932446Y-69845471D01*
X103940504Y-69867993D01*
X103946316Y-69891197D01*
X103949826Y-69914858D01*
X103951000Y-69938750D01*
X103951000Y-70426250D01*
X103949826Y-70450142D01*
X103946316Y-70473803D01*
X103940504Y-70497007D01*
X103932446Y-70519529D01*
X103922218Y-70541153D01*
X103909921Y-70561670D01*
X103895671Y-70580883D01*
X103879607Y-70598607D01*
X103861883Y-70614671D01*
X103842670Y-70628921D01*
X103822153Y-70641218D01*
X103800529Y-70651446D01*
X103778007Y-70659504D01*
X103754803Y-70665316D01*
X103731142Y-70668826D01*
X103707250Y-70670000D01*
X102794750Y-70670000D01*
X102770858Y-70668826D01*
X102747197Y-70665316D01*
X102723993Y-70659504D01*
X102701471Y-70651446D01*
X102679847Y-70641218D01*
X102659330Y-70628921D01*
X102640117Y-70614671D01*
X102622393Y-70598607D01*
X102606329Y-70580883D01*
X102592079Y-70561670D01*
X102579782Y-70541153D01*
X102569554Y-70519529D01*
X102561496Y-70497007D01*
X102555684Y-70473803D01*
X102552174Y-70450142D01*
X102551000Y-70426250D01*
X102551000Y-69938750D01*
X102552174Y-69914858D01*
X102555684Y-69891197D01*
X102561496Y-69867993D01*
X102569554Y-69845471D01*
X102579782Y-69823847D01*
X102592079Y-69803330D01*
X102606329Y-69784117D01*
X102622393Y-69766393D01*
X102640117Y-69750329D01*
X102659330Y-69736079D01*
X102679847Y-69723782D01*
X102701471Y-69713554D01*
X102723993Y-69705496D01*
X102747197Y-69699684D01*
X102770858Y-69696174D01*
X102794750Y-69695000D01*
X103707250Y-69695000D01*
X103731142Y-69696174D01*
X103731142Y-69696174D01*
G37*
D15*
X103251000Y-70182500D03*
D12*
G36*
X103731142Y-71571174D02*
G01*
X103754803Y-71574684D01*
X103778007Y-71580496D01*
X103800529Y-71588554D01*
X103822153Y-71598782D01*
X103842670Y-71611079D01*
X103861883Y-71625329D01*
X103879607Y-71641393D01*
X103895671Y-71659117D01*
X103909921Y-71678330D01*
X103922218Y-71698847D01*
X103932446Y-71720471D01*
X103940504Y-71742993D01*
X103946316Y-71766197D01*
X103949826Y-71789858D01*
X103951000Y-71813750D01*
X103951000Y-72301250D01*
X103949826Y-72325142D01*
X103946316Y-72348803D01*
X103940504Y-72372007D01*
X103932446Y-72394529D01*
X103922218Y-72416153D01*
X103909921Y-72436670D01*
X103895671Y-72455883D01*
X103879607Y-72473607D01*
X103861883Y-72489671D01*
X103842670Y-72503921D01*
X103822153Y-72516218D01*
X103800529Y-72526446D01*
X103778007Y-72534504D01*
X103754803Y-72540316D01*
X103731142Y-72543826D01*
X103707250Y-72545000D01*
X102794750Y-72545000D01*
X102770858Y-72543826D01*
X102747197Y-72540316D01*
X102723993Y-72534504D01*
X102701471Y-72526446D01*
X102679847Y-72516218D01*
X102659330Y-72503921D01*
X102640117Y-72489671D01*
X102622393Y-72473607D01*
X102606329Y-72455883D01*
X102592079Y-72436670D01*
X102579782Y-72416153D01*
X102569554Y-72394529D01*
X102561496Y-72372007D01*
X102555684Y-72348803D01*
X102552174Y-72325142D01*
X102551000Y-72301250D01*
X102551000Y-71813750D01*
X102552174Y-71789858D01*
X102555684Y-71766197D01*
X102561496Y-71742993D01*
X102569554Y-71720471D01*
X102579782Y-71698847D01*
X102592079Y-71678330D01*
X102606329Y-71659117D01*
X102622393Y-71641393D01*
X102640117Y-71625329D01*
X102659330Y-71611079D01*
X102679847Y-71598782D01*
X102701471Y-71588554D01*
X102723993Y-71580496D01*
X102747197Y-71574684D01*
X102770858Y-71571174D01*
X102794750Y-71570000D01*
X103707250Y-71570000D01*
X103731142Y-71571174D01*
X103731142Y-71571174D01*
G37*
D15*
X103251000Y-72057500D03*
D12*
G36*
X111351142Y-69696174D02*
G01*
X111374803Y-69699684D01*
X111398007Y-69705496D01*
X111420529Y-69713554D01*
X111442153Y-69723782D01*
X111462670Y-69736079D01*
X111481883Y-69750329D01*
X111499607Y-69766393D01*
X111515671Y-69784117D01*
X111529921Y-69803330D01*
X111542218Y-69823847D01*
X111552446Y-69845471D01*
X111560504Y-69867993D01*
X111566316Y-69891197D01*
X111569826Y-69914858D01*
X111571000Y-69938750D01*
X111571000Y-70426250D01*
X111569826Y-70450142D01*
X111566316Y-70473803D01*
X111560504Y-70497007D01*
X111552446Y-70519529D01*
X111542218Y-70541153D01*
X111529921Y-70561670D01*
X111515671Y-70580883D01*
X111499607Y-70598607D01*
X111481883Y-70614671D01*
X111462670Y-70628921D01*
X111442153Y-70641218D01*
X111420529Y-70651446D01*
X111398007Y-70659504D01*
X111374803Y-70665316D01*
X111351142Y-70668826D01*
X111327250Y-70670000D01*
X110414750Y-70670000D01*
X110390858Y-70668826D01*
X110367197Y-70665316D01*
X110343993Y-70659504D01*
X110321471Y-70651446D01*
X110299847Y-70641218D01*
X110279330Y-70628921D01*
X110260117Y-70614671D01*
X110242393Y-70598607D01*
X110226329Y-70580883D01*
X110212079Y-70561670D01*
X110199782Y-70541153D01*
X110189554Y-70519529D01*
X110181496Y-70497007D01*
X110175684Y-70473803D01*
X110172174Y-70450142D01*
X110171000Y-70426250D01*
X110171000Y-69938750D01*
X110172174Y-69914858D01*
X110175684Y-69891197D01*
X110181496Y-69867993D01*
X110189554Y-69845471D01*
X110199782Y-69823847D01*
X110212079Y-69803330D01*
X110226329Y-69784117D01*
X110242393Y-69766393D01*
X110260117Y-69750329D01*
X110279330Y-69736079D01*
X110299847Y-69723782D01*
X110321471Y-69713554D01*
X110343993Y-69705496D01*
X110367197Y-69699684D01*
X110390858Y-69696174D01*
X110414750Y-69695000D01*
X111327250Y-69695000D01*
X111351142Y-69696174D01*
X111351142Y-69696174D01*
G37*
D15*
X110871000Y-70182500D03*
D12*
G36*
X111351142Y-71571174D02*
G01*
X111374803Y-71574684D01*
X111398007Y-71580496D01*
X111420529Y-71588554D01*
X111442153Y-71598782D01*
X111462670Y-71611079D01*
X111481883Y-71625329D01*
X111499607Y-71641393D01*
X111515671Y-71659117D01*
X111529921Y-71678330D01*
X111542218Y-71698847D01*
X111552446Y-71720471D01*
X111560504Y-71742993D01*
X111566316Y-71766197D01*
X111569826Y-71789858D01*
X111571000Y-71813750D01*
X111571000Y-72301250D01*
X111569826Y-72325142D01*
X111566316Y-72348803D01*
X111560504Y-72372007D01*
X111552446Y-72394529D01*
X111542218Y-72416153D01*
X111529921Y-72436670D01*
X111515671Y-72455883D01*
X111499607Y-72473607D01*
X111481883Y-72489671D01*
X111462670Y-72503921D01*
X111442153Y-72516218D01*
X111420529Y-72526446D01*
X111398007Y-72534504D01*
X111374803Y-72540316D01*
X111351142Y-72543826D01*
X111327250Y-72545000D01*
X110414750Y-72545000D01*
X110390858Y-72543826D01*
X110367197Y-72540316D01*
X110343993Y-72534504D01*
X110321471Y-72526446D01*
X110299847Y-72516218D01*
X110279330Y-72503921D01*
X110260117Y-72489671D01*
X110242393Y-72473607D01*
X110226329Y-72455883D01*
X110212079Y-72436670D01*
X110199782Y-72416153D01*
X110189554Y-72394529D01*
X110181496Y-72372007D01*
X110175684Y-72348803D01*
X110172174Y-72325142D01*
X110171000Y-72301250D01*
X110171000Y-71813750D01*
X110172174Y-71789858D01*
X110175684Y-71766197D01*
X110181496Y-71742993D01*
X110189554Y-71720471D01*
X110199782Y-71698847D01*
X110212079Y-71678330D01*
X110226329Y-71659117D01*
X110242393Y-71641393D01*
X110260117Y-71625329D01*
X110279330Y-71611079D01*
X110299847Y-71598782D01*
X110321471Y-71588554D01*
X110343993Y-71580496D01*
X110367197Y-71574684D01*
X110390858Y-71571174D01*
X110414750Y-71570000D01*
X111327250Y-71570000D01*
X111351142Y-71571174D01*
X111351142Y-71571174D01*
G37*
D15*
X110871000Y-72057500D03*
D12*
G36*
X108811142Y-69696174D02*
G01*
X108834803Y-69699684D01*
X108858007Y-69705496D01*
X108880529Y-69713554D01*
X108902153Y-69723782D01*
X108922670Y-69736079D01*
X108941883Y-69750329D01*
X108959607Y-69766393D01*
X108975671Y-69784117D01*
X108989921Y-69803330D01*
X109002218Y-69823847D01*
X109012446Y-69845471D01*
X109020504Y-69867993D01*
X109026316Y-69891197D01*
X109029826Y-69914858D01*
X109031000Y-69938750D01*
X109031000Y-70426250D01*
X109029826Y-70450142D01*
X109026316Y-70473803D01*
X109020504Y-70497007D01*
X109012446Y-70519529D01*
X109002218Y-70541153D01*
X108989921Y-70561670D01*
X108975671Y-70580883D01*
X108959607Y-70598607D01*
X108941883Y-70614671D01*
X108922670Y-70628921D01*
X108902153Y-70641218D01*
X108880529Y-70651446D01*
X108858007Y-70659504D01*
X108834803Y-70665316D01*
X108811142Y-70668826D01*
X108787250Y-70670000D01*
X107874750Y-70670000D01*
X107850858Y-70668826D01*
X107827197Y-70665316D01*
X107803993Y-70659504D01*
X107781471Y-70651446D01*
X107759847Y-70641218D01*
X107739330Y-70628921D01*
X107720117Y-70614671D01*
X107702393Y-70598607D01*
X107686329Y-70580883D01*
X107672079Y-70561670D01*
X107659782Y-70541153D01*
X107649554Y-70519529D01*
X107641496Y-70497007D01*
X107635684Y-70473803D01*
X107632174Y-70450142D01*
X107631000Y-70426250D01*
X107631000Y-69938750D01*
X107632174Y-69914858D01*
X107635684Y-69891197D01*
X107641496Y-69867993D01*
X107649554Y-69845471D01*
X107659782Y-69823847D01*
X107672079Y-69803330D01*
X107686329Y-69784117D01*
X107702393Y-69766393D01*
X107720117Y-69750329D01*
X107739330Y-69736079D01*
X107759847Y-69723782D01*
X107781471Y-69713554D01*
X107803993Y-69705496D01*
X107827197Y-69699684D01*
X107850858Y-69696174D01*
X107874750Y-69695000D01*
X108787250Y-69695000D01*
X108811142Y-69696174D01*
X108811142Y-69696174D01*
G37*
D15*
X108331000Y-70182500D03*
D12*
G36*
X108811142Y-71571174D02*
G01*
X108834803Y-71574684D01*
X108858007Y-71580496D01*
X108880529Y-71588554D01*
X108902153Y-71598782D01*
X108922670Y-71611079D01*
X108941883Y-71625329D01*
X108959607Y-71641393D01*
X108975671Y-71659117D01*
X108989921Y-71678330D01*
X109002218Y-71698847D01*
X109012446Y-71720471D01*
X109020504Y-71742993D01*
X109026316Y-71766197D01*
X109029826Y-71789858D01*
X109031000Y-71813750D01*
X109031000Y-72301250D01*
X109029826Y-72325142D01*
X109026316Y-72348803D01*
X109020504Y-72372007D01*
X109012446Y-72394529D01*
X109002218Y-72416153D01*
X108989921Y-72436670D01*
X108975671Y-72455883D01*
X108959607Y-72473607D01*
X108941883Y-72489671D01*
X108922670Y-72503921D01*
X108902153Y-72516218D01*
X108880529Y-72526446D01*
X108858007Y-72534504D01*
X108834803Y-72540316D01*
X108811142Y-72543826D01*
X108787250Y-72545000D01*
X107874750Y-72545000D01*
X107850858Y-72543826D01*
X107827197Y-72540316D01*
X107803993Y-72534504D01*
X107781471Y-72526446D01*
X107759847Y-72516218D01*
X107739330Y-72503921D01*
X107720117Y-72489671D01*
X107702393Y-72473607D01*
X107686329Y-72455883D01*
X107672079Y-72436670D01*
X107659782Y-72416153D01*
X107649554Y-72394529D01*
X107641496Y-72372007D01*
X107635684Y-72348803D01*
X107632174Y-72325142D01*
X107631000Y-72301250D01*
X107631000Y-71813750D01*
X107632174Y-71789858D01*
X107635684Y-71766197D01*
X107641496Y-71742993D01*
X107649554Y-71720471D01*
X107659782Y-71698847D01*
X107672079Y-71678330D01*
X107686329Y-71659117D01*
X107702393Y-71641393D01*
X107720117Y-71625329D01*
X107739330Y-71611079D01*
X107759847Y-71598782D01*
X107781471Y-71588554D01*
X107803993Y-71580496D01*
X107827197Y-71574684D01*
X107850858Y-71571174D01*
X107874750Y-71570000D01*
X108787250Y-71570000D01*
X108811142Y-71571174D01*
X108811142Y-71571174D01*
G37*
D15*
X108331000Y-72057500D03*
D12*
G36*
X106271142Y-69696174D02*
G01*
X106294803Y-69699684D01*
X106318007Y-69705496D01*
X106340529Y-69713554D01*
X106362153Y-69723782D01*
X106382670Y-69736079D01*
X106401883Y-69750329D01*
X106419607Y-69766393D01*
X106435671Y-69784117D01*
X106449921Y-69803330D01*
X106462218Y-69823847D01*
X106472446Y-69845471D01*
X106480504Y-69867993D01*
X106486316Y-69891197D01*
X106489826Y-69914858D01*
X106491000Y-69938750D01*
X106491000Y-70426250D01*
X106489826Y-70450142D01*
X106486316Y-70473803D01*
X106480504Y-70497007D01*
X106472446Y-70519529D01*
X106462218Y-70541153D01*
X106449921Y-70561670D01*
X106435671Y-70580883D01*
X106419607Y-70598607D01*
X106401883Y-70614671D01*
X106382670Y-70628921D01*
X106362153Y-70641218D01*
X106340529Y-70651446D01*
X106318007Y-70659504D01*
X106294803Y-70665316D01*
X106271142Y-70668826D01*
X106247250Y-70670000D01*
X105334750Y-70670000D01*
X105310858Y-70668826D01*
X105287197Y-70665316D01*
X105263993Y-70659504D01*
X105241471Y-70651446D01*
X105219847Y-70641218D01*
X105199330Y-70628921D01*
X105180117Y-70614671D01*
X105162393Y-70598607D01*
X105146329Y-70580883D01*
X105132079Y-70561670D01*
X105119782Y-70541153D01*
X105109554Y-70519529D01*
X105101496Y-70497007D01*
X105095684Y-70473803D01*
X105092174Y-70450142D01*
X105091000Y-70426250D01*
X105091000Y-69938750D01*
X105092174Y-69914858D01*
X105095684Y-69891197D01*
X105101496Y-69867993D01*
X105109554Y-69845471D01*
X105119782Y-69823847D01*
X105132079Y-69803330D01*
X105146329Y-69784117D01*
X105162393Y-69766393D01*
X105180117Y-69750329D01*
X105199330Y-69736079D01*
X105219847Y-69723782D01*
X105241471Y-69713554D01*
X105263993Y-69705496D01*
X105287197Y-69699684D01*
X105310858Y-69696174D01*
X105334750Y-69695000D01*
X106247250Y-69695000D01*
X106271142Y-69696174D01*
X106271142Y-69696174D01*
G37*
D15*
X105791000Y-70182500D03*
D12*
G36*
X106271142Y-71571174D02*
G01*
X106294803Y-71574684D01*
X106318007Y-71580496D01*
X106340529Y-71588554D01*
X106362153Y-71598782D01*
X106382670Y-71611079D01*
X106401883Y-71625329D01*
X106419607Y-71641393D01*
X106435671Y-71659117D01*
X106449921Y-71678330D01*
X106462218Y-71698847D01*
X106472446Y-71720471D01*
X106480504Y-71742993D01*
X106486316Y-71766197D01*
X106489826Y-71789858D01*
X106491000Y-71813750D01*
X106491000Y-72301250D01*
X106489826Y-72325142D01*
X106486316Y-72348803D01*
X106480504Y-72372007D01*
X106472446Y-72394529D01*
X106462218Y-72416153D01*
X106449921Y-72436670D01*
X106435671Y-72455883D01*
X106419607Y-72473607D01*
X106401883Y-72489671D01*
X106382670Y-72503921D01*
X106362153Y-72516218D01*
X106340529Y-72526446D01*
X106318007Y-72534504D01*
X106294803Y-72540316D01*
X106271142Y-72543826D01*
X106247250Y-72545000D01*
X105334750Y-72545000D01*
X105310858Y-72543826D01*
X105287197Y-72540316D01*
X105263993Y-72534504D01*
X105241471Y-72526446D01*
X105219847Y-72516218D01*
X105199330Y-72503921D01*
X105180117Y-72489671D01*
X105162393Y-72473607D01*
X105146329Y-72455883D01*
X105132079Y-72436670D01*
X105119782Y-72416153D01*
X105109554Y-72394529D01*
X105101496Y-72372007D01*
X105095684Y-72348803D01*
X105092174Y-72325142D01*
X105091000Y-72301250D01*
X105091000Y-71813750D01*
X105092174Y-71789858D01*
X105095684Y-71766197D01*
X105101496Y-71742993D01*
X105109554Y-71720471D01*
X105119782Y-71698847D01*
X105132079Y-71678330D01*
X105146329Y-71659117D01*
X105162393Y-71641393D01*
X105180117Y-71625329D01*
X105199330Y-71611079D01*
X105219847Y-71598782D01*
X105241471Y-71588554D01*
X105263993Y-71580496D01*
X105287197Y-71574684D01*
X105310858Y-71571174D01*
X105334750Y-71570000D01*
X106247250Y-71570000D01*
X106271142Y-71571174D01*
X106271142Y-71571174D01*
G37*
D15*
X105791000Y-72057500D03*
D12*
G36*
X106760504Y-42127204D02*
G01*
X106784773Y-42130804D01*
X106808571Y-42136765D01*
X106831671Y-42145030D01*
X106853849Y-42155520D01*
X106874893Y-42168133D01*
X106894598Y-42182747D01*
X106912777Y-42199223D01*
X106929253Y-42217402D01*
X106943867Y-42237107D01*
X106956480Y-42258151D01*
X106966970Y-42280329D01*
X106975235Y-42303429D01*
X106981196Y-42327227D01*
X106984796Y-42351496D01*
X106986000Y-42376000D01*
X106986000Y-43476000D01*
X106984796Y-43500504D01*
X106981196Y-43524773D01*
X106975235Y-43548571D01*
X106966970Y-43571671D01*
X106956480Y-43593849D01*
X106943867Y-43614893D01*
X106929253Y-43634598D01*
X106912777Y-43652777D01*
X106894598Y-43669253D01*
X106874893Y-43683867D01*
X106853849Y-43696480D01*
X106831671Y-43706970D01*
X106808571Y-43715235D01*
X106784773Y-43721196D01*
X106760504Y-43724796D01*
X106736000Y-43726000D01*
X104636000Y-43726000D01*
X104611496Y-43724796D01*
X104587227Y-43721196D01*
X104563429Y-43715235D01*
X104540329Y-43706970D01*
X104518151Y-43696480D01*
X104497107Y-43683867D01*
X104477402Y-43669253D01*
X104459223Y-43652777D01*
X104442747Y-43634598D01*
X104428133Y-43614893D01*
X104415520Y-43593849D01*
X104405030Y-43571671D01*
X104396765Y-43548571D01*
X104390804Y-43524773D01*
X104387204Y-43500504D01*
X104386000Y-43476000D01*
X104386000Y-42376000D01*
X104387204Y-42351496D01*
X104390804Y-42327227D01*
X104396765Y-42303429D01*
X104405030Y-42280329D01*
X104415520Y-42258151D01*
X104428133Y-42237107D01*
X104442747Y-42217402D01*
X104459223Y-42199223D01*
X104477402Y-42182747D01*
X104497107Y-42168133D01*
X104518151Y-42155520D01*
X104540329Y-42145030D01*
X104563429Y-42136765D01*
X104587227Y-42130804D01*
X104611496Y-42127204D01*
X104636000Y-42126000D01*
X106736000Y-42126000D01*
X106760504Y-42127204D01*
X106760504Y-42127204D01*
G37*
D16*
X105686000Y-42926000D03*
D12*
G36*
X103160504Y-42127204D02*
G01*
X103184773Y-42130804D01*
X103208571Y-42136765D01*
X103231671Y-42145030D01*
X103253849Y-42155520D01*
X103274893Y-42168133D01*
X103294598Y-42182747D01*
X103312777Y-42199223D01*
X103329253Y-42217402D01*
X103343867Y-42237107D01*
X103356480Y-42258151D01*
X103366970Y-42280329D01*
X103375235Y-42303429D01*
X103381196Y-42327227D01*
X103384796Y-42351496D01*
X103386000Y-42376000D01*
X103386000Y-43476000D01*
X103384796Y-43500504D01*
X103381196Y-43524773D01*
X103375235Y-43548571D01*
X103366970Y-43571671D01*
X103356480Y-43593849D01*
X103343867Y-43614893D01*
X103329253Y-43634598D01*
X103312777Y-43652777D01*
X103294598Y-43669253D01*
X103274893Y-43683867D01*
X103253849Y-43696480D01*
X103231671Y-43706970D01*
X103208571Y-43715235D01*
X103184773Y-43721196D01*
X103160504Y-43724796D01*
X103136000Y-43726000D01*
X101036000Y-43726000D01*
X101011496Y-43724796D01*
X100987227Y-43721196D01*
X100963429Y-43715235D01*
X100940329Y-43706970D01*
X100918151Y-43696480D01*
X100897107Y-43683867D01*
X100877402Y-43669253D01*
X100859223Y-43652777D01*
X100842747Y-43634598D01*
X100828133Y-43614893D01*
X100815520Y-43593849D01*
X100805030Y-43571671D01*
X100796765Y-43548571D01*
X100790804Y-43524773D01*
X100787204Y-43500504D01*
X100786000Y-43476000D01*
X100786000Y-42376000D01*
X100787204Y-42351496D01*
X100790804Y-42327227D01*
X100796765Y-42303429D01*
X100805030Y-42280329D01*
X100815520Y-42258151D01*
X100828133Y-42237107D01*
X100842747Y-42217402D01*
X100859223Y-42199223D01*
X100877402Y-42182747D01*
X100897107Y-42168133D01*
X100918151Y-42155520D01*
X100940329Y-42145030D01*
X100963429Y-42136765D01*
X100987227Y-42130804D01*
X101011496Y-42127204D01*
X101036000Y-42126000D01*
X103136000Y-42126000D01*
X103160504Y-42127204D01*
X103160504Y-42127204D01*
G37*
D16*
X102086000Y-42926000D03*
D12*
G36*
X106760504Y-54319204D02*
G01*
X106784773Y-54322804D01*
X106808571Y-54328765D01*
X106831671Y-54337030D01*
X106853849Y-54347520D01*
X106874893Y-54360133D01*
X106894598Y-54374747D01*
X106912777Y-54391223D01*
X106929253Y-54409402D01*
X106943867Y-54429107D01*
X106956480Y-54450151D01*
X106966970Y-54472329D01*
X106975235Y-54495429D01*
X106981196Y-54519227D01*
X106984796Y-54543496D01*
X106986000Y-54568000D01*
X106986000Y-55668000D01*
X106984796Y-55692504D01*
X106981196Y-55716773D01*
X106975235Y-55740571D01*
X106966970Y-55763671D01*
X106956480Y-55785849D01*
X106943867Y-55806893D01*
X106929253Y-55826598D01*
X106912777Y-55844777D01*
X106894598Y-55861253D01*
X106874893Y-55875867D01*
X106853849Y-55888480D01*
X106831671Y-55898970D01*
X106808571Y-55907235D01*
X106784773Y-55913196D01*
X106760504Y-55916796D01*
X106736000Y-55918000D01*
X104636000Y-55918000D01*
X104611496Y-55916796D01*
X104587227Y-55913196D01*
X104563429Y-55907235D01*
X104540329Y-55898970D01*
X104518151Y-55888480D01*
X104497107Y-55875867D01*
X104477402Y-55861253D01*
X104459223Y-55844777D01*
X104442747Y-55826598D01*
X104428133Y-55806893D01*
X104415520Y-55785849D01*
X104405030Y-55763671D01*
X104396765Y-55740571D01*
X104390804Y-55716773D01*
X104387204Y-55692504D01*
X104386000Y-55668000D01*
X104386000Y-54568000D01*
X104387204Y-54543496D01*
X104390804Y-54519227D01*
X104396765Y-54495429D01*
X104405030Y-54472329D01*
X104415520Y-54450151D01*
X104428133Y-54429107D01*
X104442747Y-54409402D01*
X104459223Y-54391223D01*
X104477402Y-54374747D01*
X104497107Y-54360133D01*
X104518151Y-54347520D01*
X104540329Y-54337030D01*
X104563429Y-54328765D01*
X104587227Y-54322804D01*
X104611496Y-54319204D01*
X104636000Y-54318000D01*
X106736000Y-54318000D01*
X106760504Y-54319204D01*
X106760504Y-54319204D01*
G37*
D16*
X105686000Y-55118000D03*
D12*
G36*
X103160504Y-54319204D02*
G01*
X103184773Y-54322804D01*
X103208571Y-54328765D01*
X103231671Y-54337030D01*
X103253849Y-54347520D01*
X103274893Y-54360133D01*
X103294598Y-54374747D01*
X103312777Y-54391223D01*
X103329253Y-54409402D01*
X103343867Y-54429107D01*
X103356480Y-54450151D01*
X103366970Y-54472329D01*
X103375235Y-54495429D01*
X103381196Y-54519227D01*
X103384796Y-54543496D01*
X103386000Y-54568000D01*
X103386000Y-55668000D01*
X103384796Y-55692504D01*
X103381196Y-55716773D01*
X103375235Y-55740571D01*
X103366970Y-55763671D01*
X103356480Y-55785849D01*
X103343867Y-55806893D01*
X103329253Y-55826598D01*
X103312777Y-55844777D01*
X103294598Y-55861253D01*
X103274893Y-55875867D01*
X103253849Y-55888480D01*
X103231671Y-55898970D01*
X103208571Y-55907235D01*
X103184773Y-55913196D01*
X103160504Y-55916796D01*
X103136000Y-55918000D01*
X101036000Y-55918000D01*
X101011496Y-55916796D01*
X100987227Y-55913196D01*
X100963429Y-55907235D01*
X100940329Y-55898970D01*
X100918151Y-55888480D01*
X100897107Y-55875867D01*
X100877402Y-55861253D01*
X100859223Y-55844777D01*
X100842747Y-55826598D01*
X100828133Y-55806893D01*
X100815520Y-55785849D01*
X100805030Y-55763671D01*
X100796765Y-55740571D01*
X100790804Y-55716773D01*
X100787204Y-55692504D01*
X100786000Y-55668000D01*
X100786000Y-54568000D01*
X100787204Y-54543496D01*
X100790804Y-54519227D01*
X100796765Y-54495429D01*
X100805030Y-54472329D01*
X100815520Y-54450151D01*
X100828133Y-54429107D01*
X100842747Y-54409402D01*
X100859223Y-54391223D01*
X100877402Y-54374747D01*
X100897107Y-54360133D01*
X100918151Y-54347520D01*
X100940329Y-54337030D01*
X100963429Y-54328765D01*
X100987227Y-54322804D01*
X101011496Y-54319204D01*
X101036000Y-54318000D01*
X103136000Y-54318000D01*
X103160504Y-54319204D01*
X103160504Y-54319204D01*
G37*
D16*
X102086000Y-55118000D03*
D12*
G36*
X106760504Y-48223204D02*
G01*
X106784773Y-48226804D01*
X106808571Y-48232765D01*
X106831671Y-48241030D01*
X106853849Y-48251520D01*
X106874893Y-48264133D01*
X106894598Y-48278747D01*
X106912777Y-48295223D01*
X106929253Y-48313402D01*
X106943867Y-48333107D01*
X106956480Y-48354151D01*
X106966970Y-48376329D01*
X106975235Y-48399429D01*
X106981196Y-48423227D01*
X106984796Y-48447496D01*
X106986000Y-48472000D01*
X106986000Y-49572000D01*
X106984796Y-49596504D01*
X106981196Y-49620773D01*
X106975235Y-49644571D01*
X106966970Y-49667671D01*
X106956480Y-49689849D01*
X106943867Y-49710893D01*
X106929253Y-49730598D01*
X106912777Y-49748777D01*
X106894598Y-49765253D01*
X106874893Y-49779867D01*
X106853849Y-49792480D01*
X106831671Y-49802970D01*
X106808571Y-49811235D01*
X106784773Y-49817196D01*
X106760504Y-49820796D01*
X106736000Y-49822000D01*
X104636000Y-49822000D01*
X104611496Y-49820796D01*
X104587227Y-49817196D01*
X104563429Y-49811235D01*
X104540329Y-49802970D01*
X104518151Y-49792480D01*
X104497107Y-49779867D01*
X104477402Y-49765253D01*
X104459223Y-49748777D01*
X104442747Y-49730598D01*
X104428133Y-49710893D01*
X104415520Y-49689849D01*
X104405030Y-49667671D01*
X104396765Y-49644571D01*
X104390804Y-49620773D01*
X104387204Y-49596504D01*
X104386000Y-49572000D01*
X104386000Y-48472000D01*
X104387204Y-48447496D01*
X104390804Y-48423227D01*
X104396765Y-48399429D01*
X104405030Y-48376329D01*
X104415520Y-48354151D01*
X104428133Y-48333107D01*
X104442747Y-48313402D01*
X104459223Y-48295223D01*
X104477402Y-48278747D01*
X104497107Y-48264133D01*
X104518151Y-48251520D01*
X104540329Y-48241030D01*
X104563429Y-48232765D01*
X104587227Y-48226804D01*
X104611496Y-48223204D01*
X104636000Y-48222000D01*
X106736000Y-48222000D01*
X106760504Y-48223204D01*
X106760504Y-48223204D01*
G37*
D16*
X105686000Y-49022000D03*
D12*
G36*
X103160504Y-48223204D02*
G01*
X103184773Y-48226804D01*
X103208571Y-48232765D01*
X103231671Y-48241030D01*
X103253849Y-48251520D01*
X103274893Y-48264133D01*
X103294598Y-48278747D01*
X103312777Y-48295223D01*
X103329253Y-48313402D01*
X103343867Y-48333107D01*
X103356480Y-48354151D01*
X103366970Y-48376329D01*
X103375235Y-48399429D01*
X103381196Y-48423227D01*
X103384796Y-48447496D01*
X103386000Y-48472000D01*
X103386000Y-49572000D01*
X103384796Y-49596504D01*
X103381196Y-49620773D01*
X103375235Y-49644571D01*
X103366970Y-49667671D01*
X103356480Y-49689849D01*
X103343867Y-49710893D01*
X103329253Y-49730598D01*
X103312777Y-49748777D01*
X103294598Y-49765253D01*
X103274893Y-49779867D01*
X103253849Y-49792480D01*
X103231671Y-49802970D01*
X103208571Y-49811235D01*
X103184773Y-49817196D01*
X103160504Y-49820796D01*
X103136000Y-49822000D01*
X101036000Y-49822000D01*
X101011496Y-49820796D01*
X100987227Y-49817196D01*
X100963429Y-49811235D01*
X100940329Y-49802970D01*
X100918151Y-49792480D01*
X100897107Y-49779867D01*
X100877402Y-49765253D01*
X100859223Y-49748777D01*
X100842747Y-49730598D01*
X100828133Y-49710893D01*
X100815520Y-49689849D01*
X100805030Y-49667671D01*
X100796765Y-49644571D01*
X100790804Y-49620773D01*
X100787204Y-49596504D01*
X100786000Y-49572000D01*
X100786000Y-48472000D01*
X100787204Y-48447496D01*
X100790804Y-48423227D01*
X100796765Y-48399429D01*
X100805030Y-48376329D01*
X100815520Y-48354151D01*
X100828133Y-48333107D01*
X100842747Y-48313402D01*
X100859223Y-48295223D01*
X100877402Y-48278747D01*
X100897107Y-48264133D01*
X100918151Y-48251520D01*
X100940329Y-48241030D01*
X100963429Y-48232765D01*
X100987227Y-48226804D01*
X101011496Y-48223204D01*
X101036000Y-48222000D01*
X103136000Y-48222000D01*
X103160504Y-48223204D01*
X103160504Y-48223204D01*
G37*
D16*
X102086000Y-49022000D03*
D17*
X105806000Y-60452000D03*
D12*
G36*
X105806000Y-59702602D02*
G01*
X105830534Y-59702602D01*
X105879365Y-59707412D01*
X105927490Y-59716984D01*
X105974445Y-59731228D01*
X106019778Y-59750005D01*
X106063051Y-59773136D01*
X106103850Y-59800396D01*
X106141779Y-59831524D01*
X106176476Y-59866221D01*
X106207604Y-59904150D01*
X106234864Y-59944949D01*
X106257995Y-59988222D01*
X106276772Y-60033555D01*
X106291016Y-60080510D01*
X106300588Y-60128635D01*
X106305398Y-60177466D01*
X106305398Y-60202000D01*
X106306000Y-60202000D01*
X106306000Y-60702000D01*
X106305398Y-60702000D01*
X106305398Y-60726534D01*
X106300588Y-60775365D01*
X106291016Y-60823490D01*
X106276772Y-60870445D01*
X106257995Y-60915778D01*
X106234864Y-60959051D01*
X106207604Y-60999850D01*
X106176476Y-61037779D01*
X106141779Y-61072476D01*
X106103850Y-61103604D01*
X106063051Y-61130864D01*
X106019778Y-61153995D01*
X105974445Y-61172772D01*
X105927490Y-61187016D01*
X105879365Y-61196588D01*
X105830534Y-61201398D01*
X105806000Y-61201398D01*
X105806000Y-61202000D01*
X105306000Y-61202000D01*
X105306000Y-59702000D01*
X105806000Y-59702000D01*
X105806000Y-59702602D01*
X105806000Y-59702602D01*
G37*
D17*
X104506000Y-60452000D03*
D12*
G36*
X105006000Y-61202000D02*
G01*
X104506000Y-61202000D01*
X104506000Y-61201398D01*
X104481466Y-61201398D01*
X104432635Y-61196588D01*
X104384510Y-61187016D01*
X104337555Y-61172772D01*
X104292222Y-61153995D01*
X104248949Y-61130864D01*
X104208150Y-61103604D01*
X104170221Y-61072476D01*
X104135524Y-61037779D01*
X104104396Y-60999850D01*
X104077136Y-60959051D01*
X104054005Y-60915778D01*
X104035228Y-60870445D01*
X104020984Y-60823490D01*
X104011412Y-60775365D01*
X104006602Y-60726534D01*
X104006602Y-60702000D01*
X104006000Y-60702000D01*
X104006000Y-60202000D01*
X104006602Y-60202000D01*
X104006602Y-60177466D01*
X104011412Y-60128635D01*
X104020984Y-60080510D01*
X104035228Y-60033555D01*
X104054005Y-59988222D01*
X104077136Y-59944949D01*
X104104396Y-59904150D01*
X104135524Y-59866221D01*
X104170221Y-59831524D01*
X104208150Y-59800396D01*
X104248949Y-59773136D01*
X104292222Y-59750005D01*
X104337555Y-59731228D01*
X104384510Y-59716984D01*
X104432635Y-59707412D01*
X104481466Y-59702602D01*
X104506000Y-59702602D01*
X104506000Y-59702000D01*
X105006000Y-59702000D01*
X105006000Y-61202000D01*
X105006000Y-61202000D01*
G37*
D18*
X105686000Y-42926000D03*
X105686000Y-49022000D03*
X105686000Y-55118000D03*
X105806000Y-60452000D03*
X112268000Y-66294004D03*
D19*
X102086000Y-55118000D03*
X110490000Y-64008000D03*
X107442000Y-68326000D03*
X107950000Y-57658000D03*
X102086000Y-49022000D03*
X105410000Y-68580000D03*
X109474000Y-57912000D03*
X109855000Y-62103000D03*
X106071036Y-62637036D03*
X112649000Y-68707000D03*
X105791000Y-72009000D03*
X108331000Y-72009000D03*
X110871000Y-72009000D03*
X103251000Y-72009000D03*
D20*
X110236000Y-33528000D02*
X115570000Y-38862000D01*
X115570000Y-38862000D02*
X115570000Y-41402000D01*
X101910000Y-36584000D02*
X104966000Y-33528000D01*
X104966000Y-33528000D02*
X110236000Y-33528000D01*
X101910000Y-37084000D02*
X101910000Y-36584000D01*
D21*
X103251000Y-70182500D02*
X108331000Y-70182500D01*
X108331000Y-70182500D02*
X112219496Y-66294004D01*
X112219496Y-66294004D02*
X112268000Y-66294004D01*
X99774010Y-54014990D02*
X99774010Y-45237990D01*
X97274000Y-56515000D02*
X99774010Y-54014990D01*
X101215290Y-43796710D02*
X102086000Y-42926000D01*
X99774010Y-45237990D02*
X101215290Y-43796710D01*
X96774000Y-56515000D02*
X97274000Y-56515000D01*
X112720000Y-46482000D02*
X115570000Y-46482000D01*
X108910000Y-37084000D02*
X108910000Y-42672000D01*
X108910000Y-42672000D02*
X112720000Y-46482000D01*
X104767226Y-40244774D02*
X102086000Y-42926000D01*
X108910000Y-37084000D02*
X108910000Y-40244774D01*
X108910000Y-40244774D02*
X104767226Y-40244774D01*
D20*
X115570000Y-64262000D02*
X110744000Y-64262000D01*
X110744000Y-64262000D02*
X110490000Y-64008000D01*
X110490000Y-65278000D02*
X110490000Y-64008000D01*
X107442000Y-68326000D02*
X110490000Y-65278000D01*
X107384315Y-57658000D02*
X107950000Y-57658000D01*
X102616000Y-57658000D02*
X107384315Y-57658000D01*
X102086000Y-55118000D02*
X102086000Y-57128000D01*
X102086000Y-57128000D02*
X102616000Y-57658000D01*
X113920000Y-56768000D02*
X103119000Y-67569000D01*
X113920000Y-55352000D02*
X113920000Y-56768000D01*
X115570000Y-54102000D02*
X115170000Y-54102000D01*
X115170000Y-54102000D02*
X113920000Y-55352000D01*
X97274000Y-69469000D02*
X96774000Y-69469000D01*
X103119000Y-67569000D02*
X99174000Y-67569000D01*
X99174000Y-67569000D02*
X97274000Y-69469000D01*
X105820990Y-68169010D02*
X106074990Y-68169010D01*
X105410000Y-68580000D02*
X105820990Y-68169010D01*
X106074990Y-68169010D02*
X106074990Y-65883010D01*
X112776000Y-59182000D02*
X115570000Y-59182000D01*
X106074990Y-65883010D02*
X112776000Y-59182000D01*
X103286010Y-50222010D02*
X107880010Y-50222010D01*
X102086000Y-49022000D02*
X103286010Y-50222010D01*
X107880010Y-50222010D02*
X109728000Y-52070000D01*
X109728000Y-52070000D02*
X109728000Y-57658000D01*
X109728000Y-57658000D02*
X109474000Y-57912000D01*
X104379000Y-60325000D02*
X104506000Y-60452000D01*
X96774000Y-60325000D02*
X104379000Y-60325000D01*
X104506000Y-61299592D02*
X105843444Y-62637036D01*
X105843444Y-62637036D02*
X106071036Y-62637036D01*
X104506000Y-60452000D02*
X104506000Y-61299592D01*
X104506000Y-59604408D02*
X105182408Y-58928000D01*
X104506000Y-60452000D02*
X104506000Y-59604408D01*
X105182408Y-58928000D02*
X109728000Y-58928000D01*
X110905990Y-57750010D02*
X110905990Y-51654010D01*
X109728000Y-58928000D02*
X110905990Y-57750010D01*
X113538000Y-49022000D02*
X115570000Y-49022000D01*
X110905990Y-51654010D02*
X113538000Y-49022000D01*
X110871000Y-70182500D02*
X112346500Y-68707000D01*
X112346500Y-68707000D02*
X112649000Y-68707000D01*
X104180458Y-65659000D02*
X111506000Y-58333458D01*
X113538000Y-51562000D02*
X113920000Y-51562000D01*
X111506000Y-53594000D02*
X113538000Y-51562000D01*
X111506000Y-58333458D02*
X111506000Y-53594000D01*
X96774000Y-65659000D02*
X104180458Y-65659000D01*
X113920000Y-51562000D02*
X115570000Y-51562000D01*
D22*
G36*
X113291273Y-29818613D02*
G01*
X112876613Y-30233273D01*
X112550817Y-30720862D01*
X112326405Y-31262641D01*
X112212000Y-31837791D01*
X112212000Y-32424209D01*
X112326405Y-32999359D01*
X112550817Y-33541138D01*
X112876613Y-34028727D01*
X113291273Y-34443387D01*
X113778862Y-34769183D01*
X114320641Y-34993595D01*
X114895791Y-35108000D01*
X115482209Y-35108000D01*
X116057359Y-34993595D01*
X116599138Y-34769183D01*
X117086727Y-34443387D01*
X117501387Y-34028727D01*
X117704001Y-33725493D01*
X117704000Y-73970505D01*
X117501387Y-73667273D01*
X117086727Y-73252613D01*
X116599138Y-72926817D01*
X116057359Y-72702405D01*
X115482209Y-72588000D01*
X114895791Y-72588000D01*
X114320641Y-72702405D01*
X113778862Y-72926817D01*
X113291273Y-73252613D01*
X112876613Y-73667273D01*
X112550817Y-74154862D01*
X112326405Y-74696641D01*
X112212000Y-75271791D01*
X112212000Y-75858209D01*
X112326405Y-76433359D01*
X112550817Y-76975138D01*
X112876613Y-77462727D01*
X113291273Y-77877387D01*
X113594505Y-78080000D01*
X93415495Y-78080000D01*
X93718727Y-77877387D01*
X94133387Y-77462727D01*
X94459183Y-76975138D01*
X94683595Y-76433359D01*
X94798000Y-75858209D01*
X94798000Y-75271791D01*
X94683595Y-74696641D01*
X94459183Y-74154862D01*
X94133387Y-73667273D01*
X93718727Y-73252613D01*
X93231138Y-72926817D01*
X92689359Y-72702405D01*
X92114209Y-72588000D01*
X91527791Y-72588000D01*
X90952641Y-72702405D01*
X90410862Y-72926817D01*
X89923273Y-73252613D01*
X89508613Y-73667273D01*
X89306000Y-73970505D01*
X89306000Y-71813750D01*
X101912928Y-71813750D01*
X101912928Y-72301250D01*
X101929872Y-72473285D01*
X101980053Y-72638709D01*
X102061542Y-72791164D01*
X102171208Y-72924792D01*
X102304836Y-73034458D01*
X102457291Y-73115947D01*
X102622715Y-73166128D01*
X102794750Y-73183072D01*
X103707250Y-73183072D01*
X103879285Y-73166128D01*
X104044709Y-73115947D01*
X104197164Y-73034458D01*
X104330792Y-72924792D01*
X104440458Y-72791164D01*
X104521000Y-72640481D01*
X104601542Y-72791164D01*
X104711208Y-72924792D01*
X104844836Y-73034458D01*
X104997291Y-73115947D01*
X105162715Y-73166128D01*
X105334750Y-73183072D01*
X106247250Y-73183072D01*
X106419285Y-73166128D01*
X106584709Y-73115947D01*
X106737164Y-73034458D01*
X106870792Y-72924792D01*
X106980458Y-72791164D01*
X107061000Y-72640481D01*
X107141542Y-72791164D01*
X107251208Y-72924792D01*
X107384836Y-73034458D01*
X107537291Y-73115947D01*
X107702715Y-73166128D01*
X107874750Y-73183072D01*
X108787250Y-73183072D01*
X108959285Y-73166128D01*
X109124709Y-73115947D01*
X109277164Y-73034458D01*
X109410792Y-72924792D01*
X109520458Y-72791164D01*
X109601000Y-72640481D01*
X109681542Y-72791164D01*
X109791208Y-72924792D01*
X109924836Y-73034458D01*
X110077291Y-73115947D01*
X110242715Y-73166128D01*
X110414750Y-73183072D01*
X111327250Y-73183072D01*
X111499285Y-73166128D01*
X111664709Y-73115947D01*
X111817164Y-73034458D01*
X111950792Y-72924792D01*
X112060458Y-72791164D01*
X112141947Y-72638709D01*
X112192128Y-72473285D01*
X112209072Y-72301250D01*
X112209072Y-71813750D01*
X112192128Y-71641715D01*
X112141947Y-71476291D01*
X112060458Y-71323836D01*
X111950792Y-71190208D01*
X111865244Y-71120000D01*
X111950792Y-71049792D01*
X112060458Y-70916164D01*
X112141947Y-70763709D01*
X112192128Y-70598285D01*
X112209072Y-70426250D01*
X112209072Y-70025296D01*
X112501442Y-69732926D01*
X112547061Y-69742000D01*
X112750939Y-69742000D01*
X112950898Y-69702226D01*
X113139256Y-69624205D01*
X113308774Y-69510937D01*
X113452937Y-69366774D01*
X113566205Y-69197256D01*
X113644226Y-69008898D01*
X113684000Y-68808939D01*
X113684000Y-68605061D01*
X113644226Y-68405102D01*
X113566205Y-68216744D01*
X113452937Y-68047226D01*
X113308774Y-67903063D01*
X113139256Y-67789795D01*
X112950898Y-67711774D01*
X112750939Y-67672000D01*
X112547061Y-67672000D01*
X112347102Y-67711774D01*
X112158744Y-67789795D01*
X111989226Y-67903063D01*
X111885877Y-68006412D01*
X111880354Y-68009364D01*
X111753209Y-68113709D01*
X111727059Y-68145574D01*
X110815705Y-69056928D01*
X110414750Y-69056928D01*
X110242715Y-69073872D01*
X110077291Y-69124053D01*
X109924836Y-69205542D01*
X109791208Y-69315208D01*
X109681542Y-69448836D01*
X109642394Y-69522077D01*
X109616621Y-69441654D01*
X109555943Y-69332273D01*
X109475092Y-69236831D01*
X109377174Y-69158997D01*
X109265954Y-69101761D01*
X109145704Y-69067323D01*
X109021046Y-69057006D01*
X108870750Y-69060000D01*
X108712000Y-69218750D01*
X108712000Y-69822000D01*
X108732000Y-69822000D01*
X108732000Y-70543000D01*
X108712000Y-70543000D01*
X108712000Y-70583500D01*
X107950000Y-70583500D01*
X107950000Y-70543000D01*
X107154750Y-70543000D01*
X107061000Y-70636750D01*
X106967250Y-70543000D01*
X106172000Y-70543000D01*
X106172000Y-70583500D01*
X105410000Y-70583500D01*
X105410000Y-70543000D01*
X104614750Y-70543000D01*
X104521000Y-70636750D01*
X104427250Y-70543000D01*
X103632000Y-70543000D01*
X103632000Y-70583500D01*
X102870000Y-70583500D01*
X102870000Y-70543000D01*
X102074750Y-70543000D01*
X101916000Y-70701750D01*
X101927206Y-70804229D01*
X101965379Y-70923346D01*
X102026057Y-71032727D01*
X102106908Y-71128169D01*
X102177972Y-71184657D01*
X102171208Y-71190208D01*
X102061542Y-71323836D01*
X101980053Y-71476291D01*
X101929872Y-71641715D01*
X101912928Y-71813750D01*
X89306000Y-71813750D01*
X89306000Y-63711500D01*
X92837809Y-63711500D01*
X92837809Y-66531500D01*
X94319511Y-66531500D01*
X94490223Y-66850881D01*
X94757023Y-67175977D01*
X95082119Y-67442777D01*
X95308912Y-67564000D01*
X95082119Y-67685223D01*
X94757023Y-67952023D01*
X94490223Y-68277119D01*
X94291974Y-68648018D01*
X94169892Y-69050467D01*
X94128670Y-69469000D01*
X94169892Y-69887533D01*
X94291974Y-70289982D01*
X94490223Y-70660881D01*
X94757023Y-70985977D01*
X95082119Y-71252777D01*
X95453018Y-71451026D01*
X95855467Y-71573108D01*
X96169118Y-71604000D01*
X97378882Y-71604000D01*
X97692533Y-71573108D01*
X98094982Y-71451026D01*
X98465881Y-71252777D01*
X98790977Y-70985977D01*
X99057777Y-70660881D01*
X99256026Y-70289982D01*
X99378108Y-69887533D01*
X99400197Y-69663250D01*
X101916000Y-69663250D01*
X102074750Y-69822000D01*
X102870000Y-69822000D01*
X102870000Y-69218750D01*
X102711250Y-69060000D01*
X102560954Y-69057006D01*
X102436296Y-69067323D01*
X102316046Y-69101761D01*
X102204826Y-69158997D01*
X102106908Y-69236831D01*
X102026057Y-69332273D01*
X101965379Y-69441654D01*
X101927206Y-69560771D01*
X101916000Y-69663250D01*
X99400197Y-69663250D01*
X99419330Y-69469000D01*
X99378108Y-69050467D01*
X99260640Y-68663228D01*
X99519869Y-68404000D01*
X103077982Y-68404000D01*
X103119000Y-68408040D01*
X103160018Y-68404000D01*
X103160019Y-68404000D01*
X103282689Y-68391918D01*
X103440087Y-68344172D01*
X103585146Y-68266636D01*
X103712291Y-68162291D01*
X103738446Y-68130421D01*
X105239991Y-66628877D01*
X105239990Y-67558540D01*
X105108102Y-67584774D01*
X104919744Y-67662795D01*
X104750226Y-67776063D01*
X104606063Y-67920226D01*
X104492795Y-68089744D01*
X104414774Y-68278102D01*
X104375000Y-68478061D01*
X104375000Y-68681939D01*
X104414774Y-68881898D01*
X104492795Y-69070256D01*
X104606063Y-69239774D01*
X104626826Y-69260537D01*
X104566057Y-69332273D01*
X104521000Y-69413495D01*
X104475943Y-69332273D01*
X104395092Y-69236831D01*
X104297174Y-69158997D01*
X104185954Y-69101761D01*
X104065704Y-69067323D01*
X103941046Y-69057006D01*
X103790750Y-69060000D01*
X103632000Y-69218750D01*
X103632000Y-69822000D01*
X104427250Y-69822000D01*
X104521000Y-69728250D01*
X104614750Y-69822000D01*
X105410000Y-69822000D01*
X105410000Y-69781500D01*
X106172000Y-69781500D01*
X106172000Y-69822000D01*
X106967250Y-69822000D01*
X107061000Y-69728250D01*
X107154750Y-69822000D01*
X107950000Y-69822000D01*
X107950000Y-69231349D01*
X108101774Y-69129937D01*
X108245937Y-68985774D01*
X108359205Y-68816256D01*
X108437226Y-68627898D01*
X108466093Y-68482775D01*
X111051433Y-65897436D01*
X111083291Y-65871291D01*
X111123179Y-65822688D01*
X111187636Y-65744146D01*
X111265172Y-65599087D01*
X111312918Y-65441689D01*
X111329040Y-65278000D01*
X111325000Y-65236982D01*
X111325000Y-65097000D01*
X113934207Y-65097000D01*
X114114866Y-65317134D01*
X114340986Y-65502706D01*
X114598966Y-65640599D01*
X114878889Y-65725513D01*
X115097050Y-65747000D01*
X116042950Y-65747000D01*
X116261111Y-65725513D01*
X116541034Y-65640599D01*
X116799014Y-65502706D01*
X117025134Y-65317134D01*
X117210706Y-65091014D01*
X117348599Y-64833034D01*
X117433513Y-64553111D01*
X117462185Y-64262000D01*
X117433513Y-63970889D01*
X117348599Y-63690966D01*
X117210706Y-63432986D01*
X117025134Y-63206866D01*
X116799014Y-63021294D01*
X116742969Y-62991337D01*
X116965719Y-62827153D01*
X117162191Y-62611663D01*
X117312848Y-62361983D01*
X117328020Y-62322838D01*
X117240346Y-62103000D01*
X115951000Y-62103000D01*
X115951000Y-62123000D01*
X115189000Y-62123000D01*
X115189000Y-62103000D01*
X113899654Y-62103000D01*
X113811980Y-62322838D01*
X113827152Y-62361983D01*
X113977809Y-62611663D01*
X114174281Y-62827153D01*
X114397031Y-62991337D01*
X114340986Y-63021294D01*
X114114866Y-63206866D01*
X113934207Y-63427000D01*
X111346572Y-63427000D01*
X111293937Y-63348226D01*
X111149774Y-63204063D01*
X110980256Y-63090795D01*
X110791898Y-63012774D01*
X110591939Y-62973000D01*
X110415903Y-62973000D01*
X110514774Y-62906937D01*
X110658937Y-62762774D01*
X110772205Y-62593256D01*
X110850226Y-62404898D01*
X110879093Y-62259775D01*
X113121868Y-60017000D01*
X113934207Y-60017000D01*
X114114866Y-60237134D01*
X114340986Y-60422706D01*
X114397031Y-60452663D01*
X114174281Y-60616847D01*
X113977809Y-60832337D01*
X113827152Y-61082017D01*
X113811980Y-61121162D01*
X113899654Y-61341000D01*
X115189000Y-61341000D01*
X115189000Y-61321000D01*
X115951000Y-61321000D01*
X115951000Y-61341000D01*
X117240346Y-61341000D01*
X117328020Y-61121162D01*
X117312848Y-61082017D01*
X117162191Y-60832337D01*
X116965719Y-60616847D01*
X116742969Y-60452663D01*
X116799014Y-60422706D01*
X117025134Y-60237134D01*
X117210706Y-60011014D01*
X117348599Y-59753034D01*
X117433513Y-59473111D01*
X117462185Y-59182000D01*
X117433513Y-58890889D01*
X117348599Y-58610966D01*
X117210706Y-58352986D01*
X117025134Y-58126866D01*
X116799014Y-57941294D01*
X116742969Y-57911337D01*
X116965719Y-57747153D01*
X117162191Y-57531663D01*
X117312848Y-57281983D01*
X117328020Y-57242838D01*
X117240346Y-57023000D01*
X115951000Y-57023000D01*
X115951000Y-57043000D01*
X115189000Y-57043000D01*
X115189000Y-57023000D01*
X115169000Y-57023000D01*
X115169000Y-56261000D01*
X115189000Y-56261000D01*
X115189000Y-56241000D01*
X115951000Y-56241000D01*
X115951000Y-56261000D01*
X117240346Y-56261000D01*
X117328020Y-56041162D01*
X117312848Y-56002017D01*
X117162191Y-55752337D01*
X116965719Y-55536847D01*
X116742969Y-55372663D01*
X116799014Y-55342706D01*
X117025134Y-55157134D01*
X117210706Y-54931014D01*
X117348599Y-54673034D01*
X117433513Y-54393111D01*
X117462185Y-54102000D01*
X117433513Y-53810889D01*
X117348599Y-53530966D01*
X117210706Y-53272986D01*
X117025134Y-53046866D01*
X116799014Y-52861294D01*
X116744209Y-52832000D01*
X116799014Y-52802706D01*
X117025134Y-52617134D01*
X117210706Y-52391014D01*
X117348599Y-52133034D01*
X117433513Y-51853111D01*
X117462185Y-51562000D01*
X117433513Y-51270889D01*
X117348599Y-50990966D01*
X117210706Y-50732986D01*
X117025134Y-50506866D01*
X116799014Y-50321294D01*
X116744209Y-50292000D01*
X116799014Y-50262706D01*
X117025134Y-50077134D01*
X117210706Y-49851014D01*
X117348599Y-49593034D01*
X117433513Y-49313111D01*
X117462185Y-49022000D01*
X117433513Y-48730889D01*
X117348599Y-48450966D01*
X117210706Y-48192986D01*
X117025134Y-47966866D01*
X116799014Y-47781294D01*
X116744209Y-47752000D01*
X116799014Y-47722706D01*
X117025134Y-47537134D01*
X117210706Y-47311014D01*
X117348599Y-47053034D01*
X117433513Y-46773111D01*
X117462185Y-46482000D01*
X117433513Y-46190889D01*
X117348599Y-45910966D01*
X117210706Y-45652986D01*
X117025134Y-45426866D01*
X116799014Y-45241294D01*
X116742969Y-45211337D01*
X116965719Y-45047153D01*
X117162191Y-44831663D01*
X117312848Y-44581983D01*
X117328020Y-44542838D01*
X117240346Y-44323000D01*
X115951000Y-44323000D01*
X115951000Y-44343000D01*
X115189000Y-44343000D01*
X115189000Y-44323000D01*
X113899654Y-44323000D01*
X113811980Y-44542838D01*
X113827152Y-44581983D01*
X113977809Y-44831663D01*
X114174142Y-45047000D01*
X113314396Y-45047000D01*
X110345000Y-42077605D01*
X110345000Y-40315266D01*
X110351943Y-40244774D01*
X110345000Y-40174282D01*
X110345000Y-39168254D01*
X110426977Y-39100977D01*
X110693777Y-38775881D01*
X110892026Y-38404981D01*
X111014108Y-38002532D01*
X111045000Y-37688881D01*
X111045000Y-36479118D01*
X111014108Y-36165467D01*
X110892026Y-35763018D01*
X110693777Y-35392119D01*
X110426977Y-35067023D01*
X110101881Y-34800223D01*
X109730981Y-34601974D01*
X109328532Y-34479892D01*
X108910000Y-34438670D01*
X108491467Y-34479892D01*
X108089018Y-34601974D01*
X107718119Y-34800223D01*
X107393023Y-35067023D01*
X107158845Y-35352369D01*
X107066332Y-35214957D01*
X106767419Y-34918128D01*
X106416341Y-34685318D01*
X106114936Y-34568736D01*
X105791000Y-34644824D01*
X105791000Y-36703000D01*
X105811000Y-36703000D01*
X105811000Y-37465000D01*
X105791000Y-37465000D01*
X105791000Y-37485000D01*
X105029000Y-37485000D01*
X105029000Y-37465000D01*
X105009000Y-37465000D01*
X105009000Y-36703000D01*
X105029000Y-36703000D01*
X105029000Y-34645869D01*
X105311869Y-34363000D01*
X109890133Y-34363000D01*
X114735000Y-39207868D01*
X114735000Y-39913928D01*
X114320000Y-39913928D01*
X114195518Y-39926188D01*
X114075820Y-39962498D01*
X113965506Y-40021463D01*
X113868815Y-40100815D01*
X113789463Y-40197506D01*
X113730498Y-40307820D01*
X113694188Y-40427518D01*
X113681928Y-40552000D01*
X113681928Y-42252000D01*
X113694188Y-42376482D01*
X113730498Y-42496180D01*
X113789463Y-42606494D01*
X113868815Y-42703185D01*
X113965506Y-42782537D01*
X114075820Y-42841502D01*
X114149624Y-42863890D01*
X113977809Y-43052337D01*
X113827152Y-43302017D01*
X113811980Y-43341162D01*
X113899654Y-43561000D01*
X115189000Y-43561000D01*
X115189000Y-43541000D01*
X115951000Y-43541000D01*
X115951000Y-43561000D01*
X117240346Y-43561000D01*
X117328020Y-43341162D01*
X117312848Y-43302017D01*
X117162191Y-43052337D01*
X116990376Y-42863890D01*
X117064180Y-42841502D01*
X117174494Y-42782537D01*
X117271185Y-42703185D01*
X117350537Y-42606494D01*
X117409502Y-42496180D01*
X117445812Y-42376482D01*
X117458072Y-42252000D01*
X117458072Y-40552000D01*
X117445812Y-40427518D01*
X117409502Y-40307820D01*
X117350537Y-40197506D01*
X117271185Y-40100815D01*
X117174494Y-40021463D01*
X117064180Y-39962498D01*
X116944482Y-39926188D01*
X116820000Y-39913928D01*
X116405000Y-39913928D01*
X116405000Y-38903018D01*
X116409040Y-38861999D01*
X116392918Y-38698311D01*
X116345172Y-38540913D01*
X116267636Y-38395854D01*
X116163291Y-38268709D01*
X116131428Y-38242560D01*
X110855446Y-32966579D01*
X110829291Y-32934709D01*
X110702146Y-32830364D01*
X110557087Y-32752828D01*
X110399689Y-32705082D01*
X110277019Y-32693000D01*
X110277018Y-32693000D01*
X110236000Y-32688960D01*
X110194982Y-32693000D01*
X105007018Y-32693000D01*
X104966000Y-32688960D01*
X104924982Y-32693000D01*
X104924981Y-32693000D01*
X104802311Y-32705082D01*
X104644913Y-32752828D01*
X104499854Y-32830364D01*
X104372709Y-32934709D01*
X104346563Y-32966568D01*
X102715772Y-34597360D01*
X102328532Y-34479892D01*
X101910000Y-34438670D01*
X101491467Y-34479892D01*
X101089018Y-34601974D01*
X100718119Y-34800223D01*
X100393023Y-35067023D01*
X100126223Y-35392119D01*
X99927974Y-35763019D01*
X99805892Y-36165468D01*
X99775000Y-36479119D01*
X99775000Y-37688882D01*
X99805892Y-38002533D01*
X99927974Y-38404982D01*
X100126224Y-38775881D01*
X100393024Y-39100977D01*
X100718120Y-39367777D01*
X101089019Y-39566026D01*
X101491468Y-39688108D01*
X101910000Y-39729330D01*
X102328533Y-39688108D01*
X102730982Y-39566026D01*
X103101881Y-39367777D01*
X103426977Y-39100977D01*
X103661155Y-38815631D01*
X103753668Y-38953043D01*
X103900967Y-39099315D01*
X103747618Y-39225166D01*
X103702676Y-39279928D01*
X101494677Y-41487928D01*
X101036000Y-41487928D01*
X100862746Y-41504992D01*
X100696150Y-41555528D01*
X100542614Y-41637595D01*
X100408038Y-41748038D01*
X100297595Y-41882614D01*
X100215528Y-42036150D01*
X100164992Y-42202746D01*
X100147928Y-42376000D01*
X100147928Y-42834676D01*
X98809165Y-44173440D01*
X98754403Y-44218382D01*
X98575079Y-44436889D01*
X98518448Y-44542838D01*
X98441828Y-44686183D01*
X98359774Y-44956682D01*
X98332067Y-45237990D01*
X98339011Y-45308492D01*
X98339011Y-45509978D01*
X98293603Y-45479407D01*
X97904980Y-45316839D01*
X97492109Y-45233211D01*
X97155000Y-45384161D01*
X97155000Y-46990000D01*
X97175000Y-46990000D01*
X97175000Y-47752000D01*
X97155000Y-47752000D01*
X97155000Y-47772000D01*
X96393000Y-47772000D01*
X96393000Y-47752000D01*
X94334824Y-47752000D01*
X94258736Y-48075936D01*
X94375318Y-48377341D01*
X94608128Y-48728419D01*
X94904957Y-49027332D01*
X95254397Y-49262593D01*
X95299049Y-49281272D01*
X95082119Y-49397223D01*
X94757023Y-49664023D01*
X94490223Y-49989119D01*
X94291974Y-50360018D01*
X94169892Y-50762467D01*
X94128670Y-51181000D01*
X94169892Y-51599533D01*
X94291974Y-52001982D01*
X94490223Y-52372881D01*
X94757023Y-52697977D01*
X95082119Y-52964777D01*
X95453018Y-53163026D01*
X95855467Y-53285108D01*
X96169118Y-53316000D01*
X97378882Y-53316000D01*
X97692533Y-53285108D01*
X98094982Y-53163026D01*
X98339010Y-53032591D01*
X98339010Y-53420594D01*
X97379540Y-54380065D01*
X97378882Y-54380000D01*
X96169118Y-54380000D01*
X95855467Y-54410892D01*
X95453018Y-54532974D01*
X95082119Y-54731223D01*
X94757023Y-54998023D01*
X94490223Y-55323119D01*
X94291974Y-55694018D01*
X94169892Y-56096467D01*
X94128670Y-56515000D01*
X94169892Y-56933533D01*
X94291974Y-57335982D01*
X94490223Y-57706881D01*
X94757023Y-58031977D01*
X95082119Y-58298777D01*
X95308912Y-58420000D01*
X95082119Y-58541223D01*
X94757023Y-58808023D01*
X94490223Y-59133119D01*
X94291974Y-59504018D01*
X94169892Y-59906467D01*
X94128670Y-60325000D01*
X94169892Y-60743533D01*
X94291974Y-61145982D01*
X94490223Y-61516881D01*
X94757023Y-61841977D01*
X95082119Y-62108777D01*
X95453018Y-62307026D01*
X95855467Y-62429108D01*
X96169118Y-62460000D01*
X97378882Y-62460000D01*
X97692533Y-62429108D01*
X98094982Y-62307026D01*
X98465881Y-62108777D01*
X98790977Y-61841977D01*
X99057777Y-61516881D01*
X99248533Y-61160000D01*
X103466475Y-61160000D01*
X103475536Y-61181875D01*
X103534502Y-61292192D01*
X103588958Y-61373691D01*
X103668310Y-61470382D01*
X103692607Y-61494679D01*
X103730828Y-61620678D01*
X103808364Y-61765737D01*
X103829509Y-61791502D01*
X103912710Y-61892883D01*
X103944574Y-61919033D01*
X105155842Y-63130302D01*
X105267099Y-63296810D01*
X105314440Y-63344151D01*
X103834591Y-64824000D01*
X99248533Y-64824000D01*
X99057777Y-64467119D01*
X98790977Y-64142023D01*
X98465881Y-63875223D01*
X98094982Y-63676974D01*
X97692533Y-63554892D01*
X97378882Y-63524000D01*
X96169118Y-63524000D01*
X95855467Y-63554892D01*
X95453018Y-63676974D01*
X95110190Y-63860219D01*
X95110190Y-63711500D01*
X92837809Y-63711500D01*
X89306000Y-63711500D01*
X89306000Y-46666064D01*
X94258736Y-46666064D01*
X94334824Y-46990000D01*
X96393000Y-46990000D01*
X96393000Y-45384161D01*
X96055891Y-45233211D01*
X95643020Y-45316839D01*
X95254397Y-45479407D01*
X94904957Y-45714668D01*
X94608128Y-46013581D01*
X94375318Y-46364659D01*
X94258736Y-46666064D01*
X89306000Y-46666064D01*
X89306000Y-42037000D01*
X94128670Y-42037000D01*
X94169892Y-42455533D01*
X94291974Y-42857982D01*
X94490223Y-43228881D01*
X94757023Y-43553977D01*
X95082119Y-43820777D01*
X95453018Y-44019026D01*
X95855467Y-44141108D01*
X96169118Y-44172000D01*
X97378882Y-44172000D01*
X97692533Y-44141108D01*
X98094982Y-44019026D01*
X98465881Y-43820777D01*
X98790977Y-43553977D01*
X99057777Y-43228881D01*
X99256026Y-42857982D01*
X99378108Y-42455533D01*
X99419330Y-42037000D01*
X99378108Y-41618467D01*
X99256026Y-41216018D01*
X99057777Y-40845119D01*
X98790977Y-40520023D01*
X98465881Y-40253223D01*
X98248951Y-40137272D01*
X98293603Y-40118593D01*
X98643043Y-39883332D01*
X98939872Y-39584419D01*
X99172682Y-39233341D01*
X99289264Y-38931936D01*
X99213176Y-38608000D01*
X97155000Y-38608000D01*
X97155000Y-38628000D01*
X96393000Y-38628000D01*
X96393000Y-38608000D01*
X94334824Y-38608000D01*
X94258736Y-38931936D01*
X94375318Y-39233341D01*
X94608128Y-39584419D01*
X94904957Y-39883332D01*
X95254397Y-40118593D01*
X95299049Y-40137272D01*
X95082119Y-40253223D01*
X94757023Y-40520023D01*
X94490223Y-40845119D01*
X94291974Y-41216018D01*
X94169892Y-41618467D01*
X94128670Y-42037000D01*
X89306000Y-42037000D01*
X89306000Y-37522064D01*
X94258736Y-37522064D01*
X94334824Y-37846000D01*
X96393000Y-37846000D01*
X96393000Y-36240161D01*
X97155000Y-36240161D01*
X97155000Y-37846000D01*
X99213176Y-37846000D01*
X99289264Y-37522064D01*
X99172682Y-37220659D01*
X98939872Y-36869581D01*
X98643043Y-36570668D01*
X98293603Y-36335407D01*
X97904980Y-36172839D01*
X97492109Y-36089211D01*
X97155000Y-36240161D01*
X96393000Y-36240161D01*
X96055891Y-36089211D01*
X95643020Y-36172839D01*
X95254397Y-36335407D01*
X94904957Y-36570668D01*
X94608128Y-36869581D01*
X94375318Y-37220659D01*
X94258736Y-37522064D01*
X89306000Y-37522064D01*
X89306000Y-33725495D01*
X89508613Y-34028727D01*
X89923273Y-34443387D01*
X90410862Y-34769183D01*
X90952641Y-34993595D01*
X91527791Y-35108000D01*
X92114209Y-35108000D01*
X92689359Y-34993595D01*
X93231138Y-34769183D01*
X93718727Y-34443387D01*
X94133387Y-34028727D01*
X94459183Y-33541138D01*
X94683595Y-32999359D01*
X94798000Y-32424209D01*
X94798000Y-31837791D01*
X94683595Y-31262641D01*
X94459183Y-30720862D01*
X94133387Y-30233273D01*
X93718727Y-29818613D01*
X93415495Y-29616000D01*
X113594505Y-29616000D01*
X113291273Y-29818613D01*
X113291273Y-29818613D01*
G37*
X113291273Y-29818613D02*
X112876613Y-30233273D01*
X112550817Y-30720862D01*
X112326405Y-31262641D01*
X112212000Y-31837791D01*
X112212000Y-32424209D01*
X112326405Y-32999359D01*
X112550817Y-33541138D01*
X112876613Y-34028727D01*
X113291273Y-34443387D01*
X113778862Y-34769183D01*
X114320641Y-34993595D01*
X114895791Y-35108000D01*
X115482209Y-35108000D01*
X116057359Y-34993595D01*
X116599138Y-34769183D01*
X117086727Y-34443387D01*
X117501387Y-34028727D01*
X117704001Y-33725493D01*
X117704000Y-73970505D01*
X117501387Y-73667273D01*
X117086727Y-73252613D01*
X116599138Y-72926817D01*
X116057359Y-72702405D01*
X115482209Y-72588000D01*
X114895791Y-72588000D01*
X114320641Y-72702405D01*
X113778862Y-72926817D01*
X113291273Y-73252613D01*
X112876613Y-73667273D01*
X112550817Y-74154862D01*
X112326405Y-74696641D01*
X112212000Y-75271791D01*
X112212000Y-75858209D01*
X112326405Y-76433359D01*
X112550817Y-76975138D01*
X112876613Y-77462727D01*
X113291273Y-77877387D01*
X113594505Y-78080000D01*
X93415495Y-78080000D01*
X93718727Y-77877387D01*
X94133387Y-77462727D01*
X94459183Y-76975138D01*
X94683595Y-76433359D01*
X94798000Y-75858209D01*
X94798000Y-75271791D01*
X94683595Y-74696641D01*
X94459183Y-74154862D01*
X94133387Y-73667273D01*
X93718727Y-73252613D01*
X93231138Y-72926817D01*
X92689359Y-72702405D01*
X92114209Y-72588000D01*
X91527791Y-72588000D01*
X90952641Y-72702405D01*
X90410862Y-72926817D01*
X89923273Y-73252613D01*
X89508613Y-73667273D01*
X89306000Y-73970505D01*
X89306000Y-71813750D01*
X101912928Y-71813750D01*
X101912928Y-72301250D01*
X101929872Y-72473285D01*
X101980053Y-72638709D01*
X102061542Y-72791164D01*
X102171208Y-72924792D01*
X102304836Y-73034458D01*
X102457291Y-73115947D01*
X102622715Y-73166128D01*
X102794750Y-73183072D01*
X103707250Y-73183072D01*
X103879285Y-73166128D01*
X104044709Y-73115947D01*
X104197164Y-73034458D01*
X104330792Y-72924792D01*
X104440458Y-72791164D01*
X104521000Y-72640481D01*
X104601542Y-72791164D01*
X104711208Y-72924792D01*
X104844836Y-73034458D01*
X104997291Y-73115947D01*
X105162715Y-73166128D01*
X105334750Y-73183072D01*
X106247250Y-73183072D01*
X106419285Y-73166128D01*
X106584709Y-73115947D01*
X106737164Y-73034458D01*
X106870792Y-72924792D01*
X106980458Y-72791164D01*
X107061000Y-72640481D01*
X107141542Y-72791164D01*
X107251208Y-72924792D01*
X107384836Y-73034458D01*
X107537291Y-73115947D01*
X107702715Y-73166128D01*
X107874750Y-73183072D01*
X108787250Y-73183072D01*
X108959285Y-73166128D01*
X109124709Y-73115947D01*
X109277164Y-73034458D01*
X109410792Y-72924792D01*
X109520458Y-72791164D01*
X109601000Y-72640481D01*
X109681542Y-72791164D01*
X109791208Y-72924792D01*
X109924836Y-73034458D01*
X110077291Y-73115947D01*
X110242715Y-73166128D01*
X110414750Y-73183072D01*
X111327250Y-73183072D01*
X111499285Y-73166128D01*
X111664709Y-73115947D01*
X111817164Y-73034458D01*
X111950792Y-72924792D01*
X112060458Y-72791164D01*
X112141947Y-72638709D01*
X112192128Y-72473285D01*
X112209072Y-72301250D01*
X112209072Y-71813750D01*
X112192128Y-71641715D01*
X112141947Y-71476291D01*
X112060458Y-71323836D01*
X111950792Y-71190208D01*
X111865244Y-71120000D01*
X111950792Y-71049792D01*
X112060458Y-70916164D01*
X112141947Y-70763709D01*
X112192128Y-70598285D01*
X112209072Y-70426250D01*
X112209072Y-70025296D01*
X112501442Y-69732926D01*
X112547061Y-69742000D01*
X112750939Y-69742000D01*
X112950898Y-69702226D01*
X113139256Y-69624205D01*
X113308774Y-69510937D01*
X113452937Y-69366774D01*
X113566205Y-69197256D01*
X113644226Y-69008898D01*
X113684000Y-68808939D01*
X113684000Y-68605061D01*
X113644226Y-68405102D01*
X113566205Y-68216744D01*
X113452937Y-68047226D01*
X113308774Y-67903063D01*
X113139256Y-67789795D01*
X112950898Y-67711774D01*
X112750939Y-67672000D01*
X112547061Y-67672000D01*
X112347102Y-67711774D01*
X112158744Y-67789795D01*
X111989226Y-67903063D01*
X111885877Y-68006412D01*
X111880354Y-68009364D01*
X111753209Y-68113709D01*
X111727059Y-68145574D01*
X110815705Y-69056928D01*
X110414750Y-69056928D01*
X110242715Y-69073872D01*
X110077291Y-69124053D01*
X109924836Y-69205542D01*
X109791208Y-69315208D01*
X109681542Y-69448836D01*
X109642394Y-69522077D01*
X109616621Y-69441654D01*
X109555943Y-69332273D01*
X109475092Y-69236831D01*
X109377174Y-69158997D01*
X109265954Y-69101761D01*
X109145704Y-69067323D01*
X109021046Y-69057006D01*
X108870750Y-69060000D01*
X108712000Y-69218750D01*
X108712000Y-69822000D01*
X108732000Y-69822000D01*
X108732000Y-70543000D01*
X108712000Y-70543000D01*
X108712000Y-70583500D01*
X107950000Y-70583500D01*
X107950000Y-70543000D01*
X107154750Y-70543000D01*
X107061000Y-70636750D01*
X106967250Y-70543000D01*
X106172000Y-70543000D01*
X106172000Y-70583500D01*
X105410000Y-70583500D01*
X105410000Y-70543000D01*
X104614750Y-70543000D01*
X104521000Y-70636750D01*
X104427250Y-70543000D01*
X103632000Y-70543000D01*
X103632000Y-70583500D01*
X102870000Y-70583500D01*
X102870000Y-70543000D01*
X102074750Y-70543000D01*
X101916000Y-70701750D01*
X101927206Y-70804229D01*
X101965379Y-70923346D01*
X102026057Y-71032727D01*
X102106908Y-71128169D01*
X102177972Y-71184657D01*
X102171208Y-71190208D01*
X102061542Y-71323836D01*
X101980053Y-71476291D01*
X101929872Y-71641715D01*
X101912928Y-71813750D01*
X89306000Y-71813750D01*
X89306000Y-63711500D01*
X92837809Y-63711500D01*
X92837809Y-66531500D01*
X94319511Y-66531500D01*
X94490223Y-66850881D01*
X94757023Y-67175977D01*
X95082119Y-67442777D01*
X95308912Y-67564000D01*
X95082119Y-67685223D01*
X94757023Y-67952023D01*
X94490223Y-68277119D01*
X94291974Y-68648018D01*
X94169892Y-69050467D01*
X94128670Y-69469000D01*
X94169892Y-69887533D01*
X94291974Y-70289982D01*
X94490223Y-70660881D01*
X94757023Y-70985977D01*
X95082119Y-71252777D01*
X95453018Y-71451026D01*
X95855467Y-71573108D01*
X96169118Y-71604000D01*
X97378882Y-71604000D01*
X97692533Y-71573108D01*
X98094982Y-71451026D01*
X98465881Y-71252777D01*
X98790977Y-70985977D01*
X99057777Y-70660881D01*
X99256026Y-70289982D01*
X99378108Y-69887533D01*
X99400197Y-69663250D01*
X101916000Y-69663250D01*
X102074750Y-69822000D01*
X102870000Y-69822000D01*
X102870000Y-69218750D01*
X102711250Y-69060000D01*
X102560954Y-69057006D01*
X102436296Y-69067323D01*
X102316046Y-69101761D01*
X102204826Y-69158997D01*
X102106908Y-69236831D01*
X102026057Y-69332273D01*
X101965379Y-69441654D01*
X101927206Y-69560771D01*
X101916000Y-69663250D01*
X99400197Y-69663250D01*
X99419330Y-69469000D01*
X99378108Y-69050467D01*
X99260640Y-68663228D01*
X99519869Y-68404000D01*
X103077982Y-68404000D01*
X103119000Y-68408040D01*
X103160018Y-68404000D01*
X103160019Y-68404000D01*
X103282689Y-68391918D01*
X103440087Y-68344172D01*
X103585146Y-68266636D01*
X103712291Y-68162291D01*
X103738446Y-68130421D01*
X105239991Y-66628877D01*
X105239990Y-67558540D01*
X105108102Y-67584774D01*
X104919744Y-67662795D01*
X104750226Y-67776063D01*
X104606063Y-67920226D01*
X104492795Y-68089744D01*
X104414774Y-68278102D01*
X104375000Y-68478061D01*
X104375000Y-68681939D01*
X104414774Y-68881898D01*
X104492795Y-69070256D01*
X104606063Y-69239774D01*
X104626826Y-69260537D01*
X104566057Y-69332273D01*
X104521000Y-69413495D01*
X104475943Y-69332273D01*
X104395092Y-69236831D01*
X104297174Y-69158997D01*
X104185954Y-69101761D01*
X104065704Y-69067323D01*
X103941046Y-69057006D01*
X103790750Y-69060000D01*
X103632000Y-69218750D01*
X103632000Y-69822000D01*
X104427250Y-69822000D01*
X104521000Y-69728250D01*
X104614750Y-69822000D01*
X105410000Y-69822000D01*
X105410000Y-69781500D01*
X106172000Y-69781500D01*
X106172000Y-69822000D01*
X106967250Y-69822000D01*
X107061000Y-69728250D01*
X107154750Y-69822000D01*
X107950000Y-69822000D01*
X107950000Y-69231349D01*
X108101774Y-69129937D01*
X108245937Y-68985774D01*
X108359205Y-68816256D01*
X108437226Y-68627898D01*
X108466093Y-68482775D01*
X111051433Y-65897436D01*
X111083291Y-65871291D01*
X111123179Y-65822688D01*
X111187636Y-65744146D01*
X111265172Y-65599087D01*
X111312918Y-65441689D01*
X111329040Y-65278000D01*
X111325000Y-65236982D01*
X111325000Y-65097000D01*
X113934207Y-65097000D01*
X114114866Y-65317134D01*
X114340986Y-65502706D01*
X114598966Y-65640599D01*
X114878889Y-65725513D01*
X115097050Y-65747000D01*
X116042950Y-65747000D01*
X116261111Y-65725513D01*
X116541034Y-65640599D01*
X116799014Y-65502706D01*
X117025134Y-65317134D01*
X117210706Y-65091014D01*
X117348599Y-64833034D01*
X117433513Y-64553111D01*
X117462185Y-64262000D01*
X117433513Y-63970889D01*
X117348599Y-63690966D01*
X117210706Y-63432986D01*
X117025134Y-63206866D01*
X116799014Y-63021294D01*
X116742969Y-62991337D01*
X116965719Y-62827153D01*
X117162191Y-62611663D01*
X117312848Y-62361983D01*
X117328020Y-62322838D01*
X117240346Y-62103000D01*
X115951000Y-62103000D01*
X115951000Y-62123000D01*
X115189000Y-62123000D01*
X115189000Y-62103000D01*
X113899654Y-62103000D01*
X113811980Y-62322838D01*
X113827152Y-62361983D01*
X113977809Y-62611663D01*
X114174281Y-62827153D01*
X114397031Y-62991337D01*
X114340986Y-63021294D01*
X114114866Y-63206866D01*
X113934207Y-63427000D01*
X111346572Y-63427000D01*
X111293937Y-63348226D01*
X111149774Y-63204063D01*
X110980256Y-63090795D01*
X110791898Y-63012774D01*
X110591939Y-62973000D01*
X110415903Y-62973000D01*
X110514774Y-62906937D01*
X110658937Y-62762774D01*
X110772205Y-62593256D01*
X110850226Y-62404898D01*
X110879093Y-62259775D01*
X113121868Y-60017000D01*
X113934207Y-60017000D01*
X114114866Y-60237134D01*
X114340986Y-60422706D01*
X114397031Y-60452663D01*
X114174281Y-60616847D01*
X113977809Y-60832337D01*
X113827152Y-61082017D01*
X113811980Y-61121162D01*
X113899654Y-61341000D01*
X115189000Y-61341000D01*
X115189000Y-61321000D01*
X115951000Y-61321000D01*
X115951000Y-61341000D01*
X117240346Y-61341000D01*
X117328020Y-61121162D01*
X117312848Y-61082017D01*
X117162191Y-60832337D01*
X116965719Y-60616847D01*
X116742969Y-60452663D01*
X116799014Y-60422706D01*
X117025134Y-60237134D01*
X117210706Y-60011014D01*
X117348599Y-59753034D01*
X117433513Y-59473111D01*
X117462185Y-59182000D01*
X117433513Y-58890889D01*
X117348599Y-58610966D01*
X117210706Y-58352986D01*
X117025134Y-58126866D01*
X116799014Y-57941294D01*
X116742969Y-57911337D01*
X116965719Y-57747153D01*
X117162191Y-57531663D01*
X117312848Y-57281983D01*
X117328020Y-57242838D01*
X117240346Y-57023000D01*
X115951000Y-57023000D01*
X115951000Y-57043000D01*
X115189000Y-57043000D01*
X115189000Y-57023000D01*
X115169000Y-57023000D01*
X115169000Y-56261000D01*
X115189000Y-56261000D01*
X115189000Y-56241000D01*
X115951000Y-56241000D01*
X115951000Y-56261000D01*
X117240346Y-56261000D01*
X117328020Y-56041162D01*
X117312848Y-56002017D01*
X117162191Y-55752337D01*
X116965719Y-55536847D01*
X116742969Y-55372663D01*
X116799014Y-55342706D01*
X117025134Y-55157134D01*
X117210706Y-54931014D01*
X117348599Y-54673034D01*
X117433513Y-54393111D01*
X117462185Y-54102000D01*
X117433513Y-53810889D01*
X117348599Y-53530966D01*
X117210706Y-53272986D01*
X117025134Y-53046866D01*
X116799014Y-52861294D01*
X116744209Y-52832000D01*
X116799014Y-52802706D01*
X117025134Y-52617134D01*
X117210706Y-52391014D01*
X117348599Y-52133034D01*
X117433513Y-51853111D01*
X117462185Y-51562000D01*
X117433513Y-51270889D01*
X117348599Y-50990966D01*
X117210706Y-50732986D01*
X117025134Y-50506866D01*
X116799014Y-50321294D01*
X116744209Y-50292000D01*
X116799014Y-50262706D01*
X117025134Y-50077134D01*
X117210706Y-49851014D01*
X117348599Y-49593034D01*
X117433513Y-49313111D01*
X117462185Y-49022000D01*
X117433513Y-48730889D01*
X117348599Y-48450966D01*
X117210706Y-48192986D01*
X117025134Y-47966866D01*
X116799014Y-47781294D01*
X116744209Y-47752000D01*
X116799014Y-47722706D01*
X117025134Y-47537134D01*
X117210706Y-47311014D01*
X117348599Y-47053034D01*
X117433513Y-46773111D01*
X117462185Y-46482000D01*
X117433513Y-46190889D01*
X117348599Y-45910966D01*
X117210706Y-45652986D01*
X117025134Y-45426866D01*
X116799014Y-45241294D01*
X116742969Y-45211337D01*
X116965719Y-45047153D01*
X117162191Y-44831663D01*
X117312848Y-44581983D01*
X117328020Y-44542838D01*
X117240346Y-44323000D01*
X115951000Y-44323000D01*
X115951000Y-44343000D01*
X115189000Y-44343000D01*
X115189000Y-44323000D01*
X113899654Y-44323000D01*
X113811980Y-44542838D01*
X113827152Y-44581983D01*
X113977809Y-44831663D01*
X114174142Y-45047000D01*
X113314396Y-45047000D01*
X110345000Y-42077605D01*
X110345000Y-40315266D01*
X110351943Y-40244774D01*
X110345000Y-40174282D01*
X110345000Y-39168254D01*
X110426977Y-39100977D01*
X110693777Y-38775881D01*
X110892026Y-38404981D01*
X111014108Y-38002532D01*
X111045000Y-37688881D01*
X111045000Y-36479118D01*
X111014108Y-36165467D01*
X110892026Y-35763018D01*
X110693777Y-35392119D01*
X110426977Y-35067023D01*
X110101881Y-34800223D01*
X109730981Y-34601974D01*
X109328532Y-34479892D01*
X108910000Y-34438670D01*
X108491467Y-34479892D01*
X108089018Y-34601974D01*
X107718119Y-34800223D01*
X107393023Y-35067023D01*
X107158845Y-35352369D01*
X107066332Y-35214957D01*
X106767419Y-34918128D01*
X106416341Y-34685318D01*
X106114936Y-34568736D01*
X105791000Y-34644824D01*
X105791000Y-36703000D01*
X105811000Y-36703000D01*
X105811000Y-37465000D01*
X105791000Y-37465000D01*
X105791000Y-37485000D01*
X105029000Y-37485000D01*
X105029000Y-37465000D01*
X105009000Y-37465000D01*
X105009000Y-36703000D01*
X105029000Y-36703000D01*
X105029000Y-34645869D01*
X105311869Y-34363000D01*
X109890133Y-34363000D01*
X114735000Y-39207868D01*
X114735000Y-39913928D01*
X114320000Y-39913928D01*
X114195518Y-39926188D01*
X114075820Y-39962498D01*
X113965506Y-40021463D01*
X113868815Y-40100815D01*
X113789463Y-40197506D01*
X113730498Y-40307820D01*
X113694188Y-40427518D01*
X113681928Y-40552000D01*
X113681928Y-42252000D01*
X113694188Y-42376482D01*
X113730498Y-42496180D01*
X113789463Y-42606494D01*
X113868815Y-42703185D01*
X113965506Y-42782537D01*
X114075820Y-42841502D01*
X114149624Y-42863890D01*
X113977809Y-43052337D01*
X113827152Y-43302017D01*
X113811980Y-43341162D01*
X113899654Y-43561000D01*
X115189000Y-43561000D01*
X115189000Y-43541000D01*
X115951000Y-43541000D01*
X115951000Y-43561000D01*
X117240346Y-43561000D01*
X117328020Y-43341162D01*
X117312848Y-43302017D01*
X117162191Y-43052337D01*
X116990376Y-42863890D01*
X117064180Y-42841502D01*
X117174494Y-42782537D01*
X117271185Y-42703185D01*
X117350537Y-42606494D01*
X117409502Y-42496180D01*
X117445812Y-42376482D01*
X117458072Y-42252000D01*
X117458072Y-40552000D01*
X117445812Y-40427518D01*
X117409502Y-40307820D01*
X117350537Y-40197506D01*
X117271185Y-40100815D01*
X117174494Y-40021463D01*
X117064180Y-39962498D01*
X116944482Y-39926188D01*
X116820000Y-39913928D01*
X116405000Y-39913928D01*
X116405000Y-38903018D01*
X116409040Y-38861999D01*
X116392918Y-38698311D01*
X116345172Y-38540913D01*
X116267636Y-38395854D01*
X116163291Y-38268709D01*
X116131428Y-38242560D01*
X110855446Y-32966579D01*
X110829291Y-32934709D01*
X110702146Y-32830364D01*
X110557087Y-32752828D01*
X110399689Y-32705082D01*
X110277019Y-32693000D01*
X110277018Y-32693000D01*
X110236000Y-32688960D01*
X110194982Y-32693000D01*
X105007018Y-32693000D01*
X104966000Y-32688960D01*
X104924982Y-32693000D01*
X104924981Y-32693000D01*
X104802311Y-32705082D01*
X104644913Y-32752828D01*
X104499854Y-32830364D01*
X104372709Y-32934709D01*
X104346563Y-32966568D01*
X102715772Y-34597360D01*
X102328532Y-34479892D01*
X101910000Y-34438670D01*
X101491467Y-34479892D01*
X101089018Y-34601974D01*
X100718119Y-34800223D01*
X100393023Y-35067023D01*
X100126223Y-35392119D01*
X99927974Y-35763019D01*
X99805892Y-36165468D01*
X99775000Y-36479119D01*
X99775000Y-37688882D01*
X99805892Y-38002533D01*
X99927974Y-38404982D01*
X100126224Y-38775881D01*
X100393024Y-39100977D01*
X100718120Y-39367777D01*
X101089019Y-39566026D01*
X101491468Y-39688108D01*
X101910000Y-39729330D01*
X102328533Y-39688108D01*
X102730982Y-39566026D01*
X103101881Y-39367777D01*
X103426977Y-39100977D01*
X103661155Y-38815631D01*
X103753668Y-38953043D01*
X103900967Y-39099315D01*
X103747618Y-39225166D01*
X103702676Y-39279928D01*
X101494677Y-41487928D01*
X101036000Y-41487928D01*
X100862746Y-41504992D01*
X100696150Y-41555528D01*
X100542614Y-41637595D01*
X100408038Y-41748038D01*
X100297595Y-41882614D01*
X100215528Y-42036150D01*
X100164992Y-42202746D01*
X100147928Y-42376000D01*
X100147928Y-42834676D01*
X98809165Y-44173440D01*
X98754403Y-44218382D01*
X98575079Y-44436889D01*
X98518448Y-44542838D01*
X98441828Y-44686183D01*
X98359774Y-44956682D01*
X98332067Y-45237990D01*
X98339011Y-45308492D01*
X98339011Y-45509978D01*
X98293603Y-45479407D01*
X97904980Y-45316839D01*
X97492109Y-45233211D01*
X97155000Y-45384161D01*
X97155000Y-46990000D01*
X97175000Y-46990000D01*
X97175000Y-47752000D01*
X97155000Y-47752000D01*
X97155000Y-47772000D01*
X96393000Y-47772000D01*
X96393000Y-47752000D01*
X94334824Y-47752000D01*
X94258736Y-48075936D01*
X94375318Y-48377341D01*
X94608128Y-48728419D01*
X94904957Y-49027332D01*
X95254397Y-49262593D01*
X95299049Y-49281272D01*
X95082119Y-49397223D01*
X94757023Y-49664023D01*
X94490223Y-49989119D01*
X94291974Y-50360018D01*
X94169892Y-50762467D01*
X94128670Y-51181000D01*
X94169892Y-51599533D01*
X94291974Y-52001982D01*
X94490223Y-52372881D01*
X94757023Y-52697977D01*
X95082119Y-52964777D01*
X95453018Y-53163026D01*
X95855467Y-53285108D01*
X96169118Y-53316000D01*
X97378882Y-53316000D01*
X97692533Y-53285108D01*
X98094982Y-53163026D01*
X98339010Y-53032591D01*
X98339010Y-53420594D01*
X97379540Y-54380065D01*
X97378882Y-54380000D01*
X96169118Y-54380000D01*
X95855467Y-54410892D01*
X95453018Y-54532974D01*
X95082119Y-54731223D01*
X94757023Y-54998023D01*
X94490223Y-55323119D01*
X94291974Y-55694018D01*
X94169892Y-56096467D01*
X94128670Y-56515000D01*
X94169892Y-56933533D01*
X94291974Y-57335982D01*
X94490223Y-57706881D01*
X94757023Y-58031977D01*
X95082119Y-58298777D01*
X95308912Y-58420000D01*
X95082119Y-58541223D01*
X94757023Y-58808023D01*
X94490223Y-59133119D01*
X94291974Y-59504018D01*
X94169892Y-59906467D01*
X94128670Y-60325000D01*
X94169892Y-60743533D01*
X94291974Y-61145982D01*
X94490223Y-61516881D01*
X94757023Y-61841977D01*
X95082119Y-62108777D01*
X95453018Y-62307026D01*
X95855467Y-62429108D01*
X96169118Y-62460000D01*
X97378882Y-62460000D01*
X97692533Y-62429108D01*
X98094982Y-62307026D01*
X98465881Y-62108777D01*
X98790977Y-61841977D01*
X99057777Y-61516881D01*
X99248533Y-61160000D01*
X103466475Y-61160000D01*
X103475536Y-61181875D01*
X103534502Y-61292192D01*
X103588958Y-61373691D01*
X103668310Y-61470382D01*
X103692607Y-61494679D01*
X103730828Y-61620678D01*
X103808364Y-61765737D01*
X103829509Y-61791502D01*
X103912710Y-61892883D01*
X103944574Y-61919033D01*
X105155842Y-63130302D01*
X105267099Y-63296810D01*
X105314440Y-63344151D01*
X103834591Y-64824000D01*
X99248533Y-64824000D01*
X99057777Y-64467119D01*
X98790977Y-64142023D01*
X98465881Y-63875223D01*
X98094982Y-63676974D01*
X97692533Y-63554892D01*
X97378882Y-63524000D01*
X96169118Y-63524000D01*
X95855467Y-63554892D01*
X95453018Y-63676974D01*
X95110190Y-63860219D01*
X95110190Y-63711500D01*
X92837809Y-63711500D01*
X89306000Y-63711500D01*
X89306000Y-46666064D01*
X94258736Y-46666064D01*
X94334824Y-46990000D01*
X96393000Y-46990000D01*
X96393000Y-45384161D01*
X96055891Y-45233211D01*
X95643020Y-45316839D01*
X95254397Y-45479407D01*
X94904957Y-45714668D01*
X94608128Y-46013581D01*
X94375318Y-46364659D01*
X94258736Y-46666064D01*
X89306000Y-46666064D01*
X89306000Y-42037000D01*
X94128670Y-42037000D01*
X94169892Y-42455533D01*
X94291974Y-42857982D01*
X94490223Y-43228881D01*
X94757023Y-43553977D01*
X95082119Y-43820777D01*
X95453018Y-44019026D01*
X95855467Y-44141108D01*
X96169118Y-44172000D01*
X97378882Y-44172000D01*
X97692533Y-44141108D01*
X98094982Y-44019026D01*
X98465881Y-43820777D01*
X98790977Y-43553977D01*
X99057777Y-43228881D01*
X99256026Y-42857982D01*
X99378108Y-42455533D01*
X99419330Y-42037000D01*
X99378108Y-41618467D01*
X99256026Y-41216018D01*
X99057777Y-40845119D01*
X98790977Y-40520023D01*
X98465881Y-40253223D01*
X98248951Y-40137272D01*
X98293603Y-40118593D01*
X98643043Y-39883332D01*
X98939872Y-39584419D01*
X99172682Y-39233341D01*
X99289264Y-38931936D01*
X99213176Y-38608000D01*
X97155000Y-38608000D01*
X97155000Y-38628000D01*
X96393000Y-38628000D01*
X96393000Y-38608000D01*
X94334824Y-38608000D01*
X94258736Y-38931936D01*
X94375318Y-39233341D01*
X94608128Y-39584419D01*
X94904957Y-39883332D01*
X95254397Y-40118593D01*
X95299049Y-40137272D01*
X95082119Y-40253223D01*
X94757023Y-40520023D01*
X94490223Y-40845119D01*
X94291974Y-41216018D01*
X94169892Y-41618467D01*
X94128670Y-42037000D01*
X89306000Y-42037000D01*
X89306000Y-37522064D01*
X94258736Y-37522064D01*
X94334824Y-37846000D01*
X96393000Y-37846000D01*
X96393000Y-36240161D01*
X97155000Y-36240161D01*
X97155000Y-37846000D01*
X99213176Y-37846000D01*
X99289264Y-37522064D01*
X99172682Y-37220659D01*
X98939872Y-36869581D01*
X98643043Y-36570668D01*
X98293603Y-36335407D01*
X97904980Y-36172839D01*
X97492109Y-36089211D01*
X97155000Y-36240161D01*
X96393000Y-36240161D01*
X96055891Y-36089211D01*
X95643020Y-36172839D01*
X95254397Y-36335407D01*
X94904957Y-36570668D01*
X94608128Y-36869581D01*
X94375318Y-37220659D01*
X94258736Y-37522064D01*
X89306000Y-37522064D01*
X89306000Y-33725495D01*
X89508613Y-34028727D01*
X89923273Y-34443387D01*
X90410862Y-34769183D01*
X90952641Y-34993595D01*
X91527791Y-35108000D01*
X92114209Y-35108000D01*
X92689359Y-34993595D01*
X93231138Y-34769183D01*
X93718727Y-34443387D01*
X94133387Y-34028727D01*
X94459183Y-33541138D01*
X94683595Y-32999359D01*
X94798000Y-32424209D01*
X94798000Y-31837791D01*
X94683595Y-31262641D01*
X94459183Y-30720862D01*
X94133387Y-30233273D01*
X93718727Y-29818613D01*
X93415495Y-29616000D01*
X113594505Y-29616000D01*
X113291273Y-29818613D01*
G36*
X106778151Y-61880440D02*
G01*
X106730810Y-61833099D01*
X106561292Y-61719831D01*
X106372934Y-61641810D01*
X106172975Y-61602036D01*
X105989312Y-61602036D01*
X105639159Y-61251884D01*
X105644072Y-61202000D01*
X105644072Y-59763000D01*
X108895590Y-59763000D01*
X106778151Y-61880440D01*
X106778151Y-61880440D01*
G37*
X106778151Y-61880440D02*
X106730810Y-61833099D01*
X106561292Y-61719831D01*
X106372934Y-61641810D01*
X106172975Y-61602036D01*
X105989312Y-61602036D01*
X105639159Y-61251884D01*
X105644072Y-61202000D01*
X105644072Y-59763000D01*
X108895590Y-59763000D01*
X106778151Y-61880440D01*
G36*
X102666568Y-50783436D02*
G01*
X102692719Y-50815301D01*
X102819864Y-50919646D01*
X102964923Y-50997182D01*
X103122321Y-51044928D01*
X103244991Y-51057010D01*
X103245001Y-51057010D01*
X103286009Y-51061049D01*
X103327017Y-51057010D01*
X107534143Y-51057010D01*
X108893000Y-52415869D01*
X108893001Y-57055427D01*
X108823284Y-57102011D01*
X108753937Y-56998226D01*
X108609774Y-56854063D01*
X108440256Y-56740795D01*
X108251898Y-56662774D01*
X108051939Y-56623000D01*
X107848061Y-56623000D01*
X107648102Y-56662774D01*
X107459744Y-56740795D01*
X107336715Y-56823000D01*
X102961867Y-56823000D01*
X102921000Y-56782133D01*
X102921000Y-56556072D01*
X103136000Y-56556072D01*
X103309254Y-56539008D01*
X103475850Y-56488472D01*
X103629386Y-56406405D01*
X103763962Y-56295962D01*
X103826969Y-56219187D01*
X103855463Y-56272494D01*
X103934815Y-56369185D01*
X104031506Y-56448537D01*
X104141820Y-56507502D01*
X104261518Y-56543812D01*
X104386000Y-56556072D01*
X105146250Y-56553000D01*
X105305000Y-56394250D01*
X105305000Y-55499000D01*
X106067000Y-55499000D01*
X106067000Y-56394250D01*
X106225750Y-56553000D01*
X106986000Y-56556072D01*
X107110482Y-56543812D01*
X107230180Y-56507502D01*
X107340494Y-56448537D01*
X107437185Y-56369185D01*
X107516537Y-56272494D01*
X107575502Y-56162180D01*
X107611812Y-56042482D01*
X107624072Y-55918000D01*
X107621000Y-55657750D01*
X107462250Y-55499000D01*
X106067000Y-55499000D01*
X105305000Y-55499000D01*
X105285000Y-55499000D01*
X105285000Y-54737000D01*
X105305000Y-54737000D01*
X105305000Y-53841750D01*
X106067000Y-53841750D01*
X106067000Y-54737000D01*
X107462250Y-54737000D01*
X107621000Y-54578250D01*
X107624072Y-54318000D01*
X107611812Y-54193518D01*
X107575502Y-54073820D01*
X107516537Y-53963506D01*
X107437185Y-53866815D01*
X107340494Y-53787463D01*
X107230180Y-53728498D01*
X107110482Y-53692188D01*
X106986000Y-53679928D01*
X106225750Y-53683000D01*
X106067000Y-53841750D01*
X105305000Y-53841750D01*
X105146250Y-53683000D01*
X104386000Y-53679928D01*
X104261518Y-53692188D01*
X104141820Y-53728498D01*
X104031506Y-53787463D01*
X103934815Y-53866815D01*
X103855463Y-53963506D01*
X103826969Y-54016813D01*
X103763962Y-53940038D01*
X103629386Y-53829595D01*
X103475850Y-53747528D01*
X103309254Y-53696992D01*
X103136000Y-53679928D01*
X101209010Y-53679928D01*
X101209010Y-50460072D01*
X102343204Y-50460072D01*
X102666568Y-50783436D01*
X102666568Y-50783436D01*
G37*
X102666568Y-50783436D02*
X102692719Y-50815301D01*
X102819864Y-50919646D01*
X102964923Y-50997182D01*
X103122321Y-51044928D01*
X103244991Y-51057010D01*
X103245001Y-51057010D01*
X103286009Y-51061049D01*
X103327017Y-51057010D01*
X107534143Y-51057010D01*
X108893000Y-52415869D01*
X108893001Y-57055427D01*
X108823284Y-57102011D01*
X108753937Y-56998226D01*
X108609774Y-56854063D01*
X108440256Y-56740795D01*
X108251898Y-56662774D01*
X108051939Y-56623000D01*
X107848061Y-56623000D01*
X107648102Y-56662774D01*
X107459744Y-56740795D01*
X107336715Y-56823000D01*
X102961867Y-56823000D01*
X102921000Y-56782133D01*
X102921000Y-56556072D01*
X103136000Y-56556072D01*
X103309254Y-56539008D01*
X103475850Y-56488472D01*
X103629386Y-56406405D01*
X103763962Y-56295962D01*
X103826969Y-56219187D01*
X103855463Y-56272494D01*
X103934815Y-56369185D01*
X104031506Y-56448537D01*
X104141820Y-56507502D01*
X104261518Y-56543812D01*
X104386000Y-56556072D01*
X105146250Y-56553000D01*
X105305000Y-56394250D01*
X105305000Y-55499000D01*
X106067000Y-55499000D01*
X106067000Y-56394250D01*
X106225750Y-56553000D01*
X106986000Y-56556072D01*
X107110482Y-56543812D01*
X107230180Y-56507502D01*
X107340494Y-56448537D01*
X107437185Y-56369185D01*
X107516537Y-56272494D01*
X107575502Y-56162180D01*
X107611812Y-56042482D01*
X107624072Y-55918000D01*
X107621000Y-55657750D01*
X107462250Y-55499000D01*
X106067000Y-55499000D01*
X105305000Y-55499000D01*
X105285000Y-55499000D01*
X105285000Y-54737000D01*
X105305000Y-54737000D01*
X105305000Y-53841750D01*
X106067000Y-53841750D01*
X106067000Y-54737000D01*
X107462250Y-54737000D01*
X107621000Y-54578250D01*
X107624072Y-54318000D01*
X107611812Y-54193518D01*
X107575502Y-54073820D01*
X107516537Y-53963506D01*
X107437185Y-53866815D01*
X107340494Y-53787463D01*
X107230180Y-53728498D01*
X107110482Y-53692188D01*
X106986000Y-53679928D01*
X106225750Y-53683000D01*
X106067000Y-53841750D01*
X105305000Y-53841750D01*
X105146250Y-53683000D01*
X104386000Y-53679928D01*
X104261518Y-53692188D01*
X104141820Y-53728498D01*
X104031506Y-53787463D01*
X103934815Y-53866815D01*
X103855463Y-53963506D01*
X103826969Y-54016813D01*
X103763962Y-53940038D01*
X103629386Y-53829595D01*
X103475850Y-53747528D01*
X103309254Y-53696992D01*
X103136000Y-53679928D01*
X101209010Y-53679928D01*
X101209010Y-50460072D01*
X102343204Y-50460072D01*
X102666568Y-50783436D01*
G36*
X106067000Y-42545000D02*
G01*
X106087000Y-42545000D01*
X106087000Y-43307000D01*
X106067000Y-43307000D01*
X106067000Y-44202250D01*
X106225750Y-44361000D01*
X106986000Y-44364072D01*
X107110482Y-44351812D01*
X107230180Y-44315502D01*
X107340494Y-44256537D01*
X107437185Y-44177185D01*
X107516537Y-44080494D01*
X107575502Y-43970180D01*
X107611812Y-43850482D01*
X107624072Y-43726000D01*
X107621000Y-43465750D01*
X107462252Y-43307002D01*
X107621000Y-43307002D01*
X107621000Y-43304594D01*
X107622286Y-43307000D01*
X107711069Y-43473101D01*
X107890393Y-43691608D01*
X107945155Y-43736550D01*
X111655450Y-47446846D01*
X111700392Y-47501608D01*
X111918899Y-47680932D01*
X112106663Y-47781294D01*
X112168192Y-47814182D01*
X112438691Y-47896237D01*
X112720000Y-47923943D01*
X112790495Y-47917000D01*
X114175628Y-47917000D01*
X114114866Y-47966866D01*
X113934207Y-48187000D01*
X113579015Y-48187000D01*
X113537999Y-48182960D01*
X113496983Y-48187000D01*
X113496981Y-48187000D01*
X113374311Y-48199082D01*
X113216913Y-48246828D01*
X113071854Y-48324364D01*
X112944709Y-48428709D01*
X112918559Y-48460573D01*
X110344564Y-51034569D01*
X110312700Y-51060719D01*
X110286552Y-51092581D01*
X110208354Y-51187865D01*
X110145091Y-51306222D01*
X108499456Y-49660589D01*
X108473301Y-49628719D01*
X108346156Y-49524374D01*
X108201097Y-49446838D01*
X108043699Y-49399092D01*
X107921029Y-49387010D01*
X107921028Y-49387010D01*
X107880010Y-49382970D01*
X107838992Y-49387010D01*
X105285000Y-49387010D01*
X105285000Y-48641000D01*
X105305000Y-48641000D01*
X105305000Y-47745750D01*
X106067000Y-47745750D01*
X106067000Y-48641000D01*
X107462250Y-48641000D01*
X107621000Y-48482250D01*
X107624072Y-48222000D01*
X107611812Y-48097518D01*
X107575502Y-47977820D01*
X107516537Y-47867506D01*
X107437185Y-47770815D01*
X107340494Y-47691463D01*
X107230180Y-47632498D01*
X107110482Y-47596188D01*
X106986000Y-47583928D01*
X106225750Y-47587000D01*
X106067000Y-47745750D01*
X105305000Y-47745750D01*
X105146250Y-47587000D01*
X104386000Y-47583928D01*
X104261518Y-47596188D01*
X104141820Y-47632498D01*
X104031506Y-47691463D01*
X103934815Y-47770815D01*
X103855463Y-47867506D01*
X103826969Y-47920813D01*
X103763962Y-47844038D01*
X103629386Y-47733595D01*
X103475850Y-47651528D01*
X103309254Y-47600992D01*
X103136000Y-47583928D01*
X101209010Y-47583928D01*
X101209010Y-45832385D01*
X102279833Y-44761563D01*
X102279838Y-44761557D01*
X102677323Y-44364072D01*
X103136000Y-44364072D01*
X103309254Y-44347008D01*
X103475850Y-44296472D01*
X103629386Y-44214405D01*
X103763962Y-44103962D01*
X103826969Y-44027187D01*
X103855463Y-44080494D01*
X103934815Y-44177185D01*
X104031506Y-44256537D01*
X104141820Y-44315502D01*
X104261518Y-44351812D01*
X104386000Y-44364072D01*
X105146250Y-44361000D01*
X105305000Y-44202250D01*
X105305000Y-43307000D01*
X105285000Y-43307000D01*
X105285000Y-42545000D01*
X105305000Y-42545000D01*
X105305000Y-42525000D01*
X106067000Y-42525000D01*
X106067000Y-42545000D01*
X106067000Y-42545000D01*
G37*
X106067000Y-42545000D02*
X106087000Y-42545000D01*
X106087000Y-43307000D01*
X106067000Y-43307000D01*
X106067000Y-44202250D01*
X106225750Y-44361000D01*
X106986000Y-44364072D01*
X107110482Y-44351812D01*
X107230180Y-44315502D01*
X107340494Y-44256537D01*
X107437185Y-44177185D01*
X107516537Y-44080494D01*
X107575502Y-43970180D01*
X107611812Y-43850482D01*
X107624072Y-43726000D01*
X107621000Y-43465750D01*
X107462252Y-43307002D01*
X107621000Y-43307002D01*
X107621000Y-43304594D01*
X107622286Y-43307000D01*
X107711069Y-43473101D01*
X107890393Y-43691608D01*
X107945155Y-43736550D01*
X111655450Y-47446846D01*
X111700392Y-47501608D01*
X111918899Y-47680932D01*
X112106663Y-47781294D01*
X112168192Y-47814182D01*
X112438691Y-47896237D01*
X112720000Y-47923943D01*
X112790495Y-47917000D01*
X114175628Y-47917000D01*
X114114866Y-47966866D01*
X113934207Y-48187000D01*
X113579015Y-48187000D01*
X113537999Y-48182960D01*
X113496983Y-48187000D01*
X113496981Y-48187000D01*
X113374311Y-48199082D01*
X113216913Y-48246828D01*
X113071854Y-48324364D01*
X112944709Y-48428709D01*
X112918559Y-48460573D01*
X110344564Y-51034569D01*
X110312700Y-51060719D01*
X110286552Y-51092581D01*
X110208354Y-51187865D01*
X110145091Y-51306222D01*
X108499456Y-49660589D01*
X108473301Y-49628719D01*
X108346156Y-49524374D01*
X108201097Y-49446838D01*
X108043699Y-49399092D01*
X107921029Y-49387010D01*
X107921028Y-49387010D01*
X107880010Y-49382970D01*
X107838992Y-49387010D01*
X105285000Y-49387010D01*
X105285000Y-48641000D01*
X105305000Y-48641000D01*
X105305000Y-47745750D01*
X106067000Y-47745750D01*
X106067000Y-48641000D01*
X107462250Y-48641000D01*
X107621000Y-48482250D01*
X107624072Y-48222000D01*
X107611812Y-48097518D01*
X107575502Y-47977820D01*
X107516537Y-47867506D01*
X107437185Y-47770815D01*
X107340494Y-47691463D01*
X107230180Y-47632498D01*
X107110482Y-47596188D01*
X106986000Y-47583928D01*
X106225750Y-47587000D01*
X106067000Y-47745750D01*
X105305000Y-47745750D01*
X105146250Y-47587000D01*
X104386000Y-47583928D01*
X104261518Y-47596188D01*
X104141820Y-47632498D01*
X104031506Y-47691463D01*
X103934815Y-47770815D01*
X103855463Y-47867506D01*
X103826969Y-47920813D01*
X103763962Y-47844038D01*
X103629386Y-47733595D01*
X103475850Y-47651528D01*
X103309254Y-47600992D01*
X103136000Y-47583928D01*
X101209010Y-47583928D01*
X101209010Y-45832385D01*
X102279833Y-44761563D01*
X102279838Y-44761557D01*
X102677323Y-44364072D01*
X103136000Y-44364072D01*
X103309254Y-44347008D01*
X103475850Y-44296472D01*
X103629386Y-44214405D01*
X103763962Y-44103962D01*
X103826969Y-44027187D01*
X103855463Y-44080494D01*
X103934815Y-44177185D01*
X104031506Y-44256537D01*
X104141820Y-44315502D01*
X104261518Y-44351812D01*
X104386000Y-44364072D01*
X105146250Y-44361000D01*
X105305000Y-44202250D01*
X105305000Y-43307000D01*
X105285000Y-43307000D01*
X105285000Y-42545000D01*
X105305000Y-42545000D01*
X105305000Y-42525000D01*
X106067000Y-42525000D01*
X106067000Y-42545000D01*
M02*
