G04 #@! TF.GenerationSoftware,KiCad,Pcbnew,5.1.4-e60b266~84~ubuntu18.04.1*
G04 #@! TF.CreationDate,2019-09-27T15:55:01+08:00*
G04 #@! TF.ProjectId,head,68656164-2e6b-4696-9361-645f70636258,rev?*
G04 #@! TF.SameCoordinates,Original*
G04 #@! TF.FileFunction,Legend,Top*
G04 #@! TF.FilePolarity,Positive*
%FSLAX46Y46*%
G04 Gerber Fmt 4.6, Leading zero omitted, Abs format (unit mm)*
G04 Created by KiCad (PCBNEW 5.1.4-e60b266~84~ubuntu18.04.1) date 2019-09-27 15:55:01*
%MOMM*%
%LPD*%
G04 APERTURE LIST*
%ADD10C,0.200000*%
%ADD11C,0.300000*%
%ADD12C,0.010000*%
%ADD13C,0.120000*%
%ADD14C,0.127000*%
%ADD15C,0.381000*%
%ADD16C,0.150000*%
G04 APERTURE END LIST*
D10*
X102206238Y-74040380D02*
X102539571Y-75040380D01*
X102872904Y-74040380D01*
X103396714Y-74040380D02*
X103587190Y-74040380D01*
X103682428Y-74088000D01*
X103777666Y-74183238D01*
X103825285Y-74373714D01*
X103825285Y-74707047D01*
X103777666Y-74897523D01*
X103682428Y-74992761D01*
X103587190Y-75040380D01*
X103396714Y-75040380D01*
X103301476Y-74992761D01*
X103206238Y-74897523D01*
X103158619Y-74707047D01*
X103158619Y-74373714D01*
X103206238Y-74183238D01*
X103301476Y-74088000D01*
X103396714Y-74040380D01*
X104825285Y-75040380D02*
X104491952Y-74564190D01*
X104253857Y-75040380D02*
X104253857Y-74040380D01*
X104634809Y-74040380D01*
X104730047Y-74088000D01*
X104777666Y-74135619D01*
X104825285Y-74230857D01*
X104825285Y-74373714D01*
X104777666Y-74468952D01*
X104730047Y-74516571D01*
X104634809Y-74564190D01*
X104253857Y-74564190D01*
X105444333Y-74040380D02*
X105634809Y-74040380D01*
X105730047Y-74088000D01*
X105825285Y-74183238D01*
X105872904Y-74373714D01*
X105872904Y-74707047D01*
X105825285Y-74897523D01*
X105730047Y-74992761D01*
X105634809Y-75040380D01*
X105444333Y-75040380D01*
X105349095Y-74992761D01*
X105253857Y-74897523D01*
X105206238Y-74707047D01*
X105206238Y-74373714D01*
X105253857Y-74183238D01*
X105349095Y-74088000D01*
X105444333Y-74040380D01*
X106301476Y-75040380D02*
X106301476Y-74040380D01*
X106872904Y-75040380D01*
X106872904Y-74040380D01*
X102349095Y-76740380D02*
X102349095Y-75740380D01*
X102349095Y-76216571D02*
X102920523Y-76216571D01*
X102920523Y-76740380D02*
X102920523Y-75740380D01*
X103587190Y-75740380D02*
X103777666Y-75740380D01*
X103872904Y-75788000D01*
X103968142Y-75883238D01*
X104015761Y-76073714D01*
X104015761Y-76407047D01*
X103968142Y-76597523D01*
X103872904Y-76692761D01*
X103777666Y-76740380D01*
X103587190Y-76740380D01*
X103491952Y-76692761D01*
X103396714Y-76597523D01*
X103349095Y-76407047D01*
X103349095Y-76073714D01*
X103396714Y-75883238D01*
X103491952Y-75788000D01*
X103587190Y-75740380D01*
X104301476Y-75740380D02*
X104872904Y-75740380D01*
X104587190Y-76740380D02*
X104587190Y-75740380D01*
X105206238Y-76216571D02*
X105539571Y-76216571D01*
X105682428Y-76740380D02*
X105206238Y-76740380D01*
X105206238Y-75740380D01*
X105682428Y-75740380D01*
X106111000Y-76740380D02*
X106111000Y-75740380D01*
X106682428Y-76740380D01*
X106682428Y-75740380D01*
X107158619Y-76740380D02*
X107158619Y-75740380D01*
X107396714Y-75740380D01*
X107539571Y-75788000D01*
X107634809Y-75883238D01*
X107682428Y-75978476D01*
X107730047Y-76168952D01*
X107730047Y-76311809D01*
X107682428Y-76502285D01*
X107634809Y-76597523D01*
X107539571Y-76692761D01*
X107396714Y-76740380D01*
X107158619Y-76740380D01*
X108920523Y-76740380D02*
X108920523Y-75740380D01*
X109301476Y-75740380D01*
X109396714Y-75788000D01*
X109444333Y-75835619D01*
X109491952Y-75930857D01*
X109491952Y-76073714D01*
X109444333Y-76168952D01*
X109396714Y-76216571D01*
X109301476Y-76264190D01*
X108920523Y-76264190D01*
X110491952Y-76645142D02*
X110444333Y-76692761D01*
X110301476Y-76740380D01*
X110206238Y-76740380D01*
X110063380Y-76692761D01*
X109968142Y-76597523D01*
X109920523Y-76502285D01*
X109872904Y-76311809D01*
X109872904Y-76168952D01*
X109920523Y-75978476D01*
X109968142Y-75883238D01*
X110063380Y-75788000D01*
X110206238Y-75740380D01*
X110301476Y-75740380D01*
X110444333Y-75788000D01*
X110491952Y-75835619D01*
X111253857Y-76216571D02*
X111396714Y-76264190D01*
X111444333Y-76311809D01*
X111491952Y-76407047D01*
X111491952Y-76549904D01*
X111444333Y-76645142D01*
X111396714Y-76692761D01*
X111301476Y-76740380D01*
X110920523Y-76740380D01*
X110920523Y-75740380D01*
X111253857Y-75740380D01*
X111349095Y-75788000D01*
X111396714Y-75835619D01*
X111444333Y-75930857D01*
X111444333Y-76026095D01*
X111396714Y-76121333D01*
X111349095Y-76168952D01*
X111253857Y-76216571D01*
X110920523Y-76216571D01*
X107027000Y-46523380D02*
X107027000Y-45523380D01*
X107407952Y-45523380D01*
X107503190Y-45571000D01*
X107550809Y-45618619D01*
X107598428Y-45713857D01*
X107598428Y-45856714D01*
X107550809Y-45951952D01*
X107503190Y-45999571D01*
X107407952Y-46047190D01*
X107027000Y-46047190D01*
X108598428Y-46523380D02*
X108265095Y-46047190D01*
X108027000Y-46523380D02*
X108027000Y-45523380D01*
X108407952Y-45523380D01*
X108503190Y-45571000D01*
X108550809Y-45618619D01*
X108598428Y-45713857D01*
X108598428Y-45856714D01*
X108550809Y-45951952D01*
X108503190Y-45999571D01*
X108407952Y-46047190D01*
X108027000Y-46047190D01*
X109217476Y-45523380D02*
X109407952Y-45523380D01*
X109503190Y-45571000D01*
X109598428Y-45666238D01*
X109646047Y-45856714D01*
X109646047Y-46190047D01*
X109598428Y-46380523D01*
X109503190Y-46475761D01*
X109407952Y-46523380D01*
X109217476Y-46523380D01*
X109122238Y-46475761D01*
X109027000Y-46380523D01*
X108979380Y-46190047D01*
X108979380Y-45856714D01*
X109027000Y-45666238D01*
X109122238Y-45571000D01*
X109217476Y-45523380D01*
X109836523Y-46618619D02*
X110598428Y-46618619D01*
X110788904Y-46475761D02*
X110931761Y-46523380D01*
X111169857Y-46523380D01*
X111265095Y-46475761D01*
X111312714Y-46428142D01*
X111360333Y-46332904D01*
X111360333Y-46237666D01*
X111312714Y-46142428D01*
X111265095Y-46094809D01*
X111169857Y-46047190D01*
X110979380Y-45999571D01*
X110884142Y-45951952D01*
X110836523Y-45904333D01*
X110788904Y-45809095D01*
X110788904Y-45713857D01*
X110836523Y-45618619D01*
X110884142Y-45571000D01*
X110979380Y-45523380D01*
X111217476Y-45523380D01*
X111360333Y-45571000D01*
X111788904Y-46523380D02*
X111788904Y-45523380D01*
X112788904Y-45571000D02*
X112693666Y-45523380D01*
X112550809Y-45523380D01*
X112407952Y-45571000D01*
X112312714Y-45666238D01*
X112265095Y-45761476D01*
X112217476Y-45951952D01*
X112217476Y-46094809D01*
X112265095Y-46285285D01*
X112312714Y-46380523D01*
X112407952Y-46475761D01*
X112550809Y-46523380D01*
X112646047Y-46523380D01*
X112788904Y-46475761D01*
X112836523Y-46428142D01*
X112836523Y-46094809D01*
X112646047Y-46094809D01*
X110741285Y-47271000D02*
X110646047Y-47223380D01*
X110503190Y-47223380D01*
X110360333Y-47271000D01*
X110265095Y-47366238D01*
X110217476Y-47461476D01*
X110169857Y-47651952D01*
X110169857Y-47794809D01*
X110217476Y-47985285D01*
X110265095Y-48080523D01*
X110360333Y-48175761D01*
X110503190Y-48223380D01*
X110598428Y-48223380D01*
X110741285Y-48175761D01*
X110788904Y-48128142D01*
X110788904Y-47794809D01*
X110598428Y-47794809D01*
X111217476Y-48223380D02*
X111217476Y-47223380D01*
X111788904Y-48223380D01*
X111788904Y-47223380D01*
X112265095Y-48223380D02*
X112265095Y-47223380D01*
X112503190Y-47223380D01*
X112646047Y-47271000D01*
X112741285Y-47366238D01*
X112788904Y-47461476D01*
X112836523Y-47651952D01*
X112836523Y-47794809D01*
X112788904Y-47985285D01*
X112741285Y-48080523D01*
X112646047Y-48175761D01*
X112503190Y-48223380D01*
X112265095Y-48223380D01*
X108217476Y-49923380D02*
X108217476Y-48923380D01*
X108598428Y-48923380D01*
X108693666Y-48971000D01*
X108741285Y-49018619D01*
X108788904Y-49113857D01*
X108788904Y-49256714D01*
X108741285Y-49351952D01*
X108693666Y-49399571D01*
X108598428Y-49447190D01*
X108217476Y-49447190D01*
X109788904Y-49923380D02*
X109455571Y-49447190D01*
X109217476Y-49923380D02*
X109217476Y-48923380D01*
X109598428Y-48923380D01*
X109693666Y-48971000D01*
X109741285Y-49018619D01*
X109788904Y-49113857D01*
X109788904Y-49256714D01*
X109741285Y-49351952D01*
X109693666Y-49399571D01*
X109598428Y-49447190D01*
X109217476Y-49447190D01*
X110407952Y-48923380D02*
X110598428Y-48923380D01*
X110693666Y-48971000D01*
X110788904Y-49066238D01*
X110836523Y-49256714D01*
X110836523Y-49590047D01*
X110788904Y-49780523D01*
X110693666Y-49875761D01*
X110598428Y-49923380D01*
X110407952Y-49923380D01*
X110312714Y-49875761D01*
X110217476Y-49780523D01*
X110169857Y-49590047D01*
X110169857Y-49256714D01*
X110217476Y-49066238D01*
X110312714Y-48971000D01*
X110407952Y-48923380D01*
X111027000Y-50018619D02*
X111788904Y-50018619D01*
X112027000Y-49542428D02*
X112788904Y-49542428D01*
X112407952Y-49923380D02*
X112407952Y-49161476D01*
X108598428Y-51623380D02*
X108598428Y-50623380D01*
X108598428Y-51099571D02*
X109169857Y-51099571D01*
X109169857Y-51623380D02*
X109169857Y-50623380D01*
X109836523Y-50623380D02*
X110027000Y-50623380D01*
X110122238Y-50671000D01*
X110217476Y-50766238D01*
X110265095Y-50956714D01*
X110265095Y-51290047D01*
X110217476Y-51480523D01*
X110122238Y-51575761D01*
X110027000Y-51623380D01*
X109836523Y-51623380D01*
X109741285Y-51575761D01*
X109646047Y-51480523D01*
X109598428Y-51290047D01*
X109598428Y-50956714D01*
X109646047Y-50766238D01*
X109741285Y-50671000D01*
X109836523Y-50623380D01*
X110550809Y-50623380D02*
X111122238Y-50623380D01*
X110836523Y-51623380D02*
X110836523Y-50623380D01*
X111217476Y-51718619D02*
X111979380Y-51718619D01*
X112217476Y-51623380D02*
X112217476Y-50623380D01*
X112788904Y-51623380D01*
X112788904Y-50623380D01*
X107550809Y-52323380D02*
X108122238Y-52323380D01*
X107836523Y-53323380D02*
X107836523Y-52323380D01*
X108455571Y-52799571D02*
X108788904Y-52799571D01*
X108931761Y-53323380D02*
X108455571Y-53323380D01*
X108455571Y-52323380D01*
X108931761Y-52323380D01*
X109360333Y-53323380D02*
X109360333Y-52323380D01*
X109693666Y-53037666D01*
X110027000Y-52323380D01*
X110027000Y-53323380D01*
X110503190Y-53323380D02*
X110503190Y-52323380D01*
X110884142Y-52323380D01*
X110979380Y-52371000D01*
X111027000Y-52418619D01*
X111074619Y-52513857D01*
X111074619Y-52656714D01*
X111027000Y-52751952D01*
X110979380Y-52799571D01*
X110884142Y-52847190D01*
X110503190Y-52847190D01*
X111265095Y-53418619D02*
X112027000Y-53418619D01*
X112265095Y-53323380D02*
X112265095Y-52323380D01*
X112646047Y-52323380D01*
X112741285Y-52371000D01*
X112788904Y-52418619D01*
X112836523Y-52513857D01*
X112836523Y-52656714D01*
X112788904Y-52751952D01*
X112741285Y-52799571D01*
X112646047Y-52847190D01*
X112265095Y-52847190D01*
X107503190Y-54023380D02*
X108074619Y-54023380D01*
X107788904Y-55023380D02*
X107788904Y-54023380D01*
X108407952Y-54499571D02*
X108741285Y-54499571D01*
X108884142Y-55023380D02*
X108407952Y-55023380D01*
X108407952Y-54023380D01*
X108884142Y-54023380D01*
X109312714Y-55023380D02*
X109312714Y-54023380D01*
X109646047Y-54737666D01*
X109979380Y-54023380D01*
X109979380Y-55023380D01*
X110455571Y-55023380D02*
X110455571Y-54023380D01*
X110836523Y-54023380D01*
X110931761Y-54071000D01*
X110979380Y-54118619D01*
X111027000Y-54213857D01*
X111027000Y-54356714D01*
X110979380Y-54451952D01*
X110931761Y-54499571D01*
X110836523Y-54547190D01*
X110455571Y-54547190D01*
X111217476Y-55118619D02*
X111979380Y-55118619D01*
X112217476Y-55023380D02*
X112217476Y-54023380D01*
X112788904Y-55023380D01*
X112788904Y-54023380D01*
X110741285Y-55771000D02*
X110646047Y-55723380D01*
X110503190Y-55723380D01*
X110360333Y-55771000D01*
X110265095Y-55866238D01*
X110217476Y-55961476D01*
X110169857Y-56151952D01*
X110169857Y-56294809D01*
X110217476Y-56485285D01*
X110265095Y-56580523D01*
X110360333Y-56675761D01*
X110503190Y-56723380D01*
X110598428Y-56723380D01*
X110741285Y-56675761D01*
X110788904Y-56628142D01*
X110788904Y-56294809D01*
X110598428Y-56294809D01*
X111217476Y-56723380D02*
X111217476Y-55723380D01*
X111788904Y-56723380D01*
X111788904Y-55723380D01*
X112265095Y-56723380D02*
X112265095Y-55723380D01*
X112503190Y-55723380D01*
X112646047Y-55771000D01*
X112741285Y-55866238D01*
X112788904Y-55961476D01*
X112836523Y-56151952D01*
X112836523Y-56294809D01*
X112788904Y-56485285D01*
X112741285Y-56580523D01*
X112646047Y-56675761D01*
X112503190Y-56723380D01*
X112265095Y-56723380D01*
X108169857Y-58328142D02*
X108122238Y-58375761D01*
X107979380Y-58423380D01*
X107884142Y-58423380D01*
X107741285Y-58375761D01*
X107646047Y-58280523D01*
X107598428Y-58185285D01*
X107550809Y-57994809D01*
X107550809Y-57851952D01*
X107598428Y-57661476D01*
X107646047Y-57566238D01*
X107741285Y-57471000D01*
X107884142Y-57423380D01*
X107979380Y-57423380D01*
X108122238Y-57471000D01*
X108169857Y-57518619D01*
X108788904Y-57423380D02*
X108979380Y-57423380D01*
X109074619Y-57471000D01*
X109169857Y-57566238D01*
X109217476Y-57756714D01*
X109217476Y-58090047D01*
X109169857Y-58280523D01*
X109074619Y-58375761D01*
X108979380Y-58423380D01*
X108788904Y-58423380D01*
X108693666Y-58375761D01*
X108598428Y-58280523D01*
X108550809Y-58090047D01*
X108550809Y-57756714D01*
X108598428Y-57566238D01*
X108693666Y-57471000D01*
X108788904Y-57423380D01*
X109836523Y-57423380D02*
X110027000Y-57423380D01*
X110122238Y-57471000D01*
X110217476Y-57566238D01*
X110265095Y-57756714D01*
X110265095Y-58090047D01*
X110217476Y-58280523D01*
X110122238Y-58375761D01*
X110027000Y-58423380D01*
X109836523Y-58423380D01*
X109741285Y-58375761D01*
X109646047Y-58280523D01*
X109598428Y-58090047D01*
X109598428Y-57756714D01*
X109646047Y-57566238D01*
X109741285Y-57471000D01*
X109836523Y-57423380D01*
X111169857Y-58423380D02*
X110693666Y-58423380D01*
X110693666Y-57423380D01*
X111265095Y-58518619D02*
X112027000Y-58518619D01*
X112265095Y-58423380D02*
X112265095Y-57423380D01*
X112646047Y-57423380D01*
X112741285Y-57471000D01*
X112788904Y-57518619D01*
X112836523Y-57613857D01*
X112836523Y-57756714D01*
X112788904Y-57851952D01*
X112741285Y-57899571D01*
X112646047Y-57947190D01*
X112265095Y-57947190D01*
X110741285Y-59171000D02*
X110646047Y-59123380D01*
X110503190Y-59123380D01*
X110360333Y-59171000D01*
X110265095Y-59266238D01*
X110217476Y-59361476D01*
X110169857Y-59551952D01*
X110169857Y-59694809D01*
X110217476Y-59885285D01*
X110265095Y-59980523D01*
X110360333Y-60075761D01*
X110503190Y-60123380D01*
X110598428Y-60123380D01*
X110741285Y-60075761D01*
X110788904Y-60028142D01*
X110788904Y-59694809D01*
X110598428Y-59694809D01*
X111217476Y-60123380D02*
X111217476Y-59123380D01*
X111788904Y-60123380D01*
X111788904Y-59123380D01*
X112265095Y-60123380D02*
X112265095Y-59123380D01*
X112503190Y-59123380D01*
X112646047Y-59171000D01*
X112741285Y-59266238D01*
X112788904Y-59361476D01*
X112836523Y-59551952D01*
X112836523Y-59694809D01*
X112788904Y-59885285D01*
X112741285Y-59980523D01*
X112646047Y-60075761D01*
X112503190Y-60123380D01*
X112265095Y-60123380D01*
X109074619Y-61299571D02*
X108741285Y-61299571D01*
X108741285Y-61823380D02*
X108741285Y-60823380D01*
X109217476Y-60823380D01*
X109550809Y-61537666D02*
X110027000Y-61537666D01*
X109455571Y-61823380D02*
X109788904Y-60823380D01*
X110122238Y-61823380D01*
X110455571Y-61823380D02*
X110455571Y-60823380D01*
X111027000Y-61823380D01*
X111027000Y-60823380D01*
X111265095Y-61918619D02*
X112027000Y-61918619D01*
X112265095Y-61823380D02*
X112265095Y-60823380D01*
X112646047Y-60823380D01*
X112741285Y-60871000D01*
X112788904Y-60918619D01*
X112836523Y-61013857D01*
X112836523Y-61156714D01*
X112788904Y-61251952D01*
X112741285Y-61299571D01*
X112646047Y-61347190D01*
X112265095Y-61347190D01*
X96027142Y-34493476D02*
X96074761Y-34541095D01*
X96122380Y-34683952D01*
X96122380Y-34779190D01*
X96074761Y-34922047D01*
X95979523Y-35017285D01*
X95884285Y-35064904D01*
X95693809Y-35112523D01*
X95550952Y-35112523D01*
X95360476Y-35064904D01*
X95265238Y-35017285D01*
X95170000Y-34922047D01*
X95122380Y-34779190D01*
X95122380Y-34683952D01*
X95170000Y-34541095D01*
X95217619Y-34493476D01*
X95122380Y-33874428D02*
X95122380Y-33683952D01*
X95170000Y-33588714D01*
X95265238Y-33493476D01*
X95455714Y-33445857D01*
X95789047Y-33445857D01*
X95979523Y-33493476D01*
X96074761Y-33588714D01*
X96122380Y-33683952D01*
X96122380Y-33874428D01*
X96074761Y-33969666D01*
X95979523Y-34064904D01*
X95789047Y-34112523D01*
X95455714Y-34112523D01*
X95265238Y-34064904D01*
X95170000Y-33969666D01*
X95122380Y-33874428D01*
X95122380Y-32826809D02*
X95122380Y-32636333D01*
X95170000Y-32541095D01*
X95265238Y-32445857D01*
X95455714Y-32398238D01*
X95789047Y-32398238D01*
X95979523Y-32445857D01*
X96074761Y-32541095D01*
X96122380Y-32636333D01*
X96122380Y-32826809D01*
X96074761Y-32922047D01*
X95979523Y-33017285D01*
X95789047Y-33064904D01*
X95455714Y-33064904D01*
X95265238Y-33017285D01*
X95170000Y-32922047D01*
X95122380Y-32826809D01*
X96122380Y-31493476D02*
X96122380Y-31969666D01*
X95122380Y-31969666D01*
X97298571Y-34731571D02*
X97298571Y-35064904D01*
X97822380Y-35064904D02*
X96822380Y-35064904D01*
X96822380Y-34588714D01*
X97536666Y-34255380D02*
X97536666Y-33779190D01*
X97822380Y-34350619D02*
X96822380Y-34017285D01*
X97822380Y-33683952D01*
X97822380Y-33350619D02*
X96822380Y-33350619D01*
X97822380Y-32779190D01*
X96822380Y-32779190D01*
D11*
X100647428Y-56495142D02*
X99504571Y-56495142D01*
X100076000Y-57066571D02*
X100076000Y-55923714D01*
X100393428Y-51161142D02*
X99250571Y-51161142D01*
X99822000Y-51732571D02*
X99822000Y-50589714D01*
X100393428Y-42271142D02*
X99250571Y-42271142D01*
X99822000Y-42842571D02*
X99822000Y-41699714D01*
X111442428Y-39350142D02*
X110299571Y-39350142D01*
X110871000Y-39921571D02*
X110871000Y-38778714D01*
D12*
G36*
X97752123Y-72682838D02*
G01*
X97922306Y-72682891D01*
X98104199Y-72682980D01*
X98298085Y-72683104D01*
X98504250Y-72683262D01*
X98609150Y-72683352D01*
X100803075Y-72685275D01*
X100860225Y-72702922D01*
X100902207Y-72717535D01*
X100947570Y-72736090D01*
X100992410Y-72756786D01*
X101032825Y-72777819D01*
X101064912Y-72797389D01*
X101065166Y-72797563D01*
X101093398Y-72819358D01*
X101126078Y-72848373D01*
X101160175Y-72881563D01*
X101192657Y-72915885D01*
X101220494Y-72948295D01*
X101236736Y-72969859D01*
X101275744Y-73032542D01*
X101306012Y-73095740D01*
X101322537Y-73140334D01*
X101325495Y-73148898D01*
X101328270Y-73156599D01*
X101330870Y-73163843D01*
X101333300Y-73171034D01*
X101335565Y-73178578D01*
X101337672Y-73186880D01*
X101339625Y-73196344D01*
X101341432Y-73207376D01*
X101343097Y-73220381D01*
X101344626Y-73235764D01*
X101346025Y-73253930D01*
X101347300Y-73275284D01*
X101348457Y-73300231D01*
X101349501Y-73329175D01*
X101350437Y-73362523D01*
X101351273Y-73400679D01*
X101352013Y-73444049D01*
X101352663Y-73493036D01*
X101353228Y-73548047D01*
X101353716Y-73609486D01*
X101354131Y-73677759D01*
X101354479Y-73753270D01*
X101354766Y-73836424D01*
X101354997Y-73927627D01*
X101355179Y-74027284D01*
X101355317Y-74135799D01*
X101355416Y-74253577D01*
X101355484Y-74381025D01*
X101355524Y-74518546D01*
X101355543Y-74666546D01*
X101355548Y-74825430D01*
X101355542Y-74995602D01*
X101355533Y-75177469D01*
X101355526Y-75371434D01*
X101355525Y-75469750D01*
X101355525Y-77670025D01*
X101337728Y-77733301D01*
X101313359Y-77805690D01*
X101282348Y-77875003D01*
X101246745Y-77936703D01*
X101244111Y-77940654D01*
X101220003Y-77972761D01*
X101188960Y-78008755D01*
X101154178Y-78045333D01*
X101118851Y-78079191D01*
X101086175Y-78107025D01*
X101075247Y-78115243D01*
X101041027Y-78137130D01*
X100998594Y-78160253D01*
X100952032Y-78182672D01*
X100905423Y-78202449D01*
X100862854Y-78217645D01*
X100853875Y-78220342D01*
X100803075Y-78234930D01*
X98596450Y-78235924D01*
X98429474Y-78235984D01*
X98265607Y-78236012D01*
X98105315Y-78236009D01*
X97949062Y-78235976D01*
X97797313Y-78235914D01*
X97650534Y-78235823D01*
X97509189Y-78235706D01*
X97373744Y-78235562D01*
X97244663Y-78235393D01*
X97122411Y-78235200D01*
X97007454Y-78234983D01*
X96900257Y-78234743D01*
X96801284Y-78234482D01*
X96711001Y-78234200D01*
X96629872Y-78233898D01*
X96558363Y-78233577D01*
X96496939Y-78233239D01*
X96446064Y-78232883D01*
X96406205Y-78232512D01*
X96377825Y-78232125D01*
X96361390Y-78231724D01*
X96357393Y-78231467D01*
X96297496Y-78217380D01*
X96233670Y-78195343D01*
X96170097Y-78167174D01*
X96110960Y-78134695D01*
X96067870Y-78105487D01*
X96029997Y-78073620D01*
X95990391Y-78034813D01*
X95952248Y-77992583D01*
X95918764Y-77950448D01*
X95895210Y-77915443D01*
X95865204Y-77858436D01*
X95838542Y-77794436D01*
X95817454Y-77729100D01*
X95810227Y-77700093D01*
X95809235Y-77695113D01*
X95808304Y-77689086D01*
X95807433Y-77681612D01*
X95806619Y-77672289D01*
X95805861Y-77660717D01*
X95805157Y-77646494D01*
X95804504Y-77629219D01*
X95803902Y-77608490D01*
X95803347Y-77583907D01*
X95802838Y-77555069D01*
X95802373Y-77521573D01*
X95801950Y-77483020D01*
X95801566Y-77439007D01*
X95801221Y-77389133D01*
X95800912Y-77332998D01*
X95800637Y-77270200D01*
X95800395Y-77200338D01*
X95800182Y-77123010D01*
X95799998Y-77037816D01*
X95799840Y-76944354D01*
X95799706Y-76842224D01*
X95799595Y-76731023D01*
X95799504Y-76610350D01*
X95799432Y-76479805D01*
X95799376Y-76338987D01*
X95799334Y-76187493D01*
X95799305Y-76024923D01*
X95799287Y-75850876D01*
X95799277Y-75664950D01*
X95799275Y-75466744D01*
X95799275Y-74980800D01*
X96100753Y-74980800D01*
X96102414Y-76309537D01*
X96104075Y-77638275D01*
X96121190Y-77685143D01*
X96149990Y-77746463D01*
X96188588Y-77801316D01*
X96235580Y-77848557D01*
X96289559Y-77887039D01*
X96349123Y-77915616D01*
X96412865Y-77933141D01*
X96427925Y-77935482D01*
X96436517Y-77935788D01*
X96457043Y-77936074D01*
X96488738Y-77936338D01*
X96530836Y-77936578D01*
X96582572Y-77936793D01*
X96643180Y-77936980D01*
X96711894Y-77937139D01*
X96787948Y-77937267D01*
X96870578Y-77937364D01*
X96959017Y-77937426D01*
X97052500Y-77937453D01*
X97150261Y-77937442D01*
X97251534Y-77937392D01*
X97278825Y-77937372D01*
X98110675Y-77936725D01*
X98112303Y-77474762D01*
X98113932Y-77012800D01*
X97524575Y-77012800D01*
X97522129Y-77093762D01*
X97520831Y-77128572D01*
X97519052Y-77153715D01*
X97516278Y-77172223D01*
X97511997Y-77187129D01*
X97505694Y-77201465D01*
X97503010Y-77206729D01*
X97478954Y-77242238D01*
X97447395Y-77273328D01*
X97412106Y-77296527D01*
X97399102Y-77302323D01*
X97390259Y-77305425D01*
X97380525Y-77307951D01*
X97368557Y-77309957D01*
X97353017Y-77311504D01*
X97332562Y-77312650D01*
X97305851Y-77313454D01*
X97271545Y-77313974D01*
X97228301Y-77314270D01*
X97174778Y-77314400D01*
X97123250Y-77314425D01*
X97060946Y-77314401D01*
X97010013Y-77314286D01*
X96969121Y-77314014D01*
X96936940Y-77313519D01*
X96912140Y-77312735D01*
X96893392Y-77311597D01*
X96879366Y-77310037D01*
X96868732Y-77307991D01*
X96860161Y-77305393D01*
X96852322Y-77302176D01*
X96849422Y-77300852D01*
X96806511Y-77274519D01*
X96772945Y-77239639D01*
X96748925Y-77196479D01*
X96735378Y-77149409D01*
X96733446Y-77131523D01*
X96731986Y-77101878D01*
X96731012Y-77061404D01*
X96730543Y-77011034D01*
X96730592Y-76951699D01*
X96731039Y-76896266D01*
X96731761Y-76836535D01*
X96732541Y-76788088D01*
X96733456Y-76749506D01*
X96734534Y-76720700D01*
X96932750Y-76720700D01*
X96932750Y-77120750D01*
X97326450Y-77120750D01*
X97326450Y-76720700D01*
X96932750Y-76720700D01*
X96734534Y-76720700D01*
X96734584Y-76719371D01*
X96736003Y-76696267D01*
X96737793Y-76678776D01*
X96740031Y-76665481D01*
X96742795Y-76654963D01*
X96744657Y-76649614D01*
X96764639Y-76612549D01*
X96794099Y-76578772D01*
X96829816Y-76551731D01*
X96842488Y-76544844D01*
X96878775Y-76527025D01*
X97126425Y-76527025D01*
X97188989Y-76527037D01*
X97240188Y-76527122D01*
X97281352Y-76527352D01*
X97313816Y-76527799D01*
X97338913Y-76528533D01*
X97357975Y-76529627D01*
X97372337Y-76531153D01*
X97383331Y-76533182D01*
X97392290Y-76535786D01*
X97400547Y-76539037D01*
X97407540Y-76542149D01*
X97440976Y-76562640D01*
X97471943Y-76591331D01*
X97497076Y-76624540D01*
X97512538Y-76657088D01*
X97519508Y-76689167D01*
X97522902Y-76731701D01*
X97523300Y-76756354D01*
X97523300Y-76822300D01*
X98232621Y-76822300D01*
X98253614Y-76836587D01*
X98271437Y-76851098D01*
X98286775Y-76867338D01*
X98287891Y-76868800D01*
X98290261Y-76872175D01*
X98292334Y-76876038D01*
X98294133Y-76881222D01*
X98295681Y-76888559D01*
X98297001Y-76898881D01*
X98298115Y-76913022D01*
X98299047Y-76931813D01*
X98299820Y-76956089D01*
X98300456Y-76986680D01*
X98300978Y-77024421D01*
X98301410Y-77070143D01*
X98301775Y-77124679D01*
X98302095Y-77188862D01*
X98302393Y-77263524D01*
X98302693Y-77349499D01*
X98302904Y-77413519D01*
X98304634Y-77940313D01*
X98375929Y-77938519D01*
X98447225Y-77936725D01*
X98448831Y-76884212D01*
X98450437Y-75831700D01*
X98056700Y-75831700D01*
X98056700Y-75900418D01*
X98055505Y-75944873D01*
X98051248Y-75979768D01*
X98042915Y-76008077D01*
X98029497Y-76032772D01*
X98009982Y-76056827D01*
X97999957Y-76067220D01*
X97986298Y-76080724D01*
X97973877Y-76091919D01*
X97961395Y-76101011D01*
X97947554Y-76108208D01*
X97931055Y-76113716D01*
X97910598Y-76117741D01*
X97884884Y-76120491D01*
X97852614Y-76122171D01*
X97812489Y-76122990D01*
X97763210Y-76123153D01*
X97703478Y-76122867D01*
X97652575Y-76122494D01*
X97405825Y-76120625D01*
X97374075Y-76103729D01*
X97332676Y-76074924D01*
X97299986Y-76037011D01*
X97287447Y-76015850D01*
X97272475Y-75987275D01*
X97272475Y-75533250D01*
X97466150Y-75533250D01*
X97466150Y-75926950D01*
X97859850Y-75926950D01*
X97859850Y-75533250D01*
X97466150Y-75533250D01*
X97272475Y-75533250D01*
X97272475Y-75472925D01*
X97289370Y-75441175D01*
X97316371Y-75401539D01*
X97351070Y-75370973D01*
X97383600Y-75352722D01*
X97418525Y-75336524D01*
X97660281Y-75336462D01*
X97727571Y-75336479D01*
X97783479Y-75336716D01*
X97829323Y-75337392D01*
X97866419Y-75338727D01*
X97896086Y-75340939D01*
X97919641Y-75344249D01*
X97938403Y-75348877D01*
X97953687Y-75355041D01*
X97966813Y-75362962D01*
X97979098Y-75372859D01*
X97991860Y-75384952D01*
X98000020Y-75393079D01*
X98021461Y-75416538D01*
X98036877Y-75439265D01*
X98047188Y-75464062D01*
X98053309Y-75493729D01*
X98056158Y-75531067D01*
X98056700Y-75566131D01*
X98056700Y-75641200D01*
X98307728Y-75641200D01*
X98374244Y-75641242D01*
X98429295Y-75641457D01*
X98474115Y-75641977D01*
X98509939Y-75642932D01*
X98538000Y-75644453D01*
X98559535Y-75646673D01*
X98575777Y-75649723D01*
X98587961Y-75653734D01*
X98597322Y-75658837D01*
X98605093Y-75665163D01*
X98612510Y-75672845D01*
X98613303Y-75673719D01*
X98624057Y-75690033D01*
X98632846Y-75710659D01*
X98633905Y-75714225D01*
X98634878Y-75722525D01*
X98635771Y-75740164D01*
X98636586Y-75767391D01*
X98637325Y-75804455D01*
X98637989Y-75851609D01*
X98638580Y-75909101D01*
X98639099Y-75977182D01*
X98639548Y-76056102D01*
X98639929Y-76146113D01*
X98640242Y-76247462D01*
X98640490Y-76360402D01*
X98640674Y-76485183D01*
X98640796Y-76622054D01*
X98640856Y-76771266D01*
X98640864Y-76839957D01*
X98640900Y-77940290D01*
X98718687Y-77938507D01*
X98796475Y-77936725D01*
X98798075Y-76458762D01*
X98799676Y-74980800D01*
X96100753Y-74980800D01*
X95799275Y-74980800D01*
X95799275Y-74790216D01*
X96100648Y-74790216D01*
X97517280Y-74791845D01*
X98933911Y-74793475D01*
X98958855Y-74820216D01*
X98983800Y-74846958D01*
X98983800Y-76389195D01*
X98983817Y-76528288D01*
X98983870Y-76664046D01*
X98983956Y-76795921D01*
X98984074Y-76923366D01*
X98984222Y-77045833D01*
X98984399Y-77162774D01*
X98984602Y-77273642D01*
X98984831Y-77377889D01*
X98985084Y-77474967D01*
X98985359Y-77564330D01*
X98985655Y-77645429D01*
X98985971Y-77717717D01*
X98986303Y-77780647D01*
X98986652Y-77833669D01*
X98987016Y-77876238D01*
X98987392Y-77907806D01*
X98987780Y-77927824D01*
X98988177Y-77935745D01*
X98988218Y-77935852D01*
X98995943Y-77937424D01*
X99013721Y-77938448D01*
X99038915Y-77938837D01*
X99068886Y-77938504D01*
X99069181Y-77938497D01*
X99145725Y-77936725D01*
X99152075Y-76266675D01*
X99166280Y-76246759D01*
X99171774Y-76239099D01*
X99177159Y-76232473D01*
X99183347Y-76226806D01*
X99191250Y-76222025D01*
X99201780Y-76218052D01*
X99215846Y-76214815D01*
X99234361Y-76212237D01*
X99258236Y-76210243D01*
X99288382Y-76208759D01*
X99325711Y-76207709D01*
X99371135Y-76207019D01*
X99425563Y-76206613D01*
X99489909Y-76206416D01*
X99565083Y-76206353D01*
X99651996Y-76206349D01*
X99657028Y-76206350D01*
X100082350Y-76206350D01*
X100082350Y-76137514D01*
X100082463Y-76123800D01*
X100279200Y-76123800D01*
X100279200Y-76517500D01*
X100672900Y-76517500D01*
X100672900Y-76123800D01*
X100279200Y-76123800D01*
X100082463Y-76123800D01*
X100082611Y-76106085D01*
X100083842Y-76083653D01*
X100086708Y-76066518D01*
X100091877Y-76050981D01*
X100100016Y-76033342D01*
X100101768Y-76029818D01*
X100121341Y-75997069D01*
X100144772Y-75971884D01*
X100175525Y-75950991D01*
X100196650Y-75940222D01*
X100231575Y-75923775D01*
X100472875Y-75923775D01*
X100535226Y-75923815D01*
X100586229Y-75923976D01*
X100627236Y-75924319D01*
X100659599Y-75924902D01*
X100684671Y-75925787D01*
X100703802Y-75927032D01*
X100718346Y-75928698D01*
X100729653Y-75930846D01*
X100739076Y-75933534D01*
X100745552Y-75935876D01*
X100781196Y-75955312D01*
X100814583Y-75983925D01*
X100841971Y-76018282D01*
X100849680Y-76031470D01*
X100866575Y-76063475D01*
X100866575Y-76317475D01*
X100866553Y-76381062D01*
X100866448Y-76433248D01*
X100866196Y-76475333D01*
X100865735Y-76508617D01*
X100865002Y-76534397D01*
X100863935Y-76553974D01*
X100862472Y-76568647D01*
X100860548Y-76579716D01*
X100858103Y-76588479D01*
X100855074Y-76596236D01*
X100852927Y-76600997D01*
X100831877Y-76634730D01*
X100802546Y-76666084D01*
X100769213Y-76690782D01*
X100756397Y-76697527D01*
X100748568Y-76700961D01*
X100740520Y-76703765D01*
X100730943Y-76706003D01*
X100718528Y-76707738D01*
X100701965Y-76709035D01*
X100679944Y-76709957D01*
X100651158Y-76710567D01*
X100614295Y-76710931D01*
X100568047Y-76711110D01*
X100511104Y-76711170D01*
X100476050Y-76711175D01*
X100225225Y-76711175D01*
X100188938Y-76693355D01*
X100163279Y-76677795D01*
X100138444Y-76657977D01*
X100127502Y-76646966D01*
X100110289Y-76625045D01*
X100097904Y-76602650D01*
X100089640Y-76577134D01*
X100084788Y-76545847D01*
X100082638Y-76506141D01*
X100082350Y-76478268D01*
X100082350Y-76396850D01*
X99339400Y-76396850D01*
X99339400Y-77940271D01*
X100042662Y-77938428D01*
X100152589Y-77938132D01*
X100250546Y-77937841D01*
X100337264Y-77937543D01*
X100413473Y-77937225D01*
X100479904Y-77936873D01*
X100537286Y-77936473D01*
X100586351Y-77936013D01*
X100627829Y-77935479D01*
X100662449Y-77934858D01*
X100690943Y-77934136D01*
X100714041Y-77933300D01*
X100732473Y-77932337D01*
X100746970Y-77931233D01*
X100758262Y-77929975D01*
X100767079Y-77928549D01*
X100774151Y-77926943D01*
X100780210Y-77925142D01*
X100780850Y-77924931D01*
X100845627Y-77897604D01*
X100903446Y-77861618D01*
X100952954Y-77818080D01*
X100992801Y-77768095D01*
X101011028Y-77736434D01*
X101014912Y-77729099D01*
X101018554Y-77722824D01*
X101021965Y-77717205D01*
X101025150Y-77711839D01*
X101028118Y-77706319D01*
X101030877Y-77700242D01*
X101033433Y-77693203D01*
X101035795Y-77684797D01*
X101037970Y-77674621D01*
X101039966Y-77662268D01*
X101041790Y-77647336D01*
X101043450Y-77629418D01*
X101044954Y-77608111D01*
X101046309Y-77583010D01*
X101047523Y-77553711D01*
X101048603Y-77519808D01*
X101049558Y-77480898D01*
X101050394Y-77436575D01*
X101051120Y-77386436D01*
X101051742Y-77330075D01*
X101052269Y-77267088D01*
X101052709Y-77197071D01*
X101053068Y-77119618D01*
X101053355Y-77034326D01*
X101053577Y-76940790D01*
X101053741Y-76838604D01*
X101053856Y-76727366D01*
X101053928Y-76606669D01*
X101053967Y-76476110D01*
X101053978Y-76335284D01*
X101053970Y-76183786D01*
X101053951Y-76021212D01*
X101053928Y-75847157D01*
X101053908Y-75661216D01*
X101053900Y-75462986D01*
X101053900Y-75460225D01*
X101053908Y-75261833D01*
X101053927Y-75075736D01*
X101053949Y-74901531D01*
X101053968Y-74738812D01*
X101053975Y-74587175D01*
X101053964Y-74446216D01*
X101053925Y-74315529D01*
X101053853Y-74194711D01*
X101053738Y-74083356D01*
X101053575Y-73981061D01*
X101053354Y-73887421D01*
X101053070Y-73802032D01*
X101052713Y-73724488D01*
X101052277Y-73654385D01*
X101051755Y-73591319D01*
X101051137Y-73534886D01*
X101050418Y-73484680D01*
X101049589Y-73440298D01*
X101048643Y-73401335D01*
X101047572Y-73367385D01*
X101046369Y-73338046D01*
X101045027Y-73312912D01*
X101043537Y-73291578D01*
X101041892Y-73273641D01*
X101040085Y-73258695D01*
X101038108Y-73246337D01*
X101035953Y-73236161D01*
X101033613Y-73227763D01*
X101031081Y-73220740D01*
X101028349Y-73214685D01*
X101025409Y-73209195D01*
X101022254Y-73203865D01*
X101018877Y-73198290D01*
X101015269Y-73192067D01*
X101011473Y-73184892D01*
X100978019Y-73131816D01*
X100934300Y-73084432D01*
X100881986Y-73044094D01*
X100822749Y-73012157D01*
X100777675Y-72995407D01*
X100769343Y-72993065D01*
X100760110Y-72991056D01*
X100748984Y-72989357D01*
X100734976Y-72987940D01*
X100717094Y-72986782D01*
X100694350Y-72985855D01*
X100665751Y-72985135D01*
X100630309Y-72984595D01*
X100587032Y-72984212D01*
X100534930Y-72983959D01*
X100473012Y-72983810D01*
X100400289Y-72983740D01*
X100323650Y-72983725D01*
X99907725Y-72983725D01*
X99906115Y-73889420D01*
X99904506Y-74795115D01*
X99982972Y-74797727D01*
X100016823Y-74799076D01*
X100041361Y-74800919D01*
X100059971Y-74803909D01*
X100076037Y-74808699D01*
X100092945Y-74815943D01*
X100103285Y-74820941D01*
X100139208Y-74842798D01*
X100167720Y-74870458D01*
X100192154Y-74907221D01*
X100194192Y-74910950D01*
X100197217Y-74917316D01*
X100199707Y-74924969D01*
X100201727Y-74935173D01*
X100203339Y-74949191D01*
X100204607Y-74968289D01*
X100205596Y-74993732D01*
X100206368Y-75026785D01*
X100206988Y-75068711D01*
X100207518Y-75120776D01*
X100208024Y-75184244D01*
X100208037Y-75186003D01*
X100209899Y-75438832D01*
X100194695Y-75472043D01*
X100169662Y-75514758D01*
X100137718Y-75547548D01*
X100102553Y-75569507D01*
X100066475Y-75587225D01*
X99815650Y-75587225D01*
X99752519Y-75587204D01*
X99700778Y-75587100D01*
X99659114Y-75586847D01*
X99626218Y-75586382D01*
X99600777Y-75585638D01*
X99581482Y-75584552D01*
X99567020Y-75583060D01*
X99556081Y-75581095D01*
X99547353Y-75578594D01*
X99539527Y-75575492D01*
X99534855Y-75573380D01*
X99500120Y-75551519D01*
X99468667Y-75521043D01*
X99444164Y-75485893D01*
X99435037Y-75466152D01*
X99431650Y-75456497D01*
X99428902Y-75446541D01*
X99426727Y-75434898D01*
X99425058Y-75420182D01*
X99423829Y-75401006D01*
X99422973Y-75375983D01*
X99422424Y-75343729D01*
X99422114Y-75302855D01*
X99421978Y-75251977D01*
X99421950Y-75193525D01*
X99422020Y-75126437D01*
X99422372Y-75070723D01*
X99423213Y-75025057D01*
X99424263Y-74999850D01*
X99618800Y-74999850D01*
X99618800Y-75393550D01*
X100012500Y-75393550D01*
X100012500Y-74999850D01*
X99618800Y-74999850D01*
X99424263Y-74999850D01*
X99424752Y-74988112D01*
X99427198Y-74958562D01*
X99430758Y-74935081D01*
X99435642Y-74916342D01*
X99442059Y-74901021D01*
X99450216Y-74887789D01*
X99460322Y-74875322D01*
X99472586Y-74862293D01*
X99474317Y-74860523D01*
X99502368Y-74835782D01*
X99532303Y-74818146D01*
X99566963Y-74806555D01*
X99609188Y-74799950D01*
X99642612Y-74797807D01*
X99714050Y-74795051D01*
X99714050Y-72980479D01*
X99166362Y-72982102D01*
X98618675Y-72983725D01*
X98615500Y-73552050D01*
X98614962Y-73651451D01*
X98614495Y-73738942D01*
X98614041Y-73815314D01*
X98613547Y-73881355D01*
X98612957Y-73937856D01*
X98612217Y-73985605D01*
X98611271Y-74025394D01*
X98610064Y-74058011D01*
X98608542Y-74084246D01*
X98606649Y-74104889D01*
X98604330Y-74120729D01*
X98601531Y-74132557D01*
X98598196Y-74141161D01*
X98594270Y-74147332D01*
X98589699Y-74151860D01*
X98584428Y-74155533D01*
X98578400Y-74159143D01*
X98572987Y-74162521D01*
X98568921Y-74164856D01*
X98563709Y-74166861D01*
X98556410Y-74168559D01*
X98546087Y-74169977D01*
X98531801Y-74171141D01*
X98512611Y-74172075D01*
X98487581Y-74172804D01*
X98455770Y-74173354D01*
X98416240Y-74173751D01*
X98368053Y-74174019D01*
X98310268Y-74174183D01*
X98241948Y-74174270D01*
X98162153Y-74174304D01*
X98135373Y-74174308D01*
X97715571Y-74174350D01*
X97712062Y-74245787D01*
X97709395Y-74281608D01*
X97705307Y-74314028D01*
X97700328Y-74339234D01*
X97698000Y-74347035D01*
X97680395Y-74381254D01*
X97654029Y-74413472D01*
X97622649Y-74439494D01*
X97607566Y-74448227D01*
X97599447Y-74452128D01*
X97591469Y-74455302D01*
X97582267Y-74457834D01*
X97570474Y-74459815D01*
X97554724Y-74461330D01*
X97533652Y-74462469D01*
X97505891Y-74463318D01*
X97470075Y-74463966D01*
X97424838Y-74464500D01*
X97368814Y-74465008D01*
X97343068Y-74465224D01*
X97282012Y-74465702D01*
X97232203Y-74465978D01*
X97192187Y-74465992D01*
X97160513Y-74465681D01*
X97135727Y-74464987D01*
X97116378Y-74463848D01*
X97101012Y-74462204D01*
X97088177Y-74459994D01*
X97076421Y-74457158D01*
X97064290Y-74453636D01*
X97064149Y-74453593D01*
X97039865Y-74445283D01*
X97020918Y-74435766D01*
X97002905Y-74422263D01*
X96981424Y-74401996D01*
X96979759Y-74400335D01*
X96965428Y-74385816D01*
X96953562Y-74372651D01*
X96943937Y-74359519D01*
X96936332Y-74345097D01*
X96930525Y-74328065D01*
X96926294Y-74307101D01*
X96923417Y-74280883D01*
X96921671Y-74248089D01*
X96920836Y-74207399D01*
X96920687Y-74157489D01*
X96920697Y-74155574D01*
X97117961Y-74155574D01*
X97118066Y-74194218D01*
X97118369Y-74225631D01*
X97118857Y-74248173D01*
X97119521Y-74260202D01*
X97119778Y-74261593D01*
X97123494Y-74263968D01*
X97133344Y-74265860D01*
X97150408Y-74267311D01*
X97175770Y-74268367D01*
X97210511Y-74269071D01*
X97255713Y-74269467D01*
X97312458Y-74269599D01*
X97316725Y-74269600D01*
X97510600Y-74269600D01*
X97510600Y-73869366D01*
X97315337Y-73871045D01*
X97120075Y-73872725D01*
X97118390Y-74063155D01*
X97118065Y-74111340D01*
X97117961Y-74155574D01*
X96920697Y-74155574D01*
X96921005Y-74097040D01*
X96921346Y-74052661D01*
X96923225Y-73815575D01*
X96940119Y-73783570D01*
X96964412Y-73747980D01*
X96996059Y-73716891D01*
X97031318Y-73693736D01*
X97044247Y-73687976D01*
X97053090Y-73684874D01*
X97062824Y-73682348D01*
X97074792Y-73680342D01*
X97090332Y-73678795D01*
X97110787Y-73677649D01*
X97137498Y-73676845D01*
X97171804Y-73676325D01*
X97215048Y-73676029D01*
X97268571Y-73675899D01*
X97320100Y-73675875D01*
X97564575Y-73675875D01*
X97600861Y-73693694D01*
X97637538Y-73717398D01*
X97669021Y-73748714D01*
X97692172Y-73784264D01*
X97698234Y-73798464D01*
X97704434Y-73823507D01*
X97709137Y-73859515D01*
X97712126Y-73904819D01*
X97712177Y-73906062D01*
X97715333Y-73983849D01*
X98073380Y-73983849D01*
X98431426Y-73983850D01*
X98429800Y-73483787D01*
X98428175Y-72983725D01*
X97421700Y-72983725D01*
X97289176Y-72983729D01*
X97168749Y-72983749D01*
X97059814Y-72983789D01*
X96961768Y-72983858D01*
X96874006Y-72983961D01*
X96795925Y-72984105D01*
X96726920Y-72984298D01*
X96666388Y-72984546D01*
X96613725Y-72984855D01*
X96568328Y-72985233D01*
X96529591Y-72985686D01*
X96496912Y-72986221D01*
X96469687Y-72986844D01*
X96447311Y-72987563D01*
X96429181Y-72988385D01*
X96414692Y-72989315D01*
X96403242Y-72990361D01*
X96394226Y-72991529D01*
X96387039Y-72992827D01*
X96381080Y-72994260D01*
X96377125Y-72995407D01*
X96311207Y-73021910D01*
X96252334Y-73058444D01*
X96201446Y-73104127D01*
X96159483Y-73158078D01*
X96127382Y-73219417D01*
X96121190Y-73235306D01*
X96104075Y-73282175D01*
X96102361Y-74036195D01*
X96100648Y-74790216D01*
X95799275Y-74790216D01*
X95799275Y-73263125D01*
X95813379Y-73207833D01*
X95843125Y-73114851D01*
X95882953Y-73029296D01*
X95932663Y-72951476D01*
X95992056Y-72881696D01*
X96060935Y-72820265D01*
X96067870Y-72814946D01*
X96131239Y-72773411D01*
X96202585Y-72737822D01*
X96277925Y-72709854D01*
X96353275Y-72691186D01*
X96367600Y-72688777D01*
X96375549Y-72688070D01*
X96390098Y-72687410D01*
X96411531Y-72686798D01*
X96440132Y-72686232D01*
X96476184Y-72685713D01*
X96519971Y-72685239D01*
X96571778Y-72684809D01*
X96631888Y-72684424D01*
X96700585Y-72684082D01*
X96778153Y-72683782D01*
X96864876Y-72683525D01*
X96961038Y-72683308D01*
X97066923Y-72683133D01*
X97182814Y-72682997D01*
X97308996Y-72682900D01*
X97445752Y-72682842D01*
X97593366Y-72682821D01*
X97752123Y-72682838D01*
X97752123Y-72682838D01*
G37*
X97752123Y-72682838D02*
X97922306Y-72682891D01*
X98104199Y-72682980D01*
X98298085Y-72683104D01*
X98504250Y-72683262D01*
X98609150Y-72683352D01*
X100803075Y-72685275D01*
X100860225Y-72702922D01*
X100902207Y-72717535D01*
X100947570Y-72736090D01*
X100992410Y-72756786D01*
X101032825Y-72777819D01*
X101064912Y-72797389D01*
X101065166Y-72797563D01*
X101093398Y-72819358D01*
X101126078Y-72848373D01*
X101160175Y-72881563D01*
X101192657Y-72915885D01*
X101220494Y-72948295D01*
X101236736Y-72969859D01*
X101275744Y-73032542D01*
X101306012Y-73095740D01*
X101322537Y-73140334D01*
X101325495Y-73148898D01*
X101328270Y-73156599D01*
X101330870Y-73163843D01*
X101333300Y-73171034D01*
X101335565Y-73178578D01*
X101337672Y-73186880D01*
X101339625Y-73196344D01*
X101341432Y-73207376D01*
X101343097Y-73220381D01*
X101344626Y-73235764D01*
X101346025Y-73253930D01*
X101347300Y-73275284D01*
X101348457Y-73300231D01*
X101349501Y-73329175D01*
X101350437Y-73362523D01*
X101351273Y-73400679D01*
X101352013Y-73444049D01*
X101352663Y-73493036D01*
X101353228Y-73548047D01*
X101353716Y-73609486D01*
X101354131Y-73677759D01*
X101354479Y-73753270D01*
X101354766Y-73836424D01*
X101354997Y-73927627D01*
X101355179Y-74027284D01*
X101355317Y-74135799D01*
X101355416Y-74253577D01*
X101355484Y-74381025D01*
X101355524Y-74518546D01*
X101355543Y-74666546D01*
X101355548Y-74825430D01*
X101355542Y-74995602D01*
X101355533Y-75177469D01*
X101355526Y-75371434D01*
X101355525Y-75469750D01*
X101355525Y-77670025D01*
X101337728Y-77733301D01*
X101313359Y-77805690D01*
X101282348Y-77875003D01*
X101246745Y-77936703D01*
X101244111Y-77940654D01*
X101220003Y-77972761D01*
X101188960Y-78008755D01*
X101154178Y-78045333D01*
X101118851Y-78079191D01*
X101086175Y-78107025D01*
X101075247Y-78115243D01*
X101041027Y-78137130D01*
X100998594Y-78160253D01*
X100952032Y-78182672D01*
X100905423Y-78202449D01*
X100862854Y-78217645D01*
X100853875Y-78220342D01*
X100803075Y-78234930D01*
X98596450Y-78235924D01*
X98429474Y-78235984D01*
X98265607Y-78236012D01*
X98105315Y-78236009D01*
X97949062Y-78235976D01*
X97797313Y-78235914D01*
X97650534Y-78235823D01*
X97509189Y-78235706D01*
X97373744Y-78235562D01*
X97244663Y-78235393D01*
X97122411Y-78235200D01*
X97007454Y-78234983D01*
X96900257Y-78234743D01*
X96801284Y-78234482D01*
X96711001Y-78234200D01*
X96629872Y-78233898D01*
X96558363Y-78233577D01*
X96496939Y-78233239D01*
X96446064Y-78232883D01*
X96406205Y-78232512D01*
X96377825Y-78232125D01*
X96361390Y-78231724D01*
X96357393Y-78231467D01*
X96297496Y-78217380D01*
X96233670Y-78195343D01*
X96170097Y-78167174D01*
X96110960Y-78134695D01*
X96067870Y-78105487D01*
X96029997Y-78073620D01*
X95990391Y-78034813D01*
X95952248Y-77992583D01*
X95918764Y-77950448D01*
X95895210Y-77915443D01*
X95865204Y-77858436D01*
X95838542Y-77794436D01*
X95817454Y-77729100D01*
X95810227Y-77700093D01*
X95809235Y-77695113D01*
X95808304Y-77689086D01*
X95807433Y-77681612D01*
X95806619Y-77672289D01*
X95805861Y-77660717D01*
X95805157Y-77646494D01*
X95804504Y-77629219D01*
X95803902Y-77608490D01*
X95803347Y-77583907D01*
X95802838Y-77555069D01*
X95802373Y-77521573D01*
X95801950Y-77483020D01*
X95801566Y-77439007D01*
X95801221Y-77389133D01*
X95800912Y-77332998D01*
X95800637Y-77270200D01*
X95800395Y-77200338D01*
X95800182Y-77123010D01*
X95799998Y-77037816D01*
X95799840Y-76944354D01*
X95799706Y-76842224D01*
X95799595Y-76731023D01*
X95799504Y-76610350D01*
X95799432Y-76479805D01*
X95799376Y-76338987D01*
X95799334Y-76187493D01*
X95799305Y-76024923D01*
X95799287Y-75850876D01*
X95799277Y-75664950D01*
X95799275Y-75466744D01*
X95799275Y-74980800D01*
X96100753Y-74980800D01*
X96102414Y-76309537D01*
X96104075Y-77638275D01*
X96121190Y-77685143D01*
X96149990Y-77746463D01*
X96188588Y-77801316D01*
X96235580Y-77848557D01*
X96289559Y-77887039D01*
X96349123Y-77915616D01*
X96412865Y-77933141D01*
X96427925Y-77935482D01*
X96436517Y-77935788D01*
X96457043Y-77936074D01*
X96488738Y-77936338D01*
X96530836Y-77936578D01*
X96582572Y-77936793D01*
X96643180Y-77936980D01*
X96711894Y-77937139D01*
X96787948Y-77937267D01*
X96870578Y-77937364D01*
X96959017Y-77937426D01*
X97052500Y-77937453D01*
X97150261Y-77937442D01*
X97251534Y-77937392D01*
X97278825Y-77937372D01*
X98110675Y-77936725D01*
X98112303Y-77474762D01*
X98113932Y-77012800D01*
X97524575Y-77012800D01*
X97522129Y-77093762D01*
X97520831Y-77128572D01*
X97519052Y-77153715D01*
X97516278Y-77172223D01*
X97511997Y-77187129D01*
X97505694Y-77201465D01*
X97503010Y-77206729D01*
X97478954Y-77242238D01*
X97447395Y-77273328D01*
X97412106Y-77296527D01*
X97399102Y-77302323D01*
X97390259Y-77305425D01*
X97380525Y-77307951D01*
X97368557Y-77309957D01*
X97353017Y-77311504D01*
X97332562Y-77312650D01*
X97305851Y-77313454D01*
X97271545Y-77313974D01*
X97228301Y-77314270D01*
X97174778Y-77314400D01*
X97123250Y-77314425D01*
X97060946Y-77314401D01*
X97010013Y-77314286D01*
X96969121Y-77314014D01*
X96936940Y-77313519D01*
X96912140Y-77312735D01*
X96893392Y-77311597D01*
X96879366Y-77310037D01*
X96868732Y-77307991D01*
X96860161Y-77305393D01*
X96852322Y-77302176D01*
X96849422Y-77300852D01*
X96806511Y-77274519D01*
X96772945Y-77239639D01*
X96748925Y-77196479D01*
X96735378Y-77149409D01*
X96733446Y-77131523D01*
X96731986Y-77101878D01*
X96731012Y-77061404D01*
X96730543Y-77011034D01*
X96730592Y-76951699D01*
X96731039Y-76896266D01*
X96731761Y-76836535D01*
X96732541Y-76788088D01*
X96733456Y-76749506D01*
X96734534Y-76720700D01*
X96932750Y-76720700D01*
X96932750Y-77120750D01*
X97326450Y-77120750D01*
X97326450Y-76720700D01*
X96932750Y-76720700D01*
X96734534Y-76720700D01*
X96734584Y-76719371D01*
X96736003Y-76696267D01*
X96737793Y-76678776D01*
X96740031Y-76665481D01*
X96742795Y-76654963D01*
X96744657Y-76649614D01*
X96764639Y-76612549D01*
X96794099Y-76578772D01*
X96829816Y-76551731D01*
X96842488Y-76544844D01*
X96878775Y-76527025D01*
X97126425Y-76527025D01*
X97188989Y-76527037D01*
X97240188Y-76527122D01*
X97281352Y-76527352D01*
X97313816Y-76527799D01*
X97338913Y-76528533D01*
X97357975Y-76529627D01*
X97372337Y-76531153D01*
X97383331Y-76533182D01*
X97392290Y-76535786D01*
X97400547Y-76539037D01*
X97407540Y-76542149D01*
X97440976Y-76562640D01*
X97471943Y-76591331D01*
X97497076Y-76624540D01*
X97512538Y-76657088D01*
X97519508Y-76689167D01*
X97522902Y-76731701D01*
X97523300Y-76756354D01*
X97523300Y-76822300D01*
X98232621Y-76822300D01*
X98253614Y-76836587D01*
X98271437Y-76851098D01*
X98286775Y-76867338D01*
X98287891Y-76868800D01*
X98290261Y-76872175D01*
X98292334Y-76876038D01*
X98294133Y-76881222D01*
X98295681Y-76888559D01*
X98297001Y-76898881D01*
X98298115Y-76913022D01*
X98299047Y-76931813D01*
X98299820Y-76956089D01*
X98300456Y-76986680D01*
X98300978Y-77024421D01*
X98301410Y-77070143D01*
X98301775Y-77124679D01*
X98302095Y-77188862D01*
X98302393Y-77263524D01*
X98302693Y-77349499D01*
X98302904Y-77413519D01*
X98304634Y-77940313D01*
X98375929Y-77938519D01*
X98447225Y-77936725D01*
X98448831Y-76884212D01*
X98450437Y-75831700D01*
X98056700Y-75831700D01*
X98056700Y-75900418D01*
X98055505Y-75944873D01*
X98051248Y-75979768D01*
X98042915Y-76008077D01*
X98029497Y-76032772D01*
X98009982Y-76056827D01*
X97999957Y-76067220D01*
X97986298Y-76080724D01*
X97973877Y-76091919D01*
X97961395Y-76101011D01*
X97947554Y-76108208D01*
X97931055Y-76113716D01*
X97910598Y-76117741D01*
X97884884Y-76120491D01*
X97852614Y-76122171D01*
X97812489Y-76122990D01*
X97763210Y-76123153D01*
X97703478Y-76122867D01*
X97652575Y-76122494D01*
X97405825Y-76120625D01*
X97374075Y-76103729D01*
X97332676Y-76074924D01*
X97299986Y-76037011D01*
X97287447Y-76015850D01*
X97272475Y-75987275D01*
X97272475Y-75533250D01*
X97466150Y-75533250D01*
X97466150Y-75926950D01*
X97859850Y-75926950D01*
X97859850Y-75533250D01*
X97466150Y-75533250D01*
X97272475Y-75533250D01*
X97272475Y-75472925D01*
X97289370Y-75441175D01*
X97316371Y-75401539D01*
X97351070Y-75370973D01*
X97383600Y-75352722D01*
X97418525Y-75336524D01*
X97660281Y-75336462D01*
X97727571Y-75336479D01*
X97783479Y-75336716D01*
X97829323Y-75337392D01*
X97866419Y-75338727D01*
X97896086Y-75340939D01*
X97919641Y-75344249D01*
X97938403Y-75348877D01*
X97953687Y-75355041D01*
X97966813Y-75362962D01*
X97979098Y-75372859D01*
X97991860Y-75384952D01*
X98000020Y-75393079D01*
X98021461Y-75416538D01*
X98036877Y-75439265D01*
X98047188Y-75464062D01*
X98053309Y-75493729D01*
X98056158Y-75531067D01*
X98056700Y-75566131D01*
X98056700Y-75641200D01*
X98307728Y-75641200D01*
X98374244Y-75641242D01*
X98429295Y-75641457D01*
X98474115Y-75641977D01*
X98509939Y-75642932D01*
X98538000Y-75644453D01*
X98559535Y-75646673D01*
X98575777Y-75649723D01*
X98587961Y-75653734D01*
X98597322Y-75658837D01*
X98605093Y-75665163D01*
X98612510Y-75672845D01*
X98613303Y-75673719D01*
X98624057Y-75690033D01*
X98632846Y-75710659D01*
X98633905Y-75714225D01*
X98634878Y-75722525D01*
X98635771Y-75740164D01*
X98636586Y-75767391D01*
X98637325Y-75804455D01*
X98637989Y-75851609D01*
X98638580Y-75909101D01*
X98639099Y-75977182D01*
X98639548Y-76056102D01*
X98639929Y-76146113D01*
X98640242Y-76247462D01*
X98640490Y-76360402D01*
X98640674Y-76485183D01*
X98640796Y-76622054D01*
X98640856Y-76771266D01*
X98640864Y-76839957D01*
X98640900Y-77940290D01*
X98718687Y-77938507D01*
X98796475Y-77936725D01*
X98798075Y-76458762D01*
X98799676Y-74980800D01*
X96100753Y-74980800D01*
X95799275Y-74980800D01*
X95799275Y-74790216D01*
X96100648Y-74790216D01*
X97517280Y-74791845D01*
X98933911Y-74793475D01*
X98958855Y-74820216D01*
X98983800Y-74846958D01*
X98983800Y-76389195D01*
X98983817Y-76528288D01*
X98983870Y-76664046D01*
X98983956Y-76795921D01*
X98984074Y-76923366D01*
X98984222Y-77045833D01*
X98984399Y-77162774D01*
X98984602Y-77273642D01*
X98984831Y-77377889D01*
X98985084Y-77474967D01*
X98985359Y-77564330D01*
X98985655Y-77645429D01*
X98985971Y-77717717D01*
X98986303Y-77780647D01*
X98986652Y-77833669D01*
X98987016Y-77876238D01*
X98987392Y-77907806D01*
X98987780Y-77927824D01*
X98988177Y-77935745D01*
X98988218Y-77935852D01*
X98995943Y-77937424D01*
X99013721Y-77938448D01*
X99038915Y-77938837D01*
X99068886Y-77938504D01*
X99069181Y-77938497D01*
X99145725Y-77936725D01*
X99152075Y-76266675D01*
X99166280Y-76246759D01*
X99171774Y-76239099D01*
X99177159Y-76232473D01*
X99183347Y-76226806D01*
X99191250Y-76222025D01*
X99201780Y-76218052D01*
X99215846Y-76214815D01*
X99234361Y-76212237D01*
X99258236Y-76210243D01*
X99288382Y-76208759D01*
X99325711Y-76207709D01*
X99371135Y-76207019D01*
X99425563Y-76206613D01*
X99489909Y-76206416D01*
X99565083Y-76206353D01*
X99651996Y-76206349D01*
X99657028Y-76206350D01*
X100082350Y-76206350D01*
X100082350Y-76137514D01*
X100082463Y-76123800D01*
X100279200Y-76123800D01*
X100279200Y-76517500D01*
X100672900Y-76517500D01*
X100672900Y-76123800D01*
X100279200Y-76123800D01*
X100082463Y-76123800D01*
X100082611Y-76106085D01*
X100083842Y-76083653D01*
X100086708Y-76066518D01*
X100091877Y-76050981D01*
X100100016Y-76033342D01*
X100101768Y-76029818D01*
X100121341Y-75997069D01*
X100144772Y-75971884D01*
X100175525Y-75950991D01*
X100196650Y-75940222D01*
X100231575Y-75923775D01*
X100472875Y-75923775D01*
X100535226Y-75923815D01*
X100586229Y-75923976D01*
X100627236Y-75924319D01*
X100659599Y-75924902D01*
X100684671Y-75925787D01*
X100703802Y-75927032D01*
X100718346Y-75928698D01*
X100729653Y-75930846D01*
X100739076Y-75933534D01*
X100745552Y-75935876D01*
X100781196Y-75955312D01*
X100814583Y-75983925D01*
X100841971Y-76018282D01*
X100849680Y-76031470D01*
X100866575Y-76063475D01*
X100866575Y-76317475D01*
X100866553Y-76381062D01*
X100866448Y-76433248D01*
X100866196Y-76475333D01*
X100865735Y-76508617D01*
X100865002Y-76534397D01*
X100863935Y-76553974D01*
X100862472Y-76568647D01*
X100860548Y-76579716D01*
X100858103Y-76588479D01*
X100855074Y-76596236D01*
X100852927Y-76600997D01*
X100831877Y-76634730D01*
X100802546Y-76666084D01*
X100769213Y-76690782D01*
X100756397Y-76697527D01*
X100748568Y-76700961D01*
X100740520Y-76703765D01*
X100730943Y-76706003D01*
X100718528Y-76707738D01*
X100701965Y-76709035D01*
X100679944Y-76709957D01*
X100651158Y-76710567D01*
X100614295Y-76710931D01*
X100568047Y-76711110D01*
X100511104Y-76711170D01*
X100476050Y-76711175D01*
X100225225Y-76711175D01*
X100188938Y-76693355D01*
X100163279Y-76677795D01*
X100138444Y-76657977D01*
X100127502Y-76646966D01*
X100110289Y-76625045D01*
X100097904Y-76602650D01*
X100089640Y-76577134D01*
X100084788Y-76545847D01*
X100082638Y-76506141D01*
X100082350Y-76478268D01*
X100082350Y-76396850D01*
X99339400Y-76396850D01*
X99339400Y-77940271D01*
X100042662Y-77938428D01*
X100152589Y-77938132D01*
X100250546Y-77937841D01*
X100337264Y-77937543D01*
X100413473Y-77937225D01*
X100479904Y-77936873D01*
X100537286Y-77936473D01*
X100586351Y-77936013D01*
X100627829Y-77935479D01*
X100662449Y-77934858D01*
X100690943Y-77934136D01*
X100714041Y-77933300D01*
X100732473Y-77932337D01*
X100746970Y-77931233D01*
X100758262Y-77929975D01*
X100767079Y-77928549D01*
X100774151Y-77926943D01*
X100780210Y-77925142D01*
X100780850Y-77924931D01*
X100845627Y-77897604D01*
X100903446Y-77861618D01*
X100952954Y-77818080D01*
X100992801Y-77768095D01*
X101011028Y-77736434D01*
X101014912Y-77729099D01*
X101018554Y-77722824D01*
X101021965Y-77717205D01*
X101025150Y-77711839D01*
X101028118Y-77706319D01*
X101030877Y-77700242D01*
X101033433Y-77693203D01*
X101035795Y-77684797D01*
X101037970Y-77674621D01*
X101039966Y-77662268D01*
X101041790Y-77647336D01*
X101043450Y-77629418D01*
X101044954Y-77608111D01*
X101046309Y-77583010D01*
X101047523Y-77553711D01*
X101048603Y-77519808D01*
X101049558Y-77480898D01*
X101050394Y-77436575D01*
X101051120Y-77386436D01*
X101051742Y-77330075D01*
X101052269Y-77267088D01*
X101052709Y-77197071D01*
X101053068Y-77119618D01*
X101053355Y-77034326D01*
X101053577Y-76940790D01*
X101053741Y-76838604D01*
X101053856Y-76727366D01*
X101053928Y-76606669D01*
X101053967Y-76476110D01*
X101053978Y-76335284D01*
X101053970Y-76183786D01*
X101053951Y-76021212D01*
X101053928Y-75847157D01*
X101053908Y-75661216D01*
X101053900Y-75462986D01*
X101053900Y-75460225D01*
X101053908Y-75261833D01*
X101053927Y-75075736D01*
X101053949Y-74901531D01*
X101053968Y-74738812D01*
X101053975Y-74587175D01*
X101053964Y-74446216D01*
X101053925Y-74315529D01*
X101053853Y-74194711D01*
X101053738Y-74083356D01*
X101053575Y-73981061D01*
X101053354Y-73887421D01*
X101053070Y-73802032D01*
X101052713Y-73724488D01*
X101052277Y-73654385D01*
X101051755Y-73591319D01*
X101051137Y-73534886D01*
X101050418Y-73484680D01*
X101049589Y-73440298D01*
X101048643Y-73401335D01*
X101047572Y-73367385D01*
X101046369Y-73338046D01*
X101045027Y-73312912D01*
X101043537Y-73291578D01*
X101041892Y-73273641D01*
X101040085Y-73258695D01*
X101038108Y-73246337D01*
X101035953Y-73236161D01*
X101033613Y-73227763D01*
X101031081Y-73220740D01*
X101028349Y-73214685D01*
X101025409Y-73209195D01*
X101022254Y-73203865D01*
X101018877Y-73198290D01*
X101015269Y-73192067D01*
X101011473Y-73184892D01*
X100978019Y-73131816D01*
X100934300Y-73084432D01*
X100881986Y-73044094D01*
X100822749Y-73012157D01*
X100777675Y-72995407D01*
X100769343Y-72993065D01*
X100760110Y-72991056D01*
X100748984Y-72989357D01*
X100734976Y-72987940D01*
X100717094Y-72986782D01*
X100694350Y-72985855D01*
X100665751Y-72985135D01*
X100630309Y-72984595D01*
X100587032Y-72984212D01*
X100534930Y-72983959D01*
X100473012Y-72983810D01*
X100400289Y-72983740D01*
X100323650Y-72983725D01*
X99907725Y-72983725D01*
X99906115Y-73889420D01*
X99904506Y-74795115D01*
X99982972Y-74797727D01*
X100016823Y-74799076D01*
X100041361Y-74800919D01*
X100059971Y-74803909D01*
X100076037Y-74808699D01*
X100092945Y-74815943D01*
X100103285Y-74820941D01*
X100139208Y-74842798D01*
X100167720Y-74870458D01*
X100192154Y-74907221D01*
X100194192Y-74910950D01*
X100197217Y-74917316D01*
X100199707Y-74924969D01*
X100201727Y-74935173D01*
X100203339Y-74949191D01*
X100204607Y-74968289D01*
X100205596Y-74993732D01*
X100206368Y-75026785D01*
X100206988Y-75068711D01*
X100207518Y-75120776D01*
X100208024Y-75184244D01*
X100208037Y-75186003D01*
X100209899Y-75438832D01*
X100194695Y-75472043D01*
X100169662Y-75514758D01*
X100137718Y-75547548D01*
X100102553Y-75569507D01*
X100066475Y-75587225D01*
X99815650Y-75587225D01*
X99752519Y-75587204D01*
X99700778Y-75587100D01*
X99659114Y-75586847D01*
X99626218Y-75586382D01*
X99600777Y-75585638D01*
X99581482Y-75584552D01*
X99567020Y-75583060D01*
X99556081Y-75581095D01*
X99547353Y-75578594D01*
X99539527Y-75575492D01*
X99534855Y-75573380D01*
X99500120Y-75551519D01*
X99468667Y-75521043D01*
X99444164Y-75485893D01*
X99435037Y-75466152D01*
X99431650Y-75456497D01*
X99428902Y-75446541D01*
X99426727Y-75434898D01*
X99425058Y-75420182D01*
X99423829Y-75401006D01*
X99422973Y-75375983D01*
X99422424Y-75343729D01*
X99422114Y-75302855D01*
X99421978Y-75251977D01*
X99421950Y-75193525D01*
X99422020Y-75126437D01*
X99422372Y-75070723D01*
X99423213Y-75025057D01*
X99424263Y-74999850D01*
X99618800Y-74999850D01*
X99618800Y-75393550D01*
X100012500Y-75393550D01*
X100012500Y-74999850D01*
X99618800Y-74999850D01*
X99424263Y-74999850D01*
X99424752Y-74988112D01*
X99427198Y-74958562D01*
X99430758Y-74935081D01*
X99435642Y-74916342D01*
X99442059Y-74901021D01*
X99450216Y-74887789D01*
X99460322Y-74875322D01*
X99472586Y-74862293D01*
X99474317Y-74860523D01*
X99502368Y-74835782D01*
X99532303Y-74818146D01*
X99566963Y-74806555D01*
X99609188Y-74799950D01*
X99642612Y-74797807D01*
X99714050Y-74795051D01*
X99714050Y-72980479D01*
X99166362Y-72982102D01*
X98618675Y-72983725D01*
X98615500Y-73552050D01*
X98614962Y-73651451D01*
X98614495Y-73738942D01*
X98614041Y-73815314D01*
X98613547Y-73881355D01*
X98612957Y-73937856D01*
X98612217Y-73985605D01*
X98611271Y-74025394D01*
X98610064Y-74058011D01*
X98608542Y-74084246D01*
X98606649Y-74104889D01*
X98604330Y-74120729D01*
X98601531Y-74132557D01*
X98598196Y-74141161D01*
X98594270Y-74147332D01*
X98589699Y-74151860D01*
X98584428Y-74155533D01*
X98578400Y-74159143D01*
X98572987Y-74162521D01*
X98568921Y-74164856D01*
X98563709Y-74166861D01*
X98556410Y-74168559D01*
X98546087Y-74169977D01*
X98531801Y-74171141D01*
X98512611Y-74172075D01*
X98487581Y-74172804D01*
X98455770Y-74173354D01*
X98416240Y-74173751D01*
X98368053Y-74174019D01*
X98310268Y-74174183D01*
X98241948Y-74174270D01*
X98162153Y-74174304D01*
X98135373Y-74174308D01*
X97715571Y-74174350D01*
X97712062Y-74245787D01*
X97709395Y-74281608D01*
X97705307Y-74314028D01*
X97700328Y-74339234D01*
X97698000Y-74347035D01*
X97680395Y-74381254D01*
X97654029Y-74413472D01*
X97622649Y-74439494D01*
X97607566Y-74448227D01*
X97599447Y-74452128D01*
X97591469Y-74455302D01*
X97582267Y-74457834D01*
X97570474Y-74459815D01*
X97554724Y-74461330D01*
X97533652Y-74462469D01*
X97505891Y-74463318D01*
X97470075Y-74463966D01*
X97424838Y-74464500D01*
X97368814Y-74465008D01*
X97343068Y-74465224D01*
X97282012Y-74465702D01*
X97232203Y-74465978D01*
X97192187Y-74465992D01*
X97160513Y-74465681D01*
X97135727Y-74464987D01*
X97116378Y-74463848D01*
X97101012Y-74462204D01*
X97088177Y-74459994D01*
X97076421Y-74457158D01*
X97064290Y-74453636D01*
X97064149Y-74453593D01*
X97039865Y-74445283D01*
X97020918Y-74435766D01*
X97002905Y-74422263D01*
X96981424Y-74401996D01*
X96979759Y-74400335D01*
X96965428Y-74385816D01*
X96953562Y-74372651D01*
X96943937Y-74359519D01*
X96936332Y-74345097D01*
X96930525Y-74328065D01*
X96926294Y-74307101D01*
X96923417Y-74280883D01*
X96921671Y-74248089D01*
X96920836Y-74207399D01*
X96920687Y-74157489D01*
X96920697Y-74155574D01*
X97117961Y-74155574D01*
X97118066Y-74194218D01*
X97118369Y-74225631D01*
X97118857Y-74248173D01*
X97119521Y-74260202D01*
X97119778Y-74261593D01*
X97123494Y-74263968D01*
X97133344Y-74265860D01*
X97150408Y-74267311D01*
X97175770Y-74268367D01*
X97210511Y-74269071D01*
X97255713Y-74269467D01*
X97312458Y-74269599D01*
X97316725Y-74269600D01*
X97510600Y-74269600D01*
X97510600Y-73869366D01*
X97315337Y-73871045D01*
X97120075Y-73872725D01*
X97118390Y-74063155D01*
X97118065Y-74111340D01*
X97117961Y-74155574D01*
X96920697Y-74155574D01*
X96921005Y-74097040D01*
X96921346Y-74052661D01*
X96923225Y-73815575D01*
X96940119Y-73783570D01*
X96964412Y-73747980D01*
X96996059Y-73716891D01*
X97031318Y-73693736D01*
X97044247Y-73687976D01*
X97053090Y-73684874D01*
X97062824Y-73682348D01*
X97074792Y-73680342D01*
X97090332Y-73678795D01*
X97110787Y-73677649D01*
X97137498Y-73676845D01*
X97171804Y-73676325D01*
X97215048Y-73676029D01*
X97268571Y-73675899D01*
X97320100Y-73675875D01*
X97564575Y-73675875D01*
X97600861Y-73693694D01*
X97637538Y-73717398D01*
X97669021Y-73748714D01*
X97692172Y-73784264D01*
X97698234Y-73798464D01*
X97704434Y-73823507D01*
X97709137Y-73859515D01*
X97712126Y-73904819D01*
X97712177Y-73906062D01*
X97715333Y-73983849D01*
X98073380Y-73983849D01*
X98431426Y-73983850D01*
X98429800Y-73483787D01*
X98428175Y-72983725D01*
X97421700Y-72983725D01*
X97289176Y-72983729D01*
X97168749Y-72983749D01*
X97059814Y-72983789D01*
X96961768Y-72983858D01*
X96874006Y-72983961D01*
X96795925Y-72984105D01*
X96726920Y-72984298D01*
X96666388Y-72984546D01*
X96613725Y-72984855D01*
X96568328Y-72985233D01*
X96529591Y-72985686D01*
X96496912Y-72986221D01*
X96469687Y-72986844D01*
X96447311Y-72987563D01*
X96429181Y-72988385D01*
X96414692Y-72989315D01*
X96403242Y-72990361D01*
X96394226Y-72991529D01*
X96387039Y-72992827D01*
X96381080Y-72994260D01*
X96377125Y-72995407D01*
X96311207Y-73021910D01*
X96252334Y-73058444D01*
X96201446Y-73104127D01*
X96159483Y-73158078D01*
X96127382Y-73219417D01*
X96121190Y-73235306D01*
X96104075Y-73282175D01*
X96102361Y-74036195D01*
X96100648Y-74790216D01*
X95799275Y-74790216D01*
X95799275Y-73263125D01*
X95813379Y-73207833D01*
X95843125Y-73114851D01*
X95882953Y-73029296D01*
X95932663Y-72951476D01*
X95992056Y-72881696D01*
X96060935Y-72820265D01*
X96067870Y-72814946D01*
X96131239Y-72773411D01*
X96202585Y-72737822D01*
X96277925Y-72709854D01*
X96353275Y-72691186D01*
X96367600Y-72688777D01*
X96375549Y-72688070D01*
X96390098Y-72687410D01*
X96411531Y-72686798D01*
X96440132Y-72686232D01*
X96476184Y-72685713D01*
X96519971Y-72685239D01*
X96571778Y-72684809D01*
X96631888Y-72684424D01*
X96700585Y-72684082D01*
X96778153Y-72683782D01*
X96864876Y-72683525D01*
X96961038Y-72683308D01*
X97066923Y-72683133D01*
X97182814Y-72682997D01*
X97308996Y-72682900D01*
X97445752Y-72682842D01*
X97593366Y-72682821D01*
X97752123Y-72682838D01*
D13*
X114240000Y-40072000D02*
X115570000Y-40072000D01*
X114240000Y-41402000D02*
X114240000Y-40072000D01*
X114240000Y-42672000D02*
X116900000Y-42672000D01*
X116900000Y-42672000D02*
X116900000Y-65592000D01*
X114240000Y-42672000D02*
X114240000Y-65592000D01*
X114240000Y-65592000D02*
X116900000Y-65592000D01*
D14*
X97974000Y-63159000D02*
X88774000Y-63159000D01*
X97974000Y-71969000D02*
X97974000Y-63159000D01*
X88774000Y-71969000D02*
X97974000Y-71969000D01*
X88774000Y-63159000D02*
X88774000Y-71969000D01*
X97974000Y-54015000D02*
X88774000Y-54015000D01*
X97974000Y-62825000D02*
X97974000Y-54015000D01*
X88774000Y-62825000D02*
X97974000Y-62825000D01*
X88774000Y-54015000D02*
X88774000Y-62825000D01*
X97974000Y-44871000D02*
X88774000Y-44871000D01*
X97974000Y-53681000D02*
X97974000Y-44871000D01*
X88774000Y-53681000D02*
X97974000Y-53681000D01*
X88774000Y-44871000D02*
X88774000Y-53681000D01*
X97974000Y-35727000D02*
X88774000Y-35727000D01*
X97974000Y-44537000D02*
X97974000Y-35727000D01*
X88774000Y-44537000D02*
X97974000Y-44537000D01*
X88774000Y-35727000D02*
X88774000Y-44537000D01*
X99460000Y-29084000D02*
X99460000Y-38284000D01*
X111360000Y-29084000D02*
X99460000Y-29084000D01*
X111360000Y-38284000D02*
X111360000Y-29084000D01*
X99460000Y-38284000D02*
X111360000Y-38284000D01*
D15*
X103051000Y-71020000D02*
X103251000Y-71220000D01*
D10*
X103551000Y-71020000D02*
X103051000Y-71020000D01*
X103251000Y-71420000D02*
X103751000Y-70920000D01*
X102751000Y-70920000D02*
X103251000Y-71420000D01*
X103751000Y-70920000D02*
X102751000Y-70920000D01*
D13*
X104211000Y-72120000D02*
X104211000Y-69435000D01*
X104211000Y-69435000D02*
X102291000Y-69435000D01*
X102291000Y-69435000D02*
X102291000Y-72120000D01*
D15*
X110671000Y-71020000D02*
X110871000Y-71220000D01*
D10*
X111171000Y-71020000D02*
X110671000Y-71020000D01*
X110871000Y-71420000D02*
X111371000Y-70920000D01*
X110371000Y-70920000D02*
X110871000Y-71420000D01*
X111371000Y-70920000D02*
X110371000Y-70920000D01*
D13*
X111831000Y-72120000D02*
X111831000Y-69435000D01*
X111831000Y-69435000D02*
X109911000Y-69435000D01*
X109911000Y-69435000D02*
X109911000Y-72120000D01*
D15*
X108131000Y-71020000D02*
X108331000Y-71220000D01*
D10*
X108631000Y-71020000D02*
X108131000Y-71020000D01*
X108331000Y-71420000D02*
X108831000Y-70920000D01*
X107831000Y-70920000D02*
X108331000Y-71420000D01*
X108831000Y-70920000D02*
X107831000Y-70920000D01*
D13*
X109291000Y-72120000D02*
X109291000Y-69435000D01*
X109291000Y-69435000D02*
X107371000Y-69435000D01*
X107371000Y-69435000D02*
X107371000Y-72120000D01*
D15*
X105591000Y-71020000D02*
X105791000Y-71220000D01*
D10*
X106091000Y-71020000D02*
X105591000Y-71020000D01*
X105791000Y-71420000D02*
X106291000Y-70920000D01*
X105291000Y-70920000D02*
X105791000Y-71420000D01*
X106291000Y-70920000D02*
X105291000Y-70920000D01*
D13*
X106751000Y-72120000D02*
X106751000Y-69435000D01*
X106751000Y-69435000D02*
X104831000Y-69435000D01*
X104831000Y-69435000D02*
X104831000Y-72120000D01*
X101136000Y-41116000D02*
X101136000Y-41616000D01*
X100886000Y-41366000D02*
X101386000Y-41366000D01*
X101626000Y-44121563D02*
X102690437Y-45186000D01*
X101626000Y-41730437D02*
X102690437Y-40666000D01*
X101626000Y-41730437D02*
X101626000Y-41866000D01*
X101626000Y-44121563D02*
X101626000Y-43986000D01*
X102690437Y-45186000D02*
X106146000Y-45186000D01*
X102690437Y-40666000D02*
X106146000Y-40666000D01*
X106146000Y-40666000D02*
X106146000Y-41866000D01*
X106146000Y-45186000D02*
X106146000Y-43986000D01*
X101136000Y-53308000D02*
X101136000Y-53808000D01*
X100886000Y-53558000D02*
X101386000Y-53558000D01*
X101626000Y-56313563D02*
X102690437Y-57378000D01*
X101626000Y-53922437D02*
X102690437Y-52858000D01*
X101626000Y-53922437D02*
X101626000Y-54058000D01*
X101626000Y-56313563D02*
X101626000Y-56178000D01*
X102690437Y-57378000D02*
X106146000Y-57378000D01*
X102690437Y-52858000D02*
X106146000Y-52858000D01*
X106146000Y-52858000D02*
X106146000Y-54058000D01*
X106146000Y-57378000D02*
X106146000Y-56178000D01*
X101136000Y-47212000D02*
X101136000Y-47712000D01*
X100886000Y-47462000D02*
X101386000Y-47462000D01*
X101626000Y-50217563D02*
X102690437Y-51282000D01*
X101626000Y-47826437D02*
X102690437Y-46762000D01*
X101626000Y-47826437D02*
X101626000Y-47962000D01*
X101626000Y-50217563D02*
X101626000Y-50082000D01*
X102690437Y-51282000D02*
X106146000Y-51282000D01*
X102690437Y-46762000D02*
X106146000Y-46762000D01*
X106146000Y-46762000D02*
X106146000Y-47962000D01*
X106146000Y-51282000D02*
X106146000Y-50082000D01*
X104456000Y-59452000D02*
X105856000Y-59452000D01*
X106556000Y-60152000D02*
X106556000Y-60752000D01*
X105856000Y-61452000D02*
X104456000Y-61452000D01*
X103756000Y-60752000D02*
X103756000Y-60152000D01*
X103756000Y-60152000D02*
G75*
G02X104456000Y-59452000I700000J0D01*
G01*
X104456000Y-61452000D02*
G75*
G02X103756000Y-60752000I0J700000D01*
G01*
X106556000Y-60752000D02*
G75*
G02X105856000Y-61452000I-700000J0D01*
G01*
X105856000Y-59452000D02*
G75*
G02X106556000Y-60152000I0J-700000D01*
G01*
D10*
X112053714Y-40330095D02*
X112053714Y-39806285D01*
X112720380Y-40330095D01*
X112720380Y-39806285D01*
X112053714Y-38663428D02*
X113053714Y-38663428D01*
X112101333Y-38663428D02*
X112053714Y-38568190D01*
X112053714Y-38377714D01*
X112101333Y-38282476D01*
X112148952Y-38234857D01*
X112244190Y-38187238D01*
X112529904Y-38187238D01*
X112625142Y-38234857D01*
X112672761Y-38282476D01*
X112720380Y-38377714D01*
X112720380Y-38568190D01*
X112672761Y-38663428D01*
X112720380Y-37758666D02*
X112053714Y-37758666D01*
X112244190Y-37758666D02*
X112148952Y-37711047D01*
X112101333Y-37663428D01*
X112053714Y-37568190D01*
X112053714Y-37472952D01*
X112720380Y-36996761D02*
X112672761Y-37092000D01*
X112625142Y-37139619D01*
X112529904Y-37187238D01*
X112244190Y-37187238D01*
X112148952Y-37139619D01*
X112101333Y-37092000D01*
X112053714Y-36996761D01*
X112053714Y-36853904D01*
X112101333Y-36758666D01*
X112148952Y-36711047D01*
X112244190Y-36663428D01*
X112529904Y-36663428D01*
X112625142Y-36711047D01*
X112672761Y-36758666D01*
X112720380Y-36853904D01*
X112720380Y-36996761D01*
X112720380Y-36234857D02*
X111720380Y-36234857D01*
X112101333Y-36234857D02*
X112053714Y-36139619D01*
X112053714Y-35949142D01*
X112101333Y-35853904D01*
X112148952Y-35806285D01*
X112244190Y-35758666D01*
X112529904Y-35758666D01*
X112625142Y-35806285D01*
X112672761Y-35853904D01*
X112720380Y-35949142D01*
X112720380Y-36139619D01*
X112672761Y-36234857D01*
X112672761Y-34949142D02*
X112720380Y-35044380D01*
X112720380Y-35234857D01*
X112672761Y-35330095D01*
X112577523Y-35377714D01*
X112196571Y-35377714D01*
X112101333Y-35330095D01*
X112053714Y-35234857D01*
X112053714Y-35044380D01*
X112101333Y-34949142D01*
X112196571Y-34901523D01*
X112291809Y-34901523D01*
X112387047Y-35377714D01*
D16*
X103703380Y-68879404D02*
X102703380Y-68879404D01*
X102703380Y-68498452D01*
X102751000Y-68403214D01*
X102798619Y-68355595D01*
X102893857Y-68307976D01*
X103036714Y-68307976D01*
X103131952Y-68355595D01*
X103179571Y-68403214D01*
X103227190Y-68498452D01*
X103227190Y-68879404D01*
X103703380Y-67307976D02*
X103227190Y-67641309D01*
X103703380Y-67879404D02*
X102703380Y-67879404D01*
X102703380Y-67498452D01*
X102751000Y-67403214D01*
X102798619Y-67355595D01*
X102893857Y-67307976D01*
X103036714Y-67307976D01*
X103131952Y-67355595D01*
X103179571Y-67403214D01*
X103227190Y-67498452D01*
X103227190Y-67879404D01*
X102703380Y-66688928D02*
X102703380Y-66498452D01*
X102751000Y-66403214D01*
X102846238Y-66307976D01*
X103036714Y-66260357D01*
X103370047Y-66260357D01*
X103560523Y-66307976D01*
X103655761Y-66403214D01*
X103703380Y-66498452D01*
X103703380Y-66688928D01*
X103655761Y-66784166D01*
X103560523Y-66879404D01*
X103370047Y-66927023D01*
X103036714Y-66927023D01*
X102846238Y-66879404D01*
X102751000Y-66784166D01*
X102703380Y-66688928D01*
X103179571Y-65498452D02*
X103227190Y-65355595D01*
X103274809Y-65307976D01*
X103370047Y-65260357D01*
X103512904Y-65260357D01*
X103608142Y-65307976D01*
X103655761Y-65355595D01*
X103703380Y-65450833D01*
X103703380Y-65831785D01*
X102703380Y-65831785D01*
X102703380Y-65498452D01*
X102751000Y-65403214D01*
X102798619Y-65355595D01*
X102893857Y-65307976D01*
X102989095Y-65307976D01*
X103084333Y-65355595D01*
X103131952Y-65403214D01*
X103179571Y-65498452D01*
X103179571Y-65831785D01*
X103179571Y-64831785D02*
X103179571Y-64498452D01*
X103703380Y-64355595D02*
X103703380Y-64831785D01*
X102703380Y-64831785D01*
X102703380Y-64355595D01*
X111323380Y-68752404D02*
X110323380Y-68752404D01*
X110799571Y-68752404D02*
X110799571Y-68180976D01*
X111323380Y-68180976D02*
X110323380Y-68180976D01*
X110799571Y-67704785D02*
X110799571Y-67371452D01*
X111323380Y-67228595D02*
X111323380Y-67704785D01*
X110323380Y-67704785D01*
X110323380Y-67228595D01*
X111037666Y-66847642D02*
X111037666Y-66371452D01*
X111323380Y-66942880D02*
X110323380Y-66609547D01*
X111323380Y-66276214D01*
X110323380Y-66085738D02*
X110323380Y-65514309D01*
X111323380Y-65800023D02*
X110323380Y-65800023D01*
X108259571Y-68419071D02*
X108259571Y-68752404D01*
X108783380Y-68752404D02*
X107783380Y-68752404D01*
X107783380Y-68276214D01*
X108497666Y-67942880D02*
X108497666Y-67466690D01*
X108783380Y-68038119D02*
X107783380Y-67704785D01*
X108783380Y-67371452D01*
X108783380Y-67038119D02*
X107783380Y-67038119D01*
X108783380Y-66466690D01*
X107783380Y-66466690D01*
X106148142Y-68307976D02*
X106195761Y-68355595D01*
X106243380Y-68498452D01*
X106243380Y-68593690D01*
X106195761Y-68736547D01*
X106100523Y-68831785D01*
X106005285Y-68879404D01*
X105814809Y-68927023D01*
X105671952Y-68927023D01*
X105481476Y-68879404D01*
X105386238Y-68831785D01*
X105291000Y-68736547D01*
X105243380Y-68593690D01*
X105243380Y-68498452D01*
X105291000Y-68355595D01*
X105338619Y-68307976D01*
X105243380Y-67688928D02*
X105243380Y-67498452D01*
X105291000Y-67403214D01*
X105386238Y-67307976D01*
X105576714Y-67260357D01*
X105910047Y-67260357D01*
X106100523Y-67307976D01*
X106195761Y-67403214D01*
X106243380Y-67498452D01*
X106243380Y-67688928D01*
X106195761Y-67784166D01*
X106100523Y-67879404D01*
X105910047Y-67927023D01*
X105576714Y-67927023D01*
X105386238Y-67879404D01*
X105291000Y-67784166D01*
X105243380Y-67688928D01*
X105243380Y-66641309D02*
X105243380Y-66450833D01*
X105291000Y-66355595D01*
X105386238Y-66260357D01*
X105576714Y-66212738D01*
X105910047Y-66212738D01*
X106100523Y-66260357D01*
X106195761Y-66355595D01*
X106243380Y-66450833D01*
X106243380Y-66641309D01*
X106195761Y-66736547D01*
X106100523Y-66831785D01*
X105910047Y-66879404D01*
X105576714Y-66879404D01*
X105386238Y-66831785D01*
X105291000Y-66736547D01*
X105243380Y-66641309D01*
X106243380Y-65307976D02*
X106243380Y-65784166D01*
X105243380Y-65784166D01*
X103719333Y-41886142D02*
X103671714Y-41933761D01*
X103528857Y-41981380D01*
X103433619Y-41981380D01*
X103290761Y-41933761D01*
X103195523Y-41838523D01*
X103147904Y-41743285D01*
X103100285Y-41552809D01*
X103100285Y-41409952D01*
X103147904Y-41219476D01*
X103195523Y-41124238D01*
X103290761Y-41029000D01*
X103433619Y-40981380D01*
X103528857Y-40981380D01*
X103671714Y-41029000D01*
X103719333Y-41076619D01*
X104052666Y-40981380D02*
X104671714Y-40981380D01*
X104338380Y-41362333D01*
X104481238Y-41362333D01*
X104576476Y-41409952D01*
X104624095Y-41457571D01*
X104671714Y-41552809D01*
X104671714Y-41790904D01*
X104624095Y-41886142D01*
X104576476Y-41933761D01*
X104481238Y-41981380D01*
X104195523Y-41981380D01*
X104100285Y-41933761D01*
X104052666Y-41886142D01*
X103719333Y-54078142D02*
X103671714Y-54125761D01*
X103528857Y-54173380D01*
X103433619Y-54173380D01*
X103290761Y-54125761D01*
X103195523Y-54030523D01*
X103147904Y-53935285D01*
X103100285Y-53744809D01*
X103100285Y-53601952D01*
X103147904Y-53411476D01*
X103195523Y-53316238D01*
X103290761Y-53221000D01*
X103433619Y-53173380D01*
X103528857Y-53173380D01*
X103671714Y-53221000D01*
X103719333Y-53268619D01*
X104100285Y-53268619D02*
X104147904Y-53221000D01*
X104243142Y-53173380D01*
X104481238Y-53173380D01*
X104576476Y-53221000D01*
X104624095Y-53268619D01*
X104671714Y-53363857D01*
X104671714Y-53459095D01*
X104624095Y-53601952D01*
X104052666Y-54173380D01*
X104671714Y-54173380D01*
X103719333Y-47855142D02*
X103671714Y-47902761D01*
X103528857Y-47950380D01*
X103433619Y-47950380D01*
X103290761Y-47902761D01*
X103195523Y-47807523D01*
X103147904Y-47712285D01*
X103100285Y-47521809D01*
X103100285Y-47378952D01*
X103147904Y-47188476D01*
X103195523Y-47093238D01*
X103290761Y-46998000D01*
X103433619Y-46950380D01*
X103528857Y-46950380D01*
X103671714Y-46998000D01*
X103719333Y-47045619D01*
X104671714Y-47950380D02*
X104100285Y-47950380D01*
X104386000Y-47950380D02*
X104386000Y-46950380D01*
X104290761Y-47093238D01*
X104195523Y-47188476D01*
X104100285Y-47236095D01*
X101020666Y-59904380D02*
X101020666Y-60618666D01*
X100973047Y-60761523D01*
X100877809Y-60856761D01*
X100734952Y-60904380D01*
X100639714Y-60904380D01*
X101496857Y-60904380D02*
X101496857Y-59904380D01*
X101877809Y-59904380D01*
X101973047Y-59952000D01*
X102020666Y-59999619D01*
X102068285Y-60094857D01*
X102068285Y-60237714D01*
X102020666Y-60332952D01*
X101973047Y-60380571D01*
X101877809Y-60428190D01*
X101496857Y-60428190D01*
X103020666Y-60904380D02*
X102449238Y-60904380D01*
X102734952Y-60904380D02*
X102734952Y-59904380D01*
X102639714Y-60047238D01*
X102544476Y-60142476D01*
X102449238Y-60190095D01*
M02*
