M48
; DRILL file {KiCad 5.1.4-e60b266~84~ubuntu18.04.1} date Fri Sep 27 15:55:06 2019
; FORMAT={-:-/ absolute / inch / decimal}
; #@! TF.CreationDate,2019-09-27T15:55:06+08:00
; #@! TF.GenerationSoftware,Kicad,Pcbnew,5.1.4-e60b266~84~ubuntu18.04.1
; #@! TF.FileFunction,Plated,1,2,PTH
FMAT,2
INCH
T1C0.0157
T2C0.0394
T3C0.0551
%
G90
G05
T1
X4.0191Y-1.93
X4.0191Y-2.17
X4.065Y-2.835
X4.15Y-2.7
X4.1609Y-1.69
X4.1609Y-1.93
X4.1609Y-2.17
X4.165Y-2.835
X4.1656Y-2.38
X4.176Y-2.466
X4.23Y-2.69
X4.25Y-2.27
X4.265Y-2.835
X4.31Y-2.28
X4.325Y-2.445
X4.35Y-2.52
X4.365Y-2.835
X4.42Y-2.61
X4.435Y-2.705
T2
X4.55Y-1.63
X4.55Y-1.73
X4.55Y-1.83
X4.55Y-1.93
X4.55Y-2.03
X4.55Y-2.13
X4.55Y-2.23
X4.55Y-2.33
X4.55Y-2.43
X4.55Y-2.53
T3
X3.81Y-2.225
X3.81Y-2.375
X3.81Y-1.865
X3.81Y-2.015
X3.81Y-2.585
X3.81Y-2.735
X3.81Y-1.505
X3.81Y-1.655
X4.0122Y-1.46
X4.15Y-1.46
X4.2878Y-1.46
T0
M30
