G04 #@! TF.GenerationSoftware,KiCad,Pcbnew,5.1.4-e60b266~84~ubuntu18.04.1*
G04 #@! TF.CreationDate,2019-09-27T15:55:01+08:00*
G04 #@! TF.ProjectId,head,68656164-2e6b-4696-9361-645f70636258,rev?*
G04 #@! TF.SameCoordinates,Original*
G04 #@! TF.FileFunction,Paste,Top*
G04 #@! TF.FilePolarity,Positive*
%FSLAX46Y46*%
G04 Gerber Fmt 4.6, Leading zero omitted, Abs format (unit mm)*
G04 Created by KiCad (PCBNEW 5.1.4-e60b266~84~ubuntu18.04.1) date 2019-09-27 15:55:01*
%MOMM*%
%LPD*%
G04 APERTURE LIST*
%ADD10C,0.100000*%
%ADD11C,0.975000*%
%ADD12C,1.600000*%
G04 APERTURE END LIST*
D10*
G36*
X103731142Y-69696174D02*
G01*
X103754803Y-69699684D01*
X103778007Y-69705496D01*
X103800529Y-69713554D01*
X103822153Y-69723782D01*
X103842670Y-69736079D01*
X103861883Y-69750329D01*
X103879607Y-69766393D01*
X103895671Y-69784117D01*
X103909921Y-69803330D01*
X103922218Y-69823847D01*
X103932446Y-69845471D01*
X103940504Y-69867993D01*
X103946316Y-69891197D01*
X103949826Y-69914858D01*
X103951000Y-69938750D01*
X103951000Y-70426250D01*
X103949826Y-70450142D01*
X103946316Y-70473803D01*
X103940504Y-70497007D01*
X103932446Y-70519529D01*
X103922218Y-70541153D01*
X103909921Y-70561670D01*
X103895671Y-70580883D01*
X103879607Y-70598607D01*
X103861883Y-70614671D01*
X103842670Y-70628921D01*
X103822153Y-70641218D01*
X103800529Y-70651446D01*
X103778007Y-70659504D01*
X103754803Y-70665316D01*
X103731142Y-70668826D01*
X103707250Y-70670000D01*
X102794750Y-70670000D01*
X102770858Y-70668826D01*
X102747197Y-70665316D01*
X102723993Y-70659504D01*
X102701471Y-70651446D01*
X102679847Y-70641218D01*
X102659330Y-70628921D01*
X102640117Y-70614671D01*
X102622393Y-70598607D01*
X102606329Y-70580883D01*
X102592079Y-70561670D01*
X102579782Y-70541153D01*
X102569554Y-70519529D01*
X102561496Y-70497007D01*
X102555684Y-70473803D01*
X102552174Y-70450142D01*
X102551000Y-70426250D01*
X102551000Y-69938750D01*
X102552174Y-69914858D01*
X102555684Y-69891197D01*
X102561496Y-69867993D01*
X102569554Y-69845471D01*
X102579782Y-69823847D01*
X102592079Y-69803330D01*
X102606329Y-69784117D01*
X102622393Y-69766393D01*
X102640117Y-69750329D01*
X102659330Y-69736079D01*
X102679847Y-69723782D01*
X102701471Y-69713554D01*
X102723993Y-69705496D01*
X102747197Y-69699684D01*
X102770858Y-69696174D01*
X102794750Y-69695000D01*
X103707250Y-69695000D01*
X103731142Y-69696174D01*
X103731142Y-69696174D01*
G37*
D11*
X103251000Y-70182500D03*
D10*
G36*
X103731142Y-71571174D02*
G01*
X103754803Y-71574684D01*
X103778007Y-71580496D01*
X103800529Y-71588554D01*
X103822153Y-71598782D01*
X103842670Y-71611079D01*
X103861883Y-71625329D01*
X103879607Y-71641393D01*
X103895671Y-71659117D01*
X103909921Y-71678330D01*
X103922218Y-71698847D01*
X103932446Y-71720471D01*
X103940504Y-71742993D01*
X103946316Y-71766197D01*
X103949826Y-71789858D01*
X103951000Y-71813750D01*
X103951000Y-72301250D01*
X103949826Y-72325142D01*
X103946316Y-72348803D01*
X103940504Y-72372007D01*
X103932446Y-72394529D01*
X103922218Y-72416153D01*
X103909921Y-72436670D01*
X103895671Y-72455883D01*
X103879607Y-72473607D01*
X103861883Y-72489671D01*
X103842670Y-72503921D01*
X103822153Y-72516218D01*
X103800529Y-72526446D01*
X103778007Y-72534504D01*
X103754803Y-72540316D01*
X103731142Y-72543826D01*
X103707250Y-72545000D01*
X102794750Y-72545000D01*
X102770858Y-72543826D01*
X102747197Y-72540316D01*
X102723993Y-72534504D01*
X102701471Y-72526446D01*
X102679847Y-72516218D01*
X102659330Y-72503921D01*
X102640117Y-72489671D01*
X102622393Y-72473607D01*
X102606329Y-72455883D01*
X102592079Y-72436670D01*
X102579782Y-72416153D01*
X102569554Y-72394529D01*
X102561496Y-72372007D01*
X102555684Y-72348803D01*
X102552174Y-72325142D01*
X102551000Y-72301250D01*
X102551000Y-71813750D01*
X102552174Y-71789858D01*
X102555684Y-71766197D01*
X102561496Y-71742993D01*
X102569554Y-71720471D01*
X102579782Y-71698847D01*
X102592079Y-71678330D01*
X102606329Y-71659117D01*
X102622393Y-71641393D01*
X102640117Y-71625329D01*
X102659330Y-71611079D01*
X102679847Y-71598782D01*
X102701471Y-71588554D01*
X102723993Y-71580496D01*
X102747197Y-71574684D01*
X102770858Y-71571174D01*
X102794750Y-71570000D01*
X103707250Y-71570000D01*
X103731142Y-71571174D01*
X103731142Y-71571174D01*
G37*
D11*
X103251000Y-72057500D03*
D10*
G36*
X111351142Y-69696174D02*
G01*
X111374803Y-69699684D01*
X111398007Y-69705496D01*
X111420529Y-69713554D01*
X111442153Y-69723782D01*
X111462670Y-69736079D01*
X111481883Y-69750329D01*
X111499607Y-69766393D01*
X111515671Y-69784117D01*
X111529921Y-69803330D01*
X111542218Y-69823847D01*
X111552446Y-69845471D01*
X111560504Y-69867993D01*
X111566316Y-69891197D01*
X111569826Y-69914858D01*
X111571000Y-69938750D01*
X111571000Y-70426250D01*
X111569826Y-70450142D01*
X111566316Y-70473803D01*
X111560504Y-70497007D01*
X111552446Y-70519529D01*
X111542218Y-70541153D01*
X111529921Y-70561670D01*
X111515671Y-70580883D01*
X111499607Y-70598607D01*
X111481883Y-70614671D01*
X111462670Y-70628921D01*
X111442153Y-70641218D01*
X111420529Y-70651446D01*
X111398007Y-70659504D01*
X111374803Y-70665316D01*
X111351142Y-70668826D01*
X111327250Y-70670000D01*
X110414750Y-70670000D01*
X110390858Y-70668826D01*
X110367197Y-70665316D01*
X110343993Y-70659504D01*
X110321471Y-70651446D01*
X110299847Y-70641218D01*
X110279330Y-70628921D01*
X110260117Y-70614671D01*
X110242393Y-70598607D01*
X110226329Y-70580883D01*
X110212079Y-70561670D01*
X110199782Y-70541153D01*
X110189554Y-70519529D01*
X110181496Y-70497007D01*
X110175684Y-70473803D01*
X110172174Y-70450142D01*
X110171000Y-70426250D01*
X110171000Y-69938750D01*
X110172174Y-69914858D01*
X110175684Y-69891197D01*
X110181496Y-69867993D01*
X110189554Y-69845471D01*
X110199782Y-69823847D01*
X110212079Y-69803330D01*
X110226329Y-69784117D01*
X110242393Y-69766393D01*
X110260117Y-69750329D01*
X110279330Y-69736079D01*
X110299847Y-69723782D01*
X110321471Y-69713554D01*
X110343993Y-69705496D01*
X110367197Y-69699684D01*
X110390858Y-69696174D01*
X110414750Y-69695000D01*
X111327250Y-69695000D01*
X111351142Y-69696174D01*
X111351142Y-69696174D01*
G37*
D11*
X110871000Y-70182500D03*
D10*
G36*
X111351142Y-71571174D02*
G01*
X111374803Y-71574684D01*
X111398007Y-71580496D01*
X111420529Y-71588554D01*
X111442153Y-71598782D01*
X111462670Y-71611079D01*
X111481883Y-71625329D01*
X111499607Y-71641393D01*
X111515671Y-71659117D01*
X111529921Y-71678330D01*
X111542218Y-71698847D01*
X111552446Y-71720471D01*
X111560504Y-71742993D01*
X111566316Y-71766197D01*
X111569826Y-71789858D01*
X111571000Y-71813750D01*
X111571000Y-72301250D01*
X111569826Y-72325142D01*
X111566316Y-72348803D01*
X111560504Y-72372007D01*
X111552446Y-72394529D01*
X111542218Y-72416153D01*
X111529921Y-72436670D01*
X111515671Y-72455883D01*
X111499607Y-72473607D01*
X111481883Y-72489671D01*
X111462670Y-72503921D01*
X111442153Y-72516218D01*
X111420529Y-72526446D01*
X111398007Y-72534504D01*
X111374803Y-72540316D01*
X111351142Y-72543826D01*
X111327250Y-72545000D01*
X110414750Y-72545000D01*
X110390858Y-72543826D01*
X110367197Y-72540316D01*
X110343993Y-72534504D01*
X110321471Y-72526446D01*
X110299847Y-72516218D01*
X110279330Y-72503921D01*
X110260117Y-72489671D01*
X110242393Y-72473607D01*
X110226329Y-72455883D01*
X110212079Y-72436670D01*
X110199782Y-72416153D01*
X110189554Y-72394529D01*
X110181496Y-72372007D01*
X110175684Y-72348803D01*
X110172174Y-72325142D01*
X110171000Y-72301250D01*
X110171000Y-71813750D01*
X110172174Y-71789858D01*
X110175684Y-71766197D01*
X110181496Y-71742993D01*
X110189554Y-71720471D01*
X110199782Y-71698847D01*
X110212079Y-71678330D01*
X110226329Y-71659117D01*
X110242393Y-71641393D01*
X110260117Y-71625329D01*
X110279330Y-71611079D01*
X110299847Y-71598782D01*
X110321471Y-71588554D01*
X110343993Y-71580496D01*
X110367197Y-71574684D01*
X110390858Y-71571174D01*
X110414750Y-71570000D01*
X111327250Y-71570000D01*
X111351142Y-71571174D01*
X111351142Y-71571174D01*
G37*
D11*
X110871000Y-72057500D03*
D10*
G36*
X108811142Y-69696174D02*
G01*
X108834803Y-69699684D01*
X108858007Y-69705496D01*
X108880529Y-69713554D01*
X108902153Y-69723782D01*
X108922670Y-69736079D01*
X108941883Y-69750329D01*
X108959607Y-69766393D01*
X108975671Y-69784117D01*
X108989921Y-69803330D01*
X109002218Y-69823847D01*
X109012446Y-69845471D01*
X109020504Y-69867993D01*
X109026316Y-69891197D01*
X109029826Y-69914858D01*
X109031000Y-69938750D01*
X109031000Y-70426250D01*
X109029826Y-70450142D01*
X109026316Y-70473803D01*
X109020504Y-70497007D01*
X109012446Y-70519529D01*
X109002218Y-70541153D01*
X108989921Y-70561670D01*
X108975671Y-70580883D01*
X108959607Y-70598607D01*
X108941883Y-70614671D01*
X108922670Y-70628921D01*
X108902153Y-70641218D01*
X108880529Y-70651446D01*
X108858007Y-70659504D01*
X108834803Y-70665316D01*
X108811142Y-70668826D01*
X108787250Y-70670000D01*
X107874750Y-70670000D01*
X107850858Y-70668826D01*
X107827197Y-70665316D01*
X107803993Y-70659504D01*
X107781471Y-70651446D01*
X107759847Y-70641218D01*
X107739330Y-70628921D01*
X107720117Y-70614671D01*
X107702393Y-70598607D01*
X107686329Y-70580883D01*
X107672079Y-70561670D01*
X107659782Y-70541153D01*
X107649554Y-70519529D01*
X107641496Y-70497007D01*
X107635684Y-70473803D01*
X107632174Y-70450142D01*
X107631000Y-70426250D01*
X107631000Y-69938750D01*
X107632174Y-69914858D01*
X107635684Y-69891197D01*
X107641496Y-69867993D01*
X107649554Y-69845471D01*
X107659782Y-69823847D01*
X107672079Y-69803330D01*
X107686329Y-69784117D01*
X107702393Y-69766393D01*
X107720117Y-69750329D01*
X107739330Y-69736079D01*
X107759847Y-69723782D01*
X107781471Y-69713554D01*
X107803993Y-69705496D01*
X107827197Y-69699684D01*
X107850858Y-69696174D01*
X107874750Y-69695000D01*
X108787250Y-69695000D01*
X108811142Y-69696174D01*
X108811142Y-69696174D01*
G37*
D11*
X108331000Y-70182500D03*
D10*
G36*
X108811142Y-71571174D02*
G01*
X108834803Y-71574684D01*
X108858007Y-71580496D01*
X108880529Y-71588554D01*
X108902153Y-71598782D01*
X108922670Y-71611079D01*
X108941883Y-71625329D01*
X108959607Y-71641393D01*
X108975671Y-71659117D01*
X108989921Y-71678330D01*
X109002218Y-71698847D01*
X109012446Y-71720471D01*
X109020504Y-71742993D01*
X109026316Y-71766197D01*
X109029826Y-71789858D01*
X109031000Y-71813750D01*
X109031000Y-72301250D01*
X109029826Y-72325142D01*
X109026316Y-72348803D01*
X109020504Y-72372007D01*
X109012446Y-72394529D01*
X109002218Y-72416153D01*
X108989921Y-72436670D01*
X108975671Y-72455883D01*
X108959607Y-72473607D01*
X108941883Y-72489671D01*
X108922670Y-72503921D01*
X108902153Y-72516218D01*
X108880529Y-72526446D01*
X108858007Y-72534504D01*
X108834803Y-72540316D01*
X108811142Y-72543826D01*
X108787250Y-72545000D01*
X107874750Y-72545000D01*
X107850858Y-72543826D01*
X107827197Y-72540316D01*
X107803993Y-72534504D01*
X107781471Y-72526446D01*
X107759847Y-72516218D01*
X107739330Y-72503921D01*
X107720117Y-72489671D01*
X107702393Y-72473607D01*
X107686329Y-72455883D01*
X107672079Y-72436670D01*
X107659782Y-72416153D01*
X107649554Y-72394529D01*
X107641496Y-72372007D01*
X107635684Y-72348803D01*
X107632174Y-72325142D01*
X107631000Y-72301250D01*
X107631000Y-71813750D01*
X107632174Y-71789858D01*
X107635684Y-71766197D01*
X107641496Y-71742993D01*
X107649554Y-71720471D01*
X107659782Y-71698847D01*
X107672079Y-71678330D01*
X107686329Y-71659117D01*
X107702393Y-71641393D01*
X107720117Y-71625329D01*
X107739330Y-71611079D01*
X107759847Y-71598782D01*
X107781471Y-71588554D01*
X107803993Y-71580496D01*
X107827197Y-71574684D01*
X107850858Y-71571174D01*
X107874750Y-71570000D01*
X108787250Y-71570000D01*
X108811142Y-71571174D01*
X108811142Y-71571174D01*
G37*
D11*
X108331000Y-72057500D03*
D10*
G36*
X106271142Y-69696174D02*
G01*
X106294803Y-69699684D01*
X106318007Y-69705496D01*
X106340529Y-69713554D01*
X106362153Y-69723782D01*
X106382670Y-69736079D01*
X106401883Y-69750329D01*
X106419607Y-69766393D01*
X106435671Y-69784117D01*
X106449921Y-69803330D01*
X106462218Y-69823847D01*
X106472446Y-69845471D01*
X106480504Y-69867993D01*
X106486316Y-69891197D01*
X106489826Y-69914858D01*
X106491000Y-69938750D01*
X106491000Y-70426250D01*
X106489826Y-70450142D01*
X106486316Y-70473803D01*
X106480504Y-70497007D01*
X106472446Y-70519529D01*
X106462218Y-70541153D01*
X106449921Y-70561670D01*
X106435671Y-70580883D01*
X106419607Y-70598607D01*
X106401883Y-70614671D01*
X106382670Y-70628921D01*
X106362153Y-70641218D01*
X106340529Y-70651446D01*
X106318007Y-70659504D01*
X106294803Y-70665316D01*
X106271142Y-70668826D01*
X106247250Y-70670000D01*
X105334750Y-70670000D01*
X105310858Y-70668826D01*
X105287197Y-70665316D01*
X105263993Y-70659504D01*
X105241471Y-70651446D01*
X105219847Y-70641218D01*
X105199330Y-70628921D01*
X105180117Y-70614671D01*
X105162393Y-70598607D01*
X105146329Y-70580883D01*
X105132079Y-70561670D01*
X105119782Y-70541153D01*
X105109554Y-70519529D01*
X105101496Y-70497007D01*
X105095684Y-70473803D01*
X105092174Y-70450142D01*
X105091000Y-70426250D01*
X105091000Y-69938750D01*
X105092174Y-69914858D01*
X105095684Y-69891197D01*
X105101496Y-69867993D01*
X105109554Y-69845471D01*
X105119782Y-69823847D01*
X105132079Y-69803330D01*
X105146329Y-69784117D01*
X105162393Y-69766393D01*
X105180117Y-69750329D01*
X105199330Y-69736079D01*
X105219847Y-69723782D01*
X105241471Y-69713554D01*
X105263993Y-69705496D01*
X105287197Y-69699684D01*
X105310858Y-69696174D01*
X105334750Y-69695000D01*
X106247250Y-69695000D01*
X106271142Y-69696174D01*
X106271142Y-69696174D01*
G37*
D11*
X105791000Y-70182500D03*
D10*
G36*
X106271142Y-71571174D02*
G01*
X106294803Y-71574684D01*
X106318007Y-71580496D01*
X106340529Y-71588554D01*
X106362153Y-71598782D01*
X106382670Y-71611079D01*
X106401883Y-71625329D01*
X106419607Y-71641393D01*
X106435671Y-71659117D01*
X106449921Y-71678330D01*
X106462218Y-71698847D01*
X106472446Y-71720471D01*
X106480504Y-71742993D01*
X106486316Y-71766197D01*
X106489826Y-71789858D01*
X106491000Y-71813750D01*
X106491000Y-72301250D01*
X106489826Y-72325142D01*
X106486316Y-72348803D01*
X106480504Y-72372007D01*
X106472446Y-72394529D01*
X106462218Y-72416153D01*
X106449921Y-72436670D01*
X106435671Y-72455883D01*
X106419607Y-72473607D01*
X106401883Y-72489671D01*
X106382670Y-72503921D01*
X106362153Y-72516218D01*
X106340529Y-72526446D01*
X106318007Y-72534504D01*
X106294803Y-72540316D01*
X106271142Y-72543826D01*
X106247250Y-72545000D01*
X105334750Y-72545000D01*
X105310858Y-72543826D01*
X105287197Y-72540316D01*
X105263993Y-72534504D01*
X105241471Y-72526446D01*
X105219847Y-72516218D01*
X105199330Y-72503921D01*
X105180117Y-72489671D01*
X105162393Y-72473607D01*
X105146329Y-72455883D01*
X105132079Y-72436670D01*
X105119782Y-72416153D01*
X105109554Y-72394529D01*
X105101496Y-72372007D01*
X105095684Y-72348803D01*
X105092174Y-72325142D01*
X105091000Y-72301250D01*
X105091000Y-71813750D01*
X105092174Y-71789858D01*
X105095684Y-71766197D01*
X105101496Y-71742993D01*
X105109554Y-71720471D01*
X105119782Y-71698847D01*
X105132079Y-71678330D01*
X105146329Y-71659117D01*
X105162393Y-71641393D01*
X105180117Y-71625329D01*
X105199330Y-71611079D01*
X105219847Y-71598782D01*
X105241471Y-71588554D01*
X105263993Y-71580496D01*
X105287197Y-71574684D01*
X105310858Y-71571174D01*
X105334750Y-71570000D01*
X106247250Y-71570000D01*
X106271142Y-71571174D01*
X106271142Y-71571174D01*
G37*
D11*
X105791000Y-72057500D03*
D10*
G36*
X106760504Y-42127204D02*
G01*
X106784773Y-42130804D01*
X106808571Y-42136765D01*
X106831671Y-42145030D01*
X106853849Y-42155520D01*
X106874893Y-42168133D01*
X106894598Y-42182747D01*
X106912777Y-42199223D01*
X106929253Y-42217402D01*
X106943867Y-42237107D01*
X106956480Y-42258151D01*
X106966970Y-42280329D01*
X106975235Y-42303429D01*
X106981196Y-42327227D01*
X106984796Y-42351496D01*
X106986000Y-42376000D01*
X106986000Y-43476000D01*
X106984796Y-43500504D01*
X106981196Y-43524773D01*
X106975235Y-43548571D01*
X106966970Y-43571671D01*
X106956480Y-43593849D01*
X106943867Y-43614893D01*
X106929253Y-43634598D01*
X106912777Y-43652777D01*
X106894598Y-43669253D01*
X106874893Y-43683867D01*
X106853849Y-43696480D01*
X106831671Y-43706970D01*
X106808571Y-43715235D01*
X106784773Y-43721196D01*
X106760504Y-43724796D01*
X106736000Y-43726000D01*
X104636000Y-43726000D01*
X104611496Y-43724796D01*
X104587227Y-43721196D01*
X104563429Y-43715235D01*
X104540329Y-43706970D01*
X104518151Y-43696480D01*
X104497107Y-43683867D01*
X104477402Y-43669253D01*
X104459223Y-43652777D01*
X104442747Y-43634598D01*
X104428133Y-43614893D01*
X104415520Y-43593849D01*
X104405030Y-43571671D01*
X104396765Y-43548571D01*
X104390804Y-43524773D01*
X104387204Y-43500504D01*
X104386000Y-43476000D01*
X104386000Y-42376000D01*
X104387204Y-42351496D01*
X104390804Y-42327227D01*
X104396765Y-42303429D01*
X104405030Y-42280329D01*
X104415520Y-42258151D01*
X104428133Y-42237107D01*
X104442747Y-42217402D01*
X104459223Y-42199223D01*
X104477402Y-42182747D01*
X104497107Y-42168133D01*
X104518151Y-42155520D01*
X104540329Y-42145030D01*
X104563429Y-42136765D01*
X104587227Y-42130804D01*
X104611496Y-42127204D01*
X104636000Y-42126000D01*
X106736000Y-42126000D01*
X106760504Y-42127204D01*
X106760504Y-42127204D01*
G37*
D12*
X105686000Y-42926000D03*
D10*
G36*
X103160504Y-42127204D02*
G01*
X103184773Y-42130804D01*
X103208571Y-42136765D01*
X103231671Y-42145030D01*
X103253849Y-42155520D01*
X103274893Y-42168133D01*
X103294598Y-42182747D01*
X103312777Y-42199223D01*
X103329253Y-42217402D01*
X103343867Y-42237107D01*
X103356480Y-42258151D01*
X103366970Y-42280329D01*
X103375235Y-42303429D01*
X103381196Y-42327227D01*
X103384796Y-42351496D01*
X103386000Y-42376000D01*
X103386000Y-43476000D01*
X103384796Y-43500504D01*
X103381196Y-43524773D01*
X103375235Y-43548571D01*
X103366970Y-43571671D01*
X103356480Y-43593849D01*
X103343867Y-43614893D01*
X103329253Y-43634598D01*
X103312777Y-43652777D01*
X103294598Y-43669253D01*
X103274893Y-43683867D01*
X103253849Y-43696480D01*
X103231671Y-43706970D01*
X103208571Y-43715235D01*
X103184773Y-43721196D01*
X103160504Y-43724796D01*
X103136000Y-43726000D01*
X101036000Y-43726000D01*
X101011496Y-43724796D01*
X100987227Y-43721196D01*
X100963429Y-43715235D01*
X100940329Y-43706970D01*
X100918151Y-43696480D01*
X100897107Y-43683867D01*
X100877402Y-43669253D01*
X100859223Y-43652777D01*
X100842747Y-43634598D01*
X100828133Y-43614893D01*
X100815520Y-43593849D01*
X100805030Y-43571671D01*
X100796765Y-43548571D01*
X100790804Y-43524773D01*
X100787204Y-43500504D01*
X100786000Y-43476000D01*
X100786000Y-42376000D01*
X100787204Y-42351496D01*
X100790804Y-42327227D01*
X100796765Y-42303429D01*
X100805030Y-42280329D01*
X100815520Y-42258151D01*
X100828133Y-42237107D01*
X100842747Y-42217402D01*
X100859223Y-42199223D01*
X100877402Y-42182747D01*
X100897107Y-42168133D01*
X100918151Y-42155520D01*
X100940329Y-42145030D01*
X100963429Y-42136765D01*
X100987227Y-42130804D01*
X101011496Y-42127204D01*
X101036000Y-42126000D01*
X103136000Y-42126000D01*
X103160504Y-42127204D01*
X103160504Y-42127204D01*
G37*
D12*
X102086000Y-42926000D03*
D10*
G36*
X106760504Y-54319204D02*
G01*
X106784773Y-54322804D01*
X106808571Y-54328765D01*
X106831671Y-54337030D01*
X106853849Y-54347520D01*
X106874893Y-54360133D01*
X106894598Y-54374747D01*
X106912777Y-54391223D01*
X106929253Y-54409402D01*
X106943867Y-54429107D01*
X106956480Y-54450151D01*
X106966970Y-54472329D01*
X106975235Y-54495429D01*
X106981196Y-54519227D01*
X106984796Y-54543496D01*
X106986000Y-54568000D01*
X106986000Y-55668000D01*
X106984796Y-55692504D01*
X106981196Y-55716773D01*
X106975235Y-55740571D01*
X106966970Y-55763671D01*
X106956480Y-55785849D01*
X106943867Y-55806893D01*
X106929253Y-55826598D01*
X106912777Y-55844777D01*
X106894598Y-55861253D01*
X106874893Y-55875867D01*
X106853849Y-55888480D01*
X106831671Y-55898970D01*
X106808571Y-55907235D01*
X106784773Y-55913196D01*
X106760504Y-55916796D01*
X106736000Y-55918000D01*
X104636000Y-55918000D01*
X104611496Y-55916796D01*
X104587227Y-55913196D01*
X104563429Y-55907235D01*
X104540329Y-55898970D01*
X104518151Y-55888480D01*
X104497107Y-55875867D01*
X104477402Y-55861253D01*
X104459223Y-55844777D01*
X104442747Y-55826598D01*
X104428133Y-55806893D01*
X104415520Y-55785849D01*
X104405030Y-55763671D01*
X104396765Y-55740571D01*
X104390804Y-55716773D01*
X104387204Y-55692504D01*
X104386000Y-55668000D01*
X104386000Y-54568000D01*
X104387204Y-54543496D01*
X104390804Y-54519227D01*
X104396765Y-54495429D01*
X104405030Y-54472329D01*
X104415520Y-54450151D01*
X104428133Y-54429107D01*
X104442747Y-54409402D01*
X104459223Y-54391223D01*
X104477402Y-54374747D01*
X104497107Y-54360133D01*
X104518151Y-54347520D01*
X104540329Y-54337030D01*
X104563429Y-54328765D01*
X104587227Y-54322804D01*
X104611496Y-54319204D01*
X104636000Y-54318000D01*
X106736000Y-54318000D01*
X106760504Y-54319204D01*
X106760504Y-54319204D01*
G37*
D12*
X105686000Y-55118000D03*
D10*
G36*
X103160504Y-54319204D02*
G01*
X103184773Y-54322804D01*
X103208571Y-54328765D01*
X103231671Y-54337030D01*
X103253849Y-54347520D01*
X103274893Y-54360133D01*
X103294598Y-54374747D01*
X103312777Y-54391223D01*
X103329253Y-54409402D01*
X103343867Y-54429107D01*
X103356480Y-54450151D01*
X103366970Y-54472329D01*
X103375235Y-54495429D01*
X103381196Y-54519227D01*
X103384796Y-54543496D01*
X103386000Y-54568000D01*
X103386000Y-55668000D01*
X103384796Y-55692504D01*
X103381196Y-55716773D01*
X103375235Y-55740571D01*
X103366970Y-55763671D01*
X103356480Y-55785849D01*
X103343867Y-55806893D01*
X103329253Y-55826598D01*
X103312777Y-55844777D01*
X103294598Y-55861253D01*
X103274893Y-55875867D01*
X103253849Y-55888480D01*
X103231671Y-55898970D01*
X103208571Y-55907235D01*
X103184773Y-55913196D01*
X103160504Y-55916796D01*
X103136000Y-55918000D01*
X101036000Y-55918000D01*
X101011496Y-55916796D01*
X100987227Y-55913196D01*
X100963429Y-55907235D01*
X100940329Y-55898970D01*
X100918151Y-55888480D01*
X100897107Y-55875867D01*
X100877402Y-55861253D01*
X100859223Y-55844777D01*
X100842747Y-55826598D01*
X100828133Y-55806893D01*
X100815520Y-55785849D01*
X100805030Y-55763671D01*
X100796765Y-55740571D01*
X100790804Y-55716773D01*
X100787204Y-55692504D01*
X100786000Y-55668000D01*
X100786000Y-54568000D01*
X100787204Y-54543496D01*
X100790804Y-54519227D01*
X100796765Y-54495429D01*
X100805030Y-54472329D01*
X100815520Y-54450151D01*
X100828133Y-54429107D01*
X100842747Y-54409402D01*
X100859223Y-54391223D01*
X100877402Y-54374747D01*
X100897107Y-54360133D01*
X100918151Y-54347520D01*
X100940329Y-54337030D01*
X100963429Y-54328765D01*
X100987227Y-54322804D01*
X101011496Y-54319204D01*
X101036000Y-54318000D01*
X103136000Y-54318000D01*
X103160504Y-54319204D01*
X103160504Y-54319204D01*
G37*
D12*
X102086000Y-55118000D03*
D10*
G36*
X106760504Y-48223204D02*
G01*
X106784773Y-48226804D01*
X106808571Y-48232765D01*
X106831671Y-48241030D01*
X106853849Y-48251520D01*
X106874893Y-48264133D01*
X106894598Y-48278747D01*
X106912777Y-48295223D01*
X106929253Y-48313402D01*
X106943867Y-48333107D01*
X106956480Y-48354151D01*
X106966970Y-48376329D01*
X106975235Y-48399429D01*
X106981196Y-48423227D01*
X106984796Y-48447496D01*
X106986000Y-48472000D01*
X106986000Y-49572000D01*
X106984796Y-49596504D01*
X106981196Y-49620773D01*
X106975235Y-49644571D01*
X106966970Y-49667671D01*
X106956480Y-49689849D01*
X106943867Y-49710893D01*
X106929253Y-49730598D01*
X106912777Y-49748777D01*
X106894598Y-49765253D01*
X106874893Y-49779867D01*
X106853849Y-49792480D01*
X106831671Y-49802970D01*
X106808571Y-49811235D01*
X106784773Y-49817196D01*
X106760504Y-49820796D01*
X106736000Y-49822000D01*
X104636000Y-49822000D01*
X104611496Y-49820796D01*
X104587227Y-49817196D01*
X104563429Y-49811235D01*
X104540329Y-49802970D01*
X104518151Y-49792480D01*
X104497107Y-49779867D01*
X104477402Y-49765253D01*
X104459223Y-49748777D01*
X104442747Y-49730598D01*
X104428133Y-49710893D01*
X104415520Y-49689849D01*
X104405030Y-49667671D01*
X104396765Y-49644571D01*
X104390804Y-49620773D01*
X104387204Y-49596504D01*
X104386000Y-49572000D01*
X104386000Y-48472000D01*
X104387204Y-48447496D01*
X104390804Y-48423227D01*
X104396765Y-48399429D01*
X104405030Y-48376329D01*
X104415520Y-48354151D01*
X104428133Y-48333107D01*
X104442747Y-48313402D01*
X104459223Y-48295223D01*
X104477402Y-48278747D01*
X104497107Y-48264133D01*
X104518151Y-48251520D01*
X104540329Y-48241030D01*
X104563429Y-48232765D01*
X104587227Y-48226804D01*
X104611496Y-48223204D01*
X104636000Y-48222000D01*
X106736000Y-48222000D01*
X106760504Y-48223204D01*
X106760504Y-48223204D01*
G37*
D12*
X105686000Y-49022000D03*
D10*
G36*
X103160504Y-48223204D02*
G01*
X103184773Y-48226804D01*
X103208571Y-48232765D01*
X103231671Y-48241030D01*
X103253849Y-48251520D01*
X103274893Y-48264133D01*
X103294598Y-48278747D01*
X103312777Y-48295223D01*
X103329253Y-48313402D01*
X103343867Y-48333107D01*
X103356480Y-48354151D01*
X103366970Y-48376329D01*
X103375235Y-48399429D01*
X103381196Y-48423227D01*
X103384796Y-48447496D01*
X103386000Y-48472000D01*
X103386000Y-49572000D01*
X103384796Y-49596504D01*
X103381196Y-49620773D01*
X103375235Y-49644571D01*
X103366970Y-49667671D01*
X103356480Y-49689849D01*
X103343867Y-49710893D01*
X103329253Y-49730598D01*
X103312777Y-49748777D01*
X103294598Y-49765253D01*
X103274893Y-49779867D01*
X103253849Y-49792480D01*
X103231671Y-49802970D01*
X103208571Y-49811235D01*
X103184773Y-49817196D01*
X103160504Y-49820796D01*
X103136000Y-49822000D01*
X101036000Y-49822000D01*
X101011496Y-49820796D01*
X100987227Y-49817196D01*
X100963429Y-49811235D01*
X100940329Y-49802970D01*
X100918151Y-49792480D01*
X100897107Y-49779867D01*
X100877402Y-49765253D01*
X100859223Y-49748777D01*
X100842747Y-49730598D01*
X100828133Y-49710893D01*
X100815520Y-49689849D01*
X100805030Y-49667671D01*
X100796765Y-49644571D01*
X100790804Y-49620773D01*
X100787204Y-49596504D01*
X100786000Y-49572000D01*
X100786000Y-48472000D01*
X100787204Y-48447496D01*
X100790804Y-48423227D01*
X100796765Y-48399429D01*
X100805030Y-48376329D01*
X100815520Y-48354151D01*
X100828133Y-48333107D01*
X100842747Y-48313402D01*
X100859223Y-48295223D01*
X100877402Y-48278747D01*
X100897107Y-48264133D01*
X100918151Y-48251520D01*
X100940329Y-48241030D01*
X100963429Y-48232765D01*
X100987227Y-48226804D01*
X101011496Y-48223204D01*
X101036000Y-48222000D01*
X103136000Y-48222000D01*
X103160504Y-48223204D01*
X103160504Y-48223204D01*
G37*
D12*
X102086000Y-49022000D03*
M02*
