G04 #@! TF.GenerationSoftware,KiCad,Pcbnew,5.1.4-e60b266~84~ubuntu18.04.1*
G04 #@! TF.CreationDate,2019-09-27T15:55:01+08:00*
G04 #@! TF.ProjectId,head,68656164-2e6b-4696-9361-645f70636258,rev?*
G04 #@! TF.SameCoordinates,Original*
G04 #@! TF.FileFunction,Legend,Bot*
G04 #@! TF.FilePolarity,Positive*
%FSLAX46Y46*%
G04 Gerber Fmt 4.6, Leading zero omitted, Abs format (unit mm)*
G04 Created by KiCad (PCBNEW 5.1.4-e60b266~84~ubuntu18.04.1) date 2019-09-27 15:55:01*
%MOMM*%
%LPD*%
G04 APERTURE LIST*
%ADD10C,0.300000*%
%ADD11C,0.120000*%
%ADD12C,0.200000*%
%ADD13C,0.150000*%
G04 APERTURE END LIST*
D10*
X102282571Y-33881142D02*
X102068285Y-33952571D01*
X101711142Y-33952571D01*
X101568285Y-33881142D01*
X101496857Y-33809714D01*
X101425428Y-33666857D01*
X101425428Y-33524000D01*
X101496857Y-33381142D01*
X101568285Y-33309714D01*
X101711142Y-33238285D01*
X101996857Y-33166857D01*
X102139714Y-33095428D01*
X102211142Y-33024000D01*
X102282571Y-32881142D01*
X102282571Y-32738285D01*
X102211142Y-32595428D01*
X102139714Y-32524000D01*
X101996857Y-32452571D01*
X101639714Y-32452571D01*
X101425428Y-32524000D01*
X105017142Y-32524000D02*
X105160000Y-32452571D01*
X105374285Y-32452571D01*
X105588571Y-32524000D01*
X105731428Y-32666857D01*
X105802857Y-32809714D01*
X105874285Y-33095428D01*
X105874285Y-33309714D01*
X105802857Y-33595428D01*
X105731428Y-33738285D01*
X105588571Y-33881142D01*
X105374285Y-33952571D01*
X105231428Y-33952571D01*
X105017142Y-33881142D01*
X104945714Y-33809714D01*
X104945714Y-33309714D01*
X105231428Y-33309714D01*
X109537428Y-33381142D02*
X108394571Y-33381142D01*
X108966000Y-33952571D02*
X108966000Y-32809714D01*
X100749571Y-41660428D02*
X100678142Y-41517571D01*
X100535285Y-41446142D01*
X99249571Y-41446142D01*
X100749571Y-42446142D02*
X100678142Y-42303285D01*
X100606714Y-42231857D01*
X100463857Y-42160428D01*
X100035285Y-42160428D01*
X99892428Y-42231857D01*
X99821000Y-42303285D01*
X99749571Y-42446142D01*
X99749571Y-42660428D01*
X99821000Y-42803285D01*
X99892428Y-42874714D01*
X100035285Y-42946142D01*
X100463857Y-42946142D01*
X100606714Y-42874714D01*
X100678142Y-42803285D01*
X100749571Y-42660428D01*
X100749571Y-42446142D01*
X99749571Y-44231857D02*
X100749571Y-44231857D01*
X99749571Y-43589000D02*
X100535285Y-43589000D01*
X100678142Y-43660428D01*
X100749571Y-43803285D01*
X100749571Y-44017571D01*
X100678142Y-44160428D01*
X100606714Y-44231857D01*
X100749571Y-44946142D02*
X99749571Y-44946142D01*
X99249571Y-44946142D02*
X99321000Y-44874714D01*
X99392428Y-44946142D01*
X99321000Y-45017571D01*
X99249571Y-44946142D01*
X99392428Y-44946142D01*
X100678142Y-45589000D02*
X100749571Y-45731857D01*
X100749571Y-46017571D01*
X100678142Y-46160428D01*
X100535285Y-46231857D01*
X100463857Y-46231857D01*
X100321000Y-46160428D01*
X100249571Y-46017571D01*
X100249571Y-45803285D01*
X100178142Y-45660428D01*
X100035285Y-45589000D01*
X99963857Y-45589000D01*
X99821000Y-45660428D01*
X99749571Y-45803285D01*
X99749571Y-46017571D01*
X99821000Y-46160428D01*
X100678142Y-47517571D02*
X100749571Y-47374714D01*
X100749571Y-47089000D01*
X100678142Y-46946142D01*
X100606714Y-46874714D01*
X100463857Y-46803285D01*
X100035285Y-46803285D01*
X99892428Y-46874714D01*
X99821000Y-46946142D01*
X99749571Y-47089000D01*
X99749571Y-47374714D01*
X99821000Y-47517571D01*
X100749571Y-48160428D02*
X99249571Y-48160428D01*
X100178142Y-48303285D02*
X100749571Y-48731857D01*
X99749571Y-48731857D02*
X100321000Y-48160428D01*
X100749571Y-49589000D02*
X100678142Y-49446142D01*
X100535285Y-49374714D01*
X99249571Y-49374714D01*
X100749571Y-50803285D02*
X99963857Y-50803285D01*
X99821000Y-50731857D01*
X99749571Y-50589000D01*
X99749571Y-50303285D01*
X99821000Y-50160428D01*
X100678142Y-50803285D02*
X100749571Y-50660428D01*
X100749571Y-50303285D01*
X100678142Y-50160428D01*
X100535285Y-50089000D01*
X100392428Y-50089000D01*
X100249571Y-50160428D01*
X100178142Y-50303285D01*
X100178142Y-50660428D01*
X100106714Y-50803285D01*
X99749571Y-51374714D02*
X100749571Y-51660428D01*
X100035285Y-51946142D01*
X100749571Y-52231857D01*
X99749571Y-52517571D01*
X100606714Y-53089000D02*
X100678142Y-53160428D01*
X100749571Y-53089000D01*
X100678142Y-53017571D01*
X100606714Y-53089000D01*
X100749571Y-53089000D01*
X99749571Y-54446142D02*
X100963857Y-54446142D01*
X101106714Y-54374714D01*
X101178142Y-54303285D01*
X101249571Y-54160428D01*
X101249571Y-53946142D01*
X101178142Y-53803285D01*
X100678142Y-54446142D02*
X100749571Y-54303285D01*
X100749571Y-54017571D01*
X100678142Y-53874714D01*
X100606714Y-53803285D01*
X100463857Y-53731857D01*
X100035285Y-53731857D01*
X99892428Y-53803285D01*
X99821000Y-53874714D01*
X99749571Y-54017571D01*
X99749571Y-54303285D01*
X99821000Y-54446142D01*
X100749571Y-55160428D02*
X99749571Y-55160428D01*
X99249571Y-55160428D02*
X99321000Y-55089000D01*
X99392428Y-55160428D01*
X99321000Y-55231857D01*
X99249571Y-55160428D01*
X99392428Y-55160428D01*
X99749571Y-55660428D02*
X99749571Y-56231857D01*
X99249571Y-55874714D02*
X100535285Y-55874714D01*
X100678142Y-55946142D01*
X100749571Y-56089000D01*
X100749571Y-56231857D01*
X100749571Y-56731857D02*
X99249571Y-56731857D01*
X100749571Y-57374714D02*
X99963857Y-57374714D01*
X99821000Y-57303285D01*
X99749571Y-57160428D01*
X99749571Y-56946142D01*
X99821000Y-56803285D01*
X99892428Y-56731857D01*
X99749571Y-58731857D02*
X100749571Y-58731857D01*
X99749571Y-58089000D02*
X100535285Y-58089000D01*
X100678142Y-58160428D01*
X100749571Y-58303285D01*
X100749571Y-58517571D01*
X100678142Y-58660428D01*
X100606714Y-58731857D01*
X100749571Y-59446142D02*
X99249571Y-59446142D01*
X99821000Y-59446142D02*
X99749571Y-59589000D01*
X99749571Y-59874714D01*
X99821000Y-60017571D01*
X99892428Y-60089000D01*
X100035285Y-60160428D01*
X100463857Y-60160428D01*
X100606714Y-60089000D01*
X100678142Y-60017571D01*
X100749571Y-59874714D01*
X100749571Y-59589000D01*
X100678142Y-59446142D01*
X100606714Y-60803285D02*
X100678142Y-60874714D01*
X100749571Y-60803285D01*
X100678142Y-60731857D01*
X100606714Y-60803285D01*
X100749571Y-60803285D01*
X100749571Y-61517571D02*
X99749571Y-61517571D01*
X99249571Y-61517571D02*
X99321000Y-61446142D01*
X99392428Y-61517571D01*
X99321000Y-61589000D01*
X99249571Y-61517571D01*
X99392428Y-61517571D01*
X100749571Y-62446142D02*
X100678142Y-62303285D01*
X100606714Y-62231857D01*
X100463857Y-62160428D01*
X100035285Y-62160428D01*
X99892428Y-62231857D01*
X99821000Y-62303285D01*
X99749571Y-62446142D01*
X99749571Y-62660428D01*
X99821000Y-62803285D01*
X99892428Y-62874714D01*
X100035285Y-62946142D01*
X100463857Y-62946142D01*
X100606714Y-62874714D01*
X100678142Y-62803285D01*
X100749571Y-62660428D01*
X100749571Y-62446142D01*
X101942428Y-41374714D02*
X101871000Y-41446142D01*
X101799571Y-41589000D01*
X101799571Y-41946142D01*
X101871000Y-42089000D01*
X101942428Y-42160428D01*
X102085285Y-42231857D01*
X102228142Y-42231857D01*
X102442428Y-42160428D01*
X103299571Y-41303285D01*
X103299571Y-42231857D01*
X101799571Y-43160428D02*
X101799571Y-43303285D01*
X101871000Y-43446142D01*
X101942428Y-43517571D01*
X102085285Y-43589000D01*
X102371000Y-43660428D01*
X102728142Y-43660428D01*
X103013857Y-43589000D01*
X103156714Y-43517571D01*
X103228142Y-43446142D01*
X103299571Y-43303285D01*
X103299571Y-43160428D01*
X103228142Y-43017571D01*
X103156714Y-42946142D01*
X103013857Y-42874714D01*
X102728142Y-42803285D01*
X102371000Y-42803285D01*
X102085285Y-42874714D01*
X101942428Y-42946142D01*
X101871000Y-43017571D01*
X101799571Y-43160428D01*
X103299571Y-45089000D02*
X103299571Y-44231857D01*
X103299571Y-44660428D02*
X101799571Y-44660428D01*
X102013857Y-44517571D01*
X102156714Y-44374714D01*
X102228142Y-44231857D01*
X103299571Y-45803285D02*
X103299571Y-46089000D01*
X103228142Y-46231857D01*
X103156714Y-46303285D01*
X102942428Y-46446142D01*
X102656714Y-46517571D01*
X102085285Y-46517571D01*
X101942428Y-46446142D01*
X101871000Y-46374714D01*
X101799571Y-46231857D01*
X101799571Y-45946142D01*
X101871000Y-45803285D01*
X101942428Y-45731857D01*
X102085285Y-45660428D01*
X102442428Y-45660428D01*
X102585285Y-45731857D01*
X102656714Y-45803285D01*
X102728142Y-45946142D01*
X102728142Y-46231857D01*
X102656714Y-46374714D01*
X102585285Y-46446142D01*
X102442428Y-46517571D01*
X102728142Y-47160428D02*
X102728142Y-48303285D01*
X103228142Y-48946142D02*
X103299571Y-49160428D01*
X103299571Y-49517571D01*
X103228142Y-49660428D01*
X103156714Y-49731857D01*
X103013857Y-49803285D01*
X102871000Y-49803285D01*
X102728142Y-49731857D01*
X102656714Y-49660428D01*
X102585285Y-49517571D01*
X102513857Y-49231857D01*
X102442428Y-49089000D01*
X102371000Y-49017571D01*
X102228142Y-48946142D01*
X102085285Y-48946142D01*
X101942428Y-49017571D01*
X101871000Y-49089000D01*
X101799571Y-49231857D01*
X101799571Y-49589000D01*
X101871000Y-49803285D01*
X102513857Y-50446142D02*
X102513857Y-50946142D01*
X103299571Y-51160428D02*
X103299571Y-50446142D01*
X101799571Y-50446142D01*
X101799571Y-51160428D01*
X103299571Y-51803285D02*
X101799571Y-51803285D01*
X101799571Y-52374714D01*
X101871000Y-52517571D01*
X101942428Y-52589000D01*
X102085285Y-52660428D01*
X102299571Y-52660428D01*
X102442428Y-52589000D01*
X102513857Y-52517571D01*
X102585285Y-52374714D01*
X102585285Y-51803285D01*
X102728142Y-53303285D02*
X102728142Y-54446142D01*
X101942428Y-55089000D02*
X101871000Y-55160428D01*
X101799571Y-55303285D01*
X101799571Y-55660428D01*
X101871000Y-55803285D01*
X101942428Y-55874714D01*
X102085285Y-55946142D01*
X102228142Y-55946142D01*
X102442428Y-55874714D01*
X103299571Y-55017571D01*
X103299571Y-55946142D01*
X101799571Y-57231857D02*
X101799571Y-56946142D01*
X101871000Y-56803285D01*
X101942428Y-56731857D01*
X102156714Y-56589000D01*
X102442428Y-56517571D01*
X103013857Y-56517571D01*
X103156714Y-56589000D01*
X103228142Y-56660428D01*
X103299571Y-56803285D01*
X103299571Y-57089000D01*
X103228142Y-57231857D01*
X103156714Y-57303285D01*
X103013857Y-57374714D01*
X102656714Y-57374714D01*
X102513857Y-57303285D01*
X102442428Y-57231857D01*
X102371000Y-57089000D01*
X102371000Y-56803285D01*
X102442428Y-56660428D01*
X102513857Y-56589000D01*
X102656714Y-56517571D01*
X102728142Y-58017571D02*
X102728142Y-59160428D01*
X102299571Y-59874714D02*
X103799571Y-59874714D01*
X102371000Y-59874714D02*
X102299571Y-60017571D01*
X102299571Y-60303285D01*
X102371000Y-60446142D01*
X102442428Y-60517571D01*
X102585285Y-60589000D01*
X103013857Y-60589000D01*
X103156714Y-60517571D01*
X103228142Y-60446142D01*
X103299571Y-60303285D01*
X103299571Y-60017571D01*
X103228142Y-59874714D01*
X103299571Y-61231857D02*
X102299571Y-61231857D01*
X102585285Y-61231857D02*
X102442428Y-61303285D01*
X102371000Y-61374714D01*
X102299571Y-61517571D01*
X102299571Y-61660428D01*
X103299571Y-62160428D02*
X102299571Y-62160428D01*
X101799571Y-62160428D02*
X101871000Y-62089000D01*
X101942428Y-62160428D01*
X101871000Y-62231857D01*
X101799571Y-62160428D01*
X101942428Y-62160428D01*
X102299571Y-62874714D02*
X103299571Y-62874714D01*
X102442428Y-62874714D02*
X102371000Y-62946142D01*
X102299571Y-63089000D01*
X102299571Y-63303285D01*
X102371000Y-63446142D01*
X102513857Y-63517571D01*
X103299571Y-63517571D01*
X102299571Y-64017571D02*
X102299571Y-64589000D01*
X101799571Y-64231857D02*
X103085285Y-64231857D01*
X103228142Y-64303285D01*
X103299571Y-64446142D01*
X103299571Y-64589000D01*
X103299571Y-65874714D02*
X103299571Y-65017571D01*
X103299571Y-65446142D02*
X101799571Y-65446142D01*
X102013857Y-65303285D01*
X102156714Y-65160428D01*
X102228142Y-65017571D01*
X106361571Y-41514571D02*
X107861571Y-42014571D01*
X106361571Y-42514571D01*
X106361571Y-43300285D02*
X106361571Y-43586000D01*
X106433000Y-43728857D01*
X106575857Y-43871714D01*
X106861571Y-43943142D01*
X107361571Y-43943142D01*
X107647285Y-43871714D01*
X107790142Y-43728857D01*
X107861571Y-43586000D01*
X107861571Y-43300285D01*
X107790142Y-43157428D01*
X107647285Y-43014571D01*
X107361571Y-42943142D01*
X106861571Y-42943142D01*
X106575857Y-43014571D01*
X106433000Y-43157428D01*
X106361571Y-43300285D01*
X107861571Y-45443142D02*
X107147285Y-44943142D01*
X107861571Y-44586000D02*
X106361571Y-44586000D01*
X106361571Y-45157428D01*
X106433000Y-45300285D01*
X106504428Y-45371714D01*
X106647285Y-45443142D01*
X106861571Y-45443142D01*
X107004428Y-45371714D01*
X107075857Y-45300285D01*
X107147285Y-45157428D01*
X107147285Y-44586000D01*
X106361571Y-46371714D02*
X106361571Y-46657428D01*
X106433000Y-46800285D01*
X106575857Y-46943142D01*
X106861571Y-47014571D01*
X107361571Y-47014571D01*
X107647285Y-46943142D01*
X107790142Y-46800285D01*
X107861571Y-46657428D01*
X107861571Y-46371714D01*
X107790142Y-46228857D01*
X107647285Y-46086000D01*
X107361571Y-46014571D01*
X106861571Y-46014571D01*
X106575857Y-46086000D01*
X106433000Y-46228857D01*
X106361571Y-46371714D01*
X107861571Y-47657428D02*
X106361571Y-47657428D01*
X107861571Y-48514571D01*
X106361571Y-48514571D01*
X107290142Y-49228857D02*
X107290142Y-50371714D01*
X106361571Y-50943142D02*
X106361571Y-51871714D01*
X106933000Y-51371714D01*
X106933000Y-51586000D01*
X107004428Y-51728857D01*
X107075857Y-51800285D01*
X107218714Y-51871714D01*
X107575857Y-51871714D01*
X107718714Y-51800285D01*
X107790142Y-51728857D01*
X107861571Y-51586000D01*
X107861571Y-51157428D01*
X107790142Y-51014571D01*
X107718714Y-50943142D01*
X107861571Y-52514571D02*
X106361571Y-52514571D01*
X106361571Y-52871714D01*
X106433000Y-53086000D01*
X106575857Y-53228857D01*
X106718714Y-53300285D01*
X107004428Y-53371714D01*
X107218714Y-53371714D01*
X107504428Y-53300285D01*
X107647285Y-53228857D01*
X107790142Y-53086000D01*
X107861571Y-52871714D01*
X107861571Y-52514571D01*
X107290142Y-54014571D02*
X107290142Y-55157428D01*
X107861571Y-55871714D02*
X106361571Y-55871714D01*
X106361571Y-56443142D01*
X106433000Y-56586000D01*
X106504428Y-56657428D01*
X106647285Y-56728857D01*
X106861571Y-56728857D01*
X107004428Y-56657428D01*
X107075857Y-56586000D01*
X107147285Y-56443142D01*
X107147285Y-55871714D01*
X107861571Y-58228857D02*
X107147285Y-57728857D01*
X107861571Y-57371714D02*
X106361571Y-57371714D01*
X106361571Y-57943142D01*
X106433000Y-58086000D01*
X106504428Y-58157428D01*
X106647285Y-58228857D01*
X106861571Y-58228857D01*
X107004428Y-58157428D01*
X107075857Y-58086000D01*
X107147285Y-57943142D01*
X107147285Y-57371714D01*
X107861571Y-58871714D02*
X106361571Y-58871714D01*
X107861571Y-59586000D02*
X106361571Y-59586000D01*
X107861571Y-60443142D01*
X106361571Y-60443142D01*
X106361571Y-60943142D02*
X106361571Y-61800285D01*
X107861571Y-61371714D02*
X106361571Y-61371714D01*
X107075857Y-62300285D02*
X107075857Y-62800285D01*
X107861571Y-63014571D02*
X107861571Y-62300285D01*
X106361571Y-62300285D01*
X106361571Y-63014571D01*
X107861571Y-64514571D02*
X107147285Y-64014571D01*
X107861571Y-63657428D02*
X106361571Y-63657428D01*
X106361571Y-64228857D01*
X106433000Y-64371714D01*
X106504428Y-64443142D01*
X106647285Y-64514571D01*
X106861571Y-64514571D01*
X107004428Y-64443142D01*
X107075857Y-64371714D01*
X107147285Y-64228857D01*
X107147285Y-63657428D01*
X110411571Y-43264571D02*
X108911571Y-43264571D01*
X109625857Y-43264571D02*
X109625857Y-44121714D01*
X110411571Y-44121714D02*
X108911571Y-44121714D01*
X108911571Y-45121714D02*
X108911571Y-45407428D01*
X108983000Y-45550285D01*
X109125857Y-45693142D01*
X109411571Y-45764571D01*
X109911571Y-45764571D01*
X110197285Y-45693142D01*
X110340142Y-45550285D01*
X110411571Y-45407428D01*
X110411571Y-45121714D01*
X110340142Y-44978857D01*
X110197285Y-44836000D01*
X109911571Y-44764571D01*
X109411571Y-44764571D01*
X109125857Y-44836000D01*
X108983000Y-44978857D01*
X108911571Y-45121714D01*
X108911571Y-46193142D02*
X108911571Y-47050285D01*
X110411571Y-46621714D02*
X108911571Y-46621714D01*
X109625857Y-47550285D02*
X109625857Y-48050285D01*
X110411571Y-48264571D02*
X110411571Y-47550285D01*
X108911571Y-47550285D01*
X108911571Y-48264571D01*
X110411571Y-48907428D02*
X108911571Y-48907428D01*
X110411571Y-49764571D01*
X108911571Y-49764571D01*
X110411571Y-50478857D02*
X108911571Y-50478857D01*
X108911571Y-50836000D01*
X108983000Y-51050285D01*
X109125857Y-51193142D01*
X109268714Y-51264571D01*
X109554428Y-51336000D01*
X109768714Y-51336000D01*
X110054428Y-51264571D01*
X110197285Y-51193142D01*
X110340142Y-51050285D01*
X110411571Y-50836000D01*
X110411571Y-50478857D01*
X108911571Y-52907428D02*
X108911571Y-53764571D01*
X110411571Y-53336000D02*
X108911571Y-53336000D01*
X109625857Y-54264571D02*
X109625857Y-54764571D01*
X110411571Y-54978857D02*
X110411571Y-54264571D01*
X108911571Y-54264571D01*
X108911571Y-54978857D01*
X110411571Y-56478857D02*
X109697285Y-55978857D01*
X110411571Y-55621714D02*
X108911571Y-55621714D01*
X108911571Y-56193142D01*
X108983000Y-56336000D01*
X109054428Y-56407428D01*
X109197285Y-56478857D01*
X109411571Y-56478857D01*
X109554428Y-56407428D01*
X109625857Y-56336000D01*
X109697285Y-56193142D01*
X109697285Y-55621714D01*
X110411571Y-57121714D02*
X108911571Y-57121714D01*
X109983000Y-57621714D01*
X108911571Y-58121714D01*
X110411571Y-58121714D01*
X110411571Y-58836000D02*
X108911571Y-58836000D01*
X110411571Y-59550285D02*
X108911571Y-59550285D01*
X110411571Y-60407428D01*
X108911571Y-60407428D01*
X109983000Y-61050285D02*
X109983000Y-61764571D01*
X110411571Y-60907428D02*
X108911571Y-61407428D01*
X110411571Y-61907428D01*
X110411571Y-63121714D02*
X110411571Y-62407428D01*
X108911571Y-62407428D01*
D11*
X102741000Y-71291267D02*
X102741000Y-70948733D01*
X103761000Y-71291267D02*
X103761000Y-70948733D01*
X110361000Y-71291267D02*
X110361000Y-70948733D01*
X111381000Y-71291267D02*
X111381000Y-70948733D01*
X107821000Y-71291267D02*
X107821000Y-70948733D01*
X108841000Y-71291267D02*
X108841000Y-70948733D01*
X105281000Y-71291267D02*
X105281000Y-70948733D01*
X106301000Y-71291267D02*
X106301000Y-70948733D01*
D12*
X91400380Y-65754476D02*
X91400380Y-66325904D01*
X92400380Y-66040190D02*
X91400380Y-66040190D01*
X91876571Y-66659238D02*
X91876571Y-66992571D01*
X92400380Y-67135428D02*
X92400380Y-66659238D01*
X91400380Y-66659238D01*
X91400380Y-67135428D01*
X92400380Y-67564000D02*
X91400380Y-67564000D01*
X92114666Y-67897333D01*
X91400380Y-68230666D01*
X92400380Y-68230666D01*
X92400380Y-68706857D02*
X91400380Y-68706857D01*
X91400380Y-69087809D01*
X91448000Y-69183047D01*
X91495619Y-69230666D01*
X91590857Y-69278285D01*
X91733714Y-69278285D01*
X91828952Y-69230666D01*
X91876571Y-69183047D01*
X91924190Y-69087809D01*
X91924190Y-68706857D01*
X92400380Y-55920000D02*
X91400380Y-55920000D01*
X91876571Y-55920000D02*
X91876571Y-56491428D01*
X92400380Y-56491428D02*
X91400380Y-56491428D01*
X91876571Y-56967619D02*
X91876571Y-57300952D01*
X92400380Y-57443809D02*
X92400380Y-56967619D01*
X91400380Y-56967619D01*
X91400380Y-57443809D01*
X92114666Y-57824761D02*
X92114666Y-58300952D01*
X92400380Y-57729523D02*
X91400380Y-58062857D01*
X92400380Y-58396190D01*
X91400380Y-58586666D02*
X91400380Y-59158095D01*
X92400380Y-58872380D02*
X91400380Y-58872380D01*
X91876571Y-59491428D02*
X91876571Y-59824761D01*
X92400380Y-59967619D02*
X92400380Y-59491428D01*
X91400380Y-59491428D01*
X91400380Y-59967619D01*
X92400380Y-60967619D02*
X91924190Y-60634285D01*
X92400380Y-60396190D02*
X91400380Y-60396190D01*
X91400380Y-60777142D01*
X91448000Y-60872380D01*
X91495619Y-60920000D01*
X91590857Y-60967619D01*
X91733714Y-60967619D01*
X91828952Y-60920000D01*
X91876571Y-60872380D01*
X91924190Y-60777142D01*
X91924190Y-60396190D01*
X91876571Y-48466476D02*
X91876571Y-48133142D01*
X92400380Y-48133142D02*
X91400380Y-48133142D01*
X91400380Y-48609333D01*
X92114666Y-48942666D02*
X92114666Y-49418857D01*
X92400380Y-48847428D02*
X91400380Y-49180761D01*
X92400380Y-49514095D01*
X92400380Y-49847428D02*
X91400380Y-49847428D01*
X92400380Y-50418857D01*
X91400380Y-50418857D01*
X92305142Y-37227238D02*
X92352761Y-37179619D01*
X92400380Y-37036761D01*
X92400380Y-36941523D01*
X92352761Y-36798666D01*
X92257523Y-36703428D01*
X92162285Y-36655809D01*
X91971809Y-36608190D01*
X91828952Y-36608190D01*
X91638476Y-36655809D01*
X91543238Y-36703428D01*
X91448000Y-36798666D01*
X91400380Y-36941523D01*
X91400380Y-37036761D01*
X91448000Y-37179619D01*
X91495619Y-37227238D01*
X91400380Y-37846285D02*
X91400380Y-38036761D01*
X91448000Y-38132000D01*
X91543238Y-38227238D01*
X91733714Y-38274857D01*
X92067047Y-38274857D01*
X92257523Y-38227238D01*
X92352761Y-38132000D01*
X92400380Y-38036761D01*
X92400380Y-37846285D01*
X92352761Y-37751047D01*
X92257523Y-37655809D01*
X92067047Y-37608190D01*
X91733714Y-37608190D01*
X91543238Y-37655809D01*
X91448000Y-37751047D01*
X91400380Y-37846285D01*
X91400380Y-38893904D02*
X91400380Y-39084380D01*
X91448000Y-39179619D01*
X91543238Y-39274857D01*
X91733714Y-39322476D01*
X92067047Y-39322476D01*
X92257523Y-39274857D01*
X92352761Y-39179619D01*
X92400380Y-39084380D01*
X92400380Y-38893904D01*
X92352761Y-38798666D01*
X92257523Y-38703428D01*
X92067047Y-38655809D01*
X91733714Y-38655809D01*
X91543238Y-38703428D01*
X91448000Y-38798666D01*
X91400380Y-38893904D01*
X92400380Y-40227238D02*
X92400380Y-39751047D01*
X91400380Y-39751047D01*
X92495619Y-40322476D02*
X92495619Y-41084380D01*
X91876571Y-41655809D02*
X91876571Y-41322476D01*
X92400380Y-41322476D02*
X91400380Y-41322476D01*
X91400380Y-41798666D01*
X92114666Y-42132000D02*
X92114666Y-42608190D01*
X92400380Y-42036761D02*
X91400380Y-42370095D01*
X92400380Y-42703428D01*
X92400380Y-43036761D02*
X91400380Y-43036761D01*
X92400380Y-43608190D01*
X91400380Y-43608190D01*
D13*
X103576380Y-68159333D02*
X103100190Y-67826000D01*
X103576380Y-67587904D02*
X102576380Y-67587904D01*
X102576380Y-67968857D01*
X102624000Y-68064095D01*
X102671619Y-68111714D01*
X102766857Y-68159333D01*
X102909714Y-68159333D01*
X103004952Y-68111714D01*
X103052571Y-68064095D01*
X103100190Y-67968857D01*
X103100190Y-67587904D01*
X102909714Y-69016476D02*
X103576380Y-69016476D01*
X102528761Y-68778380D02*
X103243047Y-68540285D01*
X103243047Y-69159333D01*
X110688380Y-67905333D02*
X110212190Y-67572000D01*
X110688380Y-67333904D02*
X109688380Y-67333904D01*
X109688380Y-67714857D01*
X109736000Y-67810095D01*
X109783619Y-67857714D01*
X109878857Y-67905333D01*
X110021714Y-67905333D01*
X110116952Y-67857714D01*
X110164571Y-67810095D01*
X110212190Y-67714857D01*
X110212190Y-67333904D01*
X109688380Y-68238666D02*
X109688380Y-68857714D01*
X110069333Y-68524380D01*
X110069333Y-68667238D01*
X110116952Y-68762476D01*
X110164571Y-68810095D01*
X110259809Y-68857714D01*
X110497904Y-68857714D01*
X110593142Y-68810095D01*
X110640761Y-68762476D01*
X110688380Y-68667238D01*
X110688380Y-68381523D01*
X110640761Y-68286285D01*
X110593142Y-68238666D01*
X108910380Y-67905333D02*
X108434190Y-67572000D01*
X108910380Y-67333904D02*
X107910380Y-67333904D01*
X107910380Y-67714857D01*
X107958000Y-67810095D01*
X108005619Y-67857714D01*
X108100857Y-67905333D01*
X108243714Y-67905333D01*
X108338952Y-67857714D01*
X108386571Y-67810095D01*
X108434190Y-67714857D01*
X108434190Y-67333904D01*
X108005619Y-68286285D02*
X107958000Y-68333904D01*
X107910380Y-68429142D01*
X107910380Y-68667238D01*
X107958000Y-68762476D01*
X108005619Y-68810095D01*
X108100857Y-68857714D01*
X108196095Y-68857714D01*
X108338952Y-68810095D01*
X108910380Y-68238666D01*
X108910380Y-68857714D01*
X107386380Y-67905333D02*
X106910190Y-67572000D01*
X107386380Y-67333904D02*
X106386380Y-67333904D01*
X106386380Y-67714857D01*
X106434000Y-67810095D01*
X106481619Y-67857714D01*
X106576857Y-67905333D01*
X106719714Y-67905333D01*
X106814952Y-67857714D01*
X106862571Y-67810095D01*
X106910190Y-67714857D01*
X106910190Y-67333904D01*
X107386380Y-68857714D02*
X107386380Y-68286285D01*
X107386380Y-68572000D02*
X106386380Y-68572000D01*
X106529238Y-68476761D01*
X106624476Y-68381523D01*
X106672095Y-68286285D01*
M02*
